<svg width="68" height="37" viewBox="0 0 68 37" fill="none" xmlns="http://www.w3.org/2000/svg">
<path d="M68 6.09937L61.5981 30.6693H54.3613L50.4392 14.5002L46.3779 30.6693H39.1284L32.9037 6.09937H39.3055L42.8481 23.9891L47.213 6.09937H53.7919L57.9923 23.9891L61.5728 6.09937H68Z" fill="#F9FBF2"/>
<circle cx="16.5" cy="16.5" r="11.5" fill="white"/>
<mask id="mask0_210_1894" style="mask-type:luminance" maskUnits="userSpaceOnUse" x="0" y="0" width="33" height="38">
<path d="M0 0H32.101V37.0036H0V0Z" fill="white"/>
</mask>
<g mask="url(#mask0_210_1894)">
<path d="M17.254 36.6525C19.8729 35.3114 22.2736 33.6571 24.4592 31.6866C24.9558 31.2438 25.4303 30.7725 25.8826 30.2696L26.4677 29.6054C26.7682 29.2796 27.0339 28.938 27.3217 28.5743C27.6064 28.2073 27.9859 27.7424 28.2516 27.3091C28.8779 26.4076 29.4283 25.4651 29.9027 24.475C30.1621 23.9342 30.4025 23.3838 30.6207 22.824C31.1774 21.3532 31.5474 19.8381 31.7341 18.2788C31.7847 17.8455 31.8258 17.4153 31.8511 16.982C31.9333 15.8686 31.8922 14.7584 31.7341 13.6545C31.5032 12.0414 31.035 10.5011 30.3329 9.03344C29.6307 7.56582 28.7229 6.23421 27.6127 5.04493C26.3349 3.66904 24.8546 2.55884 23.1814 1.708C21.505 0.857165 19.7369 0.322623 17.8708 0.101215C17.5735 0.0854003 17.2761 0.0506075 16.9788 0H14.8786C14.8786 0.0537711 14.8027 0.0347931 14.7647 0.0411186C14.2207 0.0854005 13.683 0.154986 13.1485 0.253037C12.285 0.414349 11.4405 0.642082 10.6149 0.942565C9.79255 1.23988 8.99864 1.60362 8.23321 2.03379C7.46777 2.46395 6.74345 2.95421 6.06025 3.50457C5.37705 4.05176 4.74129 4.65589 4.15614 5.30746C3.57099 5.96219 3.04594 6.66121 2.57466 7.40135C2.10337 8.14148 1.69851 8.91641 1.35691 9.72296C1.01531 10.5295 0.740134 11.3614 0.534542 12.2154C0.328949 13.0662 0.196105 13.9297 0.132845 14.8059C-0.0474443 17.2002 0.290993 19.5218 1.14183 21.7675C1.28417 22.1376 1.44864 22.5014 1.62893 22.8588L1.76177 23.1308C2.60945 24.8135 3.71649 26.3032 5.08922 27.5937C6.53153 28.9665 8.17627 30.0261 10.0171 30.7757C11.8611 31.5253 13.7779 31.9143 15.7706 31.9397C15.954 31.9397 16.0078 31.9871 16.0015 32.18V35.9345C16.0078 36.08 16.0489 36.216 16.1248 36.3393C16.2007 36.4659 16.3019 36.5639 16.4285 36.6367C16.555 36.7126 16.6941 36.7474 16.8396 36.7505C16.9851 36.7537 17.1243 36.7189 17.254 36.6525ZM17.4786 11.665C17.4469 11.4879 17.4659 11.3171 17.5418 11.1526C17.6146 10.9882 17.7316 10.8585 17.8866 10.7667C18.0131 10.6877 18.1523 10.6497 18.3041 10.6529H24.2062C24.7312 10.6529 25.0317 11.1178 25.0317 11.7251V18.6995C25.0317 19.1961 24.959 19.68 24.8135 20.1544C24.6712 20.6289 24.4624 21.0749 24.1872 21.4892C23.9152 21.9036 23.5863 22.2673 23.2067 22.5868C22.824 22.9031 22.4065 23.1624 21.951 23.3554L21.8182 23.4218H21.7043C21.3216 23.5356 20.9325 23.621 20.5403 23.6811C20.4771 23.7001 20.4138 23.7033 20.3474 23.6938C20.2841 23.6811 20.224 23.659 20.1702 23.621C20.1165 23.5799 20.0754 23.5325 20.0437 23.4755C20.0153 23.4186 19.9963 23.3554 19.9931 23.2889C19.9931 23.077 19.9931 22.8651 19.9931 22.6247V21.4797C19.9931 21.3943 19.9931 21.3121 19.9931 21.2267C19.9931 20.9357 20.107 20.8092 20.4739 20.7269C20.9452 20.6447 21.3627 20.4486 21.7233 20.1355C22.1503 19.7211 22.4001 19.2214 22.4697 18.633H18.3294C18.2155 18.6362 18.1017 18.6172 17.9941 18.5729C17.8866 18.5287 17.7917 18.4654 17.7095 18.3832C17.6304 18.3009 17.5671 18.206 17.526 18.0985C17.4849 17.9878 17.4659 17.8771 17.4722 17.7601C17.4722 15.7421 17.4722 13.7241 17.4722 11.7061C17.4722 11.7061 17.4786 11.6777 17.4786 11.665ZM14.5307 18.6837C14.5338 19.3985 14.3883 20.0785 14.1005 20.7301C13.8095 21.3817 13.3983 21.9447 12.867 22.4191L12.7025 22.5773C12.149 23.0201 11.5322 23.3395 10.8521 23.5356C10.5612 23.6084 10.2638 23.6653 9.96651 23.7033C9.86213 23.7191 9.76725 23.697 9.67868 23.64C9.58696 23.5831 9.53002 23.504 9.50156 23.4028C9.50156 22.7607 9.50156 22.1186 9.50156 21.4797C9.50156 21.2931 9.43513 21.0875 9.58696 20.9199C9.65971 20.8376 9.75143 20.7807 9.85897 20.7554C10.2037 20.6921 10.5295 20.5814 10.8395 20.4233C11.4057 20.0912 11.7599 19.6072 11.9022 18.9652L12.0098 18.633H7.93589C7.81886 18.6362 7.70499 18.6267 7.59112 18.5983C7.41716 18.5508 7.27483 18.4591 7.16096 18.3167C7.05026 18.1744 6.99016 18.0131 6.987 17.8328C6.987 15.7895 6.987 13.7431 6.987 11.6967C6.91425 11.3582 7.00597 11.0704 7.25901 10.8332C7.40135 10.7035 7.56898 10.6371 7.76509 10.6339H13.7051C14.2334 10.6339 14.5244 10.7984 14.5244 11.7061C14.5307 11.8706 14.5433 16.4569 14.5307 18.6837Z" fill="#299AD1"/>
</g>
</svg>
