<svg width="368" height="261" viewBox="0 0 368 261" fill="none" xmlns="http://www.w3.org/2000/svg">
<path d="M334.421 85.3932H355.977V76.2845H334.421V85.3932Z" fill="#D3D4CF"/>
<path d="M346.444 73.9072H368V64.7985H346.444V73.9072Z" fill="#D3D4CF"/>
<path d="M322.397 73.9072H343.952V64.7985H322.397V73.9072Z" fill="#D3D4CF"/>
<path d="M12.0226 202.872H33.5781V193.763H12.0226V202.872Z" fill="#D3D4CF"/>
<path d="M0.0001297 191.387H21.5557V182.278H0.0001297V191.387Z" fill="#D3D4CF"/>
<path d="M346.444 202.862H368V193.753H346.444V202.862Z" fill="#D3D4CF"/>
<path d="M93.5702 0.439606H72.0146V9.54827H93.5702V0.439606Z" fill="#D3D4CF"/>
<path d="M81.5459 11.9243H59.9912V21.033H81.5459V11.9243Z" fill="#D3D4CF"/>
<path d="M27.6699 233.861L66.7517 233.664L105.834 233.592L183.999 233.455L262.163 233.591L301.246 233.662L340.327 233.861L301.246 234.061L262.163 234.132L183.999 234.268L105.834 234.131L66.7517 234.059L27.6699 233.861Z" fill="#2B2D42"/>
<path d="M121.648 118.158C121.648 118.149 121.648 118.149 121.639 118.149C121.43 117.913 121.203 117.686 120.968 117.478C120.968 117.469 120.968 117.469 120.959 117.469C120.751 117.233 120.524 117.007 120.287 116.798C120.287 116.789 120.287 116.789 120.279 116.789C120.07 116.553 119.843 116.327 119.608 116.119C119.608 116.11 119.608 116.11 119.599 116.11C119.39 115.874 119.163 115.647 118.928 115.439C118.928 115.43 118.928 115.43 118.919 115.43C118.711 115.194 118.484 114.968 118.248 114.759C118.248 114.75 118.248 114.75 118.239 114.75C118.03 114.514 117.803 114.288 117.568 114.08C117.568 114.071 117.568 114.071 117.559 114.071C117.351 113.835 117.123 113.608 116.888 113.4C116.888 113.391 116.888 113.391 116.879 113.391C116.671 113.155 116.444 112.929 116.209 112.72C116.209 112.711 116.209 112.711 116.2 112.711C115.991 112.475 115.764 112.249 115.528 112.041C115.528 112.032 115.528 112.032 115.519 112.032C114.83 111.279 114.032 110.635 113.134 110.118V42.9369C113.134 42.5836 112.962 42.4021 112.962 42.048C112.962 41.5132 112.962 41.3317 112.78 40.9776C112.78 40.796 112.607 40.4428 112.607 40.2613C112.426 39.7265 112.426 39.5449 112.244 39.1908C112.063 39.0093 111.89 38.656 111.89 38.4745C111.527 37.9397 111.355 37.7582 111.174 37.5856C110.992 37.4041 110.821 37.0508 110.639 36.8693L109.923 36.153C109.923 36.0439 109.787 35.9357 109.633 35.8632C109.543 35.7729 109.425 35.6548 109.279 35.5091L109.243 35.4733C109.243 35.3642 109.107 35.256 108.953 35.1827C108.862 35.0924 108.744 34.9743 108.598 34.8294L108.563 34.7928C108.563 34.6837 108.427 34.5755 108.273 34.5022C108.183 34.4118 108.064 34.2938 107.919 34.1489L107.882 34.1123C107.882 34.0032 107.746 33.8949 107.592 33.8217C107.502 33.7313 107.384 33.6133 107.238 33.4684L107.202 33.4318C107.202 33.3227 107.066 33.2145 106.912 33.142C106.822 33.0517 106.703 32.9336 106.558 32.7879L106.522 32.7513C106.522 32.6422 106.386 32.5339 106.231 32.4607C106.141 32.3703 106.023 32.2523 105.877 32.1074L105.841 32.0708C105.841 31.9617 105.705 31.8534 105.551 31.7802C105.46 31.6898 105.342 31.5718 105.197 31.4269L105.16 31.3903C105.16 31.2812 105.024 31.1729 104.87 31.1005C104.78 31.0101 104.662 30.8921 104.516 30.7464L104.48 30.7098C104.48 30.6007 104.344 30.4924 104.19 30.42C104.099 30.3296 103.981 30.2116 103.836 30.0659L103.8 30.0293C103.8 29.9202 103.664 29.8119 103.51 29.7387L103.12 29.3488C103.12 29.1762 102.767 28.9947 102.585 28.9947C102.585 28.8132 102.413 28.8131 102.413 28.8131C102.05 28.6406 101.869 28.4591 101.515 28.2784C101.334 28.0968 100.98 27.9251 100.626 27.562C100.445 27.562 100.091 27.3895 99.9098 27.3895C99.5557 27.2079 99.012 27.2079 98.8394 27.0264C98.4861 27.0264 98.3046 27.0264 97.9416 26.8539H96.8712C96.6986 26.8539 96.6986 26.8539 96.5171 26.8539C96.3356 26.8539 96.1638 26.8539 96.1638 26.8539H94.9127C94.7312 27.0264 94.3779 27.0264 94.1964 27.0264C93.6616 27.2079 93.3075 27.2079 93.126 27.3895C92.7727 27.3895 92.5912 27.562 92.4096 27.9243C91.8748 27.9243 91.7023 28.0968 91.3392 28.2775C91.1667 28.4591 90.8044 28.6406 90.6229 28.8123C90.4503 28.9939 90.2696 29.1754 89.734 29.3471C89.5615 29.7102 89.3799 29.8819 89.1992 30.0635C89.0177 30.245 89.0177 30.4175 88.8451 30.4175L22.8069 112.526C19.6055 116.562 19.905 122.193 23.6958 125.657C23.9042 125.902 24.1313 126.128 24.3763 126.338C24.5847 126.583 24.8118 126.809 25.0568 127.017C25.2652 127.262 25.4923 127.489 25.7365 127.698C25.9449 127.943 26.172 128.169 26.417 128.378C26.6254 128.623 26.8525 128.85 27.0975 129.059C27.3059 129.304 27.533 129.53 27.778 129.739C27.9864 129.984 28.2135 130.21 28.4577 130.419C28.6661 130.664 28.8932 130.89 29.1382 131.1C29.3466 131.345 29.5737 131.571 29.8187 131.78C30.2266 132.242 30.6987 132.678 31.2156 133.068C33.0023 134.673 35.1423 135.208 37.2823 135.208H86.7067V141.973C86.7067 144.929 87.922 147.523 89.8993 149.301L89.9261 149.328C90.1345 149.555 90.3527 149.773 90.5789 149.981C90.5879 149.99 90.5969 149.99 90.5969 149.999C90.8052 150.235 91.0324 150.452 91.2586 150.661L91.2863 150.688C91.4947 150.915 91.7129 151.132 91.9391 151.34C91.9481 151.349 91.957 151.349 91.957 151.358C92.1654 151.594 92.3925 151.812 92.6188 152.02L92.6457 152.048C92.8541 152.275 93.0722 152.492 93.2985 152.701C93.3075 152.71 93.3164 152.71 93.3164 152.719C93.5248 152.955 93.7519 153.172 93.9782 153.38L94.0051 153.407C94.2135 153.634 94.4308 153.852 94.6579 154.06C94.6669 154.069 94.6758 154.069 94.6758 154.078C94.8842 154.314 95.1113 154.531 95.3376 154.74L95.3645 154.767C95.5728 154.995 95.791 155.212 96.0173 155.42C96.0262 155.429 96.0352 155.429 96.0352 155.438C97.813 157.388 100.388 158.594 103.317 158.594C108.849 158.594 113.13 154.304 113.13 148.772V135.205H114.917C120.449 135.205 124.91 130.925 124.91 125.393C124.913 122.556 123.652 119.962 121.648 118.158ZM86.7059 79.9332V108.781H63.463L86.7059 79.9332Z" fill="#0976AB"/>
<path opacity="0.1" d="M121.648 118.158C121.648 118.149 121.648 118.149 121.639 118.149C121.43 117.913 121.203 117.686 120.968 117.478C120.968 117.469 120.968 117.469 120.959 117.469C120.751 117.233 120.524 117.007 120.287 116.798C120.287 116.789 120.287 116.789 120.279 116.789C120.07 116.553 119.843 116.327 119.608 116.119C119.608 116.11 119.608 116.11 119.599 116.11C119.39 115.874 119.163 115.647 118.928 115.439C118.928 115.43 118.928 115.43 118.919 115.43C118.711 115.194 118.484 114.968 118.248 114.759C118.248 114.75 118.248 114.75 118.239 114.75C118.03 114.514 117.803 114.288 117.568 114.08C117.568 114.071 117.568 114.071 117.559 114.071C117.351 113.835 117.123 113.608 116.888 113.4C116.888 113.391 116.888 113.391 116.879 113.391C116.671 113.155 116.444 112.929 116.209 112.72C116.209 112.711 116.209 112.711 116.2 112.711C115.991 112.475 115.764 112.249 115.528 112.041C115.528 112.032 115.528 112.032 115.519 112.032C114.83 111.279 114.032 110.635 113.134 110.118V42.9369C113.134 42.5836 112.962 42.4021 112.962 42.048C112.962 41.5132 112.962 41.3317 112.78 40.9776C112.78 40.796 112.607 40.4428 112.607 40.2613C112.426 39.7265 112.426 39.5449 112.244 39.1908C112.063 39.0093 111.89 38.656 111.89 38.4745C111.527 37.9397 111.355 37.7582 111.174 37.5856C110.992 37.4041 110.821 37.0508 110.639 36.8693L109.923 36.153C109.923 36.0439 109.787 35.9357 109.633 35.8632C109.543 35.7729 109.425 35.6548 109.279 35.5091L109.243 35.4733C109.243 35.3642 109.107 35.256 108.953 35.1827C108.862 35.0924 108.744 34.9743 108.598 34.8294L108.563 34.7928C108.563 34.6837 108.427 34.5755 108.273 34.5022C108.183 34.4118 108.064 34.2938 107.919 34.1489L107.882 34.1123C107.882 34.0032 107.746 33.8949 107.592 33.8217C107.502 33.7313 107.384 33.6133 107.238 33.4684L107.202 33.4318C107.202 33.3227 107.066 33.2145 106.912 33.142C106.822 33.0517 106.703 32.9336 106.558 32.7879L106.522 32.7513C106.522 32.6422 106.386 32.5339 106.231 32.4607C106.141 32.3703 106.023 32.2523 105.877 32.1074L105.841 32.0708C105.841 31.9617 105.705 31.8534 105.551 31.7802C105.46 31.6898 105.342 31.5718 105.197 31.4269L105.16 31.3903C105.16 31.2812 105.024 31.1729 104.87 31.1005C104.78 31.0101 104.662 30.8921 104.516 30.7464L104.48 30.7098C104.48 30.6007 104.344 30.4924 104.19 30.42C104.099 30.3296 103.981 30.2116 103.836 30.0659L103.8 30.0293C103.8 29.9202 103.664 29.8119 103.51 29.7387L103.12 29.3488C103.12 29.1762 102.767 28.9947 102.585 28.9947C102.585 28.8132 102.413 28.8131 102.413 28.8131C102.05 28.6406 101.869 28.4591 101.515 28.2784C101.334 28.0968 100.98 27.9251 100.626 27.562C100.445 27.562 100.091 27.3895 99.9098 27.3895C99.5557 27.2079 99.012 27.2079 98.8394 27.0264C98.4861 27.0264 98.3046 27.0264 97.9416 26.8539H96.8712C96.6986 26.8539 96.6986 26.8539 96.5171 26.8539C96.3356 26.8539 96.1638 26.8539 96.1638 26.8539H94.9127C94.7312 27.0264 94.3779 27.0264 94.1964 27.0264C93.6616 27.2079 93.3075 27.2079 93.126 27.3895C92.7727 27.3895 92.5912 27.562 92.4096 27.9243C91.8748 27.9243 91.7023 28.0968 91.3392 28.2775C91.1667 28.4591 90.8044 28.6406 90.6229 28.8123C90.4503 28.9939 90.2696 29.1754 89.734 29.3471C89.5615 29.7102 89.3799 29.8819 89.1992 30.0635C89.0177 30.245 89.0177 30.4175 88.8451 30.4175L22.8069 112.526C19.6055 116.562 19.905 122.193 23.6958 125.657C23.9042 125.902 24.1313 126.128 24.3763 126.338C24.5847 126.583 24.8118 126.809 25.0568 127.017C25.2652 127.262 25.4923 127.489 25.7365 127.698C25.9449 127.943 26.172 128.169 26.417 128.378C26.6254 128.623 26.8525 128.85 27.0975 129.059C27.3059 129.304 27.533 129.53 27.778 129.739C27.9864 129.984 28.2135 130.21 28.4577 130.419C28.6661 130.664 28.8932 130.89 29.1382 131.1C29.3466 131.345 29.5737 131.571 29.8187 131.78C30.2266 132.242 30.6987 132.678 31.2156 133.068C33.0023 134.673 35.1423 135.208 37.2823 135.208H86.7067V141.973C86.7067 144.929 87.922 147.523 89.8993 149.301L89.9261 149.328C90.1345 149.555 90.3527 149.773 90.5789 149.981C90.5879 149.99 90.5969 149.99 90.5969 149.999C90.8052 150.235 91.0324 150.452 91.2586 150.661L91.2863 150.688C91.4947 150.915 91.7129 151.132 91.9391 151.34C91.9481 151.349 91.957 151.349 91.957 151.358C92.1654 151.594 92.3925 151.812 92.6188 152.02L92.6457 152.048C92.8541 152.275 93.0722 152.492 93.2985 152.701C93.3075 152.71 93.3164 152.71 93.3164 152.719C93.5248 152.955 93.7519 153.172 93.9782 153.38L94.0051 153.407C94.2135 153.634 94.4308 153.852 94.6579 154.06C94.6669 154.069 94.6758 154.069 94.6758 154.078C94.8842 154.314 95.1113 154.531 95.3376 154.74L95.3645 154.767C95.5728 154.995 95.791 155.212 96.0173 155.42C96.0262 155.429 96.0352 155.429 96.0352 155.438C97.813 157.388 100.388 158.594 103.317 158.594C108.849 158.594 113.13 154.304 113.13 148.772V135.205H114.917C120.449 135.205 124.91 130.925 124.91 125.393C124.913 122.556 123.652 119.962 121.648 118.158ZM86.7059 79.9332V108.781H63.463L86.7059 79.9332Z" fill="#0976AB"/>
<path d="M118.115 118.592C118.115 124.125 113.653 128.408 108.119 128.408H106.335V141.975C106.335 147.507 102.052 151.791 96.5196 151.791C90.9852 151.791 86.702 147.507 86.702 141.975V128.408H30.8363H30.6572H30.479C28.3373 128.408 26.1957 127.874 24.4098 126.267C19.9483 122.876 19.4126 116.808 22.8046 112.523L88.8444 30.42C89.0227 30.42 89.0227 30.2417 89.2017 30.0634C89.3808 29.8852 89.5591 29.7061 89.7374 29.3488C90.2713 29.1697 90.4496 28.9922 90.6287 28.814C90.8078 28.6357 91.1643 28.4566 91.3434 28.2783C91.7007 28.1001 91.879 27.921 92.413 27.921C92.5921 27.5645 92.7703 27.3862 93.1277 27.3862C93.3067 27.2071 93.6633 27.2071 94.1997 27.0289C94.3788 27.0289 94.7337 27.0289 94.912 26.8506C95.2693 26.8506 95.8049 26.8506 96.1623 26.8506C96.1623 26.8506 96.3405 26.8506 96.5196 26.8506C96.6987 26.8506 96.6987 26.8506 96.8745 26.8506C97.2319 26.8506 97.7675 26.8506 97.9465 26.8506C98.3039 27.0289 98.4822 27.0289 98.8395 27.0289C99.0161 27.2079 99.5518 27.2079 99.9091 27.3862C100.088 27.3862 100.445 27.5645 100.624 27.5645C100.981 27.921 101.336 28.0993 101.515 28.2783C101.872 28.4566 102.051 28.6357 102.408 28.814C102.408 28.814 102.586 28.814 102.586 28.993C102.765 28.993 103.122 29.1705 103.122 29.3496C103.479 29.7069 103.656 29.8852 103.834 30.0643C104.012 30.2417 104.192 30.5991 104.371 30.7781C104.549 30.9572 104.728 31.1355 105.085 31.6703C105.085 31.8494 105.264 32.2059 105.443 32.385C105.621 32.7415 105.621 32.9198 105.8 33.4562C105.8 33.6337 105.977 33.991 105.977 34.1701C106.156 34.5274 106.156 34.7049 106.156 35.2405C106.156 35.5978 106.335 35.7761 106.335 36.1326C106.335 36.3109 106.335 36.49 106.335 36.6691V108.777H108.119C113.653 108.776 118.115 113.238 118.115 118.592ZM86.702 64.6902L51.1831 108.776H86.702V64.6902Z" fill="#57C3F7"/>
<path d="M222.523 53.4611C220.492 50.3687 218.152 47.5026 215.541 44.9637C215.441 44.8547 215.341 44.7554 215.232 44.6642C215.205 44.6365 215.178 44.6007 215.142 44.573C215.06 44.4827 214.978 44.3915 214.888 44.3101C214.662 44.0651 214.417 43.8388 214.18 43.6027C214.163 43.5848 214.135 43.5571 214.117 43.5482C214.036 43.4668 213.953 43.3846 213.872 43.3032C213.845 43.2763 213.817 43.2397 213.782 43.2128C213.7 43.1225 213.618 43.0313 213.528 42.9499C213.301 42.7049 213.056 42.4786 212.82 42.2425C212.802 42.2246 212.775 42.1969 212.757 42.188C212.675 42.1066 212.593 42.0244 212.512 41.943C212.485 41.9153 212.457 41.8795 212.421 41.8518C212.34 41.7615 212.258 41.6703 212.167 41.5889C211.94 41.3439 211.696 41.1176 211.46 40.8815C211.442 40.8636 211.414 40.8359 211.397 40.827C211.315 40.7456 211.233 40.6634 211.152 40.582C211.125 40.5551 211.097 40.5185 211.061 40.4916C210.98 40.4013 210.898 40.3101 210.807 40.2287C210.58 39.9837 210.336 39.7574 210.1 39.5213C210.082 39.5034 210.054 39.4757 210.036 39.4668C209.955 39.3764 209.883 39.2942 209.791 39.2218C209.764 39.1941 209.737 39.1583 209.701 39.1314C202.537 31.7403 193.187 26.8522 182.703 26.8522C168.601 26.8522 157.003 35.2405 149.502 46.6585C141.649 58.0854 137.55 72.9035 137.368 89.3178C137.55 105.56 141.648 120.55 149.502 131.977C151.524 134.997 153.837 137.835 156.413 140.356C156.531 140.474 156.649 140.584 156.766 140.701C156.784 140.71 156.802 140.728 156.811 140.746C157.02 140.964 157.238 141.173 157.446 141.381C157.555 141.499 157.664 141.608 157.773 141.717C157.891 141.835 158.009 141.944 158.127 142.061C158.145 142.07 158.163 142.088 158.172 142.106C158.381 142.324 158.599 142.533 158.807 142.741C158.916 142.859 159.025 142.969 159.134 143.077C159.252 143.195 159.37 143.304 159.487 143.421C159.505 143.43 159.524 143.449 159.533 143.467C159.741 143.684 159.959 143.893 160.167 144.102C160.277 144.22 160.385 144.329 160.494 144.437C160.612 144.555 160.73 144.664 160.847 144.781C160.865 144.79 160.884 144.808 160.893 144.827C161.101 145.044 161.319 145.253 161.528 145.462C161.637 145.58 161.745 145.689 161.854 145.797C161.972 145.915 162.09 146.024 162.207 146.141C162.225 146.15 162.244 146.169 162.253 146.187C162.461 146.404 162.679 146.614 162.888 146.822C169.944 153.869 179.039 158.593 189.505 158.593C203.244 158.593 215.025 150.023 222.524 138.778C230.196 127.351 234.486 112.36 234.486 96.1187C234.485 79.7061 230.195 64.888 222.523 53.4611ZM199.298 120.915C194.119 128.587 188.234 131.979 182.702 131.979C179.655 131.979 176.445 130.954 173.289 128.741C173.035 128.415 172.79 128.071 172.545 127.717C167.548 120.216 163.975 108.799 163.975 96.1212C163.975 83.2706 167.548 72.0252 172.545 64.3532C177.905 56.853 183.972 53.2893 189.504 53.4619C192.443 53.3715 195.48 54.3329 198.464 56.3915C198.745 56.7724 199.026 57.1534 199.298 57.5522C204.295 65.2242 207.868 76.4696 207.868 89.3202C207.868 101.997 204.294 113.415 199.298 120.915Z" fill="#0976AB"/>
<path opacity="0.1" d="M222.523 53.4611C220.492 50.3687 218.152 47.5026 215.541 44.9637C215.441 44.8547 215.341 44.7554 215.232 44.6642C215.205 44.6365 215.178 44.6007 215.142 44.573C215.06 44.4827 214.978 44.3915 214.888 44.3101C214.662 44.0651 214.417 43.8388 214.18 43.6027C214.163 43.5848 214.135 43.5571 214.117 43.5482C214.036 43.4668 213.953 43.3846 213.872 43.3032C213.845 43.2763 213.817 43.2397 213.782 43.2128C213.7 43.1225 213.618 43.0313 213.528 42.9499C213.301 42.7049 213.056 42.4786 212.82 42.2425C212.802 42.2246 212.775 42.1969 212.757 42.188C212.675 42.1066 212.593 42.0244 212.512 41.943C212.485 41.9153 212.457 41.8795 212.421 41.8518C212.34 41.7615 212.258 41.6703 212.167 41.5889C211.94 41.3439 211.696 41.1176 211.46 40.8815C211.442 40.8636 211.414 40.8359 211.397 40.827C211.315 40.7456 211.233 40.6634 211.152 40.582C211.125 40.5551 211.097 40.5185 211.061 40.4916C210.98 40.4013 210.898 40.3101 210.807 40.2287C210.58 39.9837 210.336 39.7574 210.1 39.5213C210.082 39.5034 210.054 39.4757 210.036 39.4668C209.955 39.3764 209.883 39.2942 209.791 39.2218C209.764 39.1941 209.737 39.1583 209.701 39.1314C202.537 31.7403 193.187 26.8522 182.703 26.8522C168.601 26.8522 157.003 35.2405 149.502 46.6585C141.649 58.0854 137.55 72.9035 137.368 89.3178C137.55 105.56 141.648 120.55 149.502 131.977C151.524 134.997 153.837 137.835 156.413 140.356C156.531 140.474 156.649 140.584 156.766 140.701C156.784 140.71 156.802 140.728 156.811 140.746C157.02 140.964 157.238 141.173 157.446 141.381C157.555 141.499 157.664 141.608 157.773 141.717C157.891 141.835 158.009 141.944 158.127 142.061C158.145 142.07 158.163 142.088 158.172 142.106C158.381 142.324 158.599 142.533 158.807 142.741C158.916 142.859 159.025 142.969 159.134 143.077C159.252 143.195 159.37 143.304 159.487 143.421C159.505 143.43 159.524 143.449 159.533 143.467C159.741 143.684 159.959 143.893 160.167 144.102C160.277 144.22 160.385 144.329 160.494 144.437C160.612 144.555 160.73 144.664 160.847 144.781C160.865 144.79 160.884 144.808 160.893 144.827C161.101 145.044 161.319 145.253 161.528 145.462C161.637 145.58 161.745 145.689 161.854 145.797C161.972 145.915 162.09 146.024 162.207 146.141C162.225 146.15 162.244 146.169 162.253 146.187C162.461 146.404 162.679 146.614 162.888 146.822C169.944 153.869 179.039 158.593 189.505 158.593C203.244 158.593 215.025 150.023 222.524 138.778C230.196 127.351 234.486 112.36 234.486 96.1187C234.485 79.7061 230.195 64.888 222.523 53.4611ZM199.298 120.915C194.119 128.587 188.234 131.979 182.702 131.979C179.655 131.979 176.445 130.954 173.289 128.741C173.035 128.415 172.79 128.071 172.545 127.717C167.548 120.216 163.975 108.799 163.975 96.1212C163.975 83.2706 167.548 72.0252 172.545 64.3532C177.905 56.853 183.972 53.2893 189.504 53.4619C192.443 53.3715 195.48 54.3329 198.464 56.3915C198.745 56.7724 199.026 57.1534 199.298 57.5522C204.295 65.2242 207.868 76.4696 207.868 89.3202C207.868 101.997 204.294 113.415 199.298 120.915Z" fill="#0976AB"/>
<path d="M137.366 89.321C137.545 72.9002 141.649 58.0854 149.504 46.6625C156.998 35.2397 168.6 26.8506 182.701 26.8506C196.446 26.8506 208.224 35.2397 215.723 46.6625C223.397 58.0854 227.68 72.8994 227.68 89.321C227.68 105.562 223.397 120.555 215.723 131.979C208.224 143.224 196.446 151.791 182.701 151.791C168.6 151.791 156.999 143.224 149.504 131.979C141.649 120.556 137.545 105.563 137.366 89.321ZM207.867 89.321C207.867 76.4696 204.298 65.225 199.3 57.5498C194.123 50.0537 188.236 46.4843 182.701 46.6625C177.168 46.4835 171.099 50.0537 165.746 57.5498C160.748 65.2258 157.177 76.4696 157.177 89.321C157.177 101.993 160.748 113.417 165.746 120.912C171.099 128.587 177.168 131.978 182.701 131.978C188.236 131.978 194.123 128.587 199.3 120.912C204.298 113.417 207.867 101.994 207.867 89.321Z" fill="#57C3F7"/>
<path d="M344.122 118.158C344.122 118.149 344.122 118.149 344.113 118.149C343.896 117.913 343.669 117.686 343.443 117.478C343.443 117.469 343.443 117.469 343.434 117.469C343.216 117.233 342.989 117.007 342.763 116.798C342.763 116.789 342.763 116.789 342.754 116.789C342.537 116.553 342.31 116.327 342.083 116.119C342.083 116.11 342.083 116.11 342.074 116.11C341.857 115.874 341.63 115.647 341.404 115.439C341.404 115.43 341.404 115.43 341.395 115.43C341.177 115.194 340.95 114.968 340.724 114.759C340.724 114.75 340.724 114.75 340.715 114.75C340.498 114.514 340.27 114.288 340.044 114.08C340.044 114.071 340.044 114.071 340.035 114.071C339.818 113.835 339.591 113.608 339.364 113.4C339.364 113.391 339.364 113.391 339.356 113.391C339.138 113.155 338.911 112.929 338.685 112.72C338.685 112.711 338.685 112.711 338.676 112.711C338.459 112.475 338.231 112.249 338.005 112.041C338.005 112.032 338.005 112.032 337.996 112.032C337.307 111.279 336.5 110.626 335.602 110.118V42.9369C335.602 42.5836 335.43 42.4021 335.43 42.048C335.43 41.5132 335.43 41.3317 335.248 40.9776C335.248 40.796 335.076 40.4428 335.076 40.2613C334.894 39.7265 334.894 39.5449 334.712 39.1908C334.54 39.0093 334.358 38.656 334.358 38.4745C334.005 37.9397 333.824 37.7582 333.642 37.5856C333.461 37.4041 333.288 37.0508 333.107 36.8693L332.391 36.153C332.391 36.0439 332.255 35.9357 332.1 35.8632C332.01 35.7729 331.892 35.6548 331.747 35.5091L331.71 35.4733C331.71 35.3642 331.575 35.256 331.42 35.1827C331.329 35.0924 331.211 34.9743 331.067 34.8294L331.031 34.7928C331.031 34.6837 330.895 34.5755 330.74 34.5022C330.65 34.4118 330.532 34.2938 330.386 34.1489L330.349 34.1123C330.349 34.0032 330.214 33.8949 330.059 33.8217C329.968 33.7313 329.85 33.6133 329.705 33.4684L329.668 33.4318C329.668 33.3227 329.532 33.2145 329.378 33.142C329.287 33.0517 329.169 32.9336 329.023 32.7879L328.988 32.7513C328.988 32.6422 328.852 32.5339 328.697 32.4607C328.607 32.3703 328.489 32.2523 328.343 32.1074L328.306 32.0708C328.306 31.9617 328.17 31.8534 328.017 31.7802C327.926 31.6898 327.808 31.5718 327.662 31.4269L327.626 31.3903C327.626 31.2812 327.49 31.1729 327.335 31.1005C327.245 31.0101 327.127 30.8921 326.982 30.7464L326.945 30.7098C326.945 30.6007 326.809 30.4924 326.655 30.42C326.564 30.3296 326.446 30.2116 326.301 30.0659L326.265 30.0293C326.265 29.9202 326.129 29.8119 325.975 29.7387L325.585 29.3488C325.585 29.1762 325.231 28.9947 325.05 28.9947C325.05 28.8132 324.869 28.8131 324.869 28.8131C324.515 28.6406 324.334 28.4591 323.98 28.2784C323.798 28.0968 323.445 27.9251 323.091 27.562C322.909 27.562 322.556 27.3895 322.375 27.3895C322.021 27.2079 321.486 27.2079 321.304 27.0264C320.941 27.0264 320.769 27.0264 320.406 26.8539H319.336C319.163 26.8539 319.163 26.8539 318.982 26.8539C318.809 26.8539 318.629 26.8539 318.629 26.8539H317.378C317.196 27.0264 316.843 27.0264 316.661 27.0264C316.126 27.2079 315.772 27.2079 315.591 27.3895C315.237 27.3895 315.056 27.562 314.874 27.9243C314.349 27.9243 314.167 28.0968 313.804 28.2775C313.631 28.4591 313.269 28.6406 313.097 28.8123C312.915 28.9939 312.734 29.1754 312.199 29.3471C312.017 29.7102 311.846 29.8819 311.664 30.0635C311.483 30.245 311.483 30.4175 311.31 30.4175L245.272 112.526C242.07 116.562 242.37 122.193 246.161 125.657C246.369 125.902 246.596 126.128 246.841 126.338C247.05 126.583 247.277 126.809 247.522 127.017C247.73 127.262 247.957 127.489 248.201 127.698C248.41 127.943 248.637 128.169 248.882 128.378C249.09 128.623 249.317 128.85 249.562 129.059C249.771 129.304 249.998 129.53 250.243 129.739C250.451 129.984 250.678 130.21 250.923 130.419C251.132 130.664 251.359 130.89 251.604 131.1C251.812 131.345 252.039 131.571 252.284 131.78C252.692 132.242 253.164 132.678 253.681 133.068C255.468 134.673 257.608 135.208 259.748 135.208H309.172V141.973C309.172 144.92 310.388 147.523 312.365 149.301C312.374 149.31 312.383 149.31 312.383 149.319C312.591 149.555 312.818 149.772 313.045 149.98L313.072 150.008C313.281 150.235 313.499 150.452 313.725 150.661C313.734 150.67 313.743 150.67 313.743 150.679C313.951 150.915 314.179 151.132 314.405 151.34L314.432 151.367C314.64 151.594 314.858 151.812 315.084 152.02C315.093 152.029 315.102 152.029 315.102 152.038C315.311 152.274 315.538 152.492 315.764 152.7L315.792 152.728C316 152.955 316.218 153.172 316.445 153.38C316.454 153.389 316.463 153.389 316.463 153.398C316.671 153.634 316.898 153.852 317.124 154.06L317.151 154.088C317.36 154.315 317.578 154.532 317.804 154.741C317.813 154.75 317.822 154.75 317.822 154.758C318.03 154.995 318.257 155.212 318.484 155.42L318.511 155.447C320.289 157.397 322.855 158.594 325.785 158.594C331.316 158.594 335.597 154.304 335.597 148.772V135.205H337.384C342.925 135.205 347.387 130.925 347.387 125.393C347.387 122.556 346.126 119.962 344.122 118.158ZM309.172 79.9332V108.781H285.929L309.172 79.9332Z" fill="#0976AB"/>
<path opacity="0.1" d="M344.122 118.158C344.122 118.149 344.122 118.149 344.113 118.149C343.896 117.913 343.669 117.686 343.443 117.478C343.443 117.469 343.443 117.469 343.434 117.469C343.216 117.233 342.989 117.007 342.763 116.798C342.763 116.789 342.763 116.789 342.754 116.789C342.537 116.553 342.31 116.327 342.083 116.119C342.083 116.11 342.083 116.11 342.074 116.11C341.857 115.874 341.63 115.647 341.404 115.439C341.404 115.43 341.404 115.43 341.395 115.43C341.177 115.194 340.95 114.968 340.724 114.759C340.724 114.75 340.724 114.75 340.715 114.75C340.498 114.514 340.27 114.288 340.044 114.08C340.044 114.071 340.044 114.071 340.035 114.071C339.818 113.835 339.591 113.608 339.364 113.4C339.364 113.391 339.364 113.391 339.356 113.391C339.138 113.155 338.911 112.929 338.685 112.72C338.685 112.711 338.685 112.711 338.676 112.711C338.459 112.475 338.231 112.249 338.005 112.041C338.005 112.032 338.005 112.032 337.996 112.032C337.307 111.279 336.5 110.626 335.602 110.118V42.9369C335.602 42.5836 335.43 42.4021 335.43 42.048C335.43 41.5132 335.43 41.3317 335.248 40.9776C335.248 40.796 335.076 40.4428 335.076 40.2613C334.894 39.7265 334.894 39.5449 334.712 39.1908C334.54 39.0093 334.358 38.656 334.358 38.4745C334.005 37.9397 333.824 37.7582 333.642 37.5856C333.461 37.4041 333.288 37.0508 333.107 36.8693L332.391 36.153C332.391 36.0439 332.255 35.9357 332.1 35.8632C332.01 35.7729 331.892 35.6548 331.747 35.5091L331.71 35.4733C331.71 35.3642 331.575 35.256 331.42 35.1827C331.329 35.0924 331.211 34.9743 331.067 34.8294L331.031 34.7928C331.031 34.6837 330.895 34.5755 330.74 34.5022C330.65 34.4118 330.532 34.2938 330.386 34.1489L330.349 34.1123C330.349 34.0032 330.214 33.8949 330.059 33.8217C329.968 33.7313 329.85 33.6133 329.705 33.4684L329.668 33.4318C329.668 33.3227 329.532 33.2145 329.378 33.142C329.287 33.0517 329.169 32.9336 329.023 32.7879L328.988 32.7513C328.988 32.6422 328.852 32.5339 328.697 32.4607C328.607 32.3703 328.489 32.2523 328.343 32.1074L328.306 32.0708C328.306 31.9617 328.17 31.8534 328.017 31.7802C327.926 31.6898 327.808 31.5718 327.662 31.4269L327.626 31.3903C327.626 31.2812 327.49 31.1729 327.335 31.1005C327.245 31.0101 327.127 30.8921 326.982 30.7464L326.945 30.7098C326.945 30.6007 326.809 30.4924 326.655 30.42C326.564 30.3296 326.446 30.2116 326.301 30.0659L326.265 30.0293C326.265 29.9202 326.129 29.8119 325.975 29.7387L325.585 29.3488C325.585 29.1762 325.231 28.9947 325.05 28.9947C325.05 28.8132 324.869 28.8131 324.869 28.8131C324.515 28.6406 324.334 28.4591 323.98 28.2784C323.798 28.0968 323.445 27.9251 323.091 27.562C322.909 27.562 322.556 27.3895 322.375 27.3895C322.021 27.2079 321.486 27.2079 321.304 27.0264C320.941 27.0264 320.769 27.0264 320.406 26.8539H319.336C319.163 26.8539 319.163 26.8539 318.982 26.8539C318.809 26.8539 318.629 26.8539 318.629 26.8539H317.378C317.196 27.0264 316.843 27.0264 316.661 27.0264C316.126 27.2079 315.772 27.2079 315.591 27.3895C315.237 27.3895 315.056 27.562 314.874 27.9243C314.349 27.9243 314.167 28.0968 313.804 28.2775C313.631 28.4591 313.269 28.6406 313.097 28.8123C312.915 28.9939 312.734 29.1754 312.199 29.3471C312.017 29.7102 311.846 29.8819 311.664 30.0635C311.483 30.245 311.483 30.4175 311.31 30.4175L245.272 112.526C242.07 116.562 242.37 122.193 246.161 125.657C246.369 125.902 246.596 126.128 246.841 126.338C247.05 126.583 247.277 126.809 247.522 127.017C247.73 127.262 247.957 127.489 248.201 127.698C248.41 127.943 248.637 128.169 248.882 128.378C249.09 128.623 249.317 128.85 249.562 129.059C249.771 129.304 249.998 129.53 250.243 129.739C250.451 129.984 250.678 130.21 250.923 130.419C251.132 130.664 251.359 130.89 251.604 131.1C251.812 131.345 252.039 131.571 252.284 131.78C252.692 132.242 253.164 132.678 253.681 133.068C255.468 134.673 257.608 135.208 259.748 135.208H309.172V141.973C309.172 144.92 310.388 147.523 312.365 149.301C312.374 149.31 312.383 149.31 312.383 149.319C312.591 149.555 312.818 149.772 313.045 149.98L313.072 150.008C313.281 150.235 313.499 150.452 313.725 150.661C313.734 150.67 313.743 150.67 313.743 150.679C313.951 150.915 314.179 151.132 314.405 151.34L314.432 151.367C314.64 151.594 314.858 151.812 315.084 152.02C315.093 152.029 315.102 152.029 315.102 152.038C315.311 152.274 315.538 152.492 315.764 152.7L315.792 152.728C316 152.955 316.218 153.172 316.445 153.38C316.454 153.389 316.463 153.389 316.463 153.398C316.671 153.634 316.898 153.852 317.124 154.06L317.151 154.088C317.36 154.315 317.578 154.532 317.804 154.741C317.813 154.75 317.822 154.75 317.822 154.758C318.03 154.995 318.257 155.212 318.484 155.42L318.511 155.447C320.289 157.397 322.855 158.594 325.785 158.594C331.316 158.594 335.597 154.304 335.597 148.772V135.205H337.384C342.925 135.205 347.387 130.925 347.387 125.393C347.387 122.556 346.126 119.962 344.122 118.158ZM309.172 79.9332V108.781H285.929L309.172 79.9332Z" fill="#0976AB"/>
<path d="M340.583 118.592C340.583 124.125 336.121 128.408 330.588 128.408H328.801V141.975C328.801 147.507 324.518 151.791 318.988 151.791C313.454 151.791 309.17 147.507 309.17 141.975V128.408H253.303H253.124H252.945C250.801 128.408 248.662 127.874 246.875 126.267C242.413 122.876 241.877 116.808 245.271 112.523L311.309 30.42C311.488 30.42 311.488 30.2417 311.666 30.0634C311.844 29.8852 312.023 29.7061 312.202 29.3488C312.738 29.1697 312.916 28.9922 313.095 28.814C313.273 28.6357 313.63 28.4566 313.809 28.2783C314.167 28.1001 314.345 27.921 314.876 27.921C315.056 27.5645 315.234 27.3862 315.591 27.3862C315.77 27.2071 316.127 27.2071 316.663 27.0289C316.842 27.0289 317.199 27.0289 317.378 26.8506C317.735 26.8506 318.271 26.8506 318.628 26.8506C318.628 26.8506 318.807 26.8506 318.986 26.8506C319.164 26.8506 319.164 26.8506 319.339 26.8506C319.696 26.8506 320.232 26.8506 320.411 26.8506C320.768 27.0289 320.947 27.0289 321.304 27.0289C321.483 27.2079 322.019 27.2079 322.376 27.3862C322.554 27.3862 322.911 27.5645 323.091 27.5645C323.448 27.921 323.8 28.0993 323.979 28.2783C324.337 28.4566 324.516 28.6357 324.872 28.814C324.872 28.814 325.051 28.814 325.051 28.993C325.23 28.993 325.587 29.1705 325.587 29.3496C325.944 29.7069 326.123 29.8852 326.302 30.0643C326.48 30.2417 326.659 30.5991 326.837 30.7781C327.016 30.9572 327.195 31.1355 327.552 31.6703C327.552 31.8494 327.73 32.2059 327.909 32.385C328.089 32.7415 328.089 32.9198 328.267 33.4562C328.267 33.6337 328.441 33.991 328.441 34.1701C328.62 34.5274 328.62 34.7049 328.62 35.2405C328.62 35.5978 328.799 35.7761 328.799 36.1326C328.799 36.3109 328.799 36.49 328.799 36.6691V108.777H330.586C336.121 108.776 340.583 113.238 340.583 118.592ZM309.17 64.6902L273.648 108.776H309.17V64.6902Z" fill="#57C3F7"/>
<path d="M116.839 7.29509H114.836V10.8287C114.836 11.3171 114.429 11.7241 113.925 11.7241C113.436 11.7241 113.029 11.3171 113.029 10.8287V1.22102C113.029 0.716341 113.436 0.325623 113.925 0.325623H113.941H116.84C118.778 0.325623 120.341 1.8885 120.341 3.82664C120.34 5.73221 118.777 7.29509 116.839 7.29509ZM114.836 5.48801H116.838C117.783 5.48801 118.515 4.73913 118.532 3.82745C118.516 2.88321 117.783 2.13352 116.838 2.13352H114.836V5.48801Z" fill="#545569"/>
<path d="M127.195 9.03704H123.238L122.441 11.1543C122.294 11.5124 121.952 11.7241 121.593 11.7241C121.479 11.7241 121.382 11.7078 121.284 11.6752C120.812 11.4961 120.584 10.9752 120.747 10.5031L124.345 0.91251C124.492 0.55435 124.85 0.326427 125.208 0.342707C125.583 0.326427 125.924 0.55435 126.071 0.91251L129.67 10.5031C129.832 10.9752 129.605 11.4961 129.132 11.6752C129.051 11.7078 128.937 11.7241 128.823 11.7241C128.465 11.7241 128.123 11.5124 127.993 11.1543L127.195 9.03704ZM126.528 7.24624L125.208 3.74523L123.889 7.24624H126.528Z" fill="#545569"/>
<path d="M130.871 5.87871C130.871 2.60561 133.574 0 136.879 0C138.264 0 139.583 0.472932 140.592 1.27065C141.015 1.57997 141.08 2.18233 140.771 2.59015C140.462 2.98087 139.858 3.06227 139.451 2.73667C138.751 2.19943 137.856 1.85755 136.878 1.85755C135.706 1.85755 134.68 2.29711 133.947 3.04681C133.182 3.77941 132.725 4.77248 132.725 5.87952C132.725 6.954 133.181 7.94708 133.947 8.6805C134.68 9.42938 135.705 9.86975 136.878 9.86975C137.693 9.86975 138.458 9.62555 139.11 9.25111V7.01994H136.781C136.276 7.01994 135.853 6.59666 135.853 6.09198C135.853 5.57102 136.276 5.18029 136.781 5.18029H139.989C140.005 5.18029 140.005 5.18029 140.005 5.18029C140.021 5.18029 140.021 5.18029 140.021 5.18029C140.542 5.18029 140.966 5.57102 140.966 6.09198V9.69067C140.966 9.80463 140.933 9.86975 140.917 9.96743C140.9 9.99999 140.9 10.0163 140.884 10.0488V10.0651C140.835 10.2116 140.738 10.3419 140.575 10.4558C139.549 11.2536 138.263 11.7265 136.878 11.7265C133.574 11.724 130.871 9.13552 130.871 5.87871Z" fill="#545569"/>
<path d="M144.627 10.8287V1.22102C144.627 0.716341 145.018 0.325623 145.522 0.325623H145.539C145.539 0.325623 145.539 0.325623 145.571 0.325623H150.847C151.319 0.325623 151.742 0.716341 151.742 1.22102C151.742 1.7257 151.319 2.1327 150.847 2.1327H146.434V5.11275H150.228C150.716 5.11275 151.123 5.53603 151.123 6.00815C151.123 6.51283 150.716 6.91983 150.228 6.91983H146.434V9.91617H150.847C151.319 9.91617 151.742 10.3232 151.742 10.8287C151.742 11.3171 151.319 11.7241 150.847 11.7241H145.571C145.539 11.7241 145.539 11.7078 145.539 11.7078L145.522 11.7241C145.018 11.7241 144.627 11.3171 144.627 10.8287Z" fill="#545569"/>
<path d="M160.957 10.8286C160.957 11.317 160.55 11.724 160.077 11.724C159.573 11.724 159.182 11.317 159.182 10.8286V1.36831C159.182 1.36831 159.182 1.36831 159.182 1.35203C159.166 1.07527 159.296 0.782227 159.54 0.603147C159.947 0.326387 160.501 0.407792 160.777 0.798512L166.037 8.0773V1.36831C166.037 0.896189 166.427 0.489188 166.916 0.489188C167.404 0.489188 167.811 0.896189 167.811 1.36831V10.8294C167.811 11.3178 167.404 11.7248 166.916 11.7248C166.655 11.7248 166.411 11.5946 166.248 11.3992C166.216 11.3667 166.183 11.3341 166.167 11.3016L160.957 4.0716V10.8286Z" fill="#545569"/>
<path d="M179.893 1.74277C180.903 2.81725 181.538 4.2499 181.538 5.86243C181.538 7.47496 180.903 8.92388 179.893 9.98208C178.933 11.0403 177.5 11.7249 176.002 11.7249C174.439 11.7249 173.005 11.0411 172.012 9.98208C171.003 8.92388 170.4 7.47496 170.4 5.86243C170.4 4.2499 171.003 2.81725 172.012 1.74277C173.005 0.668293 174.438 0 176.002 0C177.499 0 178.932 0.667479 179.893 1.74277ZM179.682 5.86162C179.682 4.75458 179.242 3.72812 178.575 3.01262C177.891 2.28002 176.979 1.85673 176.002 1.85673C174.96 1.85673 174.048 2.28002 173.363 3.01262C172.68 3.72894 172.256 4.75458 172.256 5.86162C172.256 6.96866 172.68 7.99511 173.363 8.69515C174.047 9.42775 174.959 9.86731 176.002 9.86731C176.978 9.86731 177.89 9.42693 178.575 8.69515C179.242 7.99511 179.682 6.96947 179.682 5.86162Z" fill="#545569"/>
<path d="M190.816 2.1327H188.227V10.8287C188.227 11.3333 187.836 11.7241 187.331 11.7241C186.842 11.7241 186.435 11.3333 186.435 10.8287V2.1327H183.862C183.357 2.1327 182.966 1.70942 182.966 1.22102C182.966 0.716341 183.357 0.325623 183.862 0.325623H190.815C191.304 0.325623 191.711 0.716341 191.711 1.22102C191.712 1.70942 191.305 2.1327 190.816 2.1327Z" fill="#545569"/>
<path d="M199.278 10.8287V1.22102C199.278 0.732621 199.669 0.325623 200.174 0.325623H200.191C200.191 0.325623 200.191 0.325623 200.223 0.325623H205.499C205.971 0.325623 206.394 0.732621 206.394 1.22102C206.394 1.7257 205.971 2.1327 205.499 2.1327H201.085V5.11275H204.879C205.369 5.11275 205.776 5.53603 205.776 6.00815C205.776 6.51283 205.369 6.91983 204.879 6.91983H201.085V10.8279C201.085 11.3163 200.678 11.7232 200.174 11.7232C199.669 11.7241 199.278 11.3171 199.278 10.8287Z" fill="#545569"/>
<path d="M217.793 1.74277C218.802 2.81725 219.438 4.2499 219.438 5.86243C219.438 7.47496 218.803 8.92388 217.793 9.98208C216.832 11.0403 215.4 11.7249 213.901 11.7249C212.338 11.7249 210.905 11.0411 209.913 9.98208C208.903 8.92388 208.301 7.47496 208.301 5.86243C208.301 4.2499 208.903 2.81725 209.913 1.74277C210.906 0.668293 212.338 0 213.901 0C215.399 0 216.832 0.667479 217.793 1.74277ZM217.581 5.86162C217.581 4.75458 217.142 3.72812 216.474 3.01262C215.79 2.28002 214.878 1.85673 213.901 1.85673C212.859 1.85673 211.948 2.28002 211.264 3.01262C210.579 3.72894 210.157 4.75458 210.157 5.86162C210.157 6.96866 210.58 7.99511 211.264 8.69515C211.948 9.42775 212.859 9.86731 213.901 9.86731C214.878 9.86731 215.79 9.42693 216.474 8.69515C217.142 7.99511 217.581 6.96947 217.581 5.86162Z" fill="#545569"/>
<path d="M226.631 11.7241C224.009 11.7241 221.925 9.60685 221.925 7.01833V1.22102C221.925 0.716341 222.315 0.325623 222.82 0.325623C223.309 0.325623 223.732 0.716341 223.732 1.22102V7.01833C223.732 8.61377 225.035 9.91698 226.631 9.91698C228.243 9.91698 229.529 8.61458 229.529 7.01833V1.22102C229.529 0.716341 229.936 0.325623 230.441 0.325623C230.946 0.325623 231.337 0.716341 231.337 1.22102V7.01833C231.336 9.60766 229.235 11.7241 226.631 11.7241Z" fill="#545569"/>
<path d="M236.707 10.8286C236.707 11.317 236.3 11.724 235.828 11.724C235.324 11.724 234.932 11.317 234.932 10.8286V1.36831C234.932 1.36831 234.932 1.36831 234.932 1.35203C234.916 1.07527 235.047 0.782227 235.29 0.603147C235.697 0.326387 236.251 0.407792 236.528 0.798512L241.788 8.0773V1.36831C241.788 0.896189 242.178 0.489188 242.667 0.489188C243.156 0.489188 243.563 0.896189 243.563 1.36831V10.8294C243.563 11.3178 243.156 11.7248 242.667 11.7248C242.406 11.7248 242.162 11.5946 241.999 11.3992C241.967 11.3667 241.934 11.3341 241.918 11.3016L236.707 4.0716V10.8286Z" fill="#545569"/>
<path d="M246.655 10.8287V1.22102C246.655 0.716341 247.045 0.325623 247.551 0.325623H249.472C252.615 0.325623 255.154 2.88239 255.154 6.00815C255.154 9.16729 252.615 11.7232 249.472 11.7232H247.551C247.045 11.7241 246.655 11.3171 246.655 10.8287ZM248.462 9.91698H249.471C251.621 9.9007 253.347 8.17503 253.347 6.00897C253.347 3.87548 251.621 2.13352 249.471 2.13352H248.462V9.91698Z" fill="#545569"/>
<path d="M208.635 128.633C208.586 129.021 208.793 129.439 209.165 129.52C210.025 129.651 211.061 129.792 212.222 129.954C215.662 122.479 219.179 116.597 218.188 118.921C216.754 122.284 215.48 127.18 215.229 130.365C216.578 130.544 219.708 130.927 221.276 131.118C224.872 117.783 228.835 107.985 228.367 111.063C226.485 123.473 226.818 127.529 227.246 131.867C241.843 133.639 261.009 135.738 274.903 136.938C277.176 129.587 279.303 121.606 279.496 122.188C281.016 126.544 280.986 132.699 280.607 137.416C285.034 137.764 288.581 137.956 290.752 137.957C290.752 137.957 292.346 131.752 292.68 129.699C293.554 124.47 293.488 119.04 292.531 113.86C291.526 108.522 289.392 103.718 287.4 98.8083C287.386 98.7676 287.37 98.726 287.35 98.7C287.356 98.6853 287.342 98.6796 287.334 98.6593C285.976 95.2641 285.033 92.0382 284.502 88.656C284.495 88.6357 284.487 88.6145 284.485 88.5795C284.125 86.179 283.965 83.7151 284.008 81.0175C284.186 71.7501 280.038 63.4286 272.148 60.4143C258.678 46.6479 240.175 52.9678 234.95 64.604L234.934 64.6479C232.889 69.864 230.867 76.6789 229.093 81.9308C229.1 81.9511 229.082 81.9601 229.082 81.9601C229.089 81.9804 229.085 81.9951 229.061 82.0187L229.055 82.0333C228.191 84.5331 227.401 86.6561 226.685 88.0765C221.96 97.4188 212.631 102.251 208.635 128.633Z" fill="#0E0F1C"/>
<path d="M275.453 63.2072C280.51 66.5519 283.386 71.1168 283.609 77.9064C283.74 81.8632 283.642 85.7094 284.721 89.5132C285.833 93.4391 287.857 96.7383 289.944 100.039C293.261 105.283 295.442 110.424 295.436 117.07C295.43 123.822 294.422 131.714 291.746 137.821C291.731 137.856 291.683 137.835 291.697 137.798C293.98 131.577 294.809 122.795 294.345 116.071C293.834 108.686 290.377 103.814 286.915 97.9804C284.165 93.3455 282.597 88.3288 282.429 82.6617C282.33 79.3064 282.685 75.8494 281.713 72.6251C280.552 68.7773 277.783 66.1839 275.015 63.8608C274.639 63.5441 275.069 62.9532 275.453 63.2072Z" fill="#263238"/>
<path d="M216.847 97.7509C221.069 92.7936 225.376 88.6186 228.155 82.2897C230.686 76.5242 232.39 70.3598 234.956 64.604C234.998 64.5112 235.127 64.56 235.087 64.6585C231.008 74.9149 229.455 85.4489 222.334 93.8087C218.464 98.3508 214.628 102.543 211.844 108.124C208.921 113.989 207.334 120.199 206.586 126.825C206.56 127.057 206.283 127.024 206.283 126.8C206.299 115.99 210.22 105.535 216.847 97.7509Z" fill="#263238"/>
<path d="M175.883 224.039C175.883 224.039 215.148 234.69 221.644 233.515C228.141 232.34 250.067 202.867 254.939 192.159C259.811 181.45 267.886 128.205 266.313 122.345C264.741 116.485 256.631 116.4 249.768 131.511C242.905 146.622 226.697 179.826 223.81 182.533C220.923 185.24 172.694 221.242 175.883 224.039Z" fill="#DD6A57"/>
<path d="M218.235 230.02C212.211 226.864 204.875 219.227 199.883 218.428C195.376 217.706 193.637 221.404 193.637 221.404C193.637 221.404 191.338 216.303 186.689 216.324C184.296 216.335 182.212 220.167 182.212 220.167C182.212 220.167 180.192 216.159 176.059 216.433C172.765 216.652 171.171 220.458 171.171 220.458C171.171 220.458 167.44 217.517 164.156 218.815C157.498 221.449 156.384 249.757 166.641 254.539C171.42 256.769 171.317 249.839 171.317 249.839C171.317 249.839 173.872 259.768 179.702 260.147C185.532 260.526 184.854 251.531 184.854 251.531C184.854 251.531 187.415 261.13 193.499 260.913C199.832 260.687 197.613 251.806 197.613 251.806C197.613 251.806 201.634 258.268 206.253 257.035C213.882 254.999 205.685 239.678 207.406 233.515H216.987L218.235 230.02Z" fill="#DD6A57"/>
<path d="M209.54 223.995C215.505 226.484 222.314 217.065 228.453 219.257C236.408 222.099 229.05 231.922 216.987 233.515H207.405L209.54 223.995Z" fill="#DD6A57"/>
<path d="M170.831 221.023C170.842 220.929 170.713 220.895 170.686 220.989C168.051 230.211 167.982 241.151 171.278 250.219C171.386 250.517 171.916 250.47 171.86 250.119C170.25 240.124 169.619 231.124 170.831 221.023Z" fill="#0E0F1C"/>
<path d="M182.159 220.027C182.173 219.918 181.99 219.893 181.959 220.008C179.295 229.525 179.556 241.849 184.586 251.854C184.759 252.198 185.257 252.333 185.088 251.922C182.249 245.016 181.022 229.114 182.159 220.027Z" fill="#0E0F1C"/>
<path d="M198.21 252.42C193.759 242.64 192.891 232.417 193.508 221.789C193.516 221.651 193.319 221.653 193.282 221.767C191.562 226.884 191.875 233.699 192.567 238.982C193.229 244.042 194.844 248.474 197.868 252.576C197.986 252.735 198.306 252.63 198.21 252.42Z" fill="#0E0F1C"/>
<path d="M228.921 218.51C225.018 217.209 221.003 220.334 217.714 222.079C216.637 222.65 215.568 223.292 214.401 223.651C211.8 224.454 209.867 223.947 208.74 223.223C206.917 222.053 201.22 216.378 197.115 218.262C195.833 218.85 194.326 220.044 193.596 221.25C192.342 218.973 190.741 216.49 187.96 216.033C186.689 215.824 185.5 216.155 184.48 216.936C183.959 217.334 183.505 217.805 183.111 218.326C182.751 218.802 182.379 219.319 182.169 219.883C182.161 219.866 182.156 219.847 182.147 219.829C182.121 219.77 182.093 219.712 182.064 219.653C182.007 219.537 181.951 219.421 181.892 219.305C181.768 219.065 181.626 218.829 181.451 218.623C181.291 218.431 181.12 218.246 180.926 218.089C180.756 217.949 180.553 217.833 180.326 217.851C180.252 217.857 180.244 217.953 180.312 217.976C180.515 218.047 180.637 218.234 180.751 218.405C180.882 218.602 181.003 218.806 181.14 218.999C181.274 219.189 181.413 219.375 181.547 219.564C181.618 219.664 181.687 219.765 181.751 219.87C181.781 219.918 181.81 219.969 181.841 220.018C181.877 220.076 181.929 220.106 181.972 220.157C182.036 220.233 182.126 220.193 182.169 220.124C182.178 220.124 182.187 220.132 182.195 220.125C182.64 219.782 182.956 219.311 183.327 218.892C183.744 218.421 184.178 217.957 184.686 217.582C185.652 216.869 186.835 216.529 188.027 216.763C190.519 217.254 192.102 219.466 193.429 221.441C193.438 221.456 193.452 221.457 193.464 221.466L193.464 221.467C193.426 221.533 193.513 221.586 193.565 221.542C194.934 220.349 196.238 218.999 198.124 218.724C200.16 218.427 202.089 219.404 203.774 220.427C204.612 220.936 205.432 221.469 206.206 222.072C206.898 222.612 207.556 223.208 208.298 223.676C211.463 225.669 214.93 224.125 215.796 223.755C217.521 223.017 219.127 222.087 220.74 221.136C222.378 220.171 224.112 219.216 226.031 218.995C227.742 218.797 229.653 219.341 230.735 220.753C231.323 221.52 232.086 222.951 230.53 226.211C230.516 226.241 230.553 226.276 230.575 226.254C231.375 225.438 233.963 220.191 228.921 218.51Z" fill="#0E0F1C"/>
<path d="M263.254 171.802L226.171 165.879C226.171 165.879 243.887 130.796 254.523 120.621C265.022 110.578 270.138 120.866 268.592 136.383C266.877 153.586 263.254 171.802 263.254 171.802Z" fill="#0976AB"/>
<path d="M262.045 164.897C261.007 164.651 259.941 164.496 258.897 164.266C257.882 164.043 256.855 163.883 255.829 163.723C253.736 163.396 251.638 163.107 249.539 162.82C245.404 162.252 241.27 161.623 237.121 161.169C234.762 160.911 232.413 160.553 230.05 160.333C229.978 160.326 229.968 160.442 230.036 160.458C234.146 161.424 238.338 162.133 242.504 162.812C246.627 163.485 250.771 164.122 254.925 164.576C256.089 164.703 257.256 164.851 258.425 164.908C259.621 164.967 260.828 165.078 262.023 165.097C262.138 165.099 262.156 164.923 262.045 164.897Z" fill="#0E0F1C"/>
<path d="M242.569 233.861H340.799C340.799 233.861 299.984 132.546 279.231 117.748C273.001 113.306 263.079 112.814 256.386 121.734C250.899 129.046 235.672 158.158 234.976 168.628C234.312 179.123 242.497 189.437 242.497 189.437L242.569 233.861Z" fill="#299AD1"/>
<path d="M275.118 165.207C275.365 165.139 275.611 165.109 275.857 165.058C276.086 165.013 276.413 165.002 276.678 165.113C277.235 165.306 277.646 165.884 277.651 166.496C277.642 166.898 277.839 167.26 278.18 167.489C278.355 167.602 278.539 167.665 278.789 167.694C279.036 167.744 279.283 167.774 279.528 167.844C279.282 167.913 279.036 167.943 278.789 167.993C278.548 168.039 278.228 168.032 277.965 167.914C277.414 167.705 277.031 167.096 277.041 166.507C277.045 166.126 276.826 165.755 276.48 165.544C276.298 165.436 276.119 165.385 275.857 165.356C275.611 165.306 275.365 165.275 275.118 165.207Z" fill="white"/>
<path d="M237.555 165.207C237.801 165.139 238.048 165.109 238.294 165.058C238.523 165.013 238.85 165.002 239.115 165.113C239.672 165.306 240.083 165.884 240.088 166.496C240.079 166.898 240.277 167.26 240.617 167.489C240.793 167.602 240.977 167.665 241.227 167.694C241.473 167.744 241.719 167.774 241.966 167.844C241.719 167.913 241.472 167.943 241.227 167.993C240.985 168.039 240.666 168.032 240.402 167.914C239.851 167.705 239.468 167.096 239.478 166.507C239.482 166.126 239.262 165.755 238.917 165.544C238.734 165.436 238.555 165.385 238.294 165.356C238.047 165.306 237.801 165.275 237.555 165.207Z" fill="white"/>
<path d="M288.76 214.001C289.006 213.932 289.253 213.903 289.499 213.853C289.728 213.808 290.055 213.796 290.32 213.907C290.877 214.101 291.288 214.679 291.293 215.29C291.284 215.692 291.482 216.054 291.822 216.283C291.998 216.396 292.182 216.46 292.432 216.488C292.678 216.539 292.925 216.569 293.171 216.638C292.924 216.707 292.678 216.737 292.432 216.788C292.19 216.833 291.871 216.827 291.607 216.709C291.056 216.5 290.673 215.89 290.683 215.301C290.687 214.92 290.468 214.549 290.122 214.338C289.939 214.23 289.76 214.18 289.499 214.15C289.252 214.1 289.006 214.071 288.76 214.001Z" fill="white"/>
<path d="M305.739 167.844C305.986 167.774 306.233 167.745 306.478 167.695C306.707 167.65 307.034 167.638 307.299 167.749C307.856 167.943 308.267 168.521 308.272 169.132C308.263 169.534 308.46 169.896 308.801 170.125C308.977 170.238 309.161 170.302 309.41 170.33C309.657 170.381 309.904 170.411 310.15 170.48C309.903 170.549 309.657 170.579 309.41 170.63C309.169 170.676 308.85 170.669 308.586 170.551C308.035 170.342 307.652 169.732 307.662 169.144C307.666 168.763 307.446 168.391 307.1 168.181C306.918 168.072 306.739 168.021 306.478 167.993C306.233 167.942 305.986 167.913 305.739 167.844Z" fill="white"/>
<path d="M262.33 143.027C262.577 142.959 262.823 142.929 263.069 142.878C263.298 142.833 263.625 142.822 263.89 142.933C264.446 143.126 264.858 143.704 264.862 144.316C264.853 144.718 265.051 145.08 265.392 145.309C265.567 145.422 265.751 145.485 266.001 145.514C266.248 145.564 266.494 145.595 266.74 145.664C266.494 145.733 266.247 145.763 266.001 145.814C265.759 145.859 265.44 145.853 265.177 145.735C264.626 145.525 264.243 144.916 264.253 144.327C264.257 143.946 264.037 143.575 263.691 143.364C263.509 143.256 263.33 143.205 263.068 143.176C262.823 143.126 262.577 143.096 262.33 143.027Z" fill="white"/>
<path d="M289.05 142.468C289.296 142.399 289.542 142.369 289.789 142.319C290.018 142.274 290.345 142.263 290.609 142.374C291.166 142.567 291.577 143.145 291.582 143.757C291.573 144.159 291.771 144.521 292.111 144.75C292.287 144.863 292.471 144.926 292.721 144.955C292.968 145.005 293.213 145.035 293.46 145.105C293.213 145.174 292.968 145.204 292.721 145.254C292.479 145.3 292.16 145.293 291.896 145.175C291.345 144.966 290.963 144.356 290.972 143.768C290.977 143.387 290.757 143.016 290.411 142.805C290.228 142.697 290.049 142.645 289.788 142.617C289.542 142.566 289.296 142.536 289.05 142.468Z" fill="white"/>
<path d="M271.753 116.815C272 116.746 272.246 116.716 272.492 116.666C272.721 116.621 273.048 116.61 273.313 116.72C273.87 116.914 274.281 117.492 274.286 118.103C274.277 118.505 274.475 118.868 274.815 119.096C274.991 119.21 275.175 119.273 275.425 119.302C275.672 119.352 275.917 119.382 276.164 119.451C275.917 119.52 275.672 119.551 275.425 119.601C275.183 119.647 274.864 119.64 274.6 119.522C274.049 119.313 273.667 118.703 273.676 118.115C273.68 117.734 273.461 117.363 273.115 117.152C272.932 117.043 272.753 116.992 272.492 116.964C272.246 116.913 272 116.884 271.753 116.815Z" fill="white"/>
<path d="M255.772 185.623C256.019 185.554 256.265 185.524 256.512 185.474C256.74 185.429 257.068 185.418 257.332 185.529C257.889 185.721 258.3 186.3 258.305 186.912C258.296 187.314 258.494 187.676 258.834 187.905C259.01 188.018 259.194 188.081 259.444 188.11C259.69 188.16 259.936 188.19 260.183 188.26C259.936 188.329 259.689 188.359 259.444 188.409C259.202 188.455 258.883 188.448 258.619 188.33C258.068 188.121 257.685 187.511 257.695 186.923C257.699 186.542 257.479 186.171 257.133 185.96C256.951 185.852 256.772 185.8 256.511 185.772C256.265 185.721 256.018 185.691 255.772 185.623Z" fill="white"/>
<path d="M284.91 230.331C285.157 230.262 285.403 230.233 285.649 230.182C285.878 230.137 286.205 230.126 286.47 230.237C287.027 230.43 287.438 231.008 287.443 231.62C287.434 232.022 287.631 232.384 287.972 232.613C288.147 232.726 288.331 232.789 288.581 232.818C288.828 232.868 289.074 232.898 289.32 232.968C289.074 233.037 288.827 233.066 288.581 233.117C288.34 233.163 288.02 233.156 287.757 233.038C287.206 232.829 286.823 232.22 286.833 231.631C286.837 231.25 286.617 230.879 286.271 230.668C286.089 230.56 285.91 230.509 285.648 230.48C285.403 230.43 285.157 230.4 284.91 230.331Z" fill="white"/>
<path d="M270.562 206.308C270.809 206.239 271.055 206.21 271.302 206.159C271.53 206.115 271.858 206.103 272.122 206.214C272.679 206.407 273.09 206.986 273.095 207.597C273.086 207.999 273.284 208.361 273.624 208.59C273.8 208.703 273.984 208.767 274.234 208.795C274.48 208.846 274.726 208.876 274.973 208.945C274.726 209.014 274.48 209.044 274.234 209.095C273.992 209.14 273.673 209.134 273.409 209.016C272.858 208.806 272.475 208.197 272.485 207.608C272.489 207.227 272.269 206.856 271.924 206.645C271.741 206.537 271.562 206.487 271.301 206.457C271.055 206.407 270.808 206.377 270.562 206.308Z" fill="white"/>
<path d="M244.023 210.673C244.27 210.605 244.516 210.575 244.763 210.524C244.991 210.479 245.318 210.468 245.583 210.579C246.14 210.772 246.551 211.349 246.556 211.962C246.547 212.364 246.745 212.726 247.085 212.955C247.261 213.068 247.445 213.131 247.695 213.16C247.941 213.21 248.188 213.24 248.434 213.31C248.187 213.379 247.941 213.408 247.695 213.459C247.453 213.505 247.134 213.498 246.87 213.38C246.319 213.171 245.936 212.561 245.946 211.973C245.95 211.592 245.73 211.221 245.384 211.01C245.202 210.902 245.023 210.851 244.762 210.822C244.517 210.771 244.27 210.742 244.023 210.673Z" fill="white"/>
<path d="M282.779 186.212C283.026 186.142 283.272 186.113 283.518 186.063C283.747 186.018 284.074 186.006 284.339 186.117C284.896 186.311 285.307 186.889 285.312 187.5C285.303 187.902 285.5 188.264 285.841 188.493C286.017 188.606 286.201 188.67 286.45 188.698C286.697 188.749 286.944 188.779 287.19 188.848C286.943 188.917 286.696 188.947 286.45 188.998C286.209 189.043 285.89 189.037 285.626 188.919C285.075 188.71 284.692 188.1 284.702 187.511C284.706 187.13 284.486 186.759 284.14 186.549C283.958 186.44 283.779 186.39 283.518 186.36C283.273 186.309 283.026 186.28 282.779 186.212Z" fill="white"/>
<path d="M316.72 219.104C316.966 219.034 317.212 219.005 317.459 218.955C317.688 218.91 318.015 218.899 318.279 219.009C318.836 219.202 319.247 219.781 319.252 220.392C319.243 220.794 319.441 221.157 319.781 221.385C319.957 221.498 320.141 221.562 320.391 221.59C320.638 221.641 320.883 221.671 321.13 221.74C320.883 221.809 320.638 221.839 320.391 221.89C320.149 221.936 319.83 221.929 319.566 221.811C319.015 221.602 318.633 220.992 318.642 220.404C318.646 220.023 318.427 219.651 318.081 219.441C317.898 219.332 317.719 219.281 317.458 219.253C317.212 219.202 316.966 219.173 316.72 219.104Z" fill="white"/>
<path d="M303.249 199.025C303.496 198.956 303.742 198.926 303.988 198.876C304.217 198.831 304.544 198.82 304.809 198.93C305.365 199.123 305.776 199.702 305.781 200.313C305.772 200.715 305.97 201.078 306.31 201.306C306.486 201.419 306.67 201.483 306.92 201.511C307.167 201.562 307.413 201.592 307.659 201.661C307.413 201.73 307.167 201.76 306.92 201.811C306.678 201.857 306.359 201.85 306.096 201.732C305.545 201.523 305.162 200.913 305.172 200.325C305.176 199.944 304.957 199.572 304.61 199.362C304.428 199.253 304.249 199.202 303.987 199.174C303.742 199.123 303.496 199.093 303.249 199.025Z" fill="white"/>
<path d="M331.886 228.288C332.132 228.219 332.379 228.189 332.625 228.139C332.854 228.094 333.181 228.083 333.445 228.194C334.002 228.386 334.413 228.965 334.418 229.577C334.409 229.979 334.607 230.341 334.947 230.57C335.123 230.683 335.307 230.746 335.557 230.775C335.804 230.825 336.049 230.855 336.296 230.925C336.049 230.994 335.804 231.024 335.557 231.074C335.315 231.12 334.996 231.113 334.732 230.995C334.181 230.786 333.799 230.176 333.808 229.588C333.812 229.207 333.593 228.836 333.247 228.625C333.064 228.517 332.885 228.466 332.624 228.437C332.378 228.386 332.132 228.356 331.886 228.288Z" fill="white"/>
<path d="M264.617 156.887C264.492 157.11 264.338 157.306 264.2 157.515C264.069 157.708 263.846 157.947 263.581 158.057C263.051 158.314 262.351 158.196 261.915 157.767C261.636 157.476 261.241 157.36 260.839 157.439C260.634 157.484 260.459 157.568 260.262 157.725C260.052 157.863 259.857 158.016 259.634 158.142C259.759 157.918 259.912 157.723 260.051 157.513C260.189 157.31 260.419 157.089 260.69 156.986C261.227 156.745 261.928 156.905 262.338 157.328C262.605 157.6 263.022 157.708 263.416 157.612C263.621 157.56 263.784 157.469 263.989 157.306C264.2 157.166 264.395 157.013 264.617 156.887Z" fill="white"/>
<path d="M254.76 140.404C254.634 140.627 254.48 140.823 254.342 141.032C254.212 141.226 253.988 141.464 253.723 141.574C253.194 141.831 252.494 141.713 252.057 141.284C251.78 140.994 251.383 140.877 250.981 140.956C250.777 141.001 250.602 141.086 250.405 141.242C250.195 141.38 249.999 141.533 249.776 141.659C249.902 141.436 250.055 141.24 250.193 141.03C250.332 140.828 250.562 140.606 250.832 140.504C251.369 140.262 252.071 140.422 252.48 140.846C252.747 141.118 253.164 141.225 253.558 141.13C253.763 141.078 253.926 140.986 254.131 140.823C254.342 140.683 254.537 140.53 254.76 140.404Z" fill="white"/>
<path d="M304.5 185.584C304.375 185.807 304.221 186.002 304.082 186.211C303.952 186.405 303.728 186.645 303.464 186.754C302.934 187.01 302.234 186.892 301.797 186.464C301.519 186.173 301.123 186.057 300.721 186.136C300.517 186.181 300.342 186.265 300.145 186.421C299.935 186.56 299.74 186.713 299.517 186.838C299.642 186.615 299.795 186.42 299.933 186.21C300.072 186.006 300.302 185.786 300.572 185.683C301.11 185.441 301.811 185.602 302.221 186.025C302.488 186.297 302.904 186.404 303.298 186.309C303.504 186.257 303.666 186.166 303.872 186.002C304.082 185.863 304.277 185.709 304.5 185.584Z" fill="white"/>
<path d="M279.611 132.155C279.486 132.378 279.332 132.573 279.194 132.783C279.063 132.977 278.84 133.215 278.575 133.325C278.045 133.582 277.345 133.464 276.909 133.035C276.631 132.745 276.235 132.628 275.833 132.707C275.628 132.752 275.453 132.837 275.256 132.993C275.046 133.131 274.851 133.284 274.628 133.41C274.753 133.187 274.906 132.991 275.045 132.781C275.183 132.578 275.413 132.357 275.684 132.255C276.221 132.013 276.923 132.173 277.332 132.597C277.599 132.868 278.016 132.976 278.41 132.881C278.615 132.829 278.778 132.737 278.983 132.574C279.193 132.434 279.388 132.281 279.611 132.155Z" fill="white"/>
<path d="M262.37 119.981C262.245 120.204 262.091 120.4 261.952 120.609C261.822 120.803 261.598 121.041 261.333 121.151C260.803 121.408 260.103 121.289 259.667 120.861C259.389 120.571 258.993 120.454 258.59 120.533C258.386 120.578 258.211 120.663 258.014 120.819C257.804 120.957 257.609 121.11 257.386 121.236C257.511 121.013 257.664 120.817 257.803 120.607C257.941 120.404 258.171 120.183 258.441 120.081C258.979 119.839 259.68 119.999 260.09 120.422C260.357 120.694 260.774 120.802 261.168 120.706C261.373 120.654 261.536 120.563 261.741 120.4C261.952 120.26 262.147 120.107 262.37 119.981Z" fill="white"/>
<path d="M278.642 147.658C278.71 147.905 278.74 148.15 278.791 148.397C278.835 148.626 278.847 148.953 278.736 149.218C278.542 149.774 277.964 150.185 277.353 150.19C276.951 150.181 276.589 150.379 276.36 150.719C276.247 150.895 276.183 151.079 276.155 151.329C276.104 151.576 276.074 151.822 276.005 152.068C275.936 151.822 275.906 151.576 275.855 151.329C275.81 151.087 275.816 150.768 275.934 150.505C276.143 149.954 276.753 149.571 277.342 149.581C277.723 149.585 278.094 149.366 278.305 149.02C278.413 148.838 278.463 148.658 278.493 148.397C278.543 148.151 278.573 147.905 278.642 147.658Z" fill="white"/>
<path d="M272.769 191.019C272.838 191.266 272.867 191.512 272.918 191.758C272.962 191.987 272.974 192.314 272.863 192.579C272.669 193.135 272.091 193.546 271.48 193.551C271.078 193.542 270.716 193.74 270.487 194.08C270.374 194.256 270.31 194.44 270.282 194.69C270.231 194.937 270.201 195.183 270.132 195.429C270.063 195.183 270.034 194.936 269.982 194.69C269.937 194.448 269.943 194.129 270.061 193.866C270.27 193.314 270.88 192.932 271.469 192.942C271.85 192.946 272.221 192.726 272.432 192.38C272.54 192.198 272.59 192.019 272.62 191.757C272.67 191.512 272.699 191.266 272.769 191.019Z" fill="white"/>
<path d="M329.715 211.104C329.784 211.351 329.813 211.598 329.864 211.844C329.909 212.072 329.92 212.399 329.809 212.665C329.616 213.222 329.038 213.633 328.426 213.638C328.024 213.629 327.662 213.826 327.433 214.167C327.32 214.343 327.257 214.526 327.228 214.776C327.178 215.023 327.148 215.269 327.078 215.516C327.009 215.269 326.979 215.022 326.929 214.776C326.883 214.535 326.889 214.216 327.007 213.952C327.217 213.401 327.826 213.018 328.415 213.028C328.796 213.032 329.167 212.812 329.378 212.466C329.486 212.284 329.537 212.105 329.566 211.844C329.616 211.598 329.646 211.351 329.715 211.104Z" fill="white"/>
<path d="M303.326 153.663C303.395 153.91 303.425 154.155 303.475 154.402C303.52 154.631 303.531 154.958 303.421 155.223C303.228 155.779 302.649 156.19 302.038 156.195C301.636 156.186 301.273 156.384 301.045 156.724C300.931 156.9 300.868 157.084 300.839 157.334C300.789 157.581 300.759 157.826 300.69 158.073C300.62 157.826 300.591 157.581 300.54 157.334C300.494 157.092 300.501 156.773 300.619 156.509C300.828 155.958 301.438 155.576 302.026 155.586C302.407 155.59 302.778 155.37 302.989 155.024C303.097 154.842 303.148 154.662 303.177 154.401C303.228 154.155 303.257 153.909 303.326 153.663Z" fill="white"/>
<path d="M303.326 223.283C303.395 223.529 303.425 223.775 303.475 224.022C303.52 224.251 303.531 224.578 303.421 224.842C303.228 225.399 302.649 225.81 302.038 225.815C301.636 225.806 301.273 226.004 301.045 226.344C300.931 226.52 300.868 226.704 300.839 226.954C300.789 227.2 300.759 227.447 300.69 227.693C300.62 227.446 300.59 227.2 300.54 226.954C300.494 226.712 300.501 226.393 300.619 226.129C300.828 225.578 301.437 225.196 302.026 225.205C302.407 225.209 302.778 224.99 302.989 224.644C303.097 224.461 303.148 224.282 303.177 224.021C303.228 223.776 303.257 223.529 303.326 223.283Z" fill="white"/>
<path d="M316.722 183.417C316.791 183.664 316.82 183.91 316.871 184.156C316.915 184.385 316.927 184.712 316.816 184.977C316.623 185.533 316.045 185.945 315.433 185.949C315.031 185.94 314.669 186.138 314.44 186.479C314.327 186.654 314.263 186.838 314.235 187.088C314.184 187.335 314.154 187.581 314.085 187.827C314.016 187.581 313.987 187.335 313.935 187.088C313.89 186.846 313.896 186.527 314.014 186.264C314.224 185.713 314.833 185.33 315.422 185.34C315.803 185.344 316.174 185.124 316.385 184.778C316.493 184.596 316.543 184.417 316.573 184.155C316.623 183.91 316.653 183.664 316.722 183.417Z" fill="white"/>
<path d="M248.865 192.57C248.934 192.817 248.964 193.064 249.014 193.31C249.059 193.538 249.07 193.866 248.96 194.13C248.766 194.687 248.188 195.098 247.577 195.103C247.175 195.094 246.812 195.292 246.584 195.632C246.47 195.808 246.407 195.992 246.378 196.242C246.328 196.488 246.298 196.735 246.229 196.981C246.16 196.734 246.129 196.488 246.079 196.242C246.033 196 246.04 195.681 246.158 195.417C246.367 194.866 246.977 194.483 247.565 194.493C247.946 194.497 248.317 194.277 248.528 193.931C248.637 193.749 248.687 193.57 248.716 193.309C248.767 193.064 248.797 192.817 248.865 192.57Z" fill="white"/>
<path d="M250.185 153.663C250.253 153.91 250.283 154.155 250.334 154.402C250.378 154.631 250.39 154.958 250.279 155.223C250.086 155.779 249.507 156.19 248.896 156.195C248.494 156.186 248.132 156.384 247.903 156.724C247.79 156.9 247.726 157.084 247.698 157.334C247.647 157.581 247.617 157.826 247.548 158.073C247.479 157.826 247.45 157.581 247.398 157.334C247.353 157.092 247.359 156.773 247.477 156.509C247.686 155.958 248.296 155.576 248.885 155.586C249.266 155.59 249.637 155.371 249.848 155.024C249.956 154.842 250.006 154.662 250.036 154.401C250.086 154.155 250.115 153.909 250.185 153.663Z" fill="white"/>
<path d="M264.377 128.371C264.445 128.618 264.475 128.864 264.526 129.11C264.571 129.339 264.582 129.666 264.471 129.931C264.278 130.487 263.7 130.899 263.088 130.903C262.686 130.894 262.324 131.092 262.095 131.433C261.982 131.608 261.919 131.792 261.89 132.042C261.84 132.289 261.81 132.535 261.74 132.781C261.671 132.535 261.641 132.289 261.591 132.042C261.545 131.8 261.552 131.481 261.67 131.218C261.879 130.667 262.488 130.284 263.077 130.294C263.458 130.298 263.829 130.078 264.04 129.732C264.148 129.55 264.199 129.371 264.228 129.109C264.278 128.864 264.308 128.618 264.377 128.371Z" fill="white"/>
<path d="M260.567 167.474C260.637 167.721 260.666 167.966 260.716 168.213C260.761 168.442 260.773 168.769 260.662 169.034C260.468 169.59 259.89 170.001 259.279 170.006C258.877 169.997 258.515 170.195 258.286 170.535C258.173 170.711 258.109 170.895 258.081 171.145C258.03 171.392 258 171.638 257.931 171.884C257.862 171.638 257.832 171.391 257.781 171.145C257.736 170.903 257.742 170.584 257.86 170.321C258.069 169.77 258.679 169.387 259.267 169.397C259.648 169.401 260.02 169.181 260.23 168.835C260.339 168.653 260.39 168.474 260.418 168.212C260.469 167.967 260.498 167.72 260.567 167.474Z" fill="white"/>
<path d="M294.779 172.73C294.848 172.977 294.878 173.223 294.928 173.469C294.973 173.698 294.984 174.025 294.874 174.29C294.68 174.846 294.102 175.258 293.491 175.262C293.089 175.253 292.726 175.451 292.498 175.792C292.385 175.967 292.321 176.151 292.293 176.401C292.242 176.648 292.212 176.894 292.143 177.14C292.074 176.894 292.044 176.648 291.993 176.401C291.947 176.159 291.954 175.84 292.072 175.577C292.281 175.026 292.891 174.643 293.479 174.653C293.86 174.657 294.232 174.437 294.442 174.091C294.551 173.909 294.601 173.73 294.63 173.468C294.681 173.223 294.711 172.976 294.779 172.73Z" fill="white"/>
<path d="M263.159 216.639C263.228 216.885 263.258 217.131 263.308 217.378C263.353 217.607 263.364 217.934 263.254 218.198C263.06 218.755 262.482 219.166 261.871 219.171C261.469 219.162 261.106 219.36 260.878 219.7C260.764 219.876 260.701 220.06 260.672 220.31C260.622 220.557 260.592 220.802 260.523 221.049C260.453 220.802 260.424 220.557 260.373 220.31C260.327 220.068 260.334 219.749 260.452 219.485C260.661 218.934 261.271 218.552 261.859 218.561C262.24 218.566 262.611 218.346 262.822 218C262.93 217.817 262.982 217.638 263.01 217.377C263.061 217.131 263.091 216.885 263.159 216.639Z" fill="white"/>
<path d="M288.916 160.318C289.041 160.095 289.195 159.9 289.334 159.69C289.464 159.496 289.688 159.258 289.952 159.148C290.482 158.891 291.182 159.008 291.618 159.437C291.897 159.728 292.292 159.844 292.695 159.765C292.899 159.721 293.074 159.636 293.271 159.48C293.481 159.341 293.676 159.188 293.899 159.063C293.774 159.286 293.621 159.481 293.483 159.691C293.344 159.895 293.114 160.115 292.844 160.218C292.306 160.46 291.605 160.299 291.195 159.876C290.928 159.604 290.511 159.497 290.117 159.592C289.912 159.644 289.75 159.735 289.544 159.899C289.334 160.039 289.138 160.192 288.916 160.318Z" fill="white"/>
<path d="M268.957 178.395C269.082 178.172 269.236 177.976 269.375 177.766C269.505 177.573 269.729 177.334 269.993 177.224C270.523 176.968 271.223 177.085 271.66 177.514C271.938 177.805 272.334 177.921 272.736 177.842C272.94 177.798 273.115 177.713 273.312 177.556C273.522 177.418 273.717 177.265 273.94 177.139C273.815 177.362 273.662 177.558 273.524 177.768C273.385 177.971 273.155 178.192 272.885 178.295C272.347 178.536 271.646 178.376 271.236 177.953C270.969 177.681 270.552 177.573 270.159 177.669C269.953 177.721 269.791 177.812 269.585 177.975C269.375 178.116 269.18 178.269 268.957 178.395Z" fill="white"/>
<path d="M255.438 205.026C255.563 204.803 255.717 204.608 255.855 204.398C255.985 204.204 256.209 203.966 256.474 203.856C257.004 203.599 257.704 203.717 258.14 204.146C258.418 204.436 258.814 204.553 259.216 204.474C259.42 204.429 259.595 204.344 259.792 204.188C260.002 204.049 260.198 203.896 260.421 203.771C260.295 203.994 260.142 204.19 260.004 204.4C259.866 204.603 259.635 204.824 259.365 204.926C258.828 205.168 258.126 205.008 257.717 204.584C257.45 204.312 257.032 204.205 256.639 204.3C256.434 204.352 256.271 204.443 256.066 204.607C255.856 204.747 255.661 204.901 255.438 205.026Z" fill="white"/>
<path d="M261.283 232.699C261.409 232.476 261.562 232.281 261.701 232.071C261.831 231.878 262.055 231.638 262.319 231.529C262.85 231.273 263.549 231.39 263.986 231.819C264.264 232.11 264.66 232.226 265.062 232.147C265.266 232.102 265.441 232.018 265.638 231.861C265.848 231.723 266.043 231.57 266.266 231.445C266.141 231.668 265.988 231.863 265.85 232.073C265.711 232.277 265.481 232.497 265.211 232.6C264.673 232.841 263.972 232.681 263.562 232.258C263.295 231.986 262.879 231.879 262.485 231.974C262.28 232.026 262.117 232.117 261.912 232.281C261.702 232.42 261.506 232.573 261.283 232.699Z" fill="white"/>
<path d="M287.444 202.289C287.57 202.066 287.724 201.87 287.862 201.66C287.992 201.467 288.215 201.227 288.481 201.118C289.01 200.861 289.711 200.98 290.147 201.408C290.425 201.699 290.821 201.815 291.223 201.736C291.427 201.691 291.602 201.607 291.799 201.45C292.009 201.312 292.205 201.159 292.428 201.034C292.302 201.257 292.149 201.452 292.011 201.662C291.873 201.866 291.642 202.086 291.372 202.189C290.835 202.43 290.133 202.27 289.724 201.847C289.457 201.575 289.04 201.467 288.646 201.563C288.441 201.615 288.278 201.706 288.073 201.87C287.863 202.01 287.667 202.163 287.444 202.289Z" fill="white"/>
<path d="M305.453 213.31C305.578 213.087 305.732 212.892 305.871 212.682C306.001 212.488 306.224 212.25 306.489 212.14C307.019 211.883 307.719 212.001 308.156 212.43C308.434 212.72 308.83 212.837 309.232 212.758C309.436 212.713 309.611 212.628 309.808 212.472C310.018 212.334 310.213 212.181 310.436 212.055C310.311 212.278 310.158 212.474 310.02 212.684C309.881 212.887 309.651 213.108 309.381 213.21C308.843 213.452 308.142 213.292 307.732 212.868C307.465 212.596 307.049 212.489 306.655 212.584C306.449 212.636 306.287 212.728 306.082 212.891C305.871 213.031 305.676 213.185 305.453 213.31Z" fill="white"/>
<path d="M275.162 221.677C275.287 221.454 275.441 221.258 275.58 221.049C275.71 220.855 275.933 220.616 276.198 220.507C276.728 220.251 277.428 220.369 277.865 220.798C278.143 221.088 278.539 221.205 278.941 221.126C279.145 221.081 279.32 220.996 279.517 220.84C279.727 220.701 279.922 220.548 280.145 220.423C280.02 220.646 279.867 220.842 279.729 221.052C279.59 221.255 279.36 221.476 279.09 221.578C278.552 221.82 277.851 221.66 277.441 221.236C277.174 220.964 276.757 220.857 276.364 220.952C276.158 221.004 275.996 221.095 275.791 221.259C275.581 221.397 275.385 221.551 275.162 221.677Z" fill="white"/>
<path d="M314.229 232.699C314.355 232.476 314.509 232.281 314.647 232.071C314.777 231.878 315.001 231.639 315.266 231.529C315.796 231.272 316.496 231.391 316.932 231.819C317.21 232.11 317.606 232.226 318.008 232.147C318.212 232.102 318.387 232.018 318.584 231.861C318.794 231.723 318.99 231.57 319.213 231.445C319.087 231.668 318.934 231.863 318.796 232.073C318.658 232.276 318.427 232.497 318.157 232.6C317.62 232.841 316.918 232.681 316.509 232.258C316.242 231.986 315.825 231.879 315.431 231.974C315.226 232.026 315.063 232.117 314.858 232.281C314.647 232.42 314.453 232.573 314.229 232.699Z" fill="white"/>
<path d="M318.64 202.916C318.765 202.693 318.919 202.497 319.057 202.288C319.187 202.094 319.411 201.856 319.676 201.746C320.206 201.489 320.906 201.608 321.342 202.036C321.62 202.326 322.016 202.443 322.418 202.364C322.623 202.319 322.798 202.234 322.995 202.078C323.205 201.94 323.4 201.787 323.623 201.661C323.498 201.884 323.345 202.08 323.206 202.29C323.068 202.493 322.837 202.714 322.567 202.816C322.03 203.058 321.328 202.898 320.919 202.474C320.652 202.202 320.235 202.095 319.841 202.19C319.636 202.242 319.473 202.334 319.268 202.497C319.058 202.637 318.863 202.79 318.64 202.916Z" fill="white"/>
<path d="M247.286 225.489C247.411 225.266 247.565 225.07 247.704 224.861C247.834 224.667 248.057 224.428 248.322 224.319C248.852 224.062 249.552 224.18 249.989 224.609C250.266 224.899 250.663 225.016 251.065 224.937C251.269 224.892 251.444 224.807 251.641 224.651C251.851 224.513 252.046 224.36 252.269 224.234C252.144 224.457 251.991 224.653 251.853 224.863C251.714 225.066 251.484 225.287 251.214 225.389C250.676 225.631 249.975 225.471 249.565 225.047C249.298 224.776 248.881 224.668 248.488 224.763C248.282 224.815 248.12 224.907 247.915 225.07C247.705 225.209 247.509 225.362 247.286 225.489Z" fill="white"/>
<path d="M245.055 179.022C245.18 178.799 245.334 178.604 245.472 178.395C245.603 178.201 245.826 177.962 246.091 177.853C246.621 177.595 247.321 177.713 247.757 178.142C248.036 178.433 248.431 178.549 248.833 178.47C249.038 178.426 249.213 178.341 249.41 178.185C249.62 178.046 249.815 177.893 250.038 177.768C249.913 177.991 249.76 178.186 249.621 178.396C249.483 178.6 249.252 178.82 248.982 178.923C248.445 179.165 247.743 179.004 247.334 178.581C247.067 178.309 246.649 178.202 246.256 178.297C246.051 178.349 245.888 178.44 245.683 178.604C245.473 178.743 245.278 178.897 245.055 179.022Z" fill="white"/>
<path d="M271.611 117.02C271.308 118.54 264.438 128.562 257.538 128.468C255.29 128.433 254.932 116.159 254.932 116.159L254.698 115.258L251.438 102.657L266.034 92.5926L268.147 91.2543C268.147 91.2543 268.812 94.7611 269.595 99.1355C269.633 99.3382 269.67 99.5409 269.708 99.7582C269.758 100.005 269.809 100.237 269.846 100.468C269.972 101.12 270.097 101.787 270.208 102.453C270.295 102.959 270.382 103.451 270.453 103.987C270.539 104.523 270.61 105.043 270.696 105.579C271.425 110.876 271.731 116.375 271.611 117.02Z" fill="#DD6A57"/>
<path d="M269.595 99.1355C266.294 109.361 258.358 113.748 254.698 115.258L251.438 102.657L266.034 92.5926L268.147 91.2543C268.147 91.2543 268.812 94.7611 269.595 99.1355Z" fill="#0E0F1C"/>
<path d="M233.551 83.9463C232.947 106.783 246.558 109.723 251.482 109.848C255.953 109.961 271.189 109.779 274.149 87.1257C277.109 64.4729 266.681 56.9735 256.47 56.1734C246.26 55.374 234.154 61.1087 233.551 83.9463Z" fill="#DD6A57"/>
<path d="M237.016 77.0338C237.548 76.9483 238.026 76.7806 238.544 76.6414C239.128 76.4843 239.611 76.4192 240.026 75.9438C240.249 75.6891 240.209 75.1925 239.982 74.9532C239.452 74.3948 238.688 74.4086 237.976 74.569C237.203 74.7432 236.653 75.0745 236.165 75.6964C235.693 76.2979 236.314 77.1461 237.016 77.0338Z" fill="#263238"/>
<path d="M252.28 80.3712C251.742 80.3321 251.252 80.2067 250.724 80.1131C250.127 80.0073 249.642 79.9845 249.186 79.5474C248.942 79.313 248.939 78.8148 249.145 78.5559C249.624 77.9528 250.386 77.9015 251.109 77.9992C251.893 78.105 252.471 78.3883 253.011 78.9646C253.534 79.523 252.99 80.4216 252.28 80.3712Z" fill="#263238"/>
<path d="M240.384 84.4672C240.368 84.4086 240.268 84.5486 240.274 84.6121C240.427 86.1603 240.343 87.9601 238.973 88.5697C238.931 88.5885 238.94 88.6658 238.992 88.6552C240.689 88.2995 240.777 85.9096 240.384 84.4672Z" fill="#263238"/>
<path d="M238.89 82.9393C236.381 82.9173 236.521 87.9365 238.845 87.9568C241.132 87.9772 240.992 82.958 238.89 82.9393Z" fill="#263238"/>
<path d="M237.851 83.2983C237.462 83.5751 237.083 84.07 236.61 84.114C236.062 84.1652 235.64 83.6337 235.275 83.1233C235.237 83.0704 235.198 83.1136 235.198 83.1803C235.198 84.1408 235.543 85.1306 236.471 85.2894C237.315 85.4343 237.911 84.5934 238.112 83.6313C238.151 83.453 238.008 83.1868 237.851 83.2983Z" fill="#263238"/>
<path d="M250.601 97.7582C250.215 98.1099 249.824 98.5991 249.257 98.6268C248.713 98.6528 248.085 98.3858 247.595 98.175C247.547 98.1546 247.494 98.2043 247.525 98.2523C247.908 98.8644 248.746 99.2698 249.473 99.1689C250.183 99.0712 250.553 98.4729 250.748 97.8339C250.775 97.7444 250.658 97.7078 250.601 97.7582Z" fill="#263238"/>
<path d="M242.822 91.5173C242.822 91.5173 242.635 93.8445 242.698 94.9344C242.704 95.0362 245.789 94.595 249.044 95.4888C249.532 95.6223 249.504 95.2193 248.948 94.9271C247.835 94.3427 246.414 93.7753 243.58 93.9332C243.486 93.6361 243.933 90.3549 243.759 90.3516C243.16 90.3353 242.011 90.8075 241.318 91.0541C241.565 86.1945 242.589 81.4139 242.762 76.5714C242.765 76.3988 242.516 76.3614 242.474 76.5177C241.046 81.4522 240.639 87.0386 240.256 92.0504C240.201 92.6748 242.396 91.7273 242.822 91.5173Z" fill="#263238"/>
<path d="M253.688 84.5486C253.245 84.3541 252.769 84.2784 252.286 84.2189C251.802 84.1807 251.305 84.2083 250.809 84.3158C250.318 84.4411 249.821 84.6365 249.38 84.9556C248.94 85.2779 248.572 85.7151 248.311 86.2059L247.837 87.0956L248.818 86.9873C249.481 86.9141 250.214 86.9011 250.903 86.9768C251.598 87.0639 252.285 87.2324 252.917 87.6915C252.57 86.9686 251.839 86.4558 251.083 86.2035C250.314 85.9446 249.532 85.8575 248.704 85.93L249.211 86.7114C249.614 86.0146 250.246 85.4985 251.05 85.1778C251.848 84.8636 252.743 84.6609 253.688 84.5486Z" fill="#263238"/>
<path d="M250.861 88.5918C250.124 88.337 249.413 88.2157 248.748 87.7729C248.596 87.6719 248.003 87.2242 248.037 87.0964C248.091 86.7497 248.26 86.359 248.425 86.0016C248.191 86.3256 247.926 86.626 247.816 87.0663C247.869 87.4375 248.14 87.8225 248.577 88.0765C249.281 88.4859 250.183 88.6243 250.861 88.5918Z" fill="#263238"/>
<path d="M245.454 94.7749C245.454 94.7749 246.871 96.8034 248.5 97.0541C250.374 97.3431 250.595 95.6565 248.527 94.6992C247.442 94.1978 245.454 94.7749 245.454 94.7749Z" fill="#263238"/>
<path d="M248.495 97.0501C247.797 96.9508 247.141 96.5226 246.614 96.0529C246.999 95.4693 247.896 94.8279 249.905 95.9105C250.204 96.6366 249.677 97.2349 248.495 97.0501Z" fill="#FF99BA"/>
<path d="M273.987 87.6711C270.226 88.1465 268.975 80.2727 268.975 80.2727C268.975 80.2727 261.303 80.6683 258.237 69.7582C258.237 69.7582 258.652 74.8856 262.076 78.7163C262.076 78.7163 248.479 77.9389 242.234 66.8946C242.234 66.8946 244.786 72.5503 247.016 74.4982C247.016 74.4982 241.265 73.1909 238.275 68.7179C238.275 68.7179 236.223 75.3667 234.488 77.2601C234.488 77.2601 233.897 53.5629 255.947 55.0159C255.947 55.0159 269.722 55.2609 275.181 65.8893C280.638 76.5185 273.987 87.6711 273.987 87.6711Z" fill="#0E0F1C"/>
<path d="M270.472 88.7839C270.472 88.7839 275.02 81.3667 278.357 82.9467C281.694 84.5266 278.572 95.0704 274.866 96.7098C271.159 98.3492 269.574 94.9483 269.574 94.9483L270.472 88.7839Z" fill="#DD6A57"/>
<path d="M277.387 85.9471C277.448 85.9381 277.465 86.0228 277.413 86.0472C274.82 87.2845 273.569 89.8339 272.742 92.4493C273.474 91.418 274.517 90.814 275.892 91.6752C275.965 91.7208 275.904 91.8331 275.829 91.8217C274.726 91.654 273.951 91.8901 273.268 92.8066C272.784 93.4554 272.475 94.258 272.144 94.9939C272.035 95.2389 271.597 95.1379 271.671 94.8587C271.677 94.8384 271.684 94.8172 271.689 94.7961C271.419 91.409 273.768 86.5071 277.387 85.9471Z" fill="#263238"/>
<path d="M272.699 95.5173C272.73 96.1042 273.231 96.5551 273.818 96.5242C274.405 96.4933 274.856 95.9918 274.825 95.4049C274.794 94.818 274.293 94.3671 273.706 94.398C273.118 94.4298 272.668 94.9304 272.699 95.5173Z" fill="white"/>
<path d="M275.278 93.7509C275.299 94.1269 275.619 94.4159 275.995 94.3956C276.372 94.3752 276.66 94.0545 276.64 93.6784C276.62 93.3024 276.299 93.0142 275.923 93.0337C275.547 93.0541 275.258 93.3748 275.278 93.7509Z" fill="white"/>
<path d="M201.185 138.213L189.366 140.957L197.865 177.557L209.684 174.812L201.185 138.213Z" fill="#EBEBEB"/>
<path d="M172.392 41.0297C144.799 47.4384 127.621 75.011 134.031 102.612C140.44 130.205 168.012 147.383 195.605 140.974C223.206 134.563 240.376 106.993 233.967 79.4001C227.556 51.799 199.992 34.6187 172.392 41.0297ZM193.162 130.453C171.381 135.512 149.612 121.949 144.553 100.168C139.492 78.3793 153.054 56.6113 174.835 51.5523C196.624 46.4917 218.385 60.0562 223.446 81.8445C228.505 103.625 214.95 125.391 193.162 130.453Z" fill="#D3D4CF"/>
<path d="M217.686 218.033L209.751 219.876C207.006 220.513 204.264 218.806 203.627 216.061L193.488 172.407C192.851 169.662 194.558 166.921 197.303 166.283L205.238 164.44C207.983 163.803 210.724 165.511 211.362 168.255L221.501 211.909C222.138 214.654 220.43 217.396 217.686 218.033Z" fill="#263238"/>
<g opacity="0.3">
<path d="M223.445 81.8437C228.504 103.625 214.949 125.392 193.161 130.452C171.38 135.512 149.611 121.949 144.552 100.168C139.492 78.3793 153.054 56.6113 174.835 51.5523C196.624 46.4908 218.385 60.0545 223.445 81.8437Z" fill="white"/>
<path d="M224.441 93.2608C223.478 110.776 211.117 126.289 193.159 130.454C189.447 131.315 185.738 131.638 182.104 131.468L224.441 93.2608Z" fill="#EBEBEB"/>
<path d="M205.808 56.8824L147.823 109.211C146.402 106.4 145.302 103.368 144.554 100.168C143.691 96.4884 143.374 92.8042 143.543 89.2022L186.351 50.5625C193.363 50.9703 200.046 53.1966 205.808 56.8824Z" fill="#EBEBEB"/>
<path d="M222.332 77.9601L167.098 127.806C164.685 126.696 162.39 125.348 160.236 123.795L219.051 70.7171C220.371 72.9768 221.469 75.3968 222.332 77.9601Z" fill="#EBEBEB"/>
<path d="M210.258 60.1832L150.648 113.986C150.367 113.581 150.095 113.175 149.831 112.763L209.124 59.2536C209.509 59.5499 209.892 59.8551 210.258 60.1832Z" fill="#EBEBEB"/>
<path d="M172.865 52.0635L146.406 75.9414C146.856 74.8148 147.36 73.7086 147.913 72.6276L169.432 53.2071C170.546 52.7757 171.691 52.394 172.865 52.0635Z" fill="#EBEBEB"/>
</g>
<path d="M155.246 98.0138C155.235 97.9584 155.225 97.9023 155.215 97.8469C155.074 97.0671 155.319 98.6219 155.251 98.096C155.17 97.4676 155.089 96.8408 155.035 96.2092C154.848 94.0016 154.855 91.7761 155.036 89.5685C155.061 89.2576 155.099 88.9467 155.123 88.6357C155.131 88.5331 155.032 89.3716 155.118 88.7041C155.143 88.5144 155.166 88.3248 155.192 88.1351C155.293 87.4041 155.415 86.6756 155.557 85.9511C155.87 84.3549 156.284 82.7782 156.804 81.2364C156.929 80.8677 157.065 80.503 157.195 80.1359C157.371 79.6418 156.967 80.6854 157.236 80.0342C157.326 79.8185 157.413 79.6019 157.505 79.3862C157.854 78.5673 158.236 77.7623 158.649 76.9735C159.095 76.1205 159.578 75.2861 160.097 74.4745C160.334 74.1025 160.582 73.7371 160.832 73.3732C161.265 72.744 160.632 73.6223 160.965 73.1868C161.126 72.976 161.284 72.7627 161.448 72.5527C162.918 70.6691 164.591 68.9833 166.397 67.4237C166.434 67.3919 166.766 67.1192 166.489 67.3455C166.207 67.5759 166.64 67.2267 166.689 67.1884C166.967 66.9711 167.245 66.7546 167.528 66.5437C168.071 66.1376 168.626 65.746 169.19 65.3692C170.384 64.5714 171.621 63.8429 172.888 63.1665C174.343 62.3891 174.691 60.2914 173.861 58.9597C172.94 57.4815 171.113 57.2072 169.655 57.9862C161.618 62.28 155.034 69.0517 151.686 77.5881C149.444 83.3048 148.474 89.5165 148.879 95.6491C148.969 97.0199 149.121 98.407 149.394 99.7541C149.713 101.324 151.727 102.317 153.19 101.81C154.869 101.227 155.588 99.6947 155.246 98.0138Z" fill="white"/>
<path d="M157.98 106.671C158.452 108.26 157.548 109.932 155.959 110.404C154.37 110.876 152.699 109.971 152.227 108.383C151.755 106.794 152.659 105.122 154.248 104.65C155.837 104.177 157.507 105.083 157.98 106.671Z" fill="white"/>
<path d="M287.484 132.335C294.809 158.826 298.327 185.421 294.269 199.135C291.683 207.878 285.441 213.774 281.466 215.741C272.177 220.334 241.37 213.818 221.294 209.783C216.359 208.791 227.995 169.039 232.946 171.145C240.25 174.251 262.701 178.43 263.32 178.641C264.645 179.09 267.408 150.35 269.33 133.499C272.009 110.024 283.256 117.039 287.484 132.335Z" fill="#DD6A57"/>
<path d="M182.717 163.582C180.535 167.135 183.367 170.395 183.367 170.395C183.367 170.395 180.345 171.791 179.2 174.779C177.89 178.2 182.679 181.755 182.679 181.755C182.679 181.755 179.912 183.803 179.021 187.079C178.095 190.479 182.417 194.756 182.417 194.756C182.417 194.756 180.888 198.079 182.149 201.463C184.305 207.251 193.545 209.144 199.406 210.406C205.268 211.669 223.078 209.76 226.508 209.739L234.935 172.188C234.935 172.188 210.26 159.048 203.157 158.542C197.175 158.116 185.165 159.593 182.717 163.582Z" fill="#DD6A57"/>
<path d="M183.764 169.85C190.235 168.776 196.67 169.675 203.145 170.207C203.289 170.219 203.268 170.444 203.124 170.43C196.69 169.827 190.221 170.508 183.777 170.162C183.6 170.152 183.59 169.879 183.764 169.85Z" fill="#263238"/>
<path d="M182.911 181.291C184.382 181.092 185.915 181.38 187.374 181.573C188.945 181.781 190.511 182.017 192.075 182.277C195.205 182.797 198.322 183.389 201.42 184.072C201.558 184.102 201.546 184.319 201.4 184.295C198.28 183.783 195.152 183.316 192.014 182.934C190.443 182.743 188.87 182.566 187.297 182.399C185.834 182.243 184.277 182.202 182.874 181.722C182.666 181.652 182.689 181.321 182.911 181.291Z" fill="#263238"/>
<path d="M182.551 194.774C183.823 194.55 185.303 195.007 186.555 195.242C187.976 195.509 189.399 195.768 190.822 196.019C193.67 196.521 196.516 197.021 199.379 197.423C199.522 197.443 199.503 197.666 199.359 197.647C196.448 197.253 193.532 196.899 190.625 196.478C189.197 196.273 187.771 196.058 186.345 195.837C185.133 195.648 183.597 195.551 182.52 194.916C182.459 194.881 182.487 194.785 182.551 194.774Z" fill="#263238"/>
<path d="M190.76 159.691C187.805 160.072 184.417 160.721 182.512 163.236C181.687 164.323 181.125 165.666 181.295 167.054C181.455 168.369 182.123 169.506 183.12 170.35C183.118 170.351 183.116 170.348 183.113 170.35C180.814 171.052 178.815 173.312 178.597 175.721C178.479 177.025 178.945 178.132 179.768 179.117C180.169 179.595 180.636 180.023 181.08 180.461C181.523 180.899 182.026 181.253 182.49 181.656C181.982 182.027 181.527 182.504 181.085 182.942C180.603 183.419 180.151 183.928 179.769 184.491C179.007 185.614 178.504 186.907 178.49 188.276C178.477 189.646 179.095 190.901 179.838 192.015C180.537 193.064 181.405 194.143 182.547 194.728C182.613 194.762 182.675 194.673 182.621 194.623C181.733 193.797 181.002 192.91 180.413 191.847C179.785 190.714 179.249 189.47 179.304 188.15C179.357 186.902 179.877 185.725 180.524 184.677C180.867 184.122 181.245 183.589 181.645 183.072C181.975 182.645 182.85 181.771 182.768 181.719C182.757 181.712 181.799 180.698 181.461 180.257C181.114 179.805 180.784 179.347 180.477 178.868C179.862 177.91 179.484 176.864 179.663 175.715C179.826 174.667 180.352 173.721 181.024 172.914C181.714 172.087 182.595 171.454 183.315 170.661C183.368 170.602 183.378 170.417 183.352 170.376C181.716 167.838 181.93 165.426 183.674 163.549C184.545 162.611 185.61 161.91 186.74 161.322C188.021 160.654 189.427 160.303 190.79 159.849C190.873 159.822 190.854 159.679 190.76 159.691Z" fill="#263238"/>
<path d="M244.732 214.378C242.997 213.848 241.166 213.564 239.394 213.176C237.611 212.785 235.824 212.421 234.034 212.063C232.21 211.698 230.385 211.345 228.556 210.999C226.796 210.667 225.035 210.274 223.256 210.063C221.523 209.857 219.84 209.984 218.113 210.181C216.394 210.377 214.668 210.516 212.938 210.598C209.455 210.764 205.947 210.688 202.475 210.37C198.552 210.011 194.635 209.298 190.829 208.288C190.749 208.267 190.722 208.386 190.798 208.412C197.404 210.583 204.368 211.731 211.329 211.648C213.061 211.628 214.789 211.539 216.513 211.371C218.232 211.203 219.951 210.893 221.683 210.93C223.518 210.97 225.328 211.379 227.124 211.716C228.92 212.052 230.715 212.394 232.515 212.71C234.55 213.069 236.582 213.436 238.623 213.756C240.635 214.071 242.669 214.524 244.7 214.677C244.878 214.692 244.888 214.425 244.732 214.378Z" fill="#263238"/>
<path d="M270.009 180.286C267.404 179.394 264.653 178.844 261.978 178.2C259.288 177.552 256.592 176.934 253.895 176.325C248.751 175.163 243.54 174.176 238.459 172.757C237.119 172.382 235.791 171.969 234.481 171.498C233.823 171.262 233.175 171.002 232.532 170.727C231.868 170.443 231.151 170.215 230.52 169.868C230.444 169.827 230.382 169.94 230.456 169.985C230.975 170.303 231.444 170.687 231.972 170.993C232.545 171.324 233.145 171.613 233.745 171.891C234.843 172.399 235.976 172.836 237.124 173.222C239.519 174.026 241.986 174.595 244.445 175.161C249.817 176.395 255.194 177.613 260.585 178.767C262.103 179.091 263.621 179.419 265.143 179.722C266.728 180.038 268.329 180.395 269.935 180.578C270.125 180.597 270.195 180.349 270.009 180.286Z" fill="#0E0F1C"/>
<path d="M261.537 170.431L298.747 175.496C298.747 175.496 291.946 136.788 284.709 123.969C277.567 111.317 269.692 119.683 266.681 134.983C263.343 151.945 261.537 170.431 261.537 170.431Z" fill="#0976AB"/>
<path d="M295.979 169.888C294.94 169.643 293.875 169.487 292.83 169.258C291.815 169.034 290.789 168.875 289.762 168.715C287.67 168.388 285.571 168.098 283.473 167.811C279.338 167.244 275.203 166.614 271.054 166.16C268.695 165.902 266.346 165.545 263.984 165.324C263.911 165.318 263.902 165.433 263.97 165.45C268.08 166.415 272.271 167.125 276.437 167.804C280.561 168.476 284.704 169.113 288.859 169.568C290.022 169.695 291.189 169.843 292.358 169.9C293.554 169.958 294.761 170.07 295.957 170.089C296.072 170.091 296.09 169.915 295.979 169.888Z" fill="#0E0F1C"/>
<path d="M316.384 29.4554C314.957 43.1062 302.726 53.0207 289.075 51.5929C283.558 51.0158 278.655 48.6739 274.857 45.177L262.422 47.002L268.643 36.2523C267.134 32.5795 266.498 28.4916 266.938 24.2841C268.366 10.6333 280.596 0.718762 294.247 2.14652C307.898 3.57427 317.812 15.8046 316.384 29.4554Z" fill="white"/>
<path d="M316.383 29.4554C315.864 33.9935 314.205 38.4412 311.366 42.0553C310.714 43.002 309.875 43.7932 309.113 44.6487C308.25 45.4009 307.444 46.2263 306.49 46.8693C304.672 48.2702 302.629 49.3675 300.494 50.2075C298.368 51.1021 296.083 51.5287 293.802 51.803C292.652 51.8648 291.501 51.9698 290.349 51.8689C289.195 51.8429 288.046 51.7191 286.909 51.5107C282.36 50.687 278.053 48.5576 274.612 45.4391L274.906 45.5295L262.484 47.4375L261.583 47.5759L262.04 46.7814L268.224 36.0106L268.196 36.4355C265.183 29.3406 265.862 20.8921 269.727 14.2816C271.654 10.9711 274.34 8.11885 277.512 5.99186C280.682 3.85837 284.357 2.52097 288.12 2.0114C291.887 1.51161 295.763 1.8543 299.36 3.05007C302.952 4.25967 306.246 6.29386 308.946 8.92796C314.432 14.1457 317.191 21.9715 316.383 29.4554ZM316.383 29.4554C317.139 21.965 314.326 14.1864 308.837 9.0403C306.111 6.46643 302.811 4.51609 299.251 3.38544C295.685 2.26944 291.87 2.00326 288.196 2.55678C284.525 3.12007 280.97 4.48759 277.931 6.61213C274.898 8.74156 272.341 11.5262 270.494 14.7236C268.61 17.9145 267.634 21.571 267.339 25.2405C267.106 28.9231 267.707 32.6496 269.088 36.0684L269.178 36.2906L269.059 36.4941L262.801 47.2226L262.355 46.5665L274.802 44.8237L274.974 44.7993L275.096 44.9141C278.386 48.0024 282.55 50.1587 286.999 51.0451C288.11 51.269 289.237 51.4098 290.371 51.4554C291.503 51.5751 292.637 51.4912 293.772 51.4505C296.023 51.2185 298.291 50.8384 300.41 49.9886C302.537 49.1917 304.594 48.1473 306.405 46.757C307.358 46.1237 308.164 45.3089 309.03 44.5657C309.793 43.7191 310.635 42.9369 311.291 41.9983C314.145 38.4167 315.833 33.9902 316.383 29.4554Z" fill="#263238"/>
<path d="M279.511 38.4591C279.511 36.9751 280.541 35.9031 281.942 35.9031C283.426 35.9031 284.374 36.9751 284.374 38.4591C284.374 39.9015 283.426 41.0142 281.942 41.0142C280.5 41.0142 279.511 39.9015 279.511 38.4591ZM280.541 32.5641L279.964 12.779H283.921L283.344 32.5641H280.541Z" fill="#57C3F7"/>
<path d="M288.993 38.4591C288.993 36.9751 290.024 35.9031 291.425 35.9031C292.909 35.9031 293.857 36.9751 293.857 38.4591C293.857 39.9015 292.909 41.0142 291.425 41.0142C289.983 41.0142 288.993 39.9015 288.993 38.4591ZM290.024 32.5641L289.447 12.779H293.403L292.826 32.5641H290.024Z" fill="#57C3F7"/>
<path d="M298.473 38.4591C298.473 36.9751 299.503 35.9031 300.905 35.9031C302.389 35.9031 303.336 36.9751 303.336 38.4591C303.336 39.9015 302.388 41.0142 300.905 41.0142C299.462 41.0142 298.473 39.9015 298.473 38.4591ZM299.503 32.5641L298.926 12.779H302.883L302.306 32.5641H299.503Z" fill="#57C3F7"/>
</svg>
