<svg width="439" height="453" viewBox="0 0 439 453" fill="none" xmlns="http://www.w3.org/2000/svg">
<path d="M88.6894 107.9C117.638 107.9 141.105 84.4325 141.105 55.484C141.105 26.5354 117.638 3.06799 88.6894 3.06799C59.7409 3.06799 36.2734 26.5354 36.2734 55.484C36.2734 84.4325 59.7409 107.9 88.6894 107.9Z" fill="white"/>
<path d="M132.812 60.008L176.995 91.988L124.484 83.008L132.812 60.008Z" fill="white"/>
<path d="M108.519 31.062C99.3783 28.39 88.6913 38.093 88.6913 38.093C88.6913 38.093 78.0043 28.39 68.8633 31.062C59.7223 33.734 54.1783 45.348 59.3003 57.499C65.3473 71.843 79.8313 81.686 88.6913 87.03C97.5503 81.686 112.035 71.843 118.082 57.499C123.204 45.348 117.659 33.734 108.519 31.062Z" fill="#C91818"/>
<path d="M354.416 148.832C383.365 148.832 406.832 125.365 406.832 96.416C406.832 67.4674 383.365 44 354.416 44C325.467 44 302 67.4674 302 96.416C302 125.365 325.467 148.832 354.416 148.832Z" fill="white"/>
<path d="M398.539 100.94L442.722 132.92L390.211 123.94L398.539 100.94Z" fill="white"/>
<path d="M374.246 71.994C365.105 69.322 354.418 79.025 354.418 79.025C354.418 79.025 343.731 69.322 334.59 71.994C325.449 74.666 319.905 86.28 325.027 98.431C331.074 112.775 345.558 122.618 354.418 127.962C363.277 122.618 377.762 112.775 383.809 98.431C388.931 86.28 383.386 74.666 374.246 71.994Z" fill="#C91818"/>
<path d="M274.4 337.998H131.29L115.695 453H193.987L197.806 408.334H202.845H207.884L211.703 453H289.995L274.4 337.998Z" fill="#2B2D42"/>
<path d="M202.846 408.334V353.641" stroke="#0E0F1C" stroke-miterlimit="10"/>
<path d="M192.631 352.422V380.099C192.631 386.012 196.99 391.02 202.847 391.835" stroke="#0E0F1C" stroke-miterlimit="10"/>
<path d="M125.574 380.161L125.892 380.09C156.043 373.221 158.518 337.998 158.518 337.998H131.292L125.574 380.161Z" fill="#0E0F1C"/>
<path d="M280.102 380.161L279.784 380.09C249.633 373.221 247.158 337.998 247.158 337.998H274.384L280.102 380.161Z" fill="#0E0F1C"/>
<path d="M311.513 142.479C301.25 125.687 284.559 113.83 265.324 109.668L221.628 100.213L202.846 98.378L184.064 100.213L140.368 109.668C121.133 113.83 104.442 125.687 94.1794 142.479L57.1895 203L126.272 236.736L128.433 340.188C128.433 340.188 161.646 354.595 202.846 354.595C244.046 354.595 277.259 340.188 277.259 340.188L279.42 236.736L348.503 203L311.513 142.479Z" fill="#299AD1"/>
<path d="M279.8 218.979H125.892L125.279 185.644H280.413L279.8 218.979Z" fill="#0976AB"/>
<path d="M281.209 150.643L279.42 236.244" stroke="#090E21" stroke-miterlimit="10"/>
<path d="M278.867 263.176H126.823L126.123 229.841H279.567L278.867 263.176Z" fill="#0976AB"/>
<path d="M241.38 104.487L221.627 100.213L202.845 98.378L184.063 100.213L163.816 104.594C169.175 112.339 187.472 119.582 202.561 119.582C217.719 119.583 236.117 112.273 241.38 104.487Z" fill="#0976AB"/>
<path d="M342.759 193.602L348.503 203L279.42 236.736L279.641 225.693L342.759 193.602Z" fill="#0976AB"/>
<path d="M226.974 199.471H198.107C193.627 199.471 189.994 195.839 189.994 191.358V132.081C189.994 127.601 193.626 123.968 198.107 123.968H226.974C231.454 123.968 235.087 127.6 235.087 132.081V191.358C235.086 195.839 231.454 199.471 226.974 199.471Z" fill="#57C3F7"/>
<path d="M198.207 144.866C196.042 144.866 194.287 143.111 194.287 140.946V132.457C194.287 130.292 196.042 128.537 198.207 128.537C200.372 128.537 202.127 130.292 202.127 132.457V140.946C202.127 143.111 200.372 144.866 198.207 144.866Z" fill="#0976AB"/>
<path d="M198.206 134.663C199.367 134.663 200.307 133.722 200.307 132.562C200.307 131.402 199.367 130.461 198.206 130.461C197.046 130.461 196.105 131.402 196.105 132.562C196.105 133.722 197.046 134.663 198.206 134.663Z" fill="#0E0F1C"/>
<path d="M198.206 142.942C199.367 142.942 200.307 142.001 200.307 140.841C200.307 139.681 199.367 138.74 198.206 138.74C197.046 138.74 196.105 139.681 196.105 140.841C196.105 142.001 197.046 142.942 198.206 142.942Z" fill="#0E0F1C"/>
<path d="M128.682 379.352C142.912 375.043 150.404 364.13 154.32 354.596L128.002 344.052L111.312 261.181L123.709 235.485L67.4938 208.032L57.4868 233.58C50.5258 251.351 53.0848 271.442 64.2778 286.901L115.696 357.915L128.682 379.352Z" fill="#FF6B6B"/>
<path d="M107.703 240.959L111.312 261.181" stroke="#7D2929" stroke-miterlimit="10"/>
<path d="M71.0377 229.423L120.197 242.763L123.708 235.485L67.4927 208.032L64.3327 216.099C62.1587 221.651 65.2837 227.861 71.0377 229.423Z" fill="#ED4E4E"/>
<path d="M311.015 221.307L261.381 183.287L236.35 151.021C234.91 149.165 232.745 148.013 230.401 147.857L202.126 145.97V153.647L223.851 156.632L199.795 164.948L202.126 183.638L207.97 182.434L209.138 189.258L219.8 187.552L232.808 193.602C232.808 193.602 237.073 202.052 245.389 200.773C245.389 200.773 276.586 264.147 291.877 286.388C307.168 308.63 330.419 313.27 349.798 300.057C370.186 286.156 362.418 247.307 358.834 236.736C352.81 218.968 344.238 205.067 344.238 205.067L311.015 221.307Z" fill="#FF6B6B"/>
<path d="M352.952 221.904C348.394 211.812 344.237 205.068 344.237 205.068L311.016 221.307L321.638 229.349C327.778 233.998 336.238 234.076 342.463 229.543L352.952 221.904Z" fill="#ED4E4E"/>
<path d="M301.875 214.388L339.138 242.6" stroke="#7D2929" stroke-miterlimit="10"/>
<path d="M223.852 156.632L227.113 155.471L240.608 168.949" stroke="#7D2929" stroke-miterlimit="10"/>
<path d="M200.906 173.855L224.536 167.529L239.546 176.983" stroke="#7D2929" stroke-miterlimit="10"/>
<path d="M207.971 182.434L222.721 179.105L235.086 183.908" stroke="#7D2929" stroke-miterlimit="10"/>
<path d="M62.9335 193.602L57.1895 203L126.272 236.736L126.051 225.693L62.9335 193.602Z" fill="#0976AB"/>
<path d="M124.482 149.643L126.271 235.244" stroke="#090E21" stroke-miterlimit="10"/>
<path d="M221.058 100.213L219.697 77.294H202.561H185.425L184.064 100.213L168.289 103.563C172.724 110.045 189.099 116.186 202.561 116.186C216.023 116.186 232.398 110.045 236.833 103.563L221.058 100.213Z" fill="#FF6B6B"/>
<path d="M220.601 92.521L219.697 77.295H202.561H185.425L185.09 82.939C190.272 93.707 200.663 95.996 207.188 95.996C210.951 95.995 216.004 95.231 220.601 92.521Z" fill="#ED4E4E"/>
<path d="M187.762 104.795L199.796 110.33" stroke="#7D2929" stroke-miterlimit="10"/>
<path d="M202.562 20.03C187.06 20.03 175.143 21.998 175.143 21.998C175.143 21.998 175.854 40.434 177.465 60.622C179.154 81.782 194.107 85.609 202.562 85.609C211.016 85.609 225.97 81.782 227.659 60.622C229.27 40.434 229.981 21.998 229.981 21.998C229.981 21.998 218.064 20.03 202.562 20.03Z" fill="#FF6B6B"/>
<path d="M237.957 23.128C237.957 18.503 235.004 14.578 230.885 13.105C229.677 7.06 222.607 3.697 217.558 6.595C216.269 0.744001 206.154 -1.933 202.126 2.43C198.098 -1.933 187.983 0.744001 186.694 6.595C181.645 3.697 174.575 7.06 173.367 13.105C169.248 14.577 166.295 18.503 166.295 23.128C166.295 26.74 168.097 29.926 170.846 31.852L174.39 50.724L176.474 51.425L179.369 33.498C183.059 32.64 186.015 29.868 187.126 26.281C190.008 28.201 195.936 30.721 202.126 24.841C208.316 30.721 214.244 28.2 217.126 26.281C218.236 29.868 221.192 32.639 224.883 33.498L227.778 51.425L229.862 50.724L233.406 31.852C236.155 29.926 237.957 26.74 237.957 23.128Z" fill="#0E0F1C"/>
<path d="M191.842 59.836C196.608 59.836 200.471 55.7501 200.471 50.71C200.471 45.6698 196.608 41.584 191.842 41.584C187.076 41.584 183.213 45.6698 183.213 50.71C183.213 55.7501 187.076 59.836 191.842 59.836Z" stroke="#D3D4CF" stroke-miterlimit="10"/>
<path d="M213.283 59.836C218.049 59.836 221.912 55.7501 221.912 50.71C221.912 45.6698 218.049 41.584 213.283 41.584C208.518 41.584 204.654 45.6698 204.654 50.71C204.654 55.7501 208.518 59.836 213.283 59.836Z" stroke="#D3D4CF" stroke-miterlimit="10"/>
<path d="M200.4 49.566H204.722" stroke="#D3D4CF" stroke-miterlimit="10"/>
<path d="M183.508 48.616H173.949" stroke="#D3D4CF" stroke-miterlimit="10"/>
<path d="M231.175 48.616H221.617" stroke="#D3D4CF" stroke-miterlimit="10"/>
<path d="M202.128 51.425C202.128 51.425 202.128 54.401 202.128 56.656C202.128 59.836 199.936 61.916 199.936 61.916H204.654" stroke="#7D2929" stroke-miterlimit="10"/>
<path d="M191.177 56.67C192.399 56.67 193.389 55.6797 193.389 54.458C193.389 53.2363 192.399 52.246 191.177 52.246C189.955 52.246 188.965 53.2363 188.965 54.458C188.965 55.6797 189.955 56.67 191.177 56.67Z" fill="#090E21"/>
<path d="M213.946 56.67C215.168 56.67 216.158 55.6797 216.158 54.458C216.158 53.2363 215.168 52.246 213.946 52.246C212.725 52.246 211.734 53.2363 211.734 54.458C211.734 55.6797 212.725 56.67 213.946 56.67Z" fill="#090E21"/>
<path d="M193.389 62.327C193.389 62.327 197.873 68.423 209.561 65.627" stroke="#7D2929" stroke-miterlimit="10"/>
<path d="M192.238 63.206L194.847 61.365" stroke="#7D2929" stroke-miterlimit="10"/>
<path d="M184.434 39.134C189.667 35.557 197.039 37.281 199.707 41.182" stroke="#090E21" stroke-width="2" stroke-miterlimit="10"/>
<path d="M220.691 39.134C215.458 35.557 208.086 37.281 205.418 41.182" stroke="#090E21" stroke-width="2" stroke-miterlimit="10"/>
<path d="M202.561 72.341C204.089 72.341 205.327 71.7473 205.327 71.015C205.327 70.2827 204.089 69.689 202.561 69.689C201.033 69.689 199.795 70.2827 199.795 71.015C199.795 71.7473 201.033 72.341 202.561 72.341Z" fill="#ED4E4E"/>
<path d="M174.36 65.4865C178.589 64.4502 180.919 59.1253 179.563 53.5931C178.207 48.0608 173.68 44.4162 169.451 45.4525C165.221 46.4888 162.892 51.8136 164.247 57.3459C165.603 62.8781 170.13 66.5228 174.36 65.4865Z" fill="#FF6B6B"/>
<path d="M167.479 52.113C169.274 47.07 175.065 48.154 176.992 55.485" stroke="#7D2929" stroke-miterlimit="10"/>
<path d="M240.911 57.3559C242.266 51.8237 239.937 46.4988 235.707 45.4625C231.478 44.4262 226.951 48.0709 225.595 53.6032C224.24 59.1354 226.569 64.4603 230.798 65.4966C235.028 66.5329 239.555 62.8882 240.911 57.3559Z" fill="#FF6B6B"/>
<path d="M237.643 52.113C235.848 47.07 230.056 48.154 228.129 55.485" stroke="#7D2929" stroke-miterlimit="10"/>
<path d="M52.416 424.832C81.3646 424.832 104.832 401.365 104.832 372.416C104.832 343.467 81.3646 320 52.416 320C23.4674 320 0 343.467 0 372.416C0 401.365 23.4674 424.832 52.416 424.832Z" fill="white"/>
<path d="M96.5389 376.94L140.722 408.92L88.2109 399.94L96.5389 376.94Z" fill="white"/>
<path d="M72.2459 347.994C63.1049 345.322 52.4179 355.025 52.4179 355.025C52.4179 355.025 41.7309 345.322 32.5899 347.994C23.4489 350.666 17.9049 362.28 23.0269 374.431C29.0739 388.775 43.5579 398.618 52.4179 403.962C61.2769 398.618 75.7619 388.775 81.8089 374.431C86.9309 362.28 81.3859 350.666 72.2459 347.994Z" fill="#C91818"/>
<path d="M347.416 424.832C376.365 424.832 399.832 401.365 399.832 372.416C399.832 343.467 376.365 320 347.416 320C318.467 320 295 343.467 295 372.416C295 401.365 318.467 424.832 347.416 424.832Z" fill="white"/>
<path d="M391.539 376.94L435.722 408.92L383.211 399.94L391.539 376.94Z" fill="white"/>
<path d="M367.246 347.994C358.105 345.322 347.418 355.025 347.418 355.025C347.418 355.025 336.731 345.322 327.59 347.994C318.449 350.666 312.905 362.28 318.027 374.431C324.074 388.775 338.558 398.618 347.418 403.962C356.277 398.618 370.762 388.775 376.809 374.431C381.931 362.28 376.386 350.666 367.246 347.994Z" fill="#C91818"/>
</svg>
