<svg width="357" height="357" viewBox="0 0 357 357" fill="none" xmlns="http://www.w3.org/2000/svg">
<path d="M185.488 35.0145C181.469 33.1167 177 32.9025 174.159 33.3352C171.498 33.7401 167.646 34.7554 164.406 37.2936C162.394 38.8701 160.895 40.8336 159.953 43.1299C158.836 45.8495 158.496 49.0561 158.941 52.6611C159.008 53.2016 159.285 53.6814 159.72 54.0112C160.157 54.3425 160.696 54.4796 161.239 54.3975L168.216 53.3358C169.201 53.1858 169.935 52.3226 169.925 51.328C169.901 49.0932 170.639 45.2119 175.847 44.3272C179.816 43.6554 181.893 46.2836 182.603 47.446C183.758 49.3367 183.908 51.765 183.002 53.9413C181.611 57.2849 178.267 58.2731 176.398 58.5644C174.248 58.8993 172.764 60.912 173.089 63.0505L174.232 70.5582C174.399 71.6549 175.426 72.411 176.522 72.2439L183.32 71.2093C184.417 71.0423 185.173 70.0148 185.006 68.9188L184.766 67.3416C184.76 67.3038 184.779 67.2674 184.813 67.2495C186.271 66.4748 189.057 64.7155 191.339 61.6332C194.252 57.699 195.322 53.0295 194.52 47.7559C193.372 40.2082 188.975 36.661 185.488 35.0145Z" fill="#57C3F7"/>
<path d="M180.549 73.5655L179.954 73.6562C177.111 74.0889 175.151 76.7535 175.583 79.5967C176.016 82.4398 178.681 84.4005 181.524 83.9678L182.119 83.8771C184.962 83.4444 186.922 80.7798 186.49 77.9366C186.057 75.0935 183.392 73.1328 180.549 73.5655Z" fill="#57C3F7"/>
<path d="M35.7358 240.868C31.7167 238.97 27.2485 238.756 24.4075 239.189C21.7464 239.593 17.8944 240.609 14.6543 243.147C12.6422 244.724 11.1435 246.687 10.201 248.983C9.08435 251.703 8.74448 254.909 9.1893 258.514C9.25641 259.055 9.53274 259.535 9.96757 259.865C10.4052 260.196 10.9443 260.333 11.487 260.251L18.4642 259.189C19.4488 259.039 20.1828 258.176 20.1728 257.181C20.1492 254.947 20.8875 251.065 26.0947 250.181C30.0638 249.509 32.1408 252.137 32.8513 253.299C34.0065 255.19 34.1557 257.618 33.2504 259.795C31.8595 263.138 28.5151 264.127 26.6459 264.418C24.496 264.753 23.0116 266.765 23.3372 268.904L24.4796 276.412C24.6467 277.508 25.6741 278.264 26.7701 278.097L33.5681 277.063C34.6648 276.896 35.421 275.868 35.2539 274.772L35.014 273.195C35.0083 273.157 35.0268 273.121 35.0611 273.103C36.5191 272.328 39.3051 270.569 41.5871 267.487C44.5002 263.552 45.5705 258.883 44.7679 253.609C43.6205 246.062 39.223 242.514 35.7358 240.868Z" fill="#57C3F7"/>
<path d="M30.7972 279.419L30.2024 279.51C27.3593 279.942 25.3986 282.607 25.8313 285.45C26.264 288.293 28.9287 290.254 31.7718 289.821L32.3666 289.731C35.2097 289.298 37.1703 286.633 36.7377 283.79C36.305 280.947 33.6403 278.986 30.7972 279.419Z" fill="#57C3F7"/>
<path d="M45.4629 156.21C43.4437 153.685 40.5927 152.116 38.5978 151.49C36.73 150.904 33.8882 150.336 30.9594 150.958C29.1401 151.345 27.5336 152.149 26.1835 153.348C24.5841 154.768 23.3367 156.754 22.4749 159.252C22.3457 159.627 22.3728 160.028 22.5521 160.383C22.732 160.739 23.0404 161.001 23.4217 161.121L28.3197 162.659C29.0109 162.876 29.767 162.547 30.0783 161.894C30.7773 160.426 32.5009 158.126 36.1866 159.213C38.9948 160.044 39.5117 162.426 39.6038 163.412C39.7537 165.017 39.0747 166.651 37.7874 167.784C35.8096 169.524 33.3085 169.099 31.9933 168.692C30.481 168.224 28.8681 169.064 28.3969 170.566L26.7425 175.837C26.5012 176.606 26.9303 177.429 27.7 177.671L32.4724 179.169C33.2421 179.41 34.0646 178.981 34.3066 178.212L34.6544 177.104C34.6629 177.078 34.6865 177.06 34.715 177.059C35.9153 177.019 38.2986 176.76 40.7755 175.476C43.9371 173.837 46.1291 171.128 47.2914 167.426C48.9536 162.125 47.2143 158.402 45.4629 156.21Z" fill="#57C3F7"/>
<path d="M29.9066 179.82L29.4889 179.689C27.4926 179.062 25.3591 180.176 24.733 182.172C24.1068 184.168 25.2206 186.302 27.2163 186.928L27.6339 187.059C29.6296 187.686 31.7637 186.572 32.3899 184.576C33.0168 182.581 31.9022 180.447 29.9066 179.82Z" fill="#57C3F7"/>
<path d="M345.686 149.323C342.762 145.847 338.702 143.742 335.878 142.933C333.233 142.175 329.222 141.476 325.129 142.452C322.588 143.059 320.359 144.244 318.504 145.976C316.307 148.026 314.624 150.86 313.501 154.399C313.333 154.929 313.385 155.493 313.649 155.985C313.914 156.48 314.357 156.837 314.896 156.991L321.831 158.98C322.809 159.261 323.859 158.771 324.274 157.843C325.205 155.757 327.546 152.465 332.761 153.864C336.735 154.932 337.544 158.26 337.708 159.642C337.975 161.891 337.078 164.211 335.31 165.846C332.592 168.36 329.064 167.852 327.203 167.326C325.062 166.72 322.825 167.958 322.216 170.083L320.077 177.545C319.764 178.635 320.396 179.776 321.486 180.089L328.242 182.026C329.331 182.338 330.472 181.706 330.784 180.616L331.234 179.048C331.245 179.01 331.278 178.985 331.318 178.983C333.002 178.884 336.341 178.438 339.775 176.547C344.159 174.134 347.144 170.253 348.647 165.011C350.797 157.509 348.224 152.339 345.686 149.323Z" fill="#57C3F7"/>
<path d="M324.66 183.031L324.069 182.862C321.243 182.051 318.285 183.691 317.475 186.517C316.664 189.342 318.304 192.3 321.13 193.111L321.721 193.28C324.546 194.09 327.504 192.451 328.315 189.625C329.125 186.8 327.485 183.841 324.66 183.031Z" fill="#57C3F7"/>
<path d="M340.403 240.033C336.604 237.542 332.111 236.691 329.174 236.725C326.423 236.757 322.379 237.238 318.739 239.348C316.478 240.658 314.683 242.433 313.403 244.624C311.887 247.218 311.087 250.416 311.026 254.128C311.017 254.684 311.229 255.209 311.623 255.605C312.019 256.003 312.545 256.218 313.107 256.211L320.32 256.127C321.337 256.115 322.203 255.346 322.334 254.337C322.628 252.072 323.926 248.247 329.323 248.091C333.437 247.974 335.166 250.93 335.72 252.207C336.621 254.285 336.427 256.764 335.202 258.839C333.32 262.026 329.794 262.551 327.86 262.581C325.636 262.615 323.848 264.442 323.874 266.653L323.965 274.416C323.978 275.549 324.911 276.461 326.045 276.448L333.072 276.365C334.206 276.352 335.117 275.419 335.104 274.286L335.085 272.655C335.084 272.615 335.108 272.581 335.146 272.568C336.731 271.99 339.802 270.605 342.549 267.809C346.057 264.239 347.802 259.665 347.739 254.213C347.647 246.409 343.699 242.194 340.403 240.033Z" fill="#57C3F7"/>
<path d="M329.93 278.356L329.315 278.363C326.376 278.397 324.012 280.816 324.047 283.756C324.081 286.695 326.5 289.059 329.439 289.024L330.054 289.017C332.993 288.983 335.357 286.564 335.323 283.624C335.288 280.685 332.869 278.322 329.93 278.356Z" fill="#57C3F7"/>
<path d="M116.868 210.378C113.5 207.858 109.398 206.814 106.682 206.678C104.138 206.55 100.374 206.763 96.8902 208.504C94.726 209.585 92.9653 211.122 91.6572 213.073C90.1079 215.383 89.1854 218.292 88.9162 221.718C88.8755 222.232 89.0412 222.729 89.3824 223.117C89.7252 223.507 90.2 223.736 90.7183 223.763L97.3878 224.098C98.3289 224.145 99.1735 223.484 99.352 222.559C99.7533 220.482 101.171 217.024 106.167 217.189C109.974 217.317 111.403 220.146 111.841 221.359C112.555 223.331 112.234 225.61 110.983 227.457C109.061 230.294 105.774 230.578 103.985 230.494C101.928 230.399 100.172 231.984 100.069 234.028L99.7076 241.205C99.6548 242.253 100.464 243.148 101.513 243.201L108.011 243.528C109.06 243.581 109.955 242.771 110.008 241.723L110.083 240.215C110.085 240.179 110.109 240.149 110.145 240.138C111.643 239.695 114.559 238.592 117.258 236.165C120.703 233.069 122.578 228.942 122.832 223.9C123.195 216.685 119.789 212.564 116.868 210.378Z" fill="#EBEBEB"/>
<path d="M104.995 245.187L104.427 245.158C101.71 245.022 99.3869 247.121 99.2505 249.839C99.1134 252.557 101.213 254.879 103.931 255.017L104.5 255.045C107.217 255.181 109.54 253.082 109.677 250.364C109.813 247.646 107.714 245.324 104.995 245.187Z" fill="#EBEBEB"/>
<path d="M335.853 337.212C335.853 337.32 265.397 337.407 178.505 337.407C91.5837 337.407 21.1426 337.32 21.1426 337.212C21.1426 337.104 91.5837 337.017 178.505 337.017C265.397 337.017 335.853 337.104 335.853 337.212Z" fill="#263238"/>
<path d="M58.246 108.653C70.0886 104.066 75.9702 90.7473 71.3831 78.9047C66.7959 67.0622 53.4769 61.1805 41.6343 65.7677C29.7917 70.3548 23.91 83.6738 28.4972 95.5164C33.0844 107.359 46.4034 113.241 58.246 108.653Z" fill="#FEFFFA"/>
<path d="M72.9345 87.2115C72.9345 87.2115 72.918 87.0851 72.9009 86.8395C72.8845 86.5839 72.8616 86.2205 72.8316 85.7478C72.8174 85.5072 72.8017 85.2387 72.7838 84.9438C72.7531 84.6497 72.6903 84.3305 72.6382 83.9835C72.5832 83.6365 72.5239 83.2631 72.4604 82.8647C72.4125 82.4627 72.2633 82.0543 72.1605 81.6109C71.7557 79.8344 70.9253 77.7353 69.6144 75.5105C68.2928 73.2949 66.3864 70.9801 63.7903 69.0152C63.464 68.7724 63.1341 68.5268 62.8007 68.2776C62.4529 68.0499 62.0867 67.8407 61.7247 67.6179C61.3548 67.408 61.005 67.1524 60.6087 66.9724C60.2167 66.7847 59.8204 66.5947 59.4206 66.4027C59.22 66.3077 59.0186 66.212 58.8165 66.1164C58.6059 66.04 58.3946 65.9628 58.1818 65.885C57.757 65.7301 57.3271 65.5737 56.8945 65.4159C56.4568 65.2717 55.9991 65.1782 55.5464 65.0554C55.0887 64.9518 54.6389 64.7905 54.162 64.7419C53.2159 64.6077 52.2606 64.4128 51.2703 64.407C50.7769 64.3899 50.28 64.3421 49.7794 64.3499C49.2789 64.3756 48.7741 64.402 48.2658 64.4277C48.0123 64.4456 47.756 64.4435 47.5018 64.477L46.7392 64.5941C46.2301 64.6784 45.7125 64.7383 45.2013 64.844C44.1924 65.1182 43.1471 65.3231 42.1532 65.7387C41.1279 66.0671 40.1633 66.5733 39.1715 67.0488C38.6889 67.3109 38.2262 67.6158 37.7478 67.8992C37.5144 68.0492 37.2645 68.1762 37.0417 68.3455L36.3691 68.8496C35.4402 69.4872 34.6277 70.2847 33.7766 71.053C33.391 71.4771 33.004 71.904 32.6149 72.3324L32.3229 72.6545L32.0601 73.0022L31.5367 73.7026L31.0112 74.4059L30.5507 75.1577L30.0909 75.9146L29.8603 76.2944L29.6646 76.6943C29.4069 77.2291 29.1484 77.7667 28.8885 78.3058C28.6829 78.8677 28.4758 79.4317 28.2688 79.9979C27.5233 82.292 27.1221 84.7282 27.0892 87.2072C27.1221 89.6876 27.5219 92.1245 28.2673 94.4193C28.4751 94.9855 28.6815 95.5503 28.8871 96.1122C29.147 96.652 29.4055 97.1889 29.6632 97.7244L29.8581 98.1243L30.0888 98.5041L30.5486 99.261L31.0084 100.014L31.5339 100.717L32.0572 101.417L32.3193 101.765L32.6113 102.087C33.0004 102.515 33.3881 102.942 33.773 103.367C34.6241 104.135 35.4366 104.934 36.3662 105.571L37.0395 106.075C37.2623 106.245 37.5122 106.372 37.7464 106.522C38.2241 106.805 38.6875 107.11 39.1701 107.372C40.1619 107.848 41.1258 108.354 42.1518 108.682C43.1457 109.098 44.191 109.302 45.2006 109.577C45.7125 109.682 46.2301 109.742 46.7392 109.827L47.5018 109.944C47.756 109.977 48.0123 109.976 48.2658 109.993C48.7741 110.02 49.2782 110.045 49.7794 110.072C50.28 110.079 50.7769 110.031 51.2703 110.015C52.2613 110.009 53.2166 109.814 54.1627 109.68C54.6396 109.631 55.0895 109.47 55.5471 109.366C55.9998 109.243 56.4575 109.15 56.8952 109.006C57.3286 108.848 57.7577 108.691 58.1825 108.537C58.3953 108.459 58.6066 108.382 58.8173 108.305C59.0193 108.21 59.2214 108.114 59.4213 108.019C59.8211 107.827 60.2174 107.637 60.6094 107.449C61.0057 107.269 61.3562 107.014 61.7254 106.804C62.0874 106.58 62.4544 106.372 62.8014 106.144C63.1348 105.895 63.4647 105.649 63.791 105.406C66.3878 103.441 68.2935 101.127 69.6151 98.9104C70.9253 96.6856 71.7564 94.5864 72.1605 92.81C72.264 92.3666 72.4132 91.9589 72.4604 91.5562C72.5239 91.1571 72.5832 90.7843 72.6382 90.4373C72.6896 90.0903 72.7524 89.7712 72.7838 89.477C72.801 89.1821 72.8174 88.9144 72.8316 88.6738C72.8616 88.2011 72.8852 87.8384 72.9009 87.5821C72.918 87.3379 72.9345 87.2115 72.9345 87.2115C72.9345 87.2115 72.938 87.3379 72.9309 87.5842C72.9216 87.8405 72.908 88.2047 72.8902 88.6788C72.8802 88.9208 72.8688 89.1893 72.8566 89.4856C72.8302 89.7812 72.7717 90.1018 72.7246 90.4509C72.6731 90.8001 72.6182 91.1756 72.5596 91.5769C72.5161 91.9817 72.3704 92.393 72.2712 92.8392C71.8813 94.6285 71.0616 96.7462 69.7557 98.9946C68.4384 101.234 66.5285 103.577 63.9166 105.571C63.5882 105.817 63.2569 106.066 62.9206 106.318C62.5708 106.549 62.2016 106.762 61.8375 106.989C61.4655 107.202 61.1121 107.461 60.7129 107.644C60.3181 107.835 59.919 108.028 59.5156 108.224C59.3135 108.32 59.1107 108.417 58.9065 108.515C58.6944 108.594 58.481 108.672 58.2661 108.751C57.8369 108.909 57.4043 109.068 56.9666 109.228C56.5253 109.376 56.0634 109.472 55.6057 109.598C55.1437 109.703 54.6896 109.867 54.2077 109.918C53.2523 110.057 52.2863 110.256 51.2853 110.264C50.7869 110.282 50.2842 110.332 49.778 110.325C49.2718 110.3 48.7613 110.275 48.2479 110.249C47.9916 110.232 47.7317 110.234 47.4754 110.201L46.7042 110.084C46.1895 110 45.6654 109.94 45.1477 109.834C44.126 109.559 43.0678 109.353 42.0618 108.934C41.0237 108.604 40.0462 108.093 39.043 107.613C38.5539 107.348 38.0848 107.041 37.6007 106.754C37.3637 106.603 37.1109 106.474 36.8853 106.303L36.2034 105.794C35.2624 105.149 34.4384 104.343 33.5766 103.566C33.1861 103.137 32.7934 102.705 32.3993 102.271L32.1029 101.946L31.8366 101.594L31.3061 100.886L30.7735 100.174L30.3072 99.413L29.8417 98.6469L29.6082 98.2628L29.4105 97.8579C29.1491 97.316 28.8871 96.772 28.6236 96.2257C28.4151 95.6567 28.2052 95.0848 27.9946 94.5114C27.2392 92.1881 26.8329 89.7191 26.8008 87.2079C26.8336 84.6975 27.2406 82.2299 27.996 79.9073C28.2066 79.3339 28.4158 78.7627 28.6251 78.1937C28.8885 77.6475 29.1506 77.1041 29.4119 76.5622L29.6104 76.1581L29.8439 75.7739L30.3094 75.0078L30.7763 74.2467L31.309 73.5348L31.8395 72.8265L32.1058 72.4752L32.4014 72.1497C32.7955 71.7163 33.1882 71.285 33.5788 70.8559C34.4406 70.0783 35.2645 69.273 36.2056 68.6282L36.8875 68.1191C37.1131 67.9485 37.3658 67.8193 37.6029 67.6679C38.087 67.3816 38.5561 67.0738 39.0445 66.8097C40.0483 66.3291 41.0251 65.8193 42.0632 65.488C43.07 65.0703 44.1274 64.864 45.1492 64.5891C45.6668 64.4827 46.1909 64.4235 46.7057 64.3392L47.4768 64.2228C47.7338 64.1893 47.993 64.1914 48.2493 64.1743C48.7634 64.1493 49.2732 64.1236 49.7794 64.0986C50.2857 64.0922 50.7876 64.1414 51.286 64.16C52.287 64.1686 53.2531 64.3671 54.2077 64.5056C54.6896 64.5563 55.1437 64.7198 55.6057 64.8262C56.0626 64.9518 56.5246 65.0475 56.9666 65.1946C57.4035 65.3552 57.8369 65.5145 58.2661 65.6722C58.4803 65.7515 58.6937 65.83 58.9065 65.9079C59.1107 66.0057 59.3135 66.1021 59.5163 66.1992C59.9197 66.3941 60.3188 66.5876 60.7136 66.779C61.1135 66.9617 61.4662 67.2209 61.8382 67.4344C62.203 67.6607 62.5715 67.8728 62.9213 68.1041C63.2569 68.3562 63.5896 68.6054 63.9174 68.8517C66.5292 70.8445 68.4391 73.1878 69.7565 75.4276C71.0631 77.6767 71.8827 79.7945 72.2726 81.5837C72.3718 82.03 72.5175 82.4413 72.561 82.8461C72.6196 83.2474 72.6746 83.6229 72.726 83.9721C72.7731 84.3212 72.8316 84.6418 72.8581 84.9374C72.8702 85.2337 72.8816 85.5029 72.8916 85.7449C72.9095 86.219 72.923 86.5832 72.9323 86.8395C72.938 87.0851 72.9345 87.2115 72.9345 87.2115Z" fill="#D3D4CF"/>
<path d="M41.7586 83.2702H46.1276C46.1276 83.2702 46.1276 79.6017 49.9396 79.536C51.9195 79.5017 52.9456 80.7991 53.3633 81.7922C53.8473 82.9461 53.701 84.2605 53.0519 85.3308C52.3108 86.5525 50.6872 87.6627 47.7426 87.1444V93.5554H52.0623V91.2249C52.0623 91.2249 58.1206 89.6584 58.1206 82.9818C58.1206 76.5936 52.3915 75.1092 49.9396 75.1092C48.0647 75.1092 41.6758 75.5626 41.7586 83.2702Z" fill="#57C3F7"/>
<path d="M52.1144 95.219H47.7305V99.3138H52.1144V95.219Z" fill="#57C3F7"/>
<path d="M73.9766 108.727C73.9766 110.666 72.405 112.238 70.4658 112.238C68.5266 112.238 66.9551 110.666 66.9551 108.727C66.9551 106.789 68.5266 105.216 70.4658 105.216C72.405 105.216 73.9766 106.789 73.9766 108.727Z" fill="white"/>
<path d="M73.977 108.727C73.9463 108.729 73.957 108.414 73.8127 107.884C73.6692 107.363 73.3129 106.602 72.5283 106.018C71.77 105.432 70.5226 105.106 69.316 105.556C68.7219 105.771 68.1557 106.177 67.7537 106.736C67.3403 107.288 67.1083 107.996 67.1011 108.726C67.1083 109.457 67.3403 110.165 67.7537 110.718C68.1557 111.278 68.7219 111.683 69.316 111.899C70.5226 112.349 71.77 112.022 72.5283 111.436C73.3129 110.852 73.6692 110.091 73.812 109.57C73.957 109.04 73.9463 108.726 73.977 108.727C73.987 108.727 73.9927 108.804 73.9948 108.953C73.9998 109.101 73.9827 109.321 73.922 109.598C73.8077 110.144 73.4679 110.958 72.6532 111.6C71.8664 112.242 70.5341 112.622 69.2253 112.151C68.5813 111.925 67.9644 111.491 67.5245 110.887C67.0733 110.291 66.817 109.52 66.8105 108.727C66.817 107.935 67.0733 107.164 67.5245 106.569C67.9637 105.965 68.5806 105.531 69.2246 105.305C70.5326 104.834 71.865 105.214 72.6525 105.855C73.4679 106.497 73.8077 107.311 73.922 107.857C73.9827 108.133 73.9998 108.354 73.9948 108.502C73.9927 108.65 73.987 108.727 73.977 108.727Z" fill="#263238"/>
<path d="M322.623 90.0195C332.06 80.5825 332.06 65.282 322.623 55.8449C313.186 46.4078 297.886 46.4078 288.449 55.8449C279.012 65.282 279.012 80.5824 288.449 90.0195C297.886 99.4565 313.186 99.4566 322.623 90.0195Z" fill="#FEFFFA"/>
<path d="M329.703 72.9308C329.703 72.9308 329.686 72.798 329.668 72.5395C329.651 72.2711 329.627 71.8891 329.595 71.3921C329.58 71.1394 329.564 70.8574 329.545 70.5475C329.512 70.2383 329.447 69.9027 329.392 69.5379C329.334 69.173 329.272 68.7811 329.205 68.3619C329.155 67.9392 328.998 67.5101 328.89 67.0446C328.465 65.1782 327.592 62.9719 326.214 60.6336C324.826 58.3052 322.822 55.8726 320.093 53.8078C319.75 53.5529 319.404 53.2944 319.053 53.0331C318.687 52.7939 318.302 52.574 317.922 52.3398C317.534 52.1191 317.166 51.85 316.749 51.6615C316.337 51.4637 315.921 51.2645 315.5 51.0624C315.289 50.9625 315.078 50.8625 314.865 50.7611C314.644 50.6804 314.422 50.5998 314.198 50.5184C313.751 50.3556 313.301 50.1914 312.845 50.0257C312.386 49.8736 311.905 49.7758 311.429 49.6466C310.948 49.5373 310.475 49.3681 309.974 49.3174C308.98 49.1768 307.975 48.9718 306.934 48.9661C306.416 48.9483 305.894 48.8976 305.368 48.9061C304.841 48.9333 304.312 48.9604 303.778 48.9883C303.511 49.0068 303.241 49.0047 302.975 49.0404L302.174 49.1639C301.639 49.2524 301.095 49.3153 300.557 49.4267C299.497 49.7151 298.398 49.9307 297.354 50.367C296.276 50.7119 295.262 51.2445 294.221 51.7443C293.713 52.0192 293.227 52.3398 292.725 52.6375C292.479 52.7946 292.217 52.9288 291.982 53.1066L291.275 53.6364C290.299 54.3068 289.445 55.1451 288.551 55.9519C288.146 56.3981 287.739 56.8465 287.33 57.2964L287.023 57.6341L286.747 57.9989L286.197 58.7351L285.645 59.4741L285.161 60.2645L284.679 61.0599L284.437 61.459L284.232 61.8788C283.961 62.4414 283.689 63.0055 283.416 63.5724C283.2 64.1629 282.983 64.7562 282.765 65.351C281.981 67.7615 281.56 70.3219 281.525 72.9273C281.559 75.5334 281.98 78.0952 282.762 80.5064C282.98 81.1018 283.197 81.6945 283.414 82.2856C283.686 82.8526 283.958 83.4173 284.229 83.98L284.434 84.4005L284.677 84.7996L285.159 85.595L285.643 86.3854L286.195 87.1244L286.745 87.8606L287.021 88.2261L287.328 88.5646C287.737 89.0151 288.144 89.4635 288.549 89.9097C289.443 90.7173 290.297 91.5555 291.273 92.226L291.981 92.7557C292.215 92.9335 292.477 93.0678 292.723 93.2248C293.226 93.5226 293.712 93.8432 294.219 94.1188C295.261 94.6186 296.275 95.1512 297.353 95.4961C298.398 95.9323 299.496 96.148 300.557 96.4364C301.094 96.5478 301.638 96.6106 302.173 96.6992L302.974 96.8227C303.241 96.8577 303.511 96.8562 303.778 96.8748C304.312 96.9027 304.842 96.9298 305.368 96.9569C305.895 96.9648 306.417 96.9141 306.935 96.8962C307.976 96.8905 308.981 96.6856 309.974 96.5442C310.476 96.4928 310.948 96.3236 311.43 96.2144C311.905 96.0851 312.386 95.9873 312.846 95.8352C313.302 95.6696 313.753 95.5054 314.199 95.3426C314.423 95.2612 314.645 95.1805 314.866 95.0998C315.079 94.9991 315.29 94.8985 315.501 94.7985C315.921 94.5964 316.338 94.3972 316.75 94.1995C317.166 94.0102 317.534 93.7418 317.923 93.5211C318.303 93.287 318.688 93.0678 319.054 92.8279C319.404 92.5665 319.751 92.3081 320.094 92.0532C322.823 89.9883 324.826 87.555 326.214 85.2273C327.592 82.889 328.464 80.6834 328.89 78.817C328.998 78.3515 329.155 77.9224 329.205 77.4997C329.272 77.0806 329.334 76.6886 329.392 76.3238C329.446 75.9589 329.512 75.624 329.544 75.3149C329.563 75.005 329.579 74.723 329.594 74.4702C329.626 73.9733 329.65 73.592 329.667 73.3235C329.686 73.0636 329.703 72.9308 329.703 72.9308C329.703 72.9308 329.707 73.0636 329.699 73.3221C329.689 73.5913 329.674 73.974 329.656 74.4723C329.645 74.7265 329.634 75.0093 329.62 75.3206C329.592 75.6312 329.531 75.9682 329.482 76.3352C329.428 76.7022 329.37 77.0963 329.308 77.5183C329.262 77.9438 329.11 78.3758 329.005 78.8449C328.595 80.7248 327.734 82.9504 326.361 85.3137C324.976 87.6671 322.969 90.1297 320.225 92.2245C319.88 92.483 319.531 92.745 319.178 93.0099C318.81 93.2534 318.422 93.4762 318.039 93.7139C317.648 93.9381 317.277 94.2102 316.857 94.4029C316.442 94.6036 316.023 94.8071 315.599 95.012C315.386 95.1134 315.173 95.2155 314.958 95.3183C314.735 95.4004 314.51 95.4832 314.286 95.566C313.834 95.7317 313.379 95.8988 312.92 96.068C312.456 96.2229 311.971 96.3236 311.49 96.4557C311.005 96.5671 310.527 96.7391 310.021 96.7927C309.017 96.9383 308.002 97.1476 306.95 97.1561C306.426 97.1754 305.898 97.2275 305.366 97.2204C304.834 97.194 304.298 97.1675 303.758 97.1411C303.489 97.1233 303.216 97.1247 302.946 97.0897L302.136 96.9669C301.595 96.8784 301.044 96.8155 300.5 96.7042C299.426 96.415 298.315 96.1979 297.257 95.7588C296.166 95.4111 295.14 94.8749 294.084 94.3701C293.57 94.0924 293.078 93.7689 292.569 93.4683C292.32 93.3091 292.054 93.1734 291.817 92.9942L291.101 92.4594C290.112 91.7818 289.246 90.935 288.34 90.1175C287.93 89.6663 287.517 89.2129 287.103 88.7573L286.792 88.4153L286.512 88.0455L285.954 87.3008L285.394 86.5525L284.904 85.7528L284.414 84.9474L284.168 84.5433L283.961 84.1178C283.686 83.548 283.411 82.9768 283.134 82.4027C282.915 81.8044 282.694 81.2039 282.473 80.6013C281.679 78.1594 281.252 75.5655 281.219 72.9265C281.253 70.289 281.681 67.6951 282.475 65.2546C282.697 64.652 282.917 64.0515 283.137 63.4539C283.413 62.8798 283.688 62.3086 283.963 61.7389L284.172 61.314L284.417 60.9106L284.907 60.1052L285.397 59.3056L285.957 58.5573L286.515 57.8126L286.794 57.4434L287.105 57.1014C287.519 56.6459 287.932 56.1925 288.342 55.7413C289.248 54.9245 290.114 54.0777 291.103 53.4001L291.819 52.8653C292.056 52.6861 292.321 52.5504 292.571 52.3912C293.079 52.0899 293.572 51.7671 294.086 51.4894C295.14 50.9846 296.167 50.4484 297.258 50.1007C298.315 49.6616 299.427 49.4445 300.501 49.1553C301.045 49.044 301.596 48.9811 302.136 48.8926L302.946 48.7698C303.216 48.7348 303.489 48.7369 303.758 48.7191C304.298 48.6927 304.834 48.6662 305.366 48.6398C305.898 48.6327 306.426 48.6848 306.95 48.7041C308.002 48.7127 309.017 48.9219 310.021 49.0675C310.527 49.1211 311.005 49.2924 311.49 49.4045C311.971 49.5366 312.456 49.6373 312.92 49.7922C313.379 49.9614 313.834 50.1285 314.285 50.2942C314.51 50.377 314.735 50.4598 314.957 50.5419C315.172 50.6447 315.385 50.7461 315.598 50.8475C316.022 51.0524 316.441 51.2559 316.857 51.4566C317.276 51.6486 317.647 51.9207 318.038 52.1456C318.422 52.3833 318.809 52.6068 319.177 52.8496C319.53 53.1145 319.879 53.3765 320.224 53.6357C322.968 55.7306 324.976 58.1924 326.361 60.5458C327.734 62.9091 328.596 65.1347 329.005 67.0153C329.11 67.4844 329.262 67.9164 329.308 68.3419C329.37 68.7632 329.428 69.158 329.482 69.525C329.532 69.892 329.592 70.229 329.62 70.5396C329.633 70.8509 329.645 71.1337 329.656 71.3879C329.674 71.8862 329.689 72.2689 329.699 72.5381C329.707 72.7987 329.703 72.9308 329.703 72.9308Z" fill="#D3D4CF"/>
<path d="M296.942 68.7889H301.533C301.533 68.7889 301.533 64.934 305.54 64.8647C307.62 64.829 308.699 66.1921 309.137 67.2359C309.646 68.4483 309.492 69.8299 308.81 70.9544C308.031 72.2382 306.325 73.4056 303.231 72.8601V79.5974H307.771V77.1484C307.771 77.1484 314.138 75.5026 314.138 68.4861C314.138 61.7724 308.117 60.2137 305.54 60.2137C303.569 60.213 296.855 60.6893 296.942 68.7889Z" fill="#57C3F7"/>
<path d="M307.826 81.346H303.219V85.6493H307.826V81.346Z" fill="#57C3F7"/>
<path d="M283.056 93.7539C283.056 95.7917 281.405 97.4431 279.367 97.4431C277.329 97.4431 275.678 95.7917 275.678 93.7539C275.678 91.7161 277.329 90.0647 279.367 90.0647C281.405 90.0647 283.056 91.7161 283.056 93.7539Z" fill="white"/>
<path d="M283.057 93.7539C283.024 93.7554 283.036 93.4255 282.884 92.8679C282.733 92.3209 282.359 91.5213 281.534 90.9072C280.738 90.2917 279.427 89.9483 278.159 90.421C277.535 90.6473 276.94 91.0736 276.518 91.6619C276.083 92.2424 275.839 92.9864 275.832 93.7532C275.839 94.5208 276.083 95.2648 276.518 95.8452C276.941 96.4336 277.535 96.8598 278.16 97.0862C279.427 97.5596 280.739 97.2154 281.536 96.5999C282.361 95.9859 282.735 95.1869 282.885 94.6393C283.036 94.0824 283.024 93.7525 283.057 93.7539C283.067 93.7539 283.073 93.8346 283.075 93.991C283.08 94.1466 283.062 94.3787 282.999 94.6693C282.879 95.2426 282.522 96.098 281.665 96.772C280.838 97.4467 279.438 97.8466 278.063 97.3511C277.386 97.114 276.738 96.6578 276.276 96.023C275.802 95.3961 275.533 94.5865 275.525 93.7539C275.533 92.9214 275.802 92.1117 276.276 91.4855C276.738 90.8508 277.385 90.3946 278.062 90.1575C279.437 89.662 280.837 90.0611 281.664 90.7366C282.521 91.4106 282.879 92.2667 282.998 92.8393C283.062 93.1299 283.08 93.3619 283.075 93.5176C283.073 93.6733 283.067 93.7539 283.057 93.7539Z" fill="#263238"/>
<path d="M148.738 271.225C141.032 251.919 135.249 238.51 135.249 238.51L64.7814 249.221C64.7814 249.221 52.1158 281.69 53.2118 296.424C54.3078 311.157 59.465 337.101 59.465 337.101H144.737C144.737 337.101 156.444 290.531 148.738 271.225Z" fill="#545569"/>
<path d="M123.307 110.204C123.86 104.634 124.695 99.0332 126.734 93.8203C128.772 88.6074 132.111 83.7643 136.829 80.7505L138.04 81.8772C138.877 79.4832 141.103 77.6332 143.61 77.2491C146.117 76.8649 148.794 77.9638 150.309 79.9973C153.012 79.269 156.112 80.3728 157.746 82.6455C159.38 84.9182 159.44 88.2083 157.889 90.5388C160.421 90.8601 162.657 92.8528 163.265 95.3318C163.874 97.8109 162.816 100.613 160.72 102.07C163.511 104.482 164.623 108.658 163.401 112.139C162.179 115.619 158.7 118.183 155.014 118.32C155.836 121.525 154.167 125.193 151.21 126.677C148.254 128.162 144.315 127.309 142.237 124.734C142.495 128.068 139.829 131.224 136.581 132.017C133.333 132.81 129.794 131.498 127.424 129.14C125.054 126.781 123.753 123.511 123.249 120.206C122.743 116.902 122.976 113.531 123.307 110.204Z" fill="#2B2D42"/>
<path d="M138.302 85.5244C141.542 86.5739 142.206 89.1986 142.879 91.3856C144.328 96.093 142.698 103.06 140.064 107.221C137.429 111.383 134.54 113.499 129.665 114.203C129.506 106.729 129.348 99.2567 129.189 91.7833L138.302 85.5244Z" fill="#57C3F7"/>
<path d="M140.128 98.3949C142.341 95.5204 142.028 91.0058 139.439 88.4646C140.858 86.6818 140.349 83.9322 138.906 82.1686C137.464 80.405 135.322 79.3925 133.254 78.4365C132.118 73.2207 126.263 69.5522 121.075 70.8053C118.372 66.8319 112.613 66.2078 107.999 67.553C106.872 67.8814 105.747 68.3056 104.572 68.3013C103.711 68.2977 102.87 68.0621 102.016 67.9471C97.3222 67.3159 92.6634 70.6203 90.8327 74.9886C90.5399 75.6869 90.3 76.423 89.8359 77.0213C89.2269 77.8067 88.3037 78.268 87.5168 78.8749C85.8154 80.1865 84.7351 82.2714 84.6451 84.4177C84.5687 86.2405 85.1492 88.1755 84.381 89.8305C83.9961 90.6602 83.3007 91.3306 83.0015 92.1946C82.1333 94.6986 84.9093 97.259 84.3952 99.8593C84.2903 100.39 84.0511 100.884 83.904 101.404C83.6034 102.468 83.7055 103.641 84.186 104.637C84.5566 105.406 85.1542 106.11 85.2042 106.962C85.2428 107.609 84.955 108.225 84.8251 108.859C84.508 110.411 87.8574 116.396 89.1976 117.24L129.277 117.598C132.31 116.98 134.78 114.231 135.072 111.15C135.121 110.637 135.129 110.081 135.446 109.676C135.716 109.331 136.153 109.173 136.539 108.965C139.12 107.579 139.432 104.036 139.16 101.12C139.121 100.711 139.079 100.293 139.182 99.8958C139.332 99.3189 139.765 98.8669 140.128 98.3949Z" fill="#2B2D42"/>
<path d="M128.649 98.452C128.768 91.3592 124.32 83.2081 117.273 79.7395C112.831 77.5525 109.366 77.539 107.032 77.2662C101.8 76.6565 97.579 79.2483 97.579 79.2483C95.3698 79.7674 87.2745 87.1801 86.854 95.2233C86.387 104.159 86.1692 115.088 87.2988 121.739C89.57 135.114 99.8566 136.71 99.8566 136.71C99.8581 136.689 98.8991 158.943 98.8991 158.943L118.669 175.146L124.71 148.543L128.649 98.452Z" fill="#FFBF9D"/>
<path d="M99.8541 136.71C99.8541 136.71 108.933 137.197 117.806 131.734C117.806 131.734 113.13 141.228 99.707 140.118L99.8541 136.71Z" fill="#FF9A6C"/>
<path d="M126.622 111.173C126.613 110.174 127.741 107.81 128.725 107.646C131.352 107.207 136.097 107.368 136.213 114.049C136.371 123.184 127.404 121.144 127.147 121.197C125.691 121.495 126.65 114.618 126.622 111.173Z" fill="#FFBF9D"/>
<path d="M129.619 117.816C129.659 117.786 129.781 117.925 130.051 118.043C130.316 118.158 130.769 118.234 131.241 118.048C132.2 117.677 132.986 116.131 133.002 114.483C133.011 113.652 132.824 112.863 132.517 112.212C132.227 111.549 131.787 111.09 131.299 111.012C130.814 110.908 130.475 111.206 130.367 111.464C130.25 111.722 130.311 111.904 130.263 111.92C130.238 111.943 130.064 111.77 130.131 111.392C130.165 111.21 130.269 110.992 130.481 110.813C130.697 110.631 131.017 110.534 131.356 110.565C132.062 110.602 132.707 111.239 133.043 111.952C133.418 112.669 133.648 113.555 133.638 114.489C133.612 116.331 132.699 118.069 131.385 118.474C130.746 118.653 130.206 118.468 129.925 118.258C129.639 118.037 129.588 117.834 129.619 117.816Z" fill="#FF9A6C"/>
<path d="M84.8938 93.8703C85.1844 90.5523 86.506 87.4065 88.1068 84.4862C89.2149 82.4649 90.4894 80.4921 92.233 78.9848C93.6903 77.7253 95.4253 76.835 97.166 76.0096C101.742 73.839 106.846 71.9976 111.787 73.1107C114.44 73.7084 116.827 75.1178 119.151 76.5308C120.931 77.6139 122.719 78.7228 124.21 80.1786C125.518 81.456 126.57 82.9732 127.498 84.5483C129.71 88.3032 131.272 92.5008 131.571 96.8491C131.87 101.197 135.159 105.041 132.61 108.576C132.413 108.849 127.872 109.79 127.559 109.915C126.821 110.208 126.01 109.408 126.015 108.614C126.021 107.82 126.568 107.135 127.156 106.602C126.026 106.564 125.251 105.305 125.322 104.176C125.393 103.047 126.061 102.053 126.732 101.143C126.819 101.024 126.911 100.898 126.928 100.752C126.976 100.366 126.539 100.129 126.206 99.9322C124.579 98.969 124.397 96.2908 125.88 95.1177C123.701 94.6129 122.29 91.9925 123.066 89.8947C123.188 89.5634 123.356 89.1914 123.197 88.8751C123.044 88.5717 122.667 88.4767 122.342 88.3796C119.931 87.6649 118.31 84.941 118.834 82.4813C117.566 82.5477 116.277 82.6127 115.043 82.3128C113.809 82.0136 112.616 81.2918 112.052 80.1544C111.243 81.6109 109.655 82.6041 107.992 82.6926C106.328 82.7819 104.643 81.9643 103.683 80.6027C101.556 80.8062 99.3794 80.4692 97.4131 79.6324C96.9304 81.6145 95.3668 83.2981 93.4254 83.9257C93.0484 84.0478 92.615 84.1663 92.4337 84.5183C92.318 84.7425 92.3365 85.0088 92.3501 85.2609C92.4172 86.5361 91.5483 87.0794 90.845 88.1454C90.1417 89.2114 88.9158 90.7994 87.6877 90.4474C87.8241 92.6194 86.6624 94.2009 84.8281 95.3733L84.8938 93.8703Z" fill="#2B2D42"/>
<path d="M83.002 92.1945C83.002 92.1945 83.0898 91.8168 83.4853 91.2099C83.676 90.9043 83.9466 90.5481 84.2008 90.0925C84.4492 89.6363 84.6463 89.0579 84.6977 88.3811C84.7648 87.7063 84.7027 86.9495 84.6377 86.122C84.5728 85.2973 84.5028 84.377 84.6856 83.4095C84.8591 82.4463 85.2396 81.4453 85.8608 80.5214C86.1714 80.0601 86.542 79.6189 86.9732 79.2183C87.4016 78.8135 87.9043 78.4722 88.4069 78.1323C88.906 77.7882 89.4115 77.4205 89.7842 76.9228C90.1591 76.4251 90.3876 75.8147 90.6346 75.1956C91.1308 73.9476 91.8548 72.7245 92.8223 71.6449C93.7834 70.5653 94.9543 69.5857 96.3381 68.891C97.0178 68.519 97.7668 68.2677 98.53 68.0449C99.3054 67.87 100.108 67.7322 100.928 67.7522C101.337 67.7465 101.749 67.8 102.16 67.8393C102.569 67.8993 102.973 67.9821 103.377 68.0499C104.186 68.2034 105.003 68.2198 105.819 68.0313C106.635 67.8628 107.434 67.5615 108.277 67.3438C109.114 67.1053 109.983 66.9639 110.862 66.864C111.743 66.7661 112.64 66.7654 113.539 66.8161C114.439 66.8832 115.338 67.0417 116.223 67.2866C117.974 67.805 119.682 68.7711 120.848 70.2819C120.962 70.4318 121.077 70.581 121.19 70.7288L121.044 70.6724C123.802 70.012 126.691 70.7324 128.923 72.1947C131.17 73.652 132.842 75.9125 133.384 78.4093L133.31 78.3187C134.419 78.832 135.516 79.3482 136.527 79.9823C137.536 80.6135 138.463 81.3696 139.161 82.2985C139.853 83.2317 140.276 84.3305 140.376 85.4415C140.481 86.5482 140.208 87.6935 139.529 88.5374L139.52 88.3846C140.835 89.6813 141.508 91.4134 141.663 93.057C141.819 94.7085 141.486 96.32 140.751 97.6045C140.584 97.9351 140.356 98.2221 140.152 98.5134C139.931 98.7926 139.706 99.0532 139.53 99.3338C139.352 99.6144 139.236 99.9157 139.212 100.232C139.184 100.548 139.22 100.865 139.246 101.18C139.352 102.44 139.335 103.609 139.178 104.648C139.019 105.685 138.727 106.594 138.301 107.294C137.886 108 137.362 108.484 136.893 108.789C136.423 109.103 136.007 109.228 135.777 109.399C135.538 109.556 135.455 109.685 135.447 109.678C135.447 109.678 135.52 109.54 135.757 109.371C135.986 109.186 136.402 109.05 136.855 108.731C137.31 108.423 137.815 107.941 138.213 107.244C138.622 106.552 138.9 105.654 139.047 104.63C139.193 103.602 139.202 102.444 139.087 101.195C139.06 100.882 139.018 100.557 139.046 100.218C139.068 99.8772 139.197 99.5366 139.382 99.2424C139.567 98.9454 139.795 98.6784 140.01 98.4028C140.208 98.1165 140.428 97.8366 140.587 97.5138C141.296 96.2608 141.613 94.6864 141.454 93.077C141.296 91.4748 140.633 89.7948 139.359 88.5474L139.286 88.4753L139.35 88.3946C139.983 87.6007 140.24 86.5218 140.138 85.4622C140.039 84.3998 139.628 83.3402 138.962 82.4463C138.287 81.5531 137.384 80.8155 136.391 80.1986C135.395 79.5782 134.309 79.0676 133.2 78.5564L133.14 78.5293L133.126 78.465C132.598 76.0453 130.968 73.8433 128.774 72.4217C126.595 70.9959 123.778 70.299 121.108 70.9395L121.021 70.9602L120.962 70.8831C120.853 70.741 120.742 70.5968 120.63 70.4518C119.506 68.9945 117.855 68.0563 116.145 67.5494C115.281 67.3095 114.401 67.1538 113.518 67.0874C112.636 67.0367 111.755 67.0368 110.888 67.1324C110.023 67.2295 109.168 67.368 108.345 67.6015C107.517 67.8129 106.712 68.1163 105.871 68.2891C105.451 68.3769 105.023 68.4319 104.593 68.4326C104.163 68.4326 103.742 68.3755 103.332 68.3055C102.922 68.2356 102.521 68.1527 102.121 68.0935C101.72 68.0549 101.322 68.0014 100.925 68.0064C100.128 67.9849 99.3468 68.1177 98.59 68.2855C97.8453 68.5012 97.1127 68.7439 96.4473 69.1066C95.0914 69.7821 93.9397 70.7403 92.9922 71.7963C92.0383 72.8544 91.3243 74.0489 90.831 75.2756C90.5818 75.8889 90.3462 76.518 89.9463 77.0456C89.5458 77.574 89.0195 77.9502 88.5162 78.2937C88.0071 78.6342 87.5173 78.9634 87.0982 79.3547C86.6762 79.7424 86.3113 80.1708 86.0058 80.6199C85.3924 81.5188 85.0133 82.4963 84.8369 83.438C84.6513 84.3827 84.7106 85.2866 84.7684 86.1134C84.8255 86.9409 84.8805 87.7063 84.8041 88.3925C84.7441 89.0794 84.5328 89.6727 84.2722 90.1332C84.0058 90.5923 83.7288 90.9415 83.5317 91.2413C83.329 91.5377 83.1983 91.7776 83.1191 91.9432C83.0391 92.1067 83.0091 92.1967 83.002 92.1945Z" fill="#2B2D42"/>
<path d="M116.773 68.8325C116.76 68.8532 116.531 68.6961 116.085 68.4819C115.64 68.2713 114.964 68.0092 114.089 67.9171C113.22 67.82 112.144 67.9014 111.09 68.3784C110.042 68.8518 109.026 69.7107 108.377 70.8752C108.19 71.2094 108.031 71.565 107.931 71.9127C107.835 72.2583 107.823 72.6252 108.005 72.8744L108.231 73.1836L107.861 73.0822C106.846 72.8037 105.805 73.0051 105.039 73.4406C104.26 73.8747 103.771 74.5445 103.504 75.1435C103.233 75.749 103.172 76.2881 103.159 76.6515C103.149 77.0178 103.179 77.2184 103.159 77.2213C103.151 77.2227 103.137 77.1741 103.116 77.0785C103.094 76.9835 103.074 76.84 103.066 76.6522C103.049 76.2802 103.085 75.7183 103.346 75.0764C103.601 74.4424 104.102 73.7177 104.924 73.24C105.73 72.7631 106.835 72.5317 107.933 72.8245L107.789 73.0322C107.533 72.6767 107.566 72.2183 107.668 71.842C107.779 71.4564 107.941 71.0966 108.137 70.7417C108.818 69.5208 109.887 68.6297 110.988 68.1478C112.099 67.6615 113.221 67.6001 114.114 67.7251C115.015 67.8457 115.698 68.1442 116.136 68.3877C116.355 68.5112 116.518 68.6183 116.623 68.7004C116.727 68.7796 116.779 68.8246 116.773 68.8325Z" fill="#455A64"/>
<path d="M131.679 79.2026C131.689 79.2147 131.582 79.3361 131.362 79.5317C131.141 79.7252 130.805 79.9958 130.334 80.2579C129.866 80.5149 129.252 80.7705 128.516 80.8191C127.794 80.8683 126.933 80.7098 126.243 80.1508L126.445 80.1186C126.359 80.2415 126.27 80.3678 126.18 80.4956C126.084 80.6184 125.975 80.7355 125.871 80.8576C125.204 81.5581 124.391 82.04 123.6 82.2956C122.809 82.5605 122.05 82.6305 121.425 82.5862C120.797 82.5427 120.308 82.3927 119.983 82.2699C119.663 82.1307 119.496 82.0336 119.504 82.0186C119.523 81.9615 120.215 82.3485 121.434 82.392C122.038 82.4099 122.764 82.3228 123.516 82.0564C124.269 81.7987 125.038 81.3324 125.67 80.6699C125.767 80.5542 125.87 80.4435 125.962 80.3278C126.047 80.2072 126.132 80.0887 126.213 79.973L126.302 79.8473L126.416 79.9401C127.032 80.4457 127.823 80.6084 128.503 80.5763C129.19 80.5463 129.785 80.3243 130.25 80.0958C131.177 79.6181 131.649 79.1626 131.679 79.2026Z" fill="#455A64"/>
<path d="M136.572 87.6364C136.581 87.6385 136.574 87.6956 136.551 87.8049C136.521 87.9105 136.469 88.0697 136.351 88.2482C136.129 88.6081 135.634 89.0472 134.887 89.2386C134.137 89.4406 133.205 89.2964 132.275 88.9758C131.809 88.813 131.325 88.6502 130.829 88.4189C130.347 88.1868 129.821 87.8513 129.558 87.2794C129.538 87.2294 129.518 87.1787 129.5 87.133L129.716 87.1965C128.842 87.8913 127.939 88.4967 127.019 88.8452C126.104 89.2072 125.183 89.27 124.456 89.13C123.722 88.998 123.181 88.6909 122.869 88.4239C122.71 88.2925 122.601 88.174 122.536 88.0883C122.47 88.0026 122.439 87.9555 122.446 87.9491C122.466 87.9319 122.61 88.1069 122.934 88.3396C123.254 88.5724 123.783 88.8373 124.487 88.9394C125.189 89.0479 126.053 88.9701 126.927 88.6095C127.806 88.2618 128.68 87.6692 129.545 86.9802L129.689 86.8652L129.761 87.0444C129.776 87.083 129.792 87.1244 129.809 87.1665C130.023 87.6406 130.485 87.9519 130.946 88.1761C131.413 88.3989 131.902 88.5703 132.357 88.7366C133.263 89.0636 134.141 89.2136 134.841 89.0501C135.545 88.8944 136.027 88.5089 136.262 88.1876C136.508 87.8641 136.544 87.6271 136.572 87.6364Z" fill="#455A64"/>
<path d="M107.072 106.186C107.012 107.077 107.717 107.862 108.646 107.942C109.573 108.022 110.376 107.367 110.436 106.476C110.496 105.585 109.792 104.799 108.864 104.719C107.934 104.638 107.132 105.296 107.072 106.186Z" fill="#263238"/>
<path d="M90.7107 105.738C90.65 106.629 91.3554 107.414 92.2843 107.494C93.2118 107.574 94.0143 106.919 94.0743 106.027C94.1343 105.136 93.4296 104.349 92.5021 104.27C91.5732 104.19 90.7706 104.847 90.7107 105.738Z" fill="#263238"/>
<path d="M90.044 100.133C90.2461 100.36 91.5563 99.4538 93.3741 99.5173C95.1906 99.5544 96.495 100.533 96.6985 100.316C96.7992 100.221 96.5979 99.8165 96.0309 99.3745C95.4726 98.9354 94.5101 98.4941 93.3777 98.462C92.2453 98.432 91.2793 98.8183 90.7181 99.2274C90.1461 99.638 89.9441 100.03 90.044 100.133Z" fill="#263238"/>
<path d="M108.108 101.039C108.333 101.244 109.545 100.209 111.359 100.086C113.169 99.9356 114.567 100.775 114.748 100.539C114.837 100.433 114.599 100.052 113.987 99.6708C113.386 99.2902 112.385 98.951 111.254 99.036C110.125 99.1224 109.204 99.6058 108.687 100.071C108.161 100.538 107.999 100.949 108.108 101.039Z" fill="#263238"/>
<path d="M101.341 114.685C101.353 114.582 100.229 114.351 98.4055 114.057C97.9428 113.994 97.5066 113.888 97.4387 113.569C97.3402 113.23 97.5501 112.736 97.7929 112.203C98.2655 111.094 98.7596 109.931 99.2794 108.713C101.347 103.742 102.86 99.6487 102.659 99.5673C102.459 99.4859 100.619 103.449 98.5511 108.419C98.0528 109.645 97.5758 110.814 97.1224 111.932C96.9296 112.454 96.6083 113.043 96.8233 113.747C96.9375 114.098 97.2695 114.36 97.5644 114.45C97.8593 114.55 98.1199 114.563 98.3491 114.585C100.188 114.743 101.331 114.788 101.341 114.685Z" fill="#263238"/>
<path d="M104.153 117.387C104.834 117.483 105.515 117.835 105.912 118.405C106.309 118.975 106.596 120.308 106.202 120.827C105.865 121.269 104.364 121.267 103.332 121.137C102.854 121.077 102.455 120.745 102.296 120.29L101.888 119.117C101.656 118.45 102.003 117.7 102.679 117.488C103.136 117.344 103.648 117.317 104.153 117.387Z" fill="#FF9A6C"/>
<path d="M107.287 94.4022C107.557 94.8535 109.295 94.2758 111.438 94.1202C113.579 93.9217 115.387 94.2052 115.58 93.7161C115.663 93.4833 115.28 93.0842 114.505 92.7472C113.737 92.4101 112.57 92.1745 111.286 92.2795C110.001 92.3866 108.89 92.8107 108.187 93.2698C107.48 93.7296 107.167 94.1866 107.287 94.4022Z" fill="#263238"/>
<path d="M90.4905 97.1475C90.8718 97.5502 92.3105 97.0832 94.0541 97.0154C95.7948 96.8955 97.2828 97.206 97.6106 96.7648C97.7541 96.5513 97.5099 96.1436 96.8544 95.7702C96.2075 95.3982 95.1351 95.1083 93.9377 95.1719C92.7404 95.2368 91.7122 95.6395 91.1167 96.0786C90.5127 96.5199 90.3213 96.9504 90.4905 97.1475Z" fill="#263238"/>
<path d="M153.131 172.637L135.98 234.847L141.996 252.678C119.348 262.66 86.6096 265.833 60.8027 253.327C60.8027 253.327 69.5685 227.605 69.867 222.598C70.1654 217.591 68.0106 188.342 70.396 178.534C72.7815 168.725 79.6109 147.701 79.6109 147.701L99.6993 144.511C108.91 149.459 114.808 150.195 124.713 144.462L143.425 148.543L153.131 172.637Z" fill="#0976AB"/>
<path d="M79.9163 147.667C79.9163 147.667 69.1285 148.81 64.7845 157.683C60.4934 166.448 48.5817 205.244 47.9334 211.724C47.2851 218.205 52.543 226.928 57.1269 228.134L71.0263 214.278L82.5581 215.305L97.7414 144.461L79.9163 147.667Z" fill="#0976AB"/>
<g opacity="0.3">
<path d="M71.7691 171.498C68.4148 180.199 67.4666 189.814 69.0567 199.002C66.5248 198.057 63.9937 197.111 61.4618 196.166C63.531 199.024 66.2492 201.409 69.353 203.088C67.3052 202.496 65.2068 201.898 63.079 202.037C60.952 202.176 58.7536 203.201 57.7969 205.106C60.2795 204.652 62.8063 204.197 65.3132 204.49C67.82 204.782 70.349 205.94 71.6985 208.072C69.8263 199.991 69.1059 191.645 69.565 183.363" fill="black"/>
</g>
<g opacity="0.3">
<path d="M68.6176 224.851L125.23 230.46C121.149 230.374 118.009 233.827 114.476 235.871C107.935 239.654 99.788 238.596 92.3224 237.422C86.1371 236.449 79.9517 235.477 73.7663 234.504C72.2055 234.258 70.5426 233.965 69.3923 232.882C67.3303 230.94 67.8944 227.588 68.6176 224.851Z" fill="black"/>
</g>
<path d="M111.857 220.197L121.337 211.044C122.257 210.156 123.516 209.713 124.789 209.834C127.495 210.09 132.08 210.566 133.023 210.933C134.379 211.46 135.659 212.213 136.036 212.891C136.413 213.569 137.693 217.637 137.768 218.239C137.805 218.532 137.717 219.377 137.617 220.168C137.498 221.102 136.47 221.654 135.65 221.19C135.281 220.982 134.946 220.707 134.755 220.348C134.152 219.218 134.228 218.766 134.228 218.766C134.228 218.766 134.529 222.834 131.215 222.909C131.215 222.909 132.742 226.374 128.475 227.805C128.475 227.805 128.633 230.065 125.065 230.366C121.498 230.668 118.259 230.366 118.259 230.366C118.259 230.366 111.737 235.051 107.142 235.352C102.547 235.654 92.2592 233.645 92.2592 233.645L91.0176 214.696L111.857 220.197Z" fill="#FFBF9D"/>
<path d="M124.701 214.39C124.69 214.422 125.269 214.667 126.22 215.026C127.172 215.382 128.497 215.856 130.001 216.256C130.745 216.468 131.496 216.588 132.12 216.758C132.754 216.928 133.136 217.403 133.411 217.818C133.687 218.238 133.906 218.595 134.095 218.812C134.282 219.032 134.414 219.125 134.423 219.114C134.437 219.099 134.331 218.984 134.174 218.752C134.012 218.522 133.824 218.162 133.562 217.721C133.428 217.502 133.268 217.263 133.045 217.043C132.826 216.82 132.521 216.64 132.19 216.535C131.523 216.339 130.812 216.223 130.064 216.011C128.573 215.614 127.244 215.168 126.278 214.856C125.315 214.541 124.713 214.356 124.701 214.39Z" fill="#FF9A6C"/>
<path d="M123.483 220.199C123.471 220.231 123.873 220.419 124.538 220.686C125.203 220.954 126.131 221.298 127.168 221.645C128.205 221.992 129.153 222.275 129.845 222.462C130.537 222.648 130.971 222.741 130.981 222.707C130.991 222.673 130.575 222.52 129.898 222.29C129.129 222.033 128.236 221.734 127.248 221.404C126.262 221.073 125.368 220.774 124.6 220.517C123.92 220.294 123.496 220.165 123.483 220.199Z" fill="#FF9A6C"/>
<path d="M121.137 225.601C121.129 225.679 122.788 225.848 124.76 226.386C126.737 226.913 128.255 227.6 128.287 227.529C128.301 227.5 127.938 227.29 127.32 227.015C126.702 226.74 125.824 226.41 124.826 226.14C123.828 225.872 122.903 225.715 122.231 225.643C121.558 225.57 121.139 225.569 121.137 225.601Z" fill="#FF9A6C"/>
<path d="M99.1796 234.847L57.125 228.134C57.125 228.134 62.1787 207.04 69.5515 207.04C70.6317 207.04 107.987 219.176 107.987 219.176L99.1796 234.847Z" fill="#0976AB"/>
<path d="M106.538 225.663C106.565 225.687 106.933 225.334 107.524 224.76C108.174 224.122 108.957 223.353 109.822 222.503C110.715 221.616 111.511 220.799 112.07 220.19C112.63 219.583 112.952 219.186 112.927 219.162C112.901 219.138 112.532 219.491 111.941 220.065C111.292 220.703 110.509 221.472 109.643 222.322C108.75 223.21 107.954 224.026 107.396 224.634C106.837 225.242 106.513 225.64 106.538 225.663Z" fill="#FF9A6C"/>
<path d="M107.989 219.176C107.983 219.196 107.799 219.161 107.454 219.076C107.043 218.967 106.549 218.835 105.955 218.677C104.567 218.278 102.718 217.746 100.475 217.1C95.8557 215.744 89.4868 213.831 82.4632 211.682C78.574 210.481 74.8898 209.343 71.6189 208.334L71.534 208.307L71.4704 208.222C70.1816 206.488 68.2824 205.432 66.5688 204.909C64.8266 204.378 63.1966 204.314 61.8807 204.432C60.5576 204.54 59.538 204.831 58.8512 205.038C58.1665 205.258 57.8116 205.416 57.7973 205.388C57.783 205.362 58.1165 205.15 58.7926 204.874C59.4709 204.612 60.4941 204.265 61.8464 204.108C63.1902 203.939 64.8752 203.958 66.6973 204.475C68.5037 205 70.4794 206.021 71.9274 207.924L71.7789 207.813C75.0547 208.806 78.7446 209.925 82.6395 211.106C89.6631 213.255 96.012 215.232 100.599 216.693C102.819 217.414 104.649 218.007 106.023 218.453C106.604 218.655 107.087 218.822 107.489 218.961C107.823 219.082 107.995 219.156 107.989 219.176Z" fill="#0E0F1C"/>
<path d="M96.8479 151.752C97.1991 150.583 99.1748 139.776 99.978 137.263C101.111 133.718 110.322 127.378 110.322 127.378C110.322 127.378 108.878 124.05 104.956 125.78C100.313 127.828 98.0174 131.275 96.8479 130.573C95.6783 129.872 88.3848 122.447 86.3956 122.682C84.4071 122.916 83.9701 124.956 84.672 125.775C85.3739 126.594 86.1614 127.945 86.1614 127.945C86.1614 127.945 81.9502 126.678 82.7692 131.289C82.7692 131.289 77.9733 128.297 78.4409 134.613C78.4409 134.613 75.2829 133.326 74.581 135.549C73.8792 137.771 75.9605 140.345 77.0136 142.1C78.0668 143.854 81.4826 154.031 81.4826 154.031L81.5226 163.004L98.2923 159.558L96.8479 151.752Z" fill="#FFBF9D"/>
<path d="M96.8474 151.752C96.8603 151.753 96.9046 151.928 96.9795 152.267C97.0581 152.642 97.1623 153.139 97.2944 153.771C97.5621 155.131 97.9434 157.064 98.4297 159.531L98.4561 159.665L98.3197 159.694C94.1785 160.569 88.4515 161.778 81.5686 163.231L81.2908 163.29L81.2887 163.004C81.268 160.241 81.2451 157.218 81.2208 154.031L81.2344 154.113C80.0377 150.661 78.794 146.949 77.2317 143.198C76.4677 141.392 74.8762 139.818 74.3022 137.626C74.1615 137.083 74.0965 136.497 74.1908 135.912C74.2786 135.351 74.5442 134.703 75.099 134.349C75.6381 133.992 76.2771 133.914 76.854 133.955C77.4424 133.998 77.9943 134.126 78.5526 134.336L78.1421 134.634C78.1185 134.017 78.0942 133.39 78.1828 132.743C78.2977 132.113 78.4398 131.41 78.9846 130.877C79.5122 130.321 80.3426 130.201 81.0116 130.321C81.7021 130.434 82.3261 130.68 82.928 131.031L82.4711 131.34C82.359 130.492 82.214 129.459 82.7845 128.53C83.1401 127.946 83.8041 127.612 84.421 127.525C85.0514 127.435 85.6462 127.499 86.2467 127.655L85.899 128.095C85.4784 127.392 85.0272 126.689 84.5259 126.07C84.2018 125.745 84.0311 125.184 84.0583 124.729C84.0825 124.255 84.2425 123.799 84.5145 123.417C84.7844 123.034 85.1735 122.739 85.6012 122.572C85.8161 122.494 86.0346 122.43 86.2574 122.4C86.4723 122.37 86.7743 122.404 86.9835 122.462C87.8446 122.742 88.5029 123.223 89.1712 123.688C91.7873 125.598 94.0293 127.792 96.2905 129.771C96.5604 129.992 96.8931 130.304 97.0902 130.359C97.293 130.426 97.6293 130.269 97.9199 130.095C98.5175 129.724 99.0873 129.246 99.6627 128.801C100.808 127.892 101.99 127.041 103.23 126.344C104.463 125.694 105.763 124.972 107.228 125.033C108.698 125.063 109.961 126.042 110.547 127.277L110.633 127.457L110.461 127.579C106.871 130.13 103.645 132.642 101.362 135.344C100.794 136.025 100.351 136.741 100.098 137.504C99.8634 138.292 99.6813 139.076 99.5064 139.825C99.1765 141.326 98.8731 142.706 98.5989 143.955C98.0734 146.419 97.6585 148.361 97.3658 149.732C97.218 150.396 97.0988 150.902 97.0081 151.242C96.9231 151.584 96.8474 151.752 96.8474 151.752C96.8317 151.753 96.8731 151.574 96.9367 151.228C97.0081 150.848 97.1031 150.344 97.223 149.706C97.4843 148.328 97.8549 146.376 98.324 143.902C98.581 142.647 98.8645 141.261 99.1729 139.752C99.34 138.996 99.5114 138.213 99.7441 137.399C100.004 136.574 100.481 135.793 101.052 135.097C103.368 132.303 106.576 129.774 110.182 127.174L110.096 127.476C109.579 126.422 108.471 125.56 107.21 125.552C105.943 125.495 104.705 126.164 103.495 126.815C102.291 127.499 101.144 128.331 100.008 129.239C99.4328 129.687 98.8745 130.164 98.2112 130.581C97.8749 130.761 97.4972 131.025 96.9495 130.91C96.434 130.721 96.2413 130.443 95.9207 130.206C93.6337 128.216 91.3925 126.038 88.8292 124.173C88.1923 123.725 87.5133 123.256 86.8229 123.039C86.6487 123.001 86.5301 122.978 86.3488 122.994C86.1667 123.019 85.9954 123.071 85.8261 123.13C85.4941 123.261 85.2071 123.483 85.0043 123.77C84.6009 124.337 84.4995 125.19 84.9929 125.69C85.5341 126.359 85.9846 127.063 86.423 127.794L86.8043 128.429L86.0753 128.234C85.0986 127.973 83.8127 128.002 83.2957 128.858C82.8695 129.516 82.953 130.453 83.0672 131.237L83.1593 131.868L82.6103 131.546C82.0969 131.245 81.5 131.01 80.9252 130.92C80.3469 130.823 79.7714 130.923 79.4087 131.307C78.6669 132.109 78.6876 133.46 78.7397 134.592L78.7604 135.048L78.3291 134.891C77.3838 134.546 76.2028 134.343 75.4346 134.841C75.0526 135.082 74.857 135.525 74.7741 136.011C74.6956 136.493 74.7463 136.996 74.8719 137.484C75.1261 138.464 75.6424 139.378 76.185 140.255C76.7184 141.126 77.3645 141.992 77.7551 142.973C79.3266 146.781 80.5468 150.478 81.7306 153.95L81.7442 153.989V154.031C81.7485 157.218 81.7528 160.241 81.7563 163.004L81.4765 162.777C88.3744 161.398 94.1142 160.251 98.2647 159.421L98.1548 159.584C97.7235 157.096 97.3858 155.146 97.1487 153.774C97.0466 153.141 96.9667 152.642 96.906 152.266C96.8546 151.924 96.8353 151.751 96.8474 151.752Z" fill="#FF9A6C"/>
<path d="M86.1773 128.062C86.1323 128.119 87.0791 128.928 88.2129 129.962C89.3489 130.993 90.2435 131.858 90.2964 131.808C90.3464 131.762 89.5274 130.812 88.3836 129.774C87.2426 128.733 86.2187 128.008 86.1773 128.062Z" fill="#FF9A6C"/>
<path d="M82.4264 131.037C82.3664 131.062 82.7255 131.969 83.4595 132.91C84.1885 133.856 84.9782 134.43 85.0175 134.378C85.0667 134.321 84.3699 133.675 83.6609 132.755C82.9455 131.839 82.4935 131.003 82.4264 131.037Z" fill="#FF9A6C"/>
<path d="M78.5055 134.382C78.4484 134.423 78.8432 135.067 79.3866 135.821C79.9306 136.574 80.4169 137.152 80.474 137.11C80.5311 137.069 80.1363 136.425 79.5929 135.671C79.0488 134.918 78.5626 134.341 78.5055 134.382Z" fill="#FF9A6C"/>
<path d="M143.425 148.543L125.389 166.539L106.886 189.785L99.5271 158.806L80.7246 162.671C80.7246 162.671 82.0512 197.664 87.8375 213.525C88.9385 216.543 92.1964 218.787 93.6494 219.478C102.739 223.795 111.614 217.115 111.614 217.115C111.614 217.115 149.536 191.663 153.647 174.624C155.588 166.578 154.81 157.012 151.503 153.074C148.595 149.612 143.425 148.543 143.425 148.543Z" fill="#0976AB"/>
<path d="M153.646 174.624C153.646 174.624 153.603 174.812 153.501 175.176C153.382 175.533 153.287 176.093 152.994 176.769C152.517 178.164 151.534 180.116 150.016 182.462C148.488 184.802 146.384 187.511 143.707 190.441C141.021 193.362 137.802 196.541 134.061 199.849C130.334 203.173 126.096 206.637 121.431 210.202C119.097 211.983 116.654 213.786 114.1 215.592C113.458 216.039 112.812 216.489 112.161 216.942C111.517 217.387 110.844 217.856 110.141 218.251C108.732 219.048 107.225 219.719 105.638 220.215C102.483 221.236 98.9148 221.442 95.5632 220.405C95.1363 220.305 94.7457 220.096 94.3337 219.946C93.9282 219.78 93.5112 219.634 93.1249 219.407C92.3474 218.978 91.6248 218.46 90.9358 217.896C89.5806 216.753 88.3426 215.355 87.68 213.624C86.4783 210.221 85.6201 206.657 84.859 203.023C84.1685 199.376 83.5273 195.663 83.049 191.883C81.7231 181.801 80.9684 171.98 80.5443 162.678L80.5371 162.526L80.687 162.495C87.2494 161.151 93.5362 159.862 99.4917 158.642L99.6509 158.609L99.688 158.767C102.468 170.537 104.942 181.009 107.008 189.755L106.791 189.698C113.142 182.866 118.239 177.383 121.758 173.598C123.514 171.72 124.874 170.265 125.805 169.271C126.264 168.786 126.615 168.415 126.859 168.156C127.098 167.907 127.227 167.786 127.227 167.786C127.227 167.786 127.116 167.924 126.886 168.181C126.647 168.445 126.305 168.825 125.857 169.32C124.938 170.325 123.594 171.795 121.859 173.693C118.361 177.496 113.292 183.006 106.977 189.87L106.815 190.046L106.759 189.814C104.672 181.073 102.172 170.607 99.3617 158.845L99.5574 158.97C93.6033 160.197 87.3187 161.494 80.7577 162.846L80.9005 162.664C81.3325 171.95 82.0922 181.769 83.416 191.834C83.8943 195.608 84.5327 199.312 85.2202 202.95C85.9771 206.572 86.8317 210.124 88.0198 213.497C88.6453 215.14 89.842 216.503 91.165 217.619C91.8362 218.171 92.5459 218.68 93.2963 219.094C93.664 219.312 94.071 219.454 94.468 219.617C94.87 219.763 95.2519 219.969 95.6682 220.066C98.9376 221.082 102.428 220.889 105.535 219.888C107.096 219.402 108.584 218.743 109.973 217.961C110.673 217.567 111.311 217.125 111.972 216.67C112.623 216.218 113.269 215.77 113.91 215.325C116.463 213.526 118.908 211.73 121.243 209.957C125.91 206.407 130.152 202.959 133.884 199.653C137.631 196.363 140.857 193.202 143.551 190.301C146.237 187.391 148.352 184.703 149.893 182.383C151.424 180.057 152.423 178.123 152.921 176.743C153.225 176.073 153.332 175.518 153.462 175.166C153.579 174.806 153.646 174.624 153.646 174.624Z" fill="#0E0F1C"/>
<path d="M110.306 204.012C110.239 203.997 110.46 203.102 110.575 201.634C110.646 200.9 110.635 200.023 110.583 199.054C110.505 198.086 110.342 197.029 110.066 195.944C109.511 193.767 108.576 191.938 107.82 190.677C107.053 189.417 106.485 188.694 106.536 188.653C106.556 188.637 106.715 188.804 106.986 189.121C107.263 189.433 107.623 189.918 108.042 190.536C108.864 191.777 109.858 193.626 110.426 195.85C110.709 196.959 110.865 198.042 110.925 199.032C110.959 200.022 110.943 200.917 110.837 201.658C110.748 202.4 110.629 202.995 110.513 203.396C110.403 203.8 110.331 204.018 110.306 204.012Z" fill="#0E0F1C"/>
<path d="M107.738 119.744C107.704 119.843 107.317 119.799 106.724 119.679C106.131 119.561 105.335 119.38 104.45 119.312C103.564 119.237 102.772 119.302 102.227 119.444C101.67 119.574 101.436 119.8 101.346 119.763C101.302 119.742 101.301 119.619 101.414 119.452C101.525 119.287 101.743 119.104 102.038 118.954C102.629 118.647 103.542 118.487 104.509 118.57C105.482 118.645 106.319 118.927 106.883 119.177C107.451 119.431 107.771 119.648 107.738 119.744Z" fill="#263238"/>
<g opacity="0.3">
<path d="M136.388 234.451C136.388 234.451 128.132 233.439 123.691 232.752C121.263 232.376 117.568 231.986 116.869 231.308C116 230.466 116.006 229.063 115.913 227.855C114.339 207.259 121.42 184.978 143.307 171.691L148.89 173.159L148.528 186.576L136.388 234.451Z" fill="black"/>
</g>
<path d="M265.43 73.9291C268.231 74.1797 271.047 72.0584 271.577 69.2966C272.109 66.5349 270.281 63.5211 267.587 62.715C269.281 60.8929 269.644 57.9626 268.449 55.7806C267.253 53.5986 264.587 52.3306 262.139 52.779C261.977 50.3278 260.453 48.0109 258.266 46.8906C256.08 45.7703 253.309 45.8881 251.225 47.1898C248.456 44.93 244.08 44.9492 241.332 47.2326C238.936 46.8499 236.366 48.1829 235.299 50.3621C234.232 52.5405 234.755 55.3886 236.526 57.0465" fill="#2B2D42"/>
<path d="M240.227 52.9238L241.488 52.8946C254.174 52.599 264.961 62.0923 266.275 74.7137C267.497 86.4526 268.697 99.4374 268.766 105.748C268.909 118.817 255.89 121.153 255.89 121.153L257.361 136.823L225.632 136.58L221.5 79.7217C220.014 66.1828 226.653 54.0348 240.227 52.9238Z" fill="#FFBF9D"/>
<path d="M255.904 121.149C255.904 121.149 246.794 121.828 237.891 116.521C237.891 116.521 243.199 126.045 256.208 124.564L255.904 121.149Z" fill="#FF9A6C"/>
<path d="M262.298 88.8923C262.357 89.8769 261.57 90.7373 260.543 90.8165C259.519 90.8951 258.639 90.1639 258.581 89.1793C258.523 88.1947 259.309 87.3336 260.334 87.2537C261.361 87.1744 262.24 87.9077 262.298 88.8923Z" fill="#263238"/>
<path d="M263.622 81.171C263.396 81.4202 261.959 80.4063 259.951 80.4585C257.945 80.4813 256.496 81.5487 256.273 81.3081C256.163 81.2017 256.388 80.7569 257.019 80.275C257.639 79.7952 258.706 79.3175 259.957 79.2939C261.208 79.2718 262.27 79.7073 262.886 80.1643C263.514 80.6241 263.733 81.0589 263.622 81.171Z" fill="#263238"/>
<path d="M244.992 88.8924C245.049 89.877 244.263 90.7373 243.237 90.8159C242.212 90.8951 241.332 90.1633 241.274 89.1787C241.217 88.1948 242.003 87.333 243.028 87.2537C244.054 87.1738 244.934 87.9078 244.992 88.8924Z" fill="#263238"/>
<path d="M243.882 82.005C243.657 82.2535 242.217 81.2411 240.211 81.2932C238.205 81.3167 236.756 82.3834 236.532 82.1428C236.423 82.0364 236.646 81.5916 237.279 81.1097C237.9 80.6299 238.966 80.1529 240.217 80.1286C241.467 80.1058 242.53 80.542 243.146 80.999C243.772 81.4588 243.993 81.8936 243.882 82.005Z" fill="#263238"/>
<path d="M251.524 96.7242C251.512 96.61 252.755 96.365 254.77 96.0595C255.282 95.9952 255.765 95.8817 255.843 95.5297C255.955 95.1562 255.727 94.6086 255.465 94.0181C254.954 92.7893 254.42 91.5006 253.859 90.1497C251.623 84.6405 249.993 80.1066 250.216 80.018C250.438 79.9302 252.431 84.3242 254.665 89.8327C255.204 91.1914 255.719 92.4866 256.209 93.7254C256.417 94.3037 256.766 94.957 256.522 95.731C256.392 96.1173 256.023 96.4043 255.696 96.5007C255.37 96.6085 255.082 96.6207 254.829 96.6414C252.797 96.7992 251.534 96.8377 251.524 96.7242Z" fill="#263238"/>
<path d="M244.325 77.8596C244.073 78.3751 242.339 77.8631 240.219 77.8439C238.1 77.7767 236.324 78.218 236.119 77.6932C236.029 77.4433 236.395 76.9771 237.149 76.5515C237.897 76.1267 239.041 75.7847 240.312 75.809C241.582 75.8361 242.694 76.2231 243.401 76.6786C244.114 77.1334 244.437 77.6139 244.325 77.8596Z" fill="#263238"/>
<path d="M263.529 72.8902C263.116 73.3557 261.449 72.9209 259.455 72.9459C257.462 72.9116 255.783 73.3379 255.383 72.8702C255.208 72.6424 255.463 72.1798 256.19 71.7307C256.906 71.2837 258.113 70.9031 259.483 70.9067C260.853 70.911 262.049 71.2965 262.753 71.7471C263.468 72.1998 263.71 72.6639 263.529 72.8902Z" fill="#263238"/>
<path d="M264.886 68.7518C264.886 68.7518 261.25 60.6507 257.26 58.8329C252.43 56.6331 250.496 61.9231 245.916 60.7571C241.335 59.5912 236.724 57.4799 232.154 61.1063C227.153 65.0761 229.601 67.7222 229.422 73.5256C228.694 97.0562 224.558 103.802 223.079 92.7615C222.916 91.5519 219.529 90.6659 218.91 85.5536C218.108 78.9241 217.665 70.8631 219.038 66.1135C220.195 62.1102 222.397 59.3113 226.39 56.1889C232.693 51.2609 241.501 50.9525 247.499 51.4151C253.496 51.8785 265.192 58.4945 264.886 68.7518Z" fill="#2B2D42"/>
<path d="M223.897 92.3866C223.768 90.3717 221.993 88.8209 219.988 89.0587C217.557 89.3471 214.878 90.7937 215.157 95.8245C215.65 104.75 224.509 102.413 224.51 102.156C224.511 101.982 224.137 96.1201 223.897 92.3866Z" fill="#FFBF9D"/>
<path d="M222.388 98.9061C222.348 98.8797 222.239 99.0239 221.983 99.1589C221.734 99.2902 221.297 99.3952 220.822 99.2467C219.859 98.9532 218.983 97.5002 218.851 95.8937C218.783 95.0833 218.911 94.3001 219.164 93.6439C219.4 92.9756 219.797 92.4965 220.267 92.3859C220.733 92.2502 221.085 92.5158 221.208 92.7607C221.342 93.0035 221.295 93.1848 221.343 93.1977C221.37 93.2191 221.527 93.037 221.435 92.6729C221.388 92.498 221.272 92.293 221.053 92.1331C220.829 91.971 220.509 91.8996 220.18 91.9539C219.495 92.0396 218.91 92.7072 218.633 93.4269C218.318 94.1523 218.155 95.0334 218.232 95.9437C218.388 97.7387 219.402 99.3716 220.713 99.6722C221.35 99.8015 221.863 99.583 222.122 99.3581C222.384 99.1224 222.42 98.9204 222.388 98.9061Z" fill="#FF9A6C"/>
<path d="M223.675 75.0779C224.854 75.8426 226.098 76.6301 227.499 76.7365C228.9 76.8422 230.479 76.0025 230.683 74.6123C230.774 73.9876 230.606 73.27 231.003 72.7802C231.477 72.1955 232.381 72.354 233.131 72.4161C235.734 72.631 238.702 69.6922 239.303 67.1503C239.989 68.1264 241.447 68.3927 242.434 67.723C243.421 67.0539 243.777 66.6762 244.541 65.7595C245.305 64.8434 246.387 64.0144 247.572 64.1544C248.234 64.2329 248.861 64.6113 249.524 64.5371C250.695 64.4057 251.236 63.0191 251.386 61.8503C251.536 60.6822 251.643 59.3206 252.621 58.6644C253.528 58.0561 254.729 58.3681 255.813 58.5016C256.896 58.6352 258.284 58.3496 258.536 57.2871C258.668 56.7302 258.417 56.1526 258.099 55.6763C256.657 53.5194 253.601 52.6176 251.219 53.6457C250.277 50.7148 247.463 48.4821 244.394 48.2308C241.326 47.9787 238.186 49.723 236.779 52.4619C234.851 50.7933 232.091 50.1386 229.62 50.7633C227.148 51.3881 225.031 53.2752 224.127 55.6599C221.941 55.1394 219.484 56.0369 218.149 57.8448C216.815 59.6526 216.679 62.2644 217.82 64.2008C216.236 65.1554 214.898 66.7826 214.908 68.6326C214.918 70.4819 216.762 72.2818 218.535 71.7542C217.847 73.21 218.48 75.15 219.893 75.9218C221.306 76.6937 223.28 76.1767 224.133 74.8108" fill="#2B2D42"/>
<path d="M251.944 56.2597C251.951 56.2604 251.952 56.3154 251.946 56.4232C251.937 56.5303 251.934 56.6931 251.9 56.9016C251.828 57.3157 251.676 57.9305 251.292 58.6373C250.905 59.3342 250.298 60.1424 249.361 60.795C248.442 61.4548 247.174 61.9695 245.726 61.9231L245.873 61.7218C246.168 62.4793 246.113 63.3975 245.751 64.1915C245.409 64.9991 244.859 65.7202 244.274 66.4235C243.974 66.7619 243.716 67.1575 243.298 67.4716C242.892 67.7737 242.401 67.9543 241.895 68.03C240.891 68.1821 239.747 67.8972 238.996 67.0668L239.328 66.964C239.142 68.7447 238.173 70.5447 236.594 71.665C235.76 72.2983 234.718 72.6981 233.683 72.6945C232.649 72.7088 231.681 72.4275 230.778 72.1276L231.014 72.017C230.56 73.1387 229.845 74.1026 228.965 74.823C228.101 75.542 226.94 75.9782 225.873 75.7433C223.754 75.3463 222.315 73.6256 221.994 71.9813L222.199 72.0705C221.167 72.6653 220.045 72.746 219.141 72.5932C218.224 72.4475 217.498 72.0677 216.979 71.6885C216.457 71.3015 216.144 70.8995 215.955 70.6204C215.781 70.3298 215.708 70.1684 215.718 70.1634C215.762 70.1256 216.03 70.8353 217.066 71.5657C217.583 71.9141 218.292 72.2597 219.173 72.379C220.044 72.5068 221.106 72.4047 222.059 71.8363L222.224 71.7378L222.264 71.9263C222.583 73.46 223.967 75.0643 225.931 75.4099C226.898 75.6127 227.919 75.2228 228.737 74.5424C229.559 73.8634 230.241 72.9344 230.663 71.8806L230.73 71.7135L230.899 71.7692C231.788 72.0619 232.722 72.3247 233.678 72.309C234.635 72.3068 235.57 71.9513 236.366 71.3515C237.857 70.2912 238.766 68.6069 238.951 66.9211L238.998 66.497L239.283 66.8176C239.917 67.528 240.94 67.8022 241.844 67.6673C242.296 67.6023 242.733 67.4431 243.087 67.1832C243.434 66.9333 243.703 66.542 244.007 66.2007C244.591 65.5088 245.127 64.8148 245.453 64.0637C245.798 63.3211 245.849 62.5136 245.595 61.8275L245.517 61.6161L245.742 61.6261C247.106 61.6861 248.328 61.2184 249.226 60.5994C250.142 59.9889 250.749 59.2206 251.148 58.5552C251.928 57.1857 251.88 56.2404 251.944 56.2597Z" fill="#455A64"/>
<path d="M187.69 135.422C187.69 135.422 154.116 147.246 144.405 152.131C136.818 155.946 132.01 169.79 143.686 175.56C152.391 179.862 199.52 171.64 199.52 171.64L187.69 135.422Z" fill="#FFBF9D"/>
<path d="M290.187 252.97L204.883 249.742L201.794 278.781L198.377 337.029L241.922 337.212C241.94 336.965 247.352 304.47 247.352 304.47L249.813 303.826L249.584 337.212H290.397C292.54 309.584 293.764 286.379 293.839 284.196C294.434 266.936 290.187 252.97 290.187 252.97Z" fill="#545569"/>
<path d="M244.286 286.372C244.27 286.411 244.726 286.653 245.581 287.032C246.44 287.392 247.701 287.945 249.393 288.187C250.238 288.304 251.193 288.308 252.189 288.088C253.177 287.87 254.223 287.401 255.051 286.562C255.879 285.721 256.387 284.573 256.691 283.389C256.998 282.196 257.151 280.962 257.349 279.706C258.104 274.67 258.566 270.08 258.807 266.754C258.928 265.091 258.998 263.743 259.028 262.811C259.055 261.878 259.047 261.361 259.004 261.358C258.959 261.355 258.883 261.867 258.778 262.792C258.663 263.853 258.521 265.163 258.353 266.713C257.996 270.022 257.465 274.589 256.712 279.611C256.327 282.094 256.1 284.615 254.624 286.15C253.148 287.656 251.016 287.898 249.445 287.735C247.822 287.562 246.55 287.086 245.671 286.798C244.794 286.493 244.303 286.329 244.286 286.372Z" fill="#455A64"/>
<path d="M252.423 262.51C252.431 262.482 252.219 262.36 251.792 262.352C251.368 262.339 250.732 262.494 250.118 262.97C249.53 263.442 248.92 264.271 248.94 265.367C248.937 266.477 249.848 267.531 250.993 267.889C252.128 268.278 253.486 267.967 254.141 267.07C254.805 266.199 254.803 265.169 254.608 264.441C254.394 263.694 253.973 263.193 253.624 262.953C253.273 262.707 253.031 262.68 253.021 262.708C252.942 262.794 253.897 263.181 254.166 264.546C254.286 265.189 254.216 266.054 253.679 266.699C253.165 267.358 252.133 267.589 251.193 267.279C250.251 266.972 249.555 266.176 249.53 265.34C249.48 264.503 249.935 263.765 250.412 263.317C251.437 262.374 252.435 262.627 252.423 262.51Z" fill="#455A64"/>
<path d="M204.889 277.033C204.887 277.078 205.256 277.117 205.928 277.151C206.599 277.195 207.575 277.171 208.774 277.063C211.17 276.854 214.473 276.131 217.817 274.56C221.156 272.976 223.815 270.886 225.498 269.169C226.344 268.312 226.983 267.574 227.375 267.027C227.776 266.487 227.979 266.177 227.944 266.15C227.856 266.079 226.929 267.235 225.184 268.84C223.446 270.447 220.808 272.43 217.543 273.979C214.273 275.515 211.066 276.292 208.721 276.612C206.372 276.939 204.889 276.918 204.889 277.033Z" fill="#455A64"/>
<path d="M291.905 248.236C290.232 244.426 290.542 244.075 290.542 244.075L285.799 202.572L281.244 162.197L277.55 132.313L256.21 127.743C256.21 127.743 253.753 134.55 243.438 134.757C231.555 134.994 224.744 124.368 224.744 124.368L190.623 131.694L203.455 219.703L204.994 243.408C204.994 243.408 202.446 247.244 202.446 251.359C202.446 255.473 202.279 258.216 202.279 258.216C233.951 266.917 265.38 274.452 294.299 266.029C294.299 266.03 293.578 252.046 291.905 248.236Z" fill="#0976AB"/>
<path d="M269.766 130.755C269.766 130.755 282.065 132.129 286.429 136.761C290.793 141.393 304.743 164.313 304.743 164.313L284.481 192.033L275.094 179.224L269.766 130.755Z" fill="#0976AB"/>
<path d="M279.141 145.099C279.312 145.083 281.249 160.317 283.469 179.123C285.689 197.934 287.351 213.193 287.18 213.21C287.01 213.226 285.072 197.994 282.852 179.183C280.632 160.377 278.97 145.115 279.141 145.099Z" fill="#263238"/>
<path d="M190.621 131.694L163.301 143.82L173.186 171.476L199.52 175.65L190.621 131.694Z" fill="#0976AB"/>
<path d="M194.383 150.026C194.565 150.007 195.868 160.797 197.294 174.124C198.719 187.455 199.728 198.274 199.546 198.294C199.363 198.314 198.06 187.526 196.635 174.195C195.209 160.868 194.201 150.046 194.383 150.026Z" fill="#2B2D42"/>
<g opacity="0.3">
<path d="M201.117 290.253C215.951 284.92 224.169 274.411 230.804 263.265C237.438 252.119 238.387 236.423 234.14 224.167C234.14 224.167 203.484 253.823 203.266 254.476C203.049 255.13 201.117 290.253 201.117 290.253Z" fill="black"/>
</g>
<g opacity="0.3">
<path d="M242.844 134.373C242.477 137.384 244.159 140.287 246.222 142.51C248.286 144.734 250.785 146.545 252.665 148.925C254.812 151.642 256.041 154.952 257.236 158.202C259.732 164.988 262.229 171.773 264.725 178.559C266.875 184.403 269.053 190.304 272.462 195.515C275.87 200.725 280.67 205.261 286.598 207.166L282.097 168.937L258.354 130.753L242.844 134.373Z" fill="black"/>
</g>
<path d="M267.446 134.705C267.446 134.225 267.828 116.518 266.64 114.594C265.453 112.671 264.503 110.868 264.265 109.065C264.265 109.065 264.913 108.013 263.733 107.354C262.553 106.695 260.68 108.302 260.64 111.143C260.599 113.985 260.925 118.846 260.925 118.846C260.925 118.846 247.862 111.432 244.281 111.225C240.699 111.02 235.328 110.361 235.043 112.091C234.758 113.821 235.002 114.233 236.874 114.892C238.746 115.551 241.717 116.004 244.647 116.992C247.577 117.981 248.919 118.653 248.919 118.653C248.919 118.653 242.246 116.688 240.781 118.653C239.315 120.617 239.519 122.388 240.455 123.336C240.455 123.336 238.461 124.16 238.664 126.342C238.868 128.526 239.845 129.061 239.845 129.061C239.845 129.061 237.891 130.544 238.827 132.439C239.763 134.334 241.961 133.14 244.036 135.282C246.111 137.424 251.279 142.449 253.273 143.561C255.268 144.674 259.825 145.126 259.825 145.126L267.446 134.705Z" fill="#FFBF9D"/>
<path d="M267.447 134.705C267.451 134.707 267.412 134.767 267.331 134.886C267.241 135.014 267.119 135.187 266.961 135.412C266.622 135.886 266.131 136.57 265.497 137.456C264.195 139.254 262.303 141.87 259.904 145.183L259.872 145.228L259.817 145.223C258.915 145.128 257.976 144.995 257 144.811C256.025 144.626 255.01 144.399 253.994 144.015C253.482 143.832 252.987 143.549 252.536 143.221C252.075 142.899 251.634 142.542 251.186 142.177C250.297 141.441 249.408 140.647 248.507 139.817C247.605 138.985 246.691 138.115 245.765 137.208C245.305 136.751 244.84 136.288 244.368 135.82C243.902 135.335 243.446 134.872 242.862 134.552C242.29 134.218 241.631 134.056 240.955 133.906C240.296 133.756 239.502 133.599 239.005 132.975C238.52 132.396 238.31 131.577 238.495 130.823C238.686 130.069 239.157 129.436 239.753 128.941L239.772 129.198C239.255 128.838 239.004 128.317 238.804 127.78C238.621 127.235 238.52 126.674 238.5 126.081C238.479 125.485 238.657 124.871 239 124.363C239.352 123.858 239.823 123.456 240.396 123.189L240.343 123.45C239.507 122.614 239.381 121.281 239.766 120.213C239.946 119.667 240.224 119.159 240.556 118.692C240.708 118.454 240.951 118.208 241.216 118.072C241.482 117.925 241.766 117.831 242.052 117.761C243.206 117.518 244.376 117.618 245.527 117.766C246.682 117.927 247.825 118.172 248.969 118.492L248.846 118.805C247.13 118.016 245.274 117.352 243.387 116.777C241.488 116.21 239.505 115.839 237.527 115.28C236.819 115.056 236.114 114.853 235.454 114.43C235.125 114.217 234.854 113.837 234.804 113.432C234.743 113.035 234.792 112.661 234.841 112.298C234.868 112.132 234.884 111.909 235.006 111.715C235.121 111.53 235.285 111.395 235.453 111.29C235.797 111.091 236.163 110.993 236.524 110.923C237.25 110.789 237.974 110.765 238.691 110.761C240.124 110.763 241.533 110.872 242.926 110.968C243.624 111.026 244.306 111.033 245.021 111.171C245.365 111.248 245.698 111.353 246.035 111.442L247.014 111.782C249.584 112.759 251.989 113.943 254.314 115.12C256.634 116.306 258.864 117.508 261.002 118.713L260.773 118.857C260.613 116.051 260.447 113.367 260.519 110.769C260.617 109.474 261.109 108.141 262.19 107.391C262.462 107.215 262.779 107.092 263.113 107.08C263.446 107.061 263.787 107.198 264.032 107.391C264.287 107.581 264.502 107.868 264.556 108.199C264.611 108.53 264.534 108.848 264.377 109.133L264.395 109.048C264.677 111.026 265.665 112.731 266.587 114.28C266.7 114.463 266.836 114.682 266.898 114.909C266.974 115.131 267.014 115.352 267.06 115.572C267.14 116.013 267.197 116.448 267.241 116.876C267.331 117.734 267.383 118.565 267.425 119.37C267.58 122.588 267.578 125.366 267.578 127.638C267.57 129.91 267.539 131.677 267.512 132.876C267.495 133.465 267.483 133.92 267.473 134.241C267.462 134.547 267.447 134.705 267.447 134.705C267.447 134.705 267.435 134.549 267.435 134.24C267.435 133.919 267.435 133.464 267.436 132.875C267.435 131.663 267.434 129.9 267.432 127.639C267.41 125.368 267.391 122.592 267.218 119.382C267.171 118.58 267.113 117.751 267.02 116.901C266.974 116.476 266.916 116.046 266.835 115.616C266.744 115.175 266.657 114.78 266.385 114.403C265.453 112.849 264.44 111.134 264.137 109.083L264.131 109.043L264.155 108.999C264.275 108.779 264.343 108.496 264.296 108.245C264.252 107.991 264.09 107.768 263.87 107.605C263.433 107.238 262.819 107.296 262.339 107.62C261.371 108.291 260.888 109.554 260.803 110.79C260.74 113.34 260.912 116.046 261.079 118.837L261.095 119.119L260.85 118.981C258.715 117.784 256.483 116.588 254.166 115.408C251.847 114.237 249.442 113.059 246.898 112.096L245.934 111.762C245.607 111.676 245.281 111.572 244.952 111.5C244.306 111.373 243.595 111.36 242.902 111.305C241.509 111.21 240.104 111.102 238.691 111.102C237.986 111.106 237.275 111.132 236.588 111.258C235.927 111.393 235.158 111.627 235.178 112.347C235.13 112.697 235.088 113.053 235.14 113.377C235.186 113.703 235.368 113.96 235.648 114.15C236.219 114.519 236.938 114.738 237.623 114.953C239.57 115.504 241.567 115.879 243.481 116.45C245.396 117.035 247.235 117.693 248.996 118.503L248.873 118.816C247.754 118.502 246.614 118.257 245.481 118.098C244.351 117.949 243.198 117.857 242.126 118.083C241.598 118.211 241.097 118.426 240.823 118.882C240.506 119.327 240.243 119.808 240.076 120.315C239.717 121.314 239.843 122.495 240.571 123.224L240.732 123.386L240.518 123.486C240.024 123.715 239.571 124.095 239.262 124.542C238.956 124.997 238.797 125.536 238.814 126.077C238.83 126.619 238.929 127.176 239.098 127.678C239.267 128.17 239.548 128.67 239.919 128.928L240.099 129.053L239.938 129.185C239.401 129.628 238.952 130.233 238.788 130.893C238.622 131.549 238.81 132.278 239.232 132.785C239.644 133.316 240.35 133.469 241.017 133.622C241.694 133.774 242.393 133.946 243.002 134.302C243.618 134.64 244.116 135.152 244.566 135.624C245.035 136.093 245.498 136.556 245.955 137.014C246.877 137.922 247.785 138.794 248.682 139.627C249.578 140.459 250.461 141.253 251.34 141.99C252.232 142.705 253.081 143.444 254.076 143.803C255.065 144.183 256.072 144.414 257.038 144.604C258.006 144.792 258.943 144.931 259.836 145.031L259.749 145.069C262.173 141.788 264.087 139.197 265.403 137.416C266.057 136.54 266.562 135.863 266.911 135.395C267.08 135.174 267.209 135.003 267.305 134.877C267.395 134.762 267.447 134.705 267.447 134.705Z" fill="#FF9A6C"/>
<path d="M309.782 176.045C308.476 173.551 305.528 168.358 304.107 165.18L294.77 168.573C294.77 168.573 268.318 132.842 267.474 132.842C266.629 132.842 255.141 143.493 255.141 143.493C255.648 144 279.464 198.584 288.587 204.497C297.709 210.409 304.508 214.164 309.407 205.718C314.306 197.271 315.525 187.026 309.782 176.045Z" fill="#FFBF9D"/>
<path d="M306.728 184.61C306.707 184.621 306.552 184.373 306.29 183.918C306.032 183.46 305.646 182.804 305.158 182.002C304.187 180.396 302.748 178.235 301.002 175.963C299.256 173.69 297.561 171.723 296.328 170.303C295.747 169.634 295.258 169.07 294.867 168.62C294.524 168.221 294.343 167.992 294.36 167.976C294.378 167.96 294.592 168.158 294.965 168.53C295.338 168.902 295.866 169.451 296.508 170.142C297.788 171.523 299.518 173.473 301.273 175.756C303.028 178.039 304.444 180.235 305.367 181.88C305.83 182.702 306.184 183.378 306.407 183.856C306.634 184.332 306.749 184.6 306.728 184.61Z" fill="#FF9A6C"/>
<path d="M252.923 105.042C252.686 105.217 251.701 104.203 250.138 103.656C248.588 103.07 247.183 103.214 247.113 102.928C247.083 102.798 247.42 102.573 248.044 102.453C248.663 102.332 249.57 102.36 250.489 102.692C251.407 103.027 252.118 103.589 252.515 104.08C252.917 104.573 253.029 104.962 252.923 105.042Z" fill="#263238"/>
<path d="M276.798 247.991C276.804 248.001 276.691 248.066 276.472 248.182C276.249 248.29 275.932 248.481 275.495 248.656C274.627 249.027 273.316 249.459 271.638 249.694C269.962 249.928 267.929 249.954 265.713 249.665C263.495 249.384 261.098 248.825 258.636 248.084C253.719 246.581 249.367 244.933 246.252 243.659C244.695 243.021 243.447 242.476 242.59 242.087C242.192 241.901 241.867 241.749 241.608 241.628C241.385 241.52 241.271 241.458 241.276 241.446C241.281 241.436 241.404 241.477 241.635 241.565C241.9 241.67 242.234 241.802 242.642 241.964C243.559 242.328 244.812 242.826 246.341 243.433C249.474 244.648 253.833 246.257 258.735 247.755C261.185 248.493 263.561 249.056 265.754 249.352C267.946 249.654 269.95 249.653 271.608 249.454C273.267 249.252 274.571 248.862 275.447 248.532C276.314 248.188 276.784 247.962 276.798 247.991Z" fill="#2B2D42"/>
<path d="M212.192 179.868C200.267 171.836 186.085 168.967 176.788 168.962C168.082 168.956 155.268 170.32 143.667 176.854C136.462 180.912 130.712 186.459 126.576 193.34C121.677 201.491 119.022 211.578 118.684 223.322C118.634 225.084 119.283 226.752 120.514 228.019C121.75 229.293 123.409 229.995 125.184 229.997L148.013 230.012C151.234 230.014 154.004 227.613 154.457 224.425C155.474 217.267 159.731 205.216 176.815 204.933C189.834 204.724 195.192 214.144 196.895 218.206C199.666 224.817 198.957 232.655 194.998 239.171C188.917 249.183 177.741 250.709 171.62 250.727C164.582 250.748 158.852 256.458 158.847 263.455L158.83 288.02C158.828 291.608 161.745 294.529 165.332 294.531L187.575 294.546C191.162 294.548 194.083 291.631 194.085 288.044L194.089 282.883C194.089 282.759 194.166 282.652 194.286 282.61C199.325 280.845 209.095 276.58 217.897 267.84C229.134 256.682 234.838 242.275 234.849 225.02C234.866 200.326 222.537 186.836 212.192 179.868Z" fill="#299AD1"/>
<path d="M177.557 300.723L175.612 300.722C166.31 300.715 158.737 308.278 158.73 317.581C158.724 326.883 166.287 334.455 175.589 334.462L177.535 334.463C186.837 334.47 194.41 326.907 194.416 317.604C194.422 308.302 186.859 300.73 177.557 300.723Z" fill="#299AD1"/>
<g opacity="0.3">
<path d="M233.992 209.244C233.694 206.729 233.037 204.322 232.111 202.01C227.657 190.899 217.207 183.327 205.314 181.974L147.918 175.447C154.159 181.826 162.308 183.096 170.947 185.335C179.585 187.574 188.886 190.931 197.614 192.789C200.415 193.385 203.309 194.129 205.487 195.988C207.613 197.801 208.799 200.452 209.918 203.011C211.577 206.804 213.238 210.597 214.897 214.391C216.792 218.722 219.312 223.613 224.414 223.892C226.472 224.005 228.492 223.234 230.057 221.892C233.751 218.724 234.531 213.79 233.992 209.244Z" fill="black"/>
</g>
<path d="M233.175 193.87C232.731 193.088 224.008 182.422 219.671 178.287C216.871 175.617 212.651 173.775 210.005 172.802C210.005 172.802 166.331 157.03 163.3 155.491L143.686 175.56C150.514 177.459 196.876 188.621 208.314 191.131C210.315 193.465 212.327 195.378 212.327 195.378L215.652 203.189C215.652 203.189 216.035 206.032 215.795 209.081C215.556 212.13 218.029 210.941 218.029 210.941C218.029 210.941 217.912 212.836 218.073 215.567C218.074 215.594 218.076 215.622 218.079 215.649C218.241 217.691 221.175 217.944 221.799 215.992L224.053 208.951C224.053 208.951 223.758 215.359 223.638 218.925C223.616 219.572 223.729 220.104 223.928 220.542C224.791 222.432 227.606 222.08 228.085 220.058L230.724 208.918L229.87 202.096L232.084 208.33C232.084 208.33 232.696 211.662 232.573 216.343C232.524 218.215 233.155 219.012 233.93 219.294C235.228 219.766 236.6 218.732 236.713 217.354L237.557 207.032C237.557 207.032 233.619 194.651 233.175 193.87Z" fill="#FFBF9D"/>
<path d="M160.483 154.711C160.501 154.63 161.742 154.829 163.695 155.371C165.649 155.906 168.297 156.818 171.162 157.955C174.028 159.094 176.588 160.193 178.443 160.981C180.296 161.772 181.442 162.269 181.409 162.358C181.379 162.441 180.174 162.099 178.271 161.417C176.367 160.739 173.775 159.707 170.918 158.572C168.061 157.438 165.46 156.464 163.555 155.818C161.654 155.166 160.46 154.808 160.483 154.711Z" fill="#FF9A6C"/>
</svg>
