<svg width="443" height="453" viewBox="0 0 443 453" fill="none" xmlns="http://www.w3.org/2000/svg">
<path d="M88.6894 107.631C117.638 107.631 141.105 84.1634 141.105 55.2148C141.105 26.2662 117.638 2.7988 88.6894 2.7988C59.7409 2.7988 36.2734 26.2662 36.2734 55.2148C36.2734 84.1634 59.7409 107.631 88.6894 107.631Z" fill="white"/>
<path d="M132.812 59.7388L176.995 91.7188L124.484 82.7388L132.812 59.7388Z" fill="white"/>
<path d="M108.519 30.7928C99.3783 28.1208 88.6913 37.8238 88.6913 37.8238C88.6913 37.8238 78.0043 28.1208 68.8633 30.7928C59.7223 33.4648 54.1783 45.0788 59.3003 57.2298C65.3473 71.5738 79.8313 81.4168 88.6913 86.7608C97.5503 81.4168 112.035 71.5738 118.082 57.2298C123.204 45.0788 117.659 33.4648 108.519 30.7928Z" fill="#0976AB"/>
<path d="M354.416 148.563C383.365 148.563 406.832 125.095 406.832 96.1468C406.832 67.1982 383.365 43.7308 354.416 43.7308C325.467 43.7308 302 67.1982 302 96.1468C302 125.095 325.467 148.563 354.416 148.563Z" fill="white"/>
<path d="M398.539 100.671L442.722 132.651L390.211 123.671L398.539 100.671Z" fill="white"/>
<path d="M274.4 337.729H131.29L115.695 452.731H193.987L197.806 408.065H202.845H207.884L211.703 452.731H289.995L274.4 337.729Z" fill="#299AD1"/>
<path d="M202.846 408.065V353.372" stroke="#0E0F1C" stroke-miterlimit="10"/>
<path d="M192.631 352.153V379.83C192.631 385.743 196.99 390.751 202.847 391.566" stroke="#0E0F1C" stroke-miterlimit="10"/>
<path d="M125.574 379.892L125.892 379.821C156.043 372.952 158.518 337.729 158.518 337.729H131.292L125.574 379.892Z" fill="#0976AB"/>
<path d="M280.102 379.892L279.784 379.821C249.633 372.952 247.158 337.729 247.158 337.729H274.384L280.102 379.892Z" fill="#0976AB"/>
<path d="M311.513 142.21C301.25 125.418 284.559 113.561 265.324 109.399L221.628 99.9438L202.846 98.1088L184.064 99.9438L140.368 109.399C121.133 113.561 104.442 125.418 94.1794 142.21L57.1895 202.731L126.272 236.467L128.433 339.919C128.433 339.919 161.646 354.326 202.846 354.326C244.046 354.326 277.259 339.919 277.259 339.919L279.42 236.467L348.503 202.731L311.513 142.21Z" fill="#2B2D42"/>
<path d="M279.8 218.71H125.892L125.279 185.375H280.413L279.8 218.71Z" fill="#0976AB"/>
<path d="M281.209 150.374L279.42 235.975" stroke="#090E21" stroke-miterlimit="10"/>
<path d="M278.867 262.907H126.823L126.123 229.572H279.567L278.867 262.907Z" fill="#0976AB"/>
<path d="M241.38 104.218L221.627 99.9438L202.845 98.1088L184.063 99.9438L163.816 104.325C169.175 112.07 187.472 119.313 202.561 119.313C217.719 119.314 236.117 112.004 241.38 104.218Z" fill="#0976AB"/>
<path d="M342.759 193.333L348.503 202.731L279.42 236.467L279.641 225.424L342.759 193.333Z" fill="#0976AB"/>
<path d="M226.974 199.202H198.107C193.627 199.202 189.994 195.57 189.994 191.089V131.812C189.994 127.332 193.626 123.699 198.107 123.699H226.974C231.454 123.699 235.087 127.331 235.087 131.812V191.089C235.086 195.57 231.454 199.202 226.974 199.202Z" fill="#57C3F7"/>
<path d="M198.207 144.597C196.042 144.597 194.287 142.842 194.287 140.677V132.188C194.287 130.023 196.042 128.268 198.207 128.268C200.372 128.268 202.127 130.023 202.127 132.188V140.677C202.127 142.842 200.372 144.597 198.207 144.597Z" fill="#0976AB"/>
<path d="M198.206 134.394C199.367 134.394 200.307 133.453 200.307 132.293C200.307 131.132 199.367 130.192 198.206 130.192C197.046 130.192 196.105 131.132 196.105 132.293C196.105 133.453 197.046 134.394 198.206 134.394Z" fill="#0E0F1C"/>
<path d="M198.206 142.673C199.367 142.673 200.307 141.732 200.307 140.572C200.307 139.411 199.367 138.471 198.206 138.471C197.046 138.471 196.105 139.411 196.105 140.572C196.105 141.732 197.046 142.673 198.206 142.673Z" fill="#0E0F1C"/>
<path d="M128.682 379.083C142.912 374.774 150.404 363.861 154.32 354.327L128.002 343.783L111.312 260.912L123.709 235.216L67.4938 207.763L57.4868 233.311C50.5258 251.082 53.0848 271.173 64.2778 286.632L115.696 357.646L128.682 379.083Z" fill="#FF8B7B"/>
<path d="M107.703 240.69L111.312 260.912" stroke="#0E0F1C" stroke-miterlimit="10"/>
<path d="M71.0377 229.154L120.197 242.494L123.708 235.216L67.4927 207.763L64.3327 215.83C62.1587 221.382 65.2837 227.592 71.0377 229.154Z" fill="#E37A6C"/>
<path d="M311.015 221.038L261.381 183.018L236.35 150.752C234.91 148.896 232.745 147.744 230.401 147.588L202.126 145.701V153.378L223.851 156.363L199.795 164.679L202.126 183.369L207.97 182.165L209.138 188.989L219.8 187.283L232.808 193.333C232.808 193.333 237.073 201.783 245.389 200.504C245.389 200.504 276.586 263.878 291.877 286.119C307.168 308.361 330.419 313.001 349.798 299.788C370.186 285.887 362.418 247.038 358.834 236.467C352.81 218.699 344.238 204.798 344.238 204.798L311.015 221.038Z" fill="#FF8B7B"/>
<path d="M352.952 221.635C348.394 211.543 344.237 204.799 344.237 204.799L311.016 221.038L321.638 229.08C327.778 233.729 336.238 233.807 342.463 229.274L352.952 221.635Z" fill="#E37A6C"/>
<path d="M301.875 214.119L339.138 242.331" stroke="#0E0F1C" stroke-miterlimit="10"/>
<path d="M223.852 156.363L227.113 155.202L240.608 168.68" stroke="#0E0F1C" stroke-miterlimit="10"/>
<path d="M200.906 173.586L224.536 167.26L239.546 176.714" stroke="#0E0F1C" stroke-miterlimit="10"/>
<path d="M207.971 182.165L222.721 178.836L235.086 183.639" stroke="#0E0F1C" stroke-miterlimit="10"/>
<path d="M62.9335 193.333L57.1895 202.731L126.272 236.467L126.051 225.424L62.9335 193.333Z" fill="#0976AB"/>
<path d="M124.482 149.374L126.271 234.975" stroke="#090E21" stroke-miterlimit="10"/>
<path d="M221.058 99.9438L219.697 77.0248H202.561H185.425L184.064 99.9438L168.289 103.294C172.724 109.776 189.099 115.917 202.561 115.917C216.023 115.917 232.398 109.776 236.833 103.294L221.058 99.9438Z" fill="#FF8B7B"/>
<path d="M220.601 92.2518L219.697 77.0258H202.561H185.425L185.09 82.6698C190.272 93.4378 200.663 95.7268 207.188 95.7268C210.951 95.7258 216.004 94.9618 220.601 92.2518Z" fill="#E37A6C"/>
<path d="M187.762 104.526L199.796 110.061" stroke="#0E0F1C" stroke-miterlimit="10"/>
<path d="M202.562 19.7608C187.06 19.7608 175.143 21.7288 175.143 21.7288C175.143 21.7288 175.854 40.1648 177.465 60.3528C179.154 81.5128 194.107 85.3398 202.562 85.3398C211.016 85.3398 225.97 81.5128 227.659 60.3528C229.27 40.1648 229.981 21.7288 229.981 21.7288C229.981 21.7288 218.064 19.7608 202.562 19.7608Z" fill="#FF8B7B"/>
<path d="M237.957 22.8588C237.957 18.2338 235.004 14.3088 230.885 12.8358C229.677 6.7908 222.607 3.42781 217.558 6.32581C216.269 0.474806 206.154 -2.2022 202.126 2.1608C198.098 -2.2022 187.983 0.474806 186.694 6.32581C181.645 3.42781 174.575 6.7908 173.367 12.8358C169.248 14.3078 166.295 18.2338 166.295 22.8588C166.295 26.4708 168.097 29.6568 170.846 31.5828L174.39 50.4548L176.474 51.1558L179.369 33.2288C183.059 32.3708 186.015 29.5988 187.126 26.0118C190.008 27.9318 195.936 30.4518 202.126 24.5718C208.316 30.4518 214.244 27.9308 217.126 26.0118C218.236 29.5988 221.192 32.3698 224.883 33.2288L227.778 51.1558L229.862 50.4548L233.406 31.5828C236.155 29.6568 237.957 26.4708 237.957 22.8588Z" fill="#0E0F1C"/>
<path d="M191.842 59.5668C196.608 59.5668 200.471 55.481 200.471 50.4408C200.471 45.4007 196.608 41.3148 191.842 41.3148C187.076 41.3148 183.213 45.4007 183.213 50.4408C183.213 55.481 187.076 59.5668 191.842 59.5668Z" stroke="#D3D4CF" stroke-miterlimit="10"/>
<path d="M213.283 59.5668C218.049 59.5668 221.912 55.481 221.912 50.4408C221.912 45.4007 218.049 41.3148 213.283 41.3148C208.518 41.3148 204.654 45.4007 204.654 50.4408C204.654 55.481 208.518 59.5668 213.283 59.5668Z" stroke="#D3D4CF" stroke-miterlimit="10"/>
<path d="M200.4 49.2968H204.722" stroke="#D3D4CF" stroke-miterlimit="10"/>
<path d="M183.508 48.3468H173.949" stroke="#D3D4CF" stroke-miterlimit="10"/>
<path d="M231.175 48.3468H221.617" stroke="#D3D4CF" stroke-miterlimit="10"/>
<path d="M202.128 51.1558C202.128 51.1558 202.128 54.1318 202.128 56.3868C202.128 59.5668 199.936 61.6468 199.936 61.6468H204.654" stroke="#0E0F1C" stroke-miterlimit="10"/>
<path d="M191.177 56.4008C192.399 56.4008 193.389 55.4105 193.389 54.1888C193.389 52.9672 192.399 51.9768 191.177 51.9768C189.955 51.9768 188.965 52.9672 188.965 54.1888C188.965 55.4105 189.955 56.4008 191.177 56.4008Z" fill="#090E21"/>
<path d="M213.946 56.4008C215.168 56.4008 216.158 55.4105 216.158 54.1888C216.158 52.9672 215.168 51.9768 213.946 51.9768C212.725 51.9768 211.734 52.9672 211.734 54.1888C211.734 55.4105 212.725 56.4008 213.946 56.4008Z" fill="#090E21"/>
<path d="M193.389 62.0578C193.389 62.0578 197.873 68.1538 209.561 65.3578" stroke="#0E0F1C" stroke-miterlimit="10"/>
<path d="M192.238 62.9368L194.847 61.0958" stroke="#0E0F1C" stroke-miterlimit="10"/>
<path d="M184.434 38.8648C189.667 35.2878 197.039 37.0118 199.707 40.9128" stroke="#090E21" stroke-width="2" stroke-miterlimit="10"/>
<path d="M220.691 38.8648C215.458 35.2878 208.086 37.0118 205.418 40.9128" stroke="#090E21" stroke-width="2" stroke-miterlimit="10"/>
<path d="M202.561 72.0718C204.089 72.0718 205.327 71.4781 205.327 70.7458C205.327 70.0135 204.089 69.4198 202.561 69.4198C201.033 69.4198 199.795 70.0135 199.795 70.7458C199.795 71.4781 201.033 72.0718 202.561 72.0718Z" fill="#E37A6C"/>
<path d="M174.36 65.2173C178.589 64.181 180.919 58.8561 179.563 53.3239C178.207 47.7917 173.68 44.147 169.451 45.1833C165.221 46.2196 162.892 51.5444 164.247 57.0767C165.603 62.6089 170.13 66.2536 174.36 65.2173Z" fill="#FF8B7B"/>
<path d="M167.479 51.8438C169.274 46.8008 175.065 47.8848 176.992 55.2158" stroke="#0E0F1C" stroke-miterlimit="10"/>
<path d="M240.911 57.0868C242.266 51.5545 239.937 46.2296 235.707 45.1933C231.478 44.157 226.951 47.8017 225.595 53.334C224.24 58.8662 226.569 64.1911 230.798 65.2274C235.028 66.2637 239.555 62.619 240.911 57.0868Z" fill="#FF8B7B"/>
<path d="M237.643 51.8438C235.848 46.8008 230.056 47.8848 228.129 55.2158" stroke="#0E0F1C" stroke-miterlimit="10"/>
<path d="M52.416 424.563C81.3646 424.563 104.832 401.095 104.832 372.147C104.832 343.198 81.3646 319.731 52.416 319.731C23.4674 319.731 0 343.198 0 372.147C0 401.095 23.4674 424.563 52.416 424.563Z" fill="white"/>
<path d="M96.5389 376.671L140.722 408.651L88.2109 399.671L96.5389 376.671Z" fill="white"/>
<path d="M347.416 424.563C376.365 424.563 399.832 401.095 399.832 372.147C399.832 343.198 376.365 319.731 347.416 319.731C318.467 319.731 295 343.198 295 372.147C295 401.095 318.467 424.563 347.416 424.563Z" fill="white"/>
<path d="M391.539 376.671L435.722 408.651L383.211 399.671L391.539 376.671Z" fill="white"/>
<rect x="124.264" y="387.731" width="20" height="25" transform="rotate(7.5 124.264 387.731)" fill="#299AD1"/>
</svg>
