<svg width="388" height="326" viewBox="0 0 388 326" fill="none" xmlns="http://www.w3.org/2000/svg">
<path d="M194 325.561C301.082 325.561 387.889 320.492 387.889 314.238C387.889 307.984 301.082 302.915 194 302.915C86.9184 302.915 0.111328 307.984 0.111328 314.238C0.111328 320.492 86.9184 325.561 194 325.561Z" fill="#D3D4CF"/>
<path d="M286.629 315.352C296.608 315.352 304.699 314.853 304.699 314.238C304.699 313.623 296.608 313.124 286.629 313.124C276.649 313.124 268.559 313.623 268.559 314.238C268.559 314.853 276.649 315.352 286.629 315.352Z" fill="#FEFFFA"/>
<path d="M163.882 287.989H321.852C337.165 287.989 349.693 275.46 349.693 260.148V170.87C349.693 155.557 337.164 143.029 321.852 143.029H163.882C148.569 143.029 136.041 155.557 136.041 170.87V260.148C136.041 275.461 148.569 287.989 163.882 287.989Z" fill="#545569"/>
<path d="M294.304 314.238H279.354L248.973 242.265H271.85L294.304 314.238Z" fill="#545569"/>
<path d="M354.193 208.167H353.193V215.51H354.193V208.167Z" fill="#299AD1"/>
<path opacity="0.2" d="M354.193 208.167H353.193V215.51H354.193V208.167Z" fill="#0E0F1C"/>
<path d="M354.193 176.88H353.193V203.157H354.193V176.88Z" fill="#299AD1"/>
<path opacity="0.2" d="M354.193 176.88H353.193V203.157H354.193V176.88Z" fill="#0E0F1C"/>
<path d="M227.146 138.529H213.582V139.529H227.146V138.529Z" fill="#299AD1"/>
<path opacity="0.2" d="M227.146 138.529H213.582V139.529H227.146V138.529Z" fill="#0E0F1C"/>
<path d="M335.439 242.265L294.27 314.238L263.889 242.265H335.439Z" fill="#299AD1"/>
<path opacity="0.2" d="M335.45 242.265L294.281 314.238L263.9 242.265H335.45Z" fill="#0E0F1C"/>
<path d="M176.458 287.989H321.851C337.164 287.989 349.692 275.46 349.692 260.148V170.87C349.692 155.557 337.163 143.029 321.851 143.029H176.458C161.145 143.029 148.617 155.557 148.617 170.87V260.148C148.617 275.461 161.146 287.989 176.458 287.989Z" fill="#299AD1"/>
<path opacity="0.2" d="M176.458 287.989H321.851C337.164 287.989 349.692 275.46 349.692 260.148V170.87C349.692 155.557 337.163 143.029 321.851 143.029H176.458C161.145 143.029 148.617 155.557 148.617 170.87V260.148C148.617 275.461 161.146 287.989 176.458 287.989Z" fill="#0E0F1C"/>
<path opacity="0.7" d="M226.752 287.989H200.148L228.292 143.029H254.897L226.752 287.989Z" fill="#299AD1"/>
<path opacity="0.7" d="M250.778 287.989H235.652L263.796 143.029H278.923L250.778 287.989Z" fill="#299AD1"/>
<path d="M313.624 189.801H239.704C235.444 189.801 231.99 186.347 231.99 182.087C231.99 177.827 235.444 174.373 239.704 174.373H313.624C317.884 174.373 321.338 177.827 321.338 182.087C321.338 186.347 317.884 189.801 313.624 189.801Z" fill="#F9FBF2"/>
<path d="M214.376 189.801H180.892C176.632 189.801 173.178 186.347 173.178 182.087C173.178 177.827 176.632 174.373 180.892 174.373H214.376C218.636 174.373 222.09 177.827 222.09 182.087C222.09 186.347 218.636 189.801 214.376 189.801Z" fill="#F9FBF2"/>
<path d="M313.623 222.316H188.745C184.485 222.316 181.031 218.862 181.031 214.602C181.031 210.342 184.485 206.888 188.745 206.888H313.623C317.883 206.888 321.337 210.342 321.337 214.602C321.337 218.862 317.883 222.316 313.623 222.316Z" fill="#F9FBF2"/>
<path d="M313.625 254.83H255.775C251.515 254.83 248.061 251.376 248.061 247.116C248.061 242.856 251.515 239.402 255.775 239.402H313.625C317.885 239.402 321.339 242.856 321.339 247.116C321.339 251.377 317.885 254.83 313.625 254.83Z" fill="#F9FBF2"/>
<path opacity="0.1" d="M184.722 143.029C184.722 143.029 173.658 202.833 173.658 228.087C173.658 254 182.8 287.989 182.8 287.989H153.597L151.658 255.183C149.844 224.497 152.882 193.717 160.659 163.977L166.138 143.029H184.722Z" fill="#0E0F1C"/>
<path d="M169.489 314.238C169.489 315.419 153.088 316.377 132.857 316.377C112.626 316.377 96.2246 315.419 96.2246 314.238C96.2246 313.056 112.626 312.099 132.857 312.099C153.088 312.099 169.489 313.056 169.489 314.238Z" fill="#E6E6E6"/>
<path d="M156.934 65.728C153.834 66.22 150.937 66.468 147.934 66.692C144.952 66.888 141.96 66.942 138.96 66.925C132.931 66.892 126.968 66.278 120.804 64.89C118.544 64.296 116.981 63.291 115.595 62.266C114.221 61.228 113.041 60.128 111.935 59.003C109.735 56.75 107.867 54.368 106.099 51.949C102.621 47.062 99.5792 42.063 96.9082 36.748L100.66 34.504C102.339 36.766 104.07 39.077 105.846 41.293C107.596 43.535 109.403 45.724 111.277 47.808C113.129 49.903 115.058 51.909 117.037 53.665C118.025 54.536 119.038 55.338 120.027 55.973C121.002 56.602 121.999 57.071 122.567 57.148C125.103 57.573 127.9 57.916 130.627 58.057C133.382 58.182 136.153 58.253 138.943 58.211C141.731 58.171 144.527 58.017 147.321 57.817C150.091 57.635 152.961 57.328 155.592 57.006L156.934 65.728Z" fill="#FF8B7B"/>
<path d="M165.929 57.612C158.317 53.02 148.016 56.349 148.016 56.349L153.23 74.377C153.23 74.377 161.467 72.055 164.704 68.546C168.074 64.893 170.516 60.38 165.929 57.612Z" fill="#0E0F1C"/>
<path d="M101.3 36.417L103.14 30.218L94.4277 31.298C94.4277 31.298 95.2887 35.338 97.5977 38.084L101.3 36.417Z" fill="#FF8B7B"/>
<path d="M102.509 22.989L95.2637 24.288L94.4277 31.299L103.14 30.219L102.509 22.989Z" fill="#FF8B7B"/>
<path d="M201.457 0.748001C209.161 0.910001 206.996 7.337 206.996 7.337C206.996 7.337 215.385 2.039 218.055 8.234C220.724 14.429 214.715 16.384 211.195 17.315C213.401 18.581 213.519 22.696 210.418 24.053C207.316 25.41 202.133 21.687 198.208 21.74L194.355 17.169C199.59 13.769 193.753 0.586001 201.457 0.748001Z" fill="#0E0F1C"/>
<path d="M200.259 24.924C203.619 25.508 206.061 25.092 205.397 21.381C204.733 17.669 201.858 13.777 197.621 12.213C193.384 10.649 192.434 17.654 192.434 17.654L200.259 24.924Z" fill="#57C3F7"/>
<path d="M102 284.068L93.4238 283.082L95.1338 263.157L103.71 264.143L102 284.068Z" fill="#FF8B7B"/>
<path d="M158.834 307.423L150.211 307.027L148.355 286.931L156.979 287.327L158.834 307.423Z" fill="#FF8B7B"/>
<path d="M149.879 304.425H159.577C159.93 304.425 160.216 304.67 160.266 305.015L161.371 312.688C161.486 313.484 160.801 314.237 159.987 314.223C156.606 314.165 154.977 313.966 150.712 313.966C148.088 313.966 144.255 314.239 140.632 314.239C137.088 314.239 136.816 310.656 138.324 310.332C145.089 308.877 146.157 306.871 148.436 304.957C148.847 304.61 149.363 304.425 149.879 304.425Z" fill="#0E0F1C"/>
<path d="M93.1332 279.943L102.764 278.802C103.115 278.76 103.428 278.97 103.518 279.306L105.518 286.796C105.725 287.573 105.134 288.401 104.324 288.483C100.959 288.823 99.3182 288.817 95.0832 289.319C92.4772 289.628 87.1202 290.537 83.5222 290.963C80.0032 291.38 79.3112 287.854 80.7712 287.354C87.3182 285.113 89.7262 282.808 91.7642 280.639C92.1302 280.249 92.6202 280.004 93.1332 279.943Z" fill="#0E0F1C"/>
<path d="M95.136 263.163L94.252 273.433L102.832 274.419L103.715 264.149L95.136 263.163Z" fill="#EA7063"/>
<path d="M156.981 287.332L148.354 286.936L149.315 297.295L157.942 297.691L156.981 287.332Z" fill="#EA7063"/>
<path d="M157.569 55.319C157.569 55.319 153.218 55.591 147.33 106.569C160.715 110.363 174.547 114.284 181.06 116.13C184.385 102.242 186.768 93.772 201.315 67.459C201.315 67.459 194.683 63.918 187.527 61.512C181.929 59.63 177.329 58.13 172.211 57.171C165.462 55.906 157.569 55.319 157.569 55.319Z" fill="#0E0F1C"/>
<path d="M190.898 43.835C188.535 48.489 185.011 57.246 187.527 61.511C187.527 61.511 184.763 66.128 175.606 63.533C165.537 60.679 172.211 57.171 172.211 57.171C178.078 57.416 179.092 53.299 179.22 49.198L190.898 43.835Z" fill="#FF8B7B"/>
<path d="M162.781 55.816C165.539 56.121 169.007 56.572 172.214 57.169C177.337 58.126 181.937 59.631 187.533 61.511C190.399 62.47 193.177 63.606 195.471 64.641C195.016 66.31 191.694 74.973 172.038 69.962C153.679 65.282 160.685 57.516 162.781 55.816Z" fill="#FF8B7B"/>
<path d="M186.137 46.024L179.226 49.195C179.199 50.166 179.117 51.136 178.928 52.047C181.113 52.339 184.81 51.355 185.656 49.22C186.078 48.155 186.171 46.585 186.137 46.024Z" fill="#EA7063"/>
<path d="M195.285 32.887C193.224 41.203 192.529 44.766 187.488 48.303C179.906 53.623 170.143 49.272 169.678 40.509C169.26 32.621 172.701 20.347 181.548 18.512C190.265 16.705 197.346 24.572 195.285 32.887Z" fill="#FF8B7B"/>
<path d="M192.591 40.912C190.083 39.607 188.068 35.897 191.69 32.474C191.69 32.474 186.733 29.619 189.2 25.685C191.667 21.751 201.738 18.491 203.312 23.765C204.886 29.039 199.999 31.215 199.999 31.215C199.999 31.215 204.009 37.338 196.809 39.355C196.809 39.355 196.187 48.191 191.025 44.259L192.591 40.912Z" fill="#0E0F1C"/>
<path d="M195.198 40.716C194.707 42.423 193.473 43.744 192.185 44.429C190.247 45.46 188.808 43.841 188.953 41.766C189.083 39.898 190.249 37.111 192.384 36.936C194.487 36.763 195.76 38.764 195.198 40.716Z" fill="#FF8B7B"/>
<path d="M147.33 106.569C147.33 106.569 108.153 152.778 101.518 178.258C94.6172 204.762 91.4922 270.218 91.4922 270.218L104.952 271.977C104.952 271.977 113.949 212.046 125.273 187.634C137.337 161.629 172.029 113.57 172.029 113.57L147.33 106.569Z" fill="#57C3F7"/>
<path d="M106.797 272.218L89.6515 269.977L89.3555 265.278L108.222 269.111L106.797 272.218Z" fill="#57C3F7"/>
<path opacity="0.3" d="M106.797 272.218L89.6515 269.977L89.3555 265.278L108.222 269.111L106.797 272.218Z" fill="#0E0F1C"/>
<path opacity="0.2" d="M146.657 127.581C142.089 144.123 140.8 153.236 139.443 162.18C143.016 156.38 146.792 150.511 150.467 144.949C151.801 142.009 153.158 139.103 154.492 136.265C154.492 136.231 154.515 136.197 154.526 136.163L146.657 127.581Z" fill="#0E0F1C"/>
<path d="M156.238 109.094C156.238 109.094 144.901 167.462 140.796 201.005C137.481 228.098 147.931 293.827 147.931 293.827L159.166 294.517C159.166 294.517 156.799 235.816 162.023 209.571C175.242 143.16 187.599 134.246 181.061 116.129L156.238 109.094Z" fill="#57C3F7"/>
<path d="M160.558 294.602L146.008 293.709L145.332 289.569L161.091 291.208L160.558 294.602Z" fill="#57C3F7"/>
<path opacity="0.3" d="M160.558 294.602L146.008 293.709L145.332 289.569L161.091 291.208L160.558 294.602Z" fill="#0E0F1C"/>
<path d="M182.129 114.293L182.794 117.743C182.845 118.011 182.5 118.171 182.11 118.06L146.737 108.034C146.433 107.948 146.223 107.728 146.258 107.531L146.81 104.426C146.848 104.211 147.162 104.109 147.495 104.203L181.651 113.884C181.902 113.955 182.095 114.121 182.129 114.293Z" fill="#57C3F7"/>
<path opacity="0.4" d="M182.129 114.293L182.794 117.743C182.845 118.011 182.5 118.171 182.11 118.06L146.737 108.034C146.433 107.948 146.223 107.728 146.258 107.531L146.81 104.426C146.848 104.211 147.162 104.109 147.495 104.203L181.651 113.884C181.902 113.955 182.095 114.121 182.129 114.293Z" fill="#0E0F1C"/>
<path d="M176.457 116.812L177.372 117.071C177.554 117.123 177.72 117.068 177.74 116.95L178.423 112.906C178.443 112.788 178.31 112.649 178.128 112.597L177.213 112.338C177.031 112.287 176.865 112.341 176.845 112.459L176.162 116.503C176.142 116.621 176.275 116.76 176.457 116.812Z" fill="#57C3F7"/>
<path d="M149.213 109.09L150.128 109.349C150.31 109.401 150.476 109.346 150.496 109.228L151.179 105.184C151.199 105.066 151.066 104.926 150.884 104.875L149.969 104.616C149.787 104.564 149.621 104.619 149.601 104.737L148.918 108.781C148.898 108.9 149.031 109.039 149.213 109.09Z" fill="#57C3F7"/>
<path d="M162.836 112.951L163.751 113.21C163.933 113.262 164.099 113.207 164.119 113.089L164.802 109.045C164.822 108.927 164.689 108.788 164.507 108.736L163.592 108.477C163.41 108.425 163.244 108.48 163.224 108.598L162.541 112.642C162.521 112.76 162.654 112.9 162.836 112.951Z" fill="#57C3F7"/>
<path d="M182.098 32.895C181.972 33.58 181.507 34.068 181.06 33.986C180.612 33.904 180.352 33.282 180.477 32.597C180.603 31.912 181.068 31.424 181.515 31.506C181.963 31.589 182.224 32.21 182.098 32.895Z" fill="#0E0F1C"/>
<path d="M174.357 31.473C174.231 32.158 173.766 32.646 173.319 32.564C172.871 32.482 172.611 31.86 172.736 31.175C172.862 30.49 173.327 30.002 173.774 30.084C174.222 30.167 174.483 30.788 174.357 31.473Z" fill="#0E0F1C"/>
<path d="M173.964 30.159L172.406 29.383C172.406 29.383 173.014 30.822 173.964 30.159Z" fill="#0E0F1C"/>
<path d="M176.185 33.026C176.185 33.026 174.481 35.761 172.941 36.948C173.69 37.958 175.298 37.855 175.298 37.855L176.185 33.026Z" fill="#FF5652"/>
<path d="M178.42 41.106C178.042 41.106 177.641 41.072 177.215 40.994C177.104 40.974 177.029 40.867 177.051 40.756C177.071 40.646 177.178 40.574 177.288 40.592C180.286 41.139 182.083 39.302 182.101 39.284C182.178 39.202 182.309 39.199 182.39 39.277C182.472 39.355 182.475 39.484 182.397 39.566C182.33 39.637 180.903 41.106 178.42 41.106Z" fill="#0E0F1C"/>
<path d="M184.962 30.834C184.813 30.834 184.668 30.751 184.597 30.608C183.779 28.979 182.283 28.794 182.268 28.792C182.044 28.767 181.882 28.565 181.907 28.34C181.932 28.116 182.126 27.952 182.359 27.979C182.438 27.988 184.312 28.22 185.328 30.241C185.43 30.443 185.348 30.688 185.146 30.79C185.086 30.82 185.024 30.834 184.962 30.834Z" fill="#0E0F1C"/>
<path d="M171.571 27.268C171.468 27.268 171.366 27.229 171.286 27.153C171.124 26.996 171.121 26.737 171.277 26.575C172.852 24.95 174.707 25.288 174.786 25.303C175.007 25.346 175.152 25.56 175.11 25.782C175.066 26.003 174.848 26.146 174.632 26.106C174.557 26.093 173.114 25.853 171.865 27.144C171.785 27.226 171.678 27.268 171.571 27.268Z" fill="#0E0F1C"/>
<path d="M202.372 76.925C203.052 79.989 203.476 82.865 203.882 85.85C204.26 88.814 204.495 91.797 204.661 94.793C204.995 100.813 204.745 106.802 203.735 113.039C203.28 115.331 202.372 116.952 201.433 118.398C200.481 119.833 199.454 121.077 198.399 122.25C196.284 124.583 194.02 126.592 191.714 128.505C187.048 132.274 182.243 135.615 177.101 138.605L174.633 134.997C176.789 133.184 178.99 131.314 181.093 129.407C183.225 127.523 185.299 125.587 187.265 123.59C189.243 121.614 191.128 119.567 192.76 117.484C193.569 116.444 194.308 115.385 194.882 114.359C195.45 113.347 195.858 112.324 195.9 111.752C196.169 109.194 196.342 106.382 196.317 103.652C196.273 100.894 196.176 98.124 195.964 95.342C195.754 92.561 195.431 89.78 195.061 87.004C194.711 84.25 194.23 81.404 193.747 78.798L202.372 76.925Z" fill="#FF8B7B"/>
<path d="M201.317 67.458C204.405 69.443 205.166 82.23 205.166 82.23L189.398 87.888C189.398 87.888 187.37 76.819 190.028 72.854C192.796 68.724 197.793 65.193 201.317 67.458Z" fill="#0E0F1C"/>
<path d="M146.924 305.933C146.26 305.933 145.648 305.818 145.28 305.483C144.991 305.219 144.876 304.854 144.941 304.397C144.989 304.052 145.188 303.894 145.347 303.823C146.351 303.363 148.972 305.06 149.269 305.254C149.336 305.299 149.372 305.38 149.357 305.461C149.344 305.542 149.283 305.606 149.204 305.624C148.593 305.767 147.722 305.933 146.924 305.933ZM145.776 304.147C145.674 304.147 145.586 304.161 145.517 304.193C145.45 304.223 145.37 304.28 145.346 304.452C145.302 304.772 145.37 305.01 145.556 305.179C145.993 305.578 147.124 305.628 148.627 305.33C147.699 304.77 146.439 304.147 145.776 304.147Z" fill="#57C3F7"/>
<path d="M149.157 305.628C149.123 305.628 149.087 305.619 149.057 305.602C148.233 305.135 146.663 303.273 146.859 302.299C146.895 302.113 147.035 301.791 147.547 301.729C147.867 301.691 148.163 301.782 148.413 302.002C149.352 302.833 149.363 305.319 149.363 305.424C149.363 305.497 149.325 305.564 149.262 305.601C149.227 305.619 149.192 305.628 149.157 305.628ZM147.688 302.13C147.657 302.13 147.626 302.131 147.594 302.135C147.334 302.166 147.277 302.282 147.258 302.379C147.139 302.972 148.118 304.371 148.938 305.026C148.891 304.199 148.699 302.803 148.139 302.309C148.004 302.189 147.856 302.13 147.688 302.13Z" fill="#57C3F7"/>
<path d="M89.3312 281.871C88.7782 281.871 88.2892 281.779 87.9512 281.541C87.6422 281.324 87.4782 281.006 87.4672 280.596C87.4602 280.352 87.5562 280.151 87.7472 280.015C88.7292 279.315 92.3532 280.655 92.7622 280.811C92.8432 280.842 92.8962 280.92 92.8932 281.006C92.8912 281.093 92.8342 281.17 92.7522 281.196C91.8452 281.491 90.4572 281.871 89.3312 281.871ZM88.6112 280.215C88.3332 280.215 88.1142 280.255 87.9842 280.348C87.9072 280.403 87.8732 280.476 87.8762 280.584C87.8842 280.861 87.9852 281.064 88.1862 281.207C88.7622 281.611 90.1812 281.527 92.0442 280.986C90.9212 280.603 89.4782 280.215 88.6112 280.215Z" fill="#57C3F7"/>
<path d="M92.6892 281.206C92.6682 281.206 92.6472 281.203 92.6272 281.197C91.5502 280.856 89.3102 279.246 89.3542 278.257C89.3642 278.023 89.4932 277.717 90.0492 277.593C90.4572 277.502 90.8522 277.575 91.2152 277.81C92.3992 278.581 92.8702 280.864 92.8902 280.96C92.9032 281.032 92.8792 281.105 92.8262 281.153C92.7872 281.188 92.7392 281.206 92.6892 281.206ZM90.3882 277.964C90.3062 277.964 90.2222 277.974 90.1372 277.993C89.7722 278.074 89.7652 278.225 89.7632 278.274C89.7362 278.868 91.2812 280.16 92.3962 280.668C92.2172 280.008 91.7682 278.658 90.9922 278.154C90.7982 278.027 90.5982 277.964 90.3882 277.964Z" fill="#57C3F7"/>
<path opacity="0.6" d="M129.516 28.477C93.6299 20.173 57.8069 42.532 49.5029 78.418C46.5409 91.219 47.4979 104.005 51.5609 115.544L32.0879 136.221L61.4809 133.939C70.5709 145.851 83.7049 154.788 99.4439 158.43C135.33 166.734 171.153 144.375 179.457 108.489C187.761 72.604 165.402 36.781 129.516 28.477Z" fill="#57C3F7"/>
<path opacity="0.1" d="M129.516 28.477C93.6299 20.173 57.8069 42.532 49.5029 78.418C46.5409 91.219 47.4979 104.005 51.5609 115.544L32.0879 136.221L61.4809 133.939C70.5709 145.851 83.7049 154.788 99.4439 158.43C135.33 166.734 171.153 144.375 179.457 108.489C187.761 72.604 165.402 36.781 129.516 28.477Z" fill="#0E0F1C"/>
<path d="M114.539 156.912C109.735 156.912 104.902 156.358 100.177 155.265C85.8173 151.941 72.9923 143.669 64.0643 131.969L62.9923 130.562L40.5833 132.301C40.5203 132.294 40.4693 132.273 40.4453 132.22C40.4203 132.168 40.4303 132.105 40.4693 132.062L55.2853 116.33L54.6283 114.463C50.6283 103.107 49.9523 90.896 52.6703 79.15C59.3673 50.208 84.7603 29.995 114.421 29.995C119.225 29.995 124.057 30.549 128.782 31.643C162.864 39.529 184.177 73.673 176.29 107.756C169.592 136.699 144.199 156.912 114.539 156.912ZM63.0573 130.274C63.1013 130.274 63.1423 130.294 63.1703 130.329L64.2893 131.796C73.1783 143.444 85.9453 151.68 100.241 154.988C104.945 156.077 109.755 156.629 114.538 156.629C144.066 156.629 169.347 136.505 176.014 107.692C183.865 73.762 162.648 39.77 128.718 31.918C124.014 30.829 119.204 30.277 114.421 30.277C84.8923 30.277 59.6123 50.4 52.9463 79.213C50.2393 90.907 50.9133 103.063 54.8953 114.368L55.5813 116.316C55.5993 116.366 55.5873 116.421 55.5503 116.46L40.9253 131.989L63.0473 130.272C63.0503 130.274 63.0543 130.274 63.0573 130.274Z" fill="white"/>
<path d="M137.617 82.103C137.943 81.36 137.722 80.489 137.08 79.992C134.136 77.708 129.923 75.814 125.523 74.796C110.665 71.358 95.779 80.649 92.341 95.507C90.042 105.443 95.49 112.181 102.059 113.701C107.808 115.031 112.984 113.869 117.782 110.149C117.874 112.134 118.465 113.63 119.079 114.67C120.389 116.888 122.621 118.459 125.363 119.094C135.634 121.471 148.182 114.584 152.292 96.823C156.717 77.699 146.363 61.232 127.114 56.777C103.987 51.425 82.31 65.699 76.692 89.98C72.009 110.218 82.896 128.214 102.579 132.769C110.391 134.577 116.799 134.612 123.356 132.882C124.217 132.655 124.777 131.825 124.662 130.942L124.018 125.972C123.951 125.458 123.663 124.999 123.23 124.716C122.798 124.433 122.262 124.352 121.765 124.498C117.213 125.825 111.518 125.818 105.729 124.478C90.404 120.932 82.618 107.697 86.356 91.543C90.862 72.072 106.832 60.878 124.33 64.927C139.149 68.356 146.16 79.979 142.624 95.258C141.076 101.949 137.884 107.193 133.867 109.645C132.081 110.736 130.299 111.129 128.802 110.758C127.993 110.545 127.715 110.152 127.563 109.834C127.139 108.945 126.83 106.556 129.539 100.526L137.617 82.103ZM122.143 83.593C123.298 83.86 124.387 84.22 125.398 84.668L121.044 94.656C118.577 100.442 111.792 106.262 106.741 105.093C102.132 104.027 102.366 99.882 102.916 97.506C105.102 88.059 113.907 81.687 122.143 83.593Z" fill="white"/>
<path d="M176.503 134.241L168.92 129.939L170.529 138.569C170.529 138.569 175.793 140.307 178.393 137.834L176.503 134.241Z" fill="#FF8B7B"/>
<path d="M161.742 131.01L163.48 138.161L170.529 138.569L168.92 129.939L161.742 131.01Z" fill="#FF8B7B"/>
<path d="M181.704 31.581L180.146 30.805C180.146 30.805 180.754 32.244 181.704 31.581Z" fill="#0E0F1C"/>
<path d="M192.435 27.627C188.146 27.363 185.014 25.479 184.59 23.008C184.59 23.008 174.773 27.085 170.797 21.046C170.797 21.046 166.322 21.794 165.213 18.674C164.104 15.554 168.763 14.615 170.964 16.066C170.964 16.066 164.14 10.064 171.139 8.396C178.138 6.728 179.641 12.388 179.641 12.388C179.641 12.388 182.396 4.10699 188.599 7.78899C194.803 11.471 191.007 15.036 191.007 15.036C191.007 15.036 205.826 16.188 200.306 22.016C194.786 27.845 192.435 27.627 192.435 27.627Z" fill="#0E0F1C"/>
<path d="M187.067 56.368C187.909 56.454 187.534 59.367 187.157 59.569C186.286 60.035 175.805 57.886 176.112 56.27C176.411 55.667 177.088 54.534 177.593 54.192C178.097 53.851 179.698 55.758 187.067 56.368Z" fill="#0E0F1C"/>
<path d="M241.798 79.268C232.551 79.268 225.055 86.764 225.055 96.011C225.055 104.454 231.312 111.419 239.438 112.568C239.419 115.599 238.743 120.336 235.278 124.103C235.278 124.103 258.54 118.307 258.54 96.011C258.54 86.763 251.044 79.268 241.798 79.268Z" fill="#299AD1"/>
<path d="M279.47 79.268C270.223 79.268 262.727 86.764 262.727 96.011C262.727 104.454 268.984 111.419 277.11 112.568C277.091 115.599 276.415 120.336 272.95 124.103C272.95 124.103 296.213 118.307 296.213 96.011C296.212 86.763 288.716 79.268 279.47 79.268Z" fill="#299AD1"/>
</svg>
