<svg width="346" height="428" viewBox="0 0 346 428" fill="none" xmlns="http://www.w3.org/2000/svg">
<path d="M333.802 200.241H235.698C230.546 200.241 226.33 196.025 226.33 190.873V164.186C226.33 159.034 230.546 154.818 235.698 154.818H333.802C338.954 154.818 343.17 159.034 343.17 164.186V190.873C343.17 196.025 338.955 200.241 333.802 200.241Z" fill="#299AD1"/>
<path d="M276.023 192.044H237.714C236.81 192.044 236.07 191.304 236.07 190.4V188.606C236.07 187.702 236.81 186.962 237.714 186.962H276.023C276.927 186.962 277.667 187.702 277.667 188.606V190.4C277.667 191.304 276.927 192.044 276.023 192.044Z" fill="#407BFF"/>
<g opacity="0.5">
<path d="M327.262 168.081H250.644C249.74 168.081 249 167.341 249 166.437V164.644C249 163.74 249.74 163 250.644 163H327.262C328.166 163 328.906 163.74 328.906 164.644V166.437C328.906 167.341 328.166 168.081 327.262 168.081Z" fill="#D3D4CF"/>
<path d="M326.993 180.082H274.644C273.74 180.082 273 179.342 273 178.438V176.644C273 175.74 273.74 175 274.644 175H326.993C327.897 175 328.637 175.74 328.637 176.644V178.438C328.637 179.342 327.897 180.082 326.993 180.082Z" fill="#D3D4CF"/>
<path d="M276.023 192.044H237.714C236.81 192.044 236.07 191.304 236.07 190.4V188.606C236.07 187.702 236.81 186.962 237.714 186.962H276.023C276.927 186.962 277.667 187.702 277.667 188.606V190.4C277.667 191.304 276.927 192.044 276.023 192.044Z" fill="#D3D4CF"/>
<path d="M326.953 190.082H288.644C287.74 190.082 287 189.342 287 188.438V186.644C287 185.74 287.74 185 288.644 185H326.953C327.857 185 328.597 185.74 328.597 186.644V188.438C328.597 189.342 327.857 190.082 326.953 190.082Z" fill="#D3D4CF"/>
</g>
<path d="M255.22 210.828H143.862C136.308 210.828 130.127 204.647 130.127 197.093V157.966C130.127 150.412 136.308 144.231 143.862 144.231H255.22C262.774 144.231 268.955 150.412 268.955 157.966V197.093C268.955 204.647 262.774 210.828 255.22 210.828Z" fill="#299AD1"/>
<g opacity="0.5">
<path d="M259.156 162.91H146.82C145.495 162.91 144.41 161.826 144.41 160.5V157.87C144.41 156.545 145.494 155.46 146.82 155.46H259.156C260.481 155.46 261.566 156.544 261.566 157.87V160.5C261.565 161.826 260.481 162.91 259.156 162.91Z" fill="#D3D4CF"/>
<path d="M223.573 180.86H146.82C145.495 180.86 144.41 179.776 144.41 178.45V175.82C144.41 174.495 145.494 173.41 146.82 173.41H223.573C224.898 173.41 225.983 174.494 225.983 175.82V178.45C225.983 179.776 224.898 180.86 223.573 180.86Z" fill="#D3D4CF"/>
<path d="M202.988 198.81H146.82C145.495 198.81 144.41 197.726 144.41 196.4V193.77C144.41 192.445 145.494 191.36 146.82 191.36H202.988C204.313 191.36 205.398 192.444 205.398 193.77V196.4C205.398 197.725 204.313 198.81 202.988 198.81Z" fill="#D3D4CF"/>
<path d="M263.256 198.81H216.451C215.126 198.81 214.041 197.726 214.041 196.4V193.77C214.041 192.445 215.125 191.36 216.451 191.36H263.256C264.581 191.36 265.666 192.444 265.666 193.77V196.4C265.666 197.725 264.581 198.81 263.256 198.81Z" fill="#D3D4CF"/>
</g>
<path d="M185.99 316.075H132.356C128.825 316.075 125.936 313.186 125.936 309.655V229.32C125.936 225.789 128.825 222.9 132.356 222.9H185.99C189.521 222.9 192.41 225.789 192.41 229.32V309.656C192.41 313.186 189.521 316.075 185.99 316.075Z" fill="#0976AB"/>
<path opacity="0.4" d="M185.99 316.075H132.356C128.825 316.075 125.936 313.186 125.936 309.655V229.32C125.936 225.789 128.825 222.9 132.356 222.9H185.99C189.521 222.9 192.41 225.789 192.41 229.32V309.656C192.41 313.186 189.521 316.075 185.99 316.075Z" fill="#299AD1"/>
<path d="M183.531 236.743H134.817C134.166 236.743 133.633 236.21 133.633 235.559V233.8C133.633 233.149 134.166 232.616 134.817 232.616H183.531C184.182 232.616 184.715 233.149 184.715 233.8V235.558C184.715 236.21 184.182 236.743 183.531 236.743Z" fill="#D3D4CF"/>
<path d="M168.016 246.688H134.817C134.166 246.688 133.633 246.155 133.633 245.504V243.746C133.633 243.095 134.166 242.562 134.817 242.562H168.016C168.667 242.562 169.2 243.095 169.2 243.746V245.504C169.2 246.155 168.667 246.688 168.016 246.688Z" fill="#D3D4CF"/>
<path d="M183.531 256.633H134.817C134.166 256.633 133.633 256.1 133.633 255.449V253.691C133.633 253.04 134.166 252.507 134.817 252.507H183.531C184.182 252.507 184.715 253.04 184.715 253.691V255.449C184.715 256.1 184.182 256.633 183.531 256.633Z" fill="#D3D4CF"/>
<path d="M152.912 266.579H134.815C134.164 266.579 133.631 266.046 133.631 265.395V263.637C133.631 262.986 134.164 262.453 134.815 262.453H152.912C153.563 262.453 154.096 262.986 154.096 263.637V265.395C154.097 266.046 153.564 266.579 152.912 266.579Z" fill="#D3D4CF"/>
<path d="M178.249 266.579H160.151C159.5 266.579 158.967 266.046 158.967 265.395V263.637C158.967 262.986 159.5 262.453 160.151 262.453H178.248C178.899 262.453 179.432 262.986 179.432 263.637V265.395C179.433 266.046 178.9 266.579 178.249 266.579Z" fill="#D3D4CF"/>
<path d="M183.531 276.524H134.817C134.166 276.524 133.633 275.991 133.633 275.34V273.582C133.633 272.931 134.166 272.398 134.817 272.398H183.531C184.182 272.398 184.715 272.931 184.715 273.582V275.34C184.715 275.991 184.182 276.524 183.531 276.524Z" fill="#D3D4CF"/>
<path d="M183.531 286.469H134.817C134.166 286.469 133.633 285.936 133.633 285.285V283.527C133.633 282.876 134.166 282.343 134.817 282.343H183.531C184.182 282.343 184.715 282.876 184.715 283.527V285.285C184.715 285.936 184.182 286.469 183.531 286.469Z" fill="#D3D4CF"/>
<path d="M174.89 296.414H134.815C134.164 296.414 133.631 295.881 133.631 295.23V293.472C133.631 292.821 134.164 292.288 134.815 292.288H174.89C175.541 292.288 176.074 292.821 176.074 293.472V295.23C176.075 295.881 175.542 296.414 174.89 296.414Z" fill="#D3D4CF"/>
<path d="M153.506 306.359H134.817C134.166 306.359 133.633 305.826 133.633 305.175V303.417C133.633 302.766 134.166 302.233 134.817 302.233H153.506C154.158 302.233 154.691 302.766 154.691 303.417V305.175C154.69 305.826 154.157 306.359 153.506 306.359Z" fill="#D3D4CF"/>
<path d="M200.495 222.333H126.113L158.965 248.502L209.399 267.474V231.237C209.399 226.34 205.392 222.333 200.495 222.333Z" fill="#57C3F7"/>
<path opacity="0.4" d="M200.495 222.333H126.113L158.965 248.502L209.399 267.474V231.237C209.399 226.34 205.392 222.333 200.495 222.333Z" fill="black"/>
<path d="M197.248 241.531H142.815C142.002 241.531 141.336 240.866 141.336 240.052V237.285C141.336 236.472 142.001 235.806 142.815 235.806H197.248C198.061 235.806 198.727 236.471 198.727 237.285V240.052C198.727 240.866 198.061 241.531 197.248 241.531Z" fill="#D3D4CF"/>
<path d="M223.77 293.168V240.854C223.77 236.861 227.037 233.594 231.03 233.594H321.883C325.876 233.594 329.143 236.861 329.143 240.854V293.168C329.143 297.161 325.876 300.428 321.883 300.428H231.03C227.037 300.428 223.77 297.161 223.77 293.168Z" fill="#299AD1"/>
<path d="M240.359 276.579V224.265C240.359 220.272 243.626 217.005 247.619 217.005H338.472C342.465 217.005 345.732 220.272 345.732 224.265V276.579C345.732 280.572 342.465 283.839 338.472 283.839H247.619C243.626 283.839 240.359 280.572 240.359 276.579Z" fill="#57C3F7"/>
<path d="M300.361 258.66V226.461C300.361 224.682 301.817 223.226 303.596 223.226H333.28C335.059 223.226 336.515 224.682 336.515 226.461V258.66C336.515 260.439 335.059 261.895 333.28 261.895H303.596C301.816 261.895 300.361 260.439 300.361 258.66Z" fill="#D3D4CF"/>
<path d="M266.998 274.236V249.555C266.998 248.191 268.114 247.076 269.477 247.076H292.23C293.594 247.076 294.709 248.192 294.709 249.555V274.236C294.709 275.6 293.593 276.715 292.23 276.715H269.477C268.114 276.715 266.998 275.599 266.998 274.236Z" fill="#D3D4CF"/>
<path d="M21.9629 117.77V104.436C21.9629 100.378 25.2829 97.058 29.3409 97.058H273.478C277.536 97.058 280.856 100.378 280.856 104.436V117.77C280.856 121.828 277.536 125.148 273.478 125.148H29.3409C25.2829 125.148 21.9629 121.828 21.9629 117.77Z" fill="#299AD1"/>
<path d="M47.1406 76.267V62.933C47.1406 58.875 50.4606 55.555 54.5186 55.555H298.656C302.714 55.555 306.034 58.875 306.034 62.933V76.267C306.034 80.325 302.714 83.645 298.656 83.645H54.5176C50.4606 83.645 47.1406 80.325 47.1406 76.267Z" fill="#0976AB"/>
<path d="M44.358 203.264C43.482 205.224 42.507 207.416 41.656 209.531C40.796 211.671 39.932 213.811 39.163 215.969C37.586 220.27 36.243 224.628 35.373 228.901L35.081 230.497L34.98 231.103C34.949 231.267 34.946 231.493 34.922 231.687C34.876 232.535 34.895 233.561 34.983 234.61C35.172 236.723 35.509 238.98 35.936 241.243C36.78 245.772 37.852 250.445 38.911 255.036L33.782 257.064C31.389 252.676 29.369 248.222 27.687 243.467C26.86 241.086 26.106 238.65 25.573 236.005C25.309 234.676 25.07 233.304 25.009 231.745C25.004 231.338 24.981 230.961 24.999 230.526C25.015 230.101 25.034 229.622 25.07 229.337L25.266 227.357C25.576 224.744 26.04 222.186 26.639 219.705C27.203 217.206 27.923 214.779 28.688 212.378C29.462 209.979 30.314 207.622 31.26 205.303C31.729 204.142 32.219 202.991 32.725 201.841C33.23 200.671 33.744 199.589 34.362 198.358L44.358 203.264Z" fill="#E4897B"/>
<path d="M38.7099 253.69L42.6119 257.497L34.1039 261.455C34.1039 261.455 32.0389 257.85 33.4649 254.59L38.7099 253.69Z" fill="#E4897B"/>
<path d="M45.7545 263.167L38.5695 266.109L34.1035 261.456L42.6115 257.498L45.7545 263.167Z" fill="#E4897B"/>
<path opacity="0.4" d="M191.405 259.068C151.884 254.653 123.417 219.036 127.832 179.506C132.248 139.976 167.873 111.519 207.394 115.934C246.924 120.35 275.391 155.967 270.975 195.497C266.56 235.026 230.934 263.484 191.405 259.068Z" fill="#FAFAFA"/>
<path opacity="0.4" d="M243.793 130.791L134.295 218.284C133.826 217.295 133.383 216.294 132.956 215.286C130.248 208.843 128.47 201.964 127.754 194.808L127.755 194.8L222.332 119.23C230.216 121.864 237.447 125.814 243.793 130.791Z" fill="#FAFAFA"/>
<path opacity="0.4" d="M269.056 169.123L166.109 251.374C156.243 246.234 147.795 238.904 141.338 230.09L253.755 140.265C260.926 148.508 266.211 158.365 269.056 169.123Z" fill="#FAFAFA"/>
<path d="M118.385 160.033L117.438 159.712C119.087 154.845 121.167 150.116 123.616 145.658L124.492 146.14C122.071 150.546 120.017 155.221 118.385 160.033ZM130.525 136.69L129.719 136.097C137.823 125.084 148.672 116.023 161.092 109.891L161.535 110.787C149.257 116.849 138.534 125.806 130.525 136.69ZM240.122 112.158C236.87 110.404 233.472 108.848 230.018 107.535L230.375 106.6C233.868 107.929 237.308 109.503 240.598 111.278L240.122 112.158Z" fill="#407BFF"/>
<path opacity="0.3" d="M118.385 160.033L117.438 159.712C119.087 154.845 121.167 150.116 123.616 145.658L124.492 146.14C122.071 150.546 120.017 155.221 118.385 160.033ZM130.525 136.69L129.719 136.097C137.823 125.084 148.672 116.023 161.092 109.891L161.535 110.787C149.257 116.849 138.534 125.806 130.525 136.69ZM240.122 112.158C236.87 110.404 233.472 108.848 230.018 107.535L230.375 106.6C233.868 107.929 237.308 109.503 240.598 111.278L240.122 112.158Z" fill="black"/>
<path d="M273.871 150.738C253.569 109.611 203.768 92.728 162.642 113.029C124.407 131.903 107.146 176.271 121.218 215.465C114.537 217.809 107.94 220.323 101.379 222.909C91.9203 226.656 82.5553 230.593 73.2593 234.669C63.9813 238.783 54.7403 242.972 45.5943 247.352C40.9993 249.497 36.4663 251.77 31.8993 253.972C29.5883 255.017 27.4233 256.359 25.5613 258.315C24.6243 259.28 23.7663 260.406 22.9883 261.694C22.2203 263.002 21.5133 264.434 21.0313 266.319C19.4933 272.299 22.5063 278.67 28.3603 281.166C30.1503 281.929 31.7173 282.239 33.2223 282.425C34.7173 282.591 36.1333 282.594 37.4693 282.437C40.1543 282.149 42.5363 281.247 44.7713 280.048C49.2973 277.762 53.8573 275.546 58.3553 273.203C67.3943 268.606 76.3393 263.817 85.2473 258.955C94.1373 254.055 102.957 249.014 111.684 243.784C117.727 240.147 123.735 236.44 129.659 232.561C152.218 267.569 197.933 280.846 236.166 261.973C277.292 241.673 294.176 191.872 273.871 150.738ZM228.412 246.266C195.956 262.287 156.664 248.96 140.643 216.505C124.625 184.057 137.941 144.76 170.397 128.739C202.853 112.718 242.145 126.045 258.163 158.493C274.183 190.948 260.868 230.245 228.412 246.266Z" fill="#0976AB"/>
<path opacity="0.3" d="M273.871 150.738C253.569 109.611 203.768 92.728 162.642 113.029C124.407 131.903 107.146 176.271 121.218 215.465C114.537 217.809 107.94 220.323 101.379 222.909C91.9203 226.656 82.5553 230.593 73.2593 234.669C63.9813 238.783 54.7403 242.972 45.5943 247.352C40.9993 249.497 36.4663 251.77 31.8993 253.972C29.5883 255.017 27.4233 256.359 25.5613 258.315C24.6243 259.28 23.7663 260.406 22.9883 261.694C22.2203 263.002 21.5133 264.434 21.0313 266.319C19.4933 272.299 22.5063 278.67 28.3603 281.166C30.1503 281.929 31.7173 282.239 33.2223 282.425C34.7173 282.591 36.1333 282.594 37.4693 282.437C40.1543 282.149 42.5363 281.247 44.7713 280.048C49.2973 277.762 53.8573 275.546 58.3553 273.203C67.3943 268.606 76.3393 263.817 85.2473 258.955C94.1373 254.055 102.957 249.014 111.684 243.784C117.727 240.147 123.735 236.44 129.659 232.561C152.218 267.569 197.933 280.846 236.166 261.973C277.292 241.673 294.176 191.872 273.871 150.738ZM228.412 246.266C195.956 262.287 156.664 248.96 140.643 216.505C124.625 184.057 137.941 144.76 170.397 128.739C202.853 112.718 242.145 126.045 258.163 158.493C274.183 190.948 260.868 230.245 228.412 246.266Z" fill="#0976AB"/>
<path d="M72.0215 167.55C72.0205 168.142 72.3345 168.623 72.7215 168.623C73.1085 168.623 73.4235 168.143 73.4235 167.551C73.4245 166.958 73.1105 166.478 72.7235 166.477C72.3365 166.477 72.0215 166.957 72.0215 167.55Z" fill="#263238"/>
<path d="M72.2784 168.623C72.2784 168.623 73.6234 172.043 75.1044 173.693C74.0554 174.67 72.2734 174.222 72.2734 174.222L72.2784 168.623Z" fill="#DE5753"/>
<path d="M69.9246 164.265C69.8166 164.265 69.7096 164.215 69.6416 164.12C69.5296 163.964 69.5646 163.746 69.7216 163.634C71.2846 162.51 72.7886 163.073 72.8526 163.098C73.0316 163.167 73.1206 163.369 73.0506 163.548C72.9816 163.727 72.7806 163.816 72.6016 163.747C72.5436 163.726 71.3696 163.304 70.1276 164.199C70.0656 164.243 69.9956 164.265 69.9246 164.265Z" fill="#263238"/>
<path d="M51.7956 172.018C52.8496 177.392 53.9006 187.24 50.1406 190.826C50.1406 190.826 51.6096 196.278 61.5956 196.278C72.5766 196.278 66.8436 190.827 66.8436 190.827C60.8506 189.396 61.0056 184.949 62.0496 180.774L51.7956 172.018Z" fill="#E4897B"/>
<path d="M45.6519 193.636C46.8379 191.785 44.8359 187.303 44.8359 187.303C44.8359 187.303 62.5249 182.852 69.7529 189.678C71.2529 191.095 69.5859 193.172 69.5859 193.172L45.6519 193.636Z" fill="#0976AB"/>
<path d="M16.3975 397.675C15.4655 397.675 13.9785 396.118 13.5395 395.538C13.4975 395.483 13.4925 395.41 13.5255 395.35C13.5585 395.29 13.6265 395.261 13.6925 395.26C13.7965 395.269 16.2485 395.48 16.9165 396.355C17.0705 396.556 17.1265 396.779 17.0825 397.015C16.9985 397.464 16.7545 397.612 16.5635 397.658C16.5105 397.669 16.4545 397.675 16.3975 397.675ZM14.0825 395.653C14.8145 396.493 15.9795 397.438 16.4835 397.318C16.5315 397.306 16.6795 397.271 16.7395 396.95C16.7645 396.813 16.7325 396.687 16.6395 396.565C16.2425 396.045 14.9035 395.765 14.0825 395.653Z" fill="#57C3F7"/>
<path d="M14.186 395.647C13.977 395.647 13.791 395.633 13.645 395.605C13.582 395.593 13.531 395.547 13.512 395.487C13.493 395.427 13.508 395.36 13.552 395.314C13.615 395.248 15.093 393.721 16.195 393.721C16.196 393.721 16.196 393.721 16.197 393.721C16.484 393.722 16.724 393.822 16.912 394.018C17.202 394.322 17.123 394.589 17.051 394.722C16.72 395.327 15.186 395.647 14.186 395.647ZM14.064 395.3C15.008 395.337 16.509 394.989 16.745 394.555C16.766 394.516 16.817 394.423 16.66 394.258C16.539 394.131 16.388 394.069 16.197 394.069C15.536 394.069 14.59 394.813 14.064 395.3Z" fill="#57C3F7"/>
<path d="M82.3875 420.368C81.5095 420.368 80.6035 420.255 80.1345 420.162C80.0635 420.147 80.0085 420.091 79.9965 420.019C79.9845 419.948 80.0185 419.877 80.0815 419.84C80.1895 419.777 82.7535 418.311 83.9795 418.647C84.2305 418.715 84.4165 418.852 84.5315 419.054C84.7375 419.413 84.6535 419.666 84.5465 419.814C84.2415 420.238 83.3305 420.368 82.3875 420.368ZM80.6965 419.903C82.0625 420.097 83.9215 420.086 84.2645 419.611C84.3085 419.55 84.3535 419.443 84.2305 419.226C84.1615 419.106 84.0505 419.026 83.8895 418.983C83.1375 418.776 81.5935 419.443 80.6965 419.903Z" fill="#57C3F7"/>
<path d="M80.169 420.165C80.133 420.165 80.0979 420.154 80.0669 420.133C80.0169 420.097 79.9889 420.036 79.9949 419.975C80.0029 419.891 80.2009 417.912 81.1359 417.145C81.4209 416.911 81.7459 416.81 82.1009 416.847C82.5789 416.895 82.7169 417.138 82.7489 417.332C82.8829 418.163 81.127 419.752 80.24 420.15C80.217 420.16 80.193 420.165 80.169 420.165ZM81.9609 417.188C81.7399 417.188 81.542 417.262 81.356 417.415C80.742 417.919 80.4809 419.103 80.3859 419.68C81.2909 419.136 82.485 417.888 82.404 417.389C82.398 417.349 82.378 417.226 82.065 417.194C82.031 417.19 81.9959 417.188 81.9609 417.188Z" fill="#57C3F7"/>
<path d="M72.0898 419.991H79.4358L80.1678 402.979H72.8208L72.0898 419.991Z" fill="#E4897B"/>
<path d="M6.63477 390.787L12.7788 394.814L26.3388 383.359L20.1938 379.333L6.63477 390.787Z" fill="#E4897B"/>
<path d="M13.7932 394.428L7.40922 389.197C7.17722 389.007 6.84321 389.003 6.60721 389.189L1.34621 393.32C0.800213 393.749 0.806211 394.582 1.35021 395.012C3.61021 396.8 4.80021 397.556 7.60721 399.857C9.33421 401.272 13.6292 405.587 16.0142 407.542C18.3472 409.453 20.6432 407.393 19.8422 406.379C16.2482 401.834 14.7982 397.942 14.4292 395.533C14.3622 395.099 14.1332 394.707 13.7932 394.428Z" fill="#0E0F1C"/>
<path d="M79.3879 419.141H71.3649C71.0649 419.141 70.8049 419.35 70.7389 419.643L69.2879 426.173C69.1379 426.85 69.6519 427.492 70.3449 427.48C73.2389 427.431 77.4209 427.261 81.0579 427.261C85.3109 427.261 88.9839 427.493 93.9719 427.493C96.9879 427.493 97.8249 424.444 96.5629 424.168C90.8159 422.911 86.1239 422.776 81.1569 419.714C80.6179 419.38 80.0219 419.141 79.3879 419.141Z" fill="#0E0F1C"/>
<path d="M35.6612 193.021C29.2892 196.071 25.7012 216.118 25.7012 216.118L41.2722 222.333C41.2722 222.333 44.7762 214.034 46.7792 205.179C48.8762 195.902 42.1762 189.903 35.6612 193.021Z" fill="#2B2D42"/>
<path d="M43.9191 204.33C40.0691 208.23 38.3091 215.87 37.5391 220.84L41.2691 222.33C41.2691 222.33 44.6491 214.34 46.6691 205.68C46.3391 203.56 45.5191 202.71 43.9191 204.33Z" fill="#203048"/>
<path d="M78.1423 192.865C78.1423 192.865 85.9613 201.697 78.5773 256.362C66.7383 256.362 45.0453 256.362 39.2843 256.362C39.0133 250.33 42.8033 220.906 36.9863 192.486C36.9863 192.486 43.7213 191.134 50.1403 190.825C55.1613 190.583 62.4293 190.423 66.8433 190.826C72.6623 191.357 78.1423 192.865 78.1423 192.865Z" fill="#2B2D42"/>
<path d="M81.7298 214.08L75.1098 202.67C73.8298 208.92 73.2858 212.785 73.5558 218.944C73.7358 222.864 77.3298 237.38 80.5398 239.5C81.5498 228.83 81.8398 220.52 81.7298 214.08Z" fill="#203048"/>
<path d="M82.6454 200.669C83.6244 205.531 84.6564 210.506 85.7194 215.394C86.7804 220.293 87.8954 225.172 89.1854 229.904C89.5204 231.069 89.8294 232.265 90.1984 233.392L90.4654 234.249L90.5984 234.678C90.5984 234.678 90.5624 234.642 90.5524 234.626C90.4744 234.539 90.3964 234.53 90.4564 234.621C90.5354 234.82 91.1634 235.254 91.9814 235.566C92.8084 235.885 93.8204 236.168 94.8914 236.382C99.2314 237.208 104.342 237.326 109.191 237.312L110.142 242.745C108.799 243.173 107.545 243.488 106.23 243.792C104.927 244.1 103.611 244.365 102.275 244.567C99.6014 244.98 96.8664 245.244 93.9464 245.126C92.4834 245.065 90.9684 244.925 89.3454 244.527C87.7304 244.11 85.9434 243.544 84.0724 242.08C83.1574 241.349 82.2514 240.337 81.6044 239.106C81.4404 238.811 81.2974 238.468 81.1734 238.179L80.9884 237.706L80.6184 236.759C80.1064 235.492 79.6864 234.242 79.2284 232.982C77.5344 227.955 76.1324 222.939 74.8864 217.898C73.6604 212.842 72.5844 207.831 71.6914 202.661L82.6454 200.669Z" fill="#E4897B"/>
<path d="M68.3245 198.222C66.2545 204.934 74.6484 224.939 74.6484 224.939L91.3624 220.735C91.3624 220.735 90.7204 210.342 86.9124 202.092C81.1694 189.647 70.8095 190.167 68.3245 198.222Z" fill="#2B2D42"/>
<path d="M109.089 237.32L117.408 237.115L113.407 245.767C113.407 245.767 110.023 246.217 107.242 241.647L104.309 238.155L107.682 237.478C108.146 237.384 108.616 237.331 109.089 237.32Z" fill="#E4897B"/>
<path d="M122.659 238.723L117.896 245.895L113.406 245.766L117.407 237.114L122.659 238.723Z" fill="#E4897B"/>
<path d="M80.1645 402.983L79.7885 411.753H72.4395L72.8154 402.983H80.1645Z" fill="#CE6F64"/>
<path d="M20.1873 379.335L26.3343 383.363L19.3423 389.266L13.1953 385.237L20.1873 379.335Z" fill="#CE6F64"/>
<path d="M52.2576 166.277C52.6986 173.555 52.5866 177.837 56.2586 181.575C61.7826 187.198 70.7676 183.873 72.5106 176.61C74.0786 170.073 73.0946 159.27 65.9746 156.368C58.9586 153.509 51.8176 158.999 52.2576 166.277Z" fill="#E4897B"/>
<path d="M43.6985 165.005C45.5085 171.64 49.7695 179.284 55.2755 179.769C62.1195 180.372 65.2095 173.302 66.1095 165.997C70.2115 163.188 68.0555 160.103 72.1715 159.71C77.4465 159.207 75.7635 149.55 68.8085 147.996C68.8085 147.996 71.1365 152.346 66.2495 150.151C61.3625 147.956 56.5845 147.015 51.3115 147.56C51.3115 147.56 57.5445 150.675 51.4485 152.065C45.3525 153.455 43.5285 157.22 46.3345 159.491C46.3345 159.491 42.5075 160.637 43.6985 165.005Z" fill="#0E0F1C"/>
<path d="M61.9411 167.491C62.0551 169.397 62.9411 171.191 64.0061 172.363C65.6081 174.127 67.2791 173.028 67.5621 170.879C67.8171 168.945 67.2911 165.696 65.3331 164.723C63.4031 163.766 61.8101 165.312 61.9411 167.491Z" fill="#E4897B"/>
<path d="M64.6402 256.362C64.6402 256.362 71.8012 308.213 66.1602 328.986C57.2242 361.889 23.0382 389.656 23.0382 389.656L11.4492 382.062C11.4492 382.062 40.5572 358.611 44.1212 331.074C47.3222 306.336 39.2862 276.431 39.2862 256.362C48.4382 256.362 64.6402 256.362 64.6402 256.362Z" fill="#299AD1"/>
<path d="M67.6001 286.02C64.2301 282.2 61.3301 280 61.3301 280C62.5501 296.83 63.5501 321.76 62.4401 339.47C63.9301 336.06 65.1901 332.55 66.1601 328.99C68.9101 318.85 68.6201 301.32 67.6001 286.02Z" fill="#0976AB"/>
<path d="M27.7085 387.073C27.7565 387.104 23.2225 390.028 23.2225 390.028L10.5605 381.73L14.5076 378.422L27.7085 387.073Z" fill="#0976AB"/>
<path d="M78.579 256.362C78.579 256.362 89.644 303.263 90.424 325.666C91.298 350.791 82.529 410.054 82.529 410.054H70.084C70.084 410.054 68.552 350.33 67.998 327.445C67.394 302.496 52.75 256.362 52.75 256.362H78.579Z" fill="#299AD1"/>
<path d="M84.9238 405.097C84.9808 405.097 84.2218 410.264 84.2218 410.264H69.0828L68.6738 405.653L84.9238 405.097Z" fill="#0976AB"/>
<path d="M269.95 211.286C270.804 212.086 271.466 212.768 272.173 213.532C272.859 214.28 273.533 215.035 274.187 215.801C275.496 217.334 276.711 218.935 277.886 220.562C280.256 223.8 282.331 227.25 284.162 230.821L284.534 231.548C284.71 231.904 284.86 232.274 284.985 232.648C285.235 233.399 285.376 234.169 285.421 234.909C285.503 236.396 285.248 237.738 284.876 238.918C284.12 241.285 282.914 243.137 281.666 244.843C279.06 248.187 276.169 250.892 272.861 253.297L270.366 250.437C271.545 249.075 272.762 247.604 273.849 246.134C274.961 244.672 275.984 243.161 276.825 241.633C277.689 240.132 278.36 238.563 278.643 237.214C278.784 236.542 278.793 235.945 278.706 235.512C278.665 235.294 278.608 235.115 278.532 234.96C278.494 234.882 278.453 234.809 278.405 234.739L278.076 234.204C276.148 231.057 274.059 228.011 271.811 225.089C270.697 223.621 269.507 222.213 268.316 220.819C267.723 220.12 267.115 219.437 266.502 218.765C265.898 218.12 265.235 217.405 264.703 216.869L269.95 211.286Z" fill="#E4897B"/>
<path d="M271.362 249.59L263.893 248.365L267.797 254.91C267.797 254.91 272.606 254.743 273.981 251.948L271.362 249.59Z" fill="#E4897B"/>
<path d="M258.369 251.394L261.934 256.697L267.797 254.911L263.893 248.366L258.369 251.394Z" fill="#E4897B"/>
<path d="M271.012 420.282C270.435 420.282 269.903 420.182 269.583 419.891C269.332 419.662 269.233 419.344 269.289 418.948C269.331 418.648 269.504 418.511 269.642 418.449C270.514 418.059 272.79 419.524 273.047 419.692C273.106 419.731 273.137 419.801 273.124 419.872C273.111 419.941 273.059 419.997 272.99 420.014C272.461 420.139 271.704 420.282 271.012 420.282ZM270.014 418.732C269.926 418.732 269.85 418.745 269.788 418.772C269.73 418.798 269.662 418.847 269.641 418.997C269.602 419.275 269.662 419.481 269.823 419.629C270.201 419.975 271.181 420.02 272.488 419.76C271.684 419.273 270.59 418.732 270.014 418.732Z" fill="#407BFF"/>
<path d="M272.948 420.019C272.918 420.019 272.888 420.011 272.86 419.996C272.145 419.591 270.783 417.974 270.952 417.129C270.984 416.968 271.105 416.689 271.55 416.635C271.835 416.593 272.084 416.68 272.301 416.871C273.115 417.592 273.126 419.75 273.126 419.842C273.126 419.906 273.092 419.963 273.037 419.995C273.01 420.011 272.979 420.019 272.948 420.019ZM271.674 416.98C271.648 416.98 271.62 416.982 271.593 416.985C271.366 417.013 271.318 417.113 271.301 417.198C271.197 417.712 272.047 418.927 272.76 419.496C272.719 418.777 272.551 417.565 272.066 417.136C271.948 417.032 271.819 416.98 271.674 416.98Z" fill="#407BFF"/>
<path d="M236.923 420.283C236.177 420.283 235.49 420.167 235.106 419.821C234.861 419.601 234.753 419.31 234.785 418.957C234.805 418.745 234.908 418.582 235.086 418.485C236.013 417.974 238.991 419.506 239.329 419.683C239.395 419.717 239.433 419.79 239.423 419.866C239.412 419.94 239.356 420 239.281 420.014C238.645 420.142 237.748 420.283 236.923 420.283ZM235.587 418.732C235.449 418.732 235.337 418.752 235.256 418.797C235.183 418.837 235.147 418.896 235.138 418.988C235.116 419.228 235.184 419.414 235.343 419.557C235.796 419.965 237.032 420.037 238.691 419.761C237.662 419.269 236.297 418.732 235.587 418.732Z" fill="#407BFF"/>
<path d="M239.246 420.019C239.222 420.019 239.196 420.013 239.173 420.003C238.279 419.599 236.513 417.982 236.652 417.134C236.685 416.933 236.827 416.683 237.319 416.633C237.683 416.598 238.013 416.698 238.302 416.94C239.243 417.724 239.416 419.742 239.423 419.827C239.428 419.89 239.4 419.951 239.349 419.987C239.317 420.008 239.282 420.019 239.246 420.019ZM237.461 416.98C237.426 416.98 237.391 416.982 237.354 416.986C237.031 417.018 237.009 417.148 237.003 417.19C236.92 417.7 238.119 418.971 239.029 419.523C238.942 418.936 238.693 417.726 238.075 417.212C237.888 417.057 237.686 416.98 237.461 416.98Z" fill="#407BFF"/>
<path d="M251.067 188.296C250.779 192.818 249.995 202.004 253.465 204.542C253.465 204.542 252.845 209.172 244.652 210.244C235.643 211.423 239.762 206.335 239.762 206.335C244.525 204.517 243.921 200.886 242.616 197.573L251.067 188.296Z" fill="#E4897B"/>
<path d="M232.443 180.309C232.344 180.309 232.246 180.268 232.175 180.187C231.133 178.993 229.837 179.162 229.824 179.163C229.607 179.191 229.45 179.055 229.423 178.861C229.396 178.667 229.531 178.488 229.725 178.46C229.796 178.452 231.417 178.24 232.71 179.72C232.839 179.868 232.823 180.092 232.676 180.221C232.609 180.28 232.526 180.309 232.443 180.309Z" fill="#263238"/>
<path d="M230.882 184.738C230.882 184.738 230.203 187.451 229.246 188.843C230.134 189.478 231.435 188.964 231.435 188.964L230.882 184.738Z" fill="#DE5753"/>
<path d="M231.286 183.638C231.364 184.237 231.11 184.765 230.719 184.816C230.327 184.867 229.946 184.423 229.868 183.824C229.79 183.225 230.044 182.697 230.435 182.646C230.826 182.594 231.207 183.039 231.286 183.638Z" fill="#263238"/>
<path d="M230.611 182.656L229.117 182.429C229.117 182.429 230.003 183.457 230.611 182.656Z" fill="#263238"/>
<path d="M247.486 419.841H239.993L239.492 402.487H246.986L247.486 419.841Z" fill="#E4897B"/>
<path d="M281.536 419.841H274.042L271.633 402.487H279.126L281.536 419.841Z" fill="#E4897B"/>
<path d="M273.575 418.973H281.994C282.3 418.973 282.549 419.186 282.592 419.485L283.551 426.146C283.65 426.837 283.056 427.491 282.35 427.479C279.415 427.428 278 427.256 274.298 427.256C272.02 427.256 268.693 427.493 265.547 427.493C262.471 427.493 262.234 424.383 263.544 424.101C269.417 422.838 270.344 421.096 272.323 419.434C272.679 419.134 273.127 418.973 273.575 418.973Z" fill="#263238"/>
<path d="M239.736 418.973H248.155C248.461 418.973 248.71 419.186 248.753 419.485L249.712 426.146C249.811 426.837 249.217 427.491 248.511 427.479C245.576 427.428 244.161 427.256 240.459 427.256C238.181 427.256 233.47 427.493 230.325 427.493C227.249 427.493 227.012 424.383 228.322 424.101C234.195 422.838 236.506 421.096 238.484 419.434C238.84 419.134 239.288 418.973 239.736 418.973Z" fill="#263238"/>
<path d="M239.494 402.491L239.75 411.437H247.247L246.991 402.491H239.494Z" fill="#CE6F64"/>
<path d="M279.128 402.491H271.631L272.876 411.437H280.373L279.128 402.491Z" fill="#CE6F64"/>
<path d="M251.166 178.944C251.677 186.364 252.052 189.493 248.828 193.758C243.98 200.172 234.754 199.177 232.037 192.06C229.591 185.654 229.166 174.596 235.988 170.724C242.709 166.909 250.655 171.525 251.166 178.944Z" fill="#E4897B"/>
<path d="M255.488 185.833C259.655 188.154 262.738 182.429 262.738 182.429C262.738 182.429 255.28 183.239 255.946 178.799C256.83 172.91 252.613 165.749 242.029 166.666C241.443 166.717 240.877 166.791 240.328 166.881C238.277 166.024 235.499 166.115 233.748 168.396C230.787 168.646 226.703 172.23 229.445 176.958C229.445 176.958 229.684 176.207 230.331 175.49C230.555 178.257 232.984 182.657 236.002 182.946C236.653 186.74 234.135 191.131 235.029 195.085C236.321 200.795 245.946 202.125 245.946 202.125C244.891 199.359 246.511 197.722 246.511 197.722C253.053 200.708 257.363 197.791 257.363 197.791C252.905 196.124 254.252 193.166 254.252 193.166C260.224 195.444 262.738 190.083 262.738 190.083C259.558 190.25 256.872 188.472 255.488 185.833Z" fill="#263238"/>
<path d="M238.614 184.087C238.663 185.628 237.995 187.048 237.113 187.957C235.786 189.325 234.166 188.37 233.733 186.617C233.343 185.039 233.564 182.425 235.281 181.712C236.974 181.011 238.558 182.325 238.614 184.087Z" fill="#E4897B"/>
<path d="M244.838 253.222C244.838 253.222 246.743 302.578 251.256 331.565C254.901 354.978 271.066 409.704 271.066 409.704H281.285C281.285 409.704 272.862 356.851 271.012 333.694C266.331 275.097 278.475 262.519 267.046 250.315L244.838 253.222Z" fill="#2B2D42"/>
<path d="M253.381 268.83C253.381 268.83 248.761 268.03 246.061 276.83C247.081 293.5 248.771 315.62 251.261 331.56C251.811 335.11 252.651 339.39 253.681 344.08C251.731 315.92 253.381 268.83 253.381 268.83Z" fill="#0E0F1C"/>
<path d="M236.87 254.265C236.87 254.265 228.447 308.87 228.939 331.723C229.45 355.493 238.16 409.705 238.16 409.705H248.293C248.293 409.705 246.689 356.882 247.585 333.537C248.562 308.088 258.969 251.373 258.969 251.373L236.87 254.265Z" fill="#2B2D42"/>
<path d="M282.766 410.177H269.183L268.123 405.618L282.672 405.722L282.766 410.177Z" fill="#407BFF"/>
<path opacity="0.2" d="M282.766 410.177H269.183L268.123 405.618L282.672 405.722L282.766 410.177Z" fill="black"/>
<path d="M266.501 204.555C270.406 204.927 276.349 216.037 276.349 216.037L266.479 223.611C266.479 223.611 258.307 216.441 259.28 212.412C260.293 208.217 262.751 204.197 266.501 204.555Z" fill="#299AD1"/>
<path d="M263.549 209.33C263.549 209.33 261.979 208.88 260.489 208.99C259.969 210.05 259.569 211.22 259.279 212.41C258.309 216.44 266.479 223.61 266.479 223.61L267.209 223.05L263.549 209.33Z" fill="#2B2D42"/>
<path d="M233.52 219.997C230.669 227.213 227.667 234.54 225.278 241.773C225.124 242.226 224.985 242.674 224.852 243.121L224.512 244.231C224.421 244.579 224.403 244.843 224.515 245.268C224.738 246.116 225.787 247.346 227.105 248.366C229.775 250.465 233.357 252.144 236.791 253.556L235.895 257.244C231.719 256.602 227.776 255.518 223.808 253.298C221.889 252.122 219.793 250.66 218.425 247.843C217.757 246.454 217.473 244.678 217.727 243.078C217.754 242.877 217.795 242.685 217.833 242.488L217.926 242.074L218.103 241.314C218.219 240.805 218.34 240.3 218.472 239.807C219.499 235.828 220.75 232.015 222.095 228.237C223.429 224.451 224.86 220.751 226.45 217.042L233.52 219.997Z" fill="#E4897B"/>
<path d="M227.45 209.883C227.45 209.883 224.073 211.593 236.868 254.265C248.843 252.698 261.219 251.079 267.046 250.317C264.933 238.101 263.928 230.529 266.5 204.555C266.5 204.555 259.997 204.007 253.464 204.543C248.354 204.963 244.172 205.345 239.761 206.336C233.946 207.643 227.45 209.883 227.45 209.883Z" fill="#299AD1"/>
<path d="M267.266 248.486L268.98 251.009C269.113 251.205 268.893 251.451 268.544 251.497L236.896 255.638C236.624 255.674 236.381 255.57 236.342 255.401L235.716 252.735C235.673 252.55 235.888 252.361 236.185 252.322L266.745 248.324C266.97 248.294 267.181 248.36 267.266 248.486Z" fill="#0976AB"/>
<path d="M263.609 252.44L264.428 252.333C264.591 252.312 264.704 252.211 264.679 252.11L263.836 248.651C263.811 248.55 263.658 248.484 263.495 248.506L262.676 248.613C262.513 248.634 262.4 248.735 262.425 248.836L263.268 252.295C263.292 252.396 263.446 252.462 263.609 252.44Z" fill="#0E0F1C"/>
<path d="M243.771 255.036L244.59 254.929C244.753 254.908 244.866 254.807 244.841 254.706L243.998 251.247C243.973 251.146 243.82 251.08 243.657 251.102L242.838 251.209C242.675 251.23 242.562 251.331 242.587 251.432L243.43 254.891C243.455 254.992 243.609 255.057 243.771 255.036Z" fill="#0E0F1C"/>
<path d="M228.859 224.36C229.689 228.22 230.889 233.11 232.569 239.3L232.939 223.61L228.859 224.36Z" fill="#2B2D42"/>
<path d="M227.452 209.883C223.7 211.389 220.479 224.222 220.479 224.222L233.376 230.5C233.376 230.5 239.616 214.809 236.82 211.75C233.907 208.564 231.768 208.15 227.452 209.883Z" fill="#299AD1"/>
<path d="M250.016 410.177H236.433L235.373 405.618L250.498 405.722L250.016 410.177Z" fill="#407BFF"/>
<path opacity="0.2" d="M250.016 410.177H236.433L235.373 405.618L250.498 405.722L250.016 410.177Z" fill="black"/>
<path d="M237.002 252.278L235.912 251.83C234.737 251.346 233.484 252.33 233.674 253.587L234.463 258.799C234.631 259.908 235.77 260.608 236.822 260.22C237.182 260.087 237.557 259.892 237.918 259.61C238.667 259.024 239.043 258.076 238.998 257.126L238.895 254.966C238.839 253.779 238.101 252.731 237.002 252.278Z" fill="#E4897B"/>
</svg>
