<svg width="366" height="317" viewBox="0 0 366 317" fill="none" xmlns="http://www.w3.org/2000/svg">
<path d="M51.0456 69.4317L174.997 69.4317V63.9971L51.0456 63.9971V69.4317Z" fill="#EBEBEB"/>
<path d="M168.048 69.4342H162.61V87.4118H168.048V69.4342Z" fill="#EBEBEB"/>
<path d="M168.048 69.4342H162.61V74.9909H168.048V69.4342Z" fill="#DBDBDB"/>
<path d="M63.4288 69.4342H57.9912V87.4118H63.4288V69.4342Z" fill="#EBEBEB"/>
<path d="M63.4288 69.4342H57.9912V74.9909H63.4288V69.4342Z" fill="#DBDBDB"/>
<path d="M151.859 63.998V29.3557H143.135V63.998H151.859Z" fill="#C7C7C7"/>
<path d="M151.859 31.3107V27.5037H143.135V31.3107H151.859Z" fill="#DBDBDB"/>
<path d="M151.86 37.6006V36.188H143.136V37.6006H151.86Z" fill="#DBDBDB"/>
<path d="M151.859 59.4533V55.647H142.049V59.4533H151.859Z" fill="#DBDBDB"/>
<path d="M143.137 63.9977V23.5875H137.04V63.9977H143.137Z" fill="#DBDBDB"/>
<path d="M141.944 42.9289V27.3867H138.285V42.9289H141.944Z" fill="#EBEBEB"/>
<path d="M97.9488 64.0091L126.688 35.6008L122.403 31.2648L93.6628 59.6732L97.9488 64.0091Z" fill="#C7C7C7"/>
<path d="M103.822 56.4624L114.876 45.5362L112.304 42.9339L101.25 53.8601L103.822 56.4624Z" fill="#DBDBDB"/>
<path d="M137.044 64.0048V33.3095H126.69V64.0048H137.044Z" fill="#A6A6A6"/>
<path d="M137.044 60.7512V57.8903H126.69V60.7512H137.044Z" fill="#C7C7C7"/>
<path d="M137.044 56.012V54.9029H126.69V56.012H137.044Z" fill="#C7C7C7"/>
<path d="M159.013 64.0048V35.158H151.86V64.0048H159.013Z" fill="#A6A6A6"/>
<path d="M159.014 60.9467V58.2584H151.861V60.9467H159.014Z" fill="#C7C7C7"/>
<path d="M159.013 43.7934V41.1043H151.86V43.7934H159.013Z" fill="#C7C7C7"/>
<path d="M159.013 46.6763V45.6342H151.86V46.6763H159.013Z" fill="#C7C7C7"/>
<path d="M284.608 48.5727C285.128 46.51 285.93 44.7411 287.018 43.2683C288.104 41.7954 289.854 40.7139 292.267 40.0221C292.995 39.8019 293.881 39.5668 294.93 39.3154C295.978 39.0647 297.029 38.7136 298.083 38.2621C299.137 37.8113 300.083 37.2103 300.922 36.4575C301.76 35.7062 302.328 34.7407 302.625 33.5609C302.847 32.6765 302.875 31.8552 302.707 31.0965C302.539 30.3385 302.24 29.6586 301.81 29.0568C301.379 28.4565 300.824 27.947 300.146 27.5297C299.467 27.1131 298.749 26.8089 297.991 26.6177C297.064 26.3849 296.183 26.3306 295.345 26.4556C294.508 26.5805 293.722 26.8089 292.99 27.1392C292.258 27.4702 291.572 27.8801 290.935 28.368C290.297 28.8567 289.74 29.3328 289.267 29.7955L284.725 24.6227C285.599 23.4556 286.618 22.4796 287.778 21.6971C288.938 20.9138 290.183 20.321 291.517 19.9178C292.849 19.5146 294.234 19.3034 295.673 19.284C297.11 19.2662 298.545 19.4358 299.977 19.7958C301.577 20.1982 303.097 20.8275 304.539 21.683C305.98 22.5384 307.196 23.6274 308.184 24.9507C309.171 26.2741 309.856 27.8228 310.238 29.5984C310.62 31.3732 310.535 33.3563 309.984 35.5455C309.645 36.8934 309.188 38.0434 308.613 38.9955C308.037 39.9484 307.348 40.7711 306.548 41.4644C305.745 42.1592 304.86 42.7416 303.892 43.214C302.922 43.6863 301.853 44.1111 300.683 44.4889C299.713 44.782 298.748 45.055 297.79 45.3057C296.831 45.5579 295.934 45.8792 295.095 46.2727C294.258 46.6662 293.524 47.1765 292.897 47.8021C292.269 48.4284 291.823 49.2675 291.558 50.3193L284.608 48.5727ZM281.031 63.322L283.225 54.6047L290.237 56.3691L288.043 65.0856L281.031 63.322Z" fill="#D3D4CF"/>
<path d="M63.2862 210.247C63.609 211.783 63.6484 213.215 63.403 214.544C63.159 215.872 62.3474 217.155 60.9706 218.394C60.5592 218.775 60.0467 219.218 59.433 219.724C58.8193 220.229 58.2354 220.802 57.6819 221.443C57.1285 222.082 56.6956 222.787 56.3832 223.557C56.0708 224.326 56.006 225.151 56.1905 226.029C56.3289 226.687 56.5766 227.241 56.9321 227.69C57.2885 228.139 57.7072 228.493 58.187 228.752C58.6676 229.011 59.2002 229.17 59.7848 229.227C60.3703 229.284 60.9445 229.253 61.5091 229.135C62.1994 228.99 62.8012 228.741 63.3167 228.386C63.8314 228.032 64.2792 227.627 64.6579 227.172C65.0372 226.715 65.3593 226.222 65.6241 225.691C65.8897 225.161 66.1047 224.665 66.2698 224.205L70.9546 226.168C70.7516 227.225 70.3923 228.201 69.8753 229.095C69.3598 229.989 68.7245 230.786 67.971 231.485C67.2175 232.183 66.3672 232.771 65.4196 233.248C64.4726 233.725 63.4655 234.076 62.3995 234.3C61.2078 234.55 59.9961 234.624 58.7635 234.524C57.5309 234.422 56.3735 234.093 55.2897 233.535C54.2074 232.977 53.2523 232.171 52.4244 231.117C51.5972 230.063 51.0125 228.72 50.6696 227.091C50.4583 226.087 50.3906 225.177 50.4643 224.359C50.5379 223.541 50.7284 222.773 51.0356 222.054C51.3435 221.334 51.7422 220.661 52.2317 220.034C52.7226 219.407 53.2939 218.78 53.9478 218.152C54.496 217.644 55.0472 217.151 55.6021 216.674C56.157 216.197 56.648 215.693 57.0765 215.161C57.5049 214.63 57.8263 214.054 58.0397 213.436C58.254 212.818 58.2785 212.117 58.1134 211.333L63.2862 210.247ZM60.8895 199.308L62.253 205.798L57.0318 206.896L55.6683 200.405L60.8895 199.308Z" fill="#D3D4CF"/>
<path d="M297.551 143.871C298.484 145.135 299.115 146.421 299.445 147.731C299.775 149.041 299.57 150.545 298.833 152.244C298.617 152.762 298.336 153.378 297.987 154.093C297.639 154.807 297.346 155.572 297.11 156.383C296.872 157.195 296.772 158.016 296.807 158.846C296.843 159.675 297.126 160.452 297.659 161.174C298.058 161.716 298.513 162.116 299.024 162.377C299.535 162.637 300.062 162.785 300.607 162.822C301.151 162.858 301.702 162.78 302.257 162.59C302.813 162.398 303.323 162.132 303.787 161.789C304.355 161.371 304.799 160.894 305.12 160.358C305.442 159.822 305.68 159.267 305.835 158.695C305.99 158.122 306.078 157.539 306.098 156.948C306.119 156.355 306.109 155.815 306.068 155.328L311.145 155.165C311.399 156.211 311.478 157.248 311.381 158.276C311.283 159.304 311.037 160.292 310.642 161.241C310.247 162.189 309.718 163.077 309.055 163.905C308.391 164.732 307.622 165.47 306.745 166.117C305.765 166.84 304.694 167.412 303.531 167.833C302.367 168.252 301.177 168.434 299.96 168.377C298.743 168.319 297.54 167.984 296.349 167.368C295.159 166.753 294.068 165.776 293.079 164.435C292.469 163.61 292.029 162.811 291.756 162.036C291.483 161.262 291.337 160.484 291.317 159.702C291.298 158.92 291.38 158.142 291.566 157.368C291.751 156.594 292.011 155.785 292.344 154.942C292.632 154.252 292.928 153.575 293.234 152.912C293.541 152.247 293.778 151.584 293.947 150.922C294.116 150.26 294.168 149.604 294.106 148.953C294.043 148.302 293.774 147.654 293.299 147.01L297.551 143.871ZM290.824 134.918L294.763 140.255L290.47 143.423L286.531 138.086L290.824 134.918Z" fill="#D3D4CF"/>
<path d="M261.44 217.853C261.956 216.371 262.66 215.123 263.556 214.111C264.449 213.099 265.806 212.418 267.625 212.066C268.174 211.952 268.842 211.836 269.628 211.72C270.414 211.604 271.211 211.414 272.014 211.15C272.818 210.888 273.552 210.507 274.217 210.009C274.881 209.511 275.362 208.838 275.657 207.991C275.879 207.355 275.952 206.754 275.879 206.185C275.804 205.617 275.629 205.098 275.352 204.628C275.074 204.158 274.699 203.748 274.228 203.397C273.756 203.046 273.248 202.776 272.703 202.586C272.037 202.354 271.393 202.257 270.768 202.295C270.145 202.332 269.553 202.449 268.993 202.644C268.433 202.84 267.901 203.097 267.402 203.414C266.901 203.732 266.461 204.045 266.083 204.354L263.08 200.257C263.8 199.456 264.611 198.805 265.515 198.305C266.417 197.805 267.372 197.45 268.378 197.24C269.384 197.03 270.415 196.965 271.473 197.045C272.531 197.125 273.574 197.343 274.603 197.701C275.753 198.101 276.83 198.662 277.835 199.384C278.838 200.107 279.661 200.986 280.301 202.023C280.94 203.06 281.343 204.243 281.509 205.573C281.673 206.902 281.483 208.354 280.935 209.928C280.598 210.897 280.188 211.712 279.703 212.374C279.218 213.037 278.659 213.597 278.025 214.055C277.39 214.513 276.701 214.885 275.958 215.169C275.215 215.453 274.401 215.696 273.517 215.897C272.785 216.049 272.059 216.187 271.338 216.309C270.617 216.432 269.936 216.61 269.295 216.845C268.653 217.079 268.081 217.407 267.579 217.826C267.078 218.245 266.695 218.834 266.432 219.59L261.44 217.853ZM257.852 228.462L260.031 222.197L265.07 223.95L262.892 230.215L257.852 228.462Z" fill="#D3D4CF"/>
<path d="M339.545 184.38C340.061 182.897 340.766 181.649 341.661 180.637C342.555 179.625 343.912 178.944 345.731 178.592C346.28 178.478 346.947 178.363 347.734 178.246C348.52 178.13 349.316 177.94 350.119 177.677C350.923 177.414 351.657 177.033 352.323 176.535C352.987 176.037 353.468 175.365 353.763 174.517C353.984 173.882 354.057 173.28 353.984 172.711C353.91 172.143 353.734 171.624 353.457 171.154C353.179 170.684 352.804 170.274 352.333 169.923C351.861 169.573 351.353 169.302 350.808 169.112C350.142 168.881 349.498 168.784 348.874 168.821C348.25 168.859 347.658 168.976 347.098 169.171C346.538 169.367 346.007 169.623 345.508 169.94C345.007 170.258 344.567 170.572 344.188 170.881L341.186 166.783C341.905 165.983 342.717 165.332 343.62 164.831C344.523 164.331 345.478 163.976 346.483 163.766C347.489 163.556 348.521 163.491 349.579 163.571C350.636 163.651 351.68 163.869 352.709 164.227C353.859 164.627 354.935 165.188 355.94 165.911C356.943 166.634 357.766 167.513 358.406 168.549C359.046 169.586 359.449 170.769 359.614 172.099C359.779 173.429 359.588 174.881 359.041 176.454C358.704 177.423 358.293 178.238 357.808 178.901C357.324 179.563 356.764 180.123 356.13 180.581C355.495 181.039 354.807 181.411 354.064 181.695C353.32 181.98 352.506 182.222 351.623 182.423C350.89 182.576 350.165 182.714 349.444 182.836C348.722 182.958 348.042 183.137 347.4 183.371C346.758 183.606 346.187 183.933 345.685 184.352C345.183 184.772 344.8 185.36 344.537 186.116L339.545 184.38ZM335.958 194.988L338.136 188.724L343.176 190.477L340.997 196.741L335.958 194.988Z" fill="#D3D4CF"/>
<path d="M15.2222 53.4605C15.738 51.9779 16.4425 50.7303 17.3379 49.718C18.2317 48.7059 19.5883 48.0251 21.4073 47.6732C21.9564 47.5588 22.6239 47.4435 23.4104 47.327C24.1963 47.2108 24.9928 47.0207 25.7961 46.7575C26.5998 46.4949 27.3342 46.1138 27.9995 45.616C28.6637 45.118 29.1444 44.4455 29.4396 43.598C29.6608 42.9625 29.7339 42.3608 29.6611 41.7922C29.5866 41.2239 29.4108 40.7051 29.1339 40.2347C28.8558 39.7653 28.481 39.3548 28.01 39.0038C27.5378 38.6537 27.0298 38.3831 26.4852 38.1933C25.819 37.9616 25.1747 37.8645 24.5507 37.9023C23.9272 37.9396 23.3348 38.0567 22.775 38.2515C22.2149 38.4474 21.6837 38.7038 21.1844 39.0213C20.6834 39.339 20.2437 39.6526 19.8647 39.9616L16.8625 35.8644C17.5818 35.0637 18.3935 34.4124 19.2969 33.9121C20.1996 33.4123 21.1544 33.057 22.1601 32.8472C23.1659 32.6374 24.1975 32.5721 25.2555 32.6519C26.3129 32.7322 27.3563 32.95 28.3857 33.3081C29.5357 33.7081 30.6122 34.2693 31.6168 34.9914C32.6202 35.7144 33.4429 36.5936 34.083 37.6302C34.7226 38.6671 35.1256 39.8498 35.2907 41.18C35.4554 42.5096 35.2649 43.9616 34.7177 45.5351C34.3805 46.5043 33.97 47.3189 33.4852 47.9816C33.0005 48.6443 32.4408 49.2041 31.807 49.6623C31.1722 50.1203 30.4835 50.4917 29.7405 50.7759C28.9969 51.0605 28.183 51.303 27.2994 51.5041C26.5671 51.6565 25.8413 51.7945 25.1207 51.9165C24.3988 52.0392 23.7185 52.2174 23.0768 52.452C22.4351 52.6867 21.8633 53.0141 21.3615 53.4334C20.8597 53.8526 20.4772 54.4408 20.2141 55.1969L15.2222 53.4605ZM11.6346 64.0693L13.8132 57.8047L18.8523 59.5574L16.6738 65.822L11.6346 64.0693Z" fill="#D3D4CF"/>
<path d="M321.972 130.452C321.972 128.727 322.253 127.178 322.817 125.805C323.38 124.431 324.542 123.235 326.303 122.213C326.831 121.896 327.482 121.536 328.257 121.131C329.032 120.726 329.789 120.242 330.528 119.678C331.268 119.115 331.892 118.455 332.403 117.697C332.914 116.941 333.17 116.069 333.17 115.083C333.17 114.344 333.028 113.693 332.747 113.129C332.465 112.566 332.095 112.091 331.638 111.703C331.18 111.316 330.643 111.026 330.028 110.831C329.411 110.639 328.787 110.541 328.153 110.541C327.378 110.541 326.674 110.673 326.04 110.937C325.407 111.201 324.834 111.536 324.324 111.941C323.813 112.346 323.356 112.804 322.951 113.314C322.546 113.825 322.203 114.309 321.921 114.766L317.326 111.597C317.784 110.506 318.391 109.537 319.148 108.692C319.904 107.847 320.767 107.134 321.736 106.554C322.704 105.973 323.751 105.533 324.879 105.233C326.005 104.934 327.167 104.784 328.364 104.784C329.702 104.784 331.022 104.978 332.325 105.365C333.628 105.752 334.799 106.368 335.837 107.213C336.876 108.058 337.721 109.141 338.372 110.462C339.023 111.782 339.35 113.358 339.35 115.189C339.35 116.316 339.217 117.31 338.953 118.173C338.689 119.035 338.31 119.819 337.817 120.522C337.324 121.227 336.743 121.861 336.074 122.424C335.405 122.988 334.648 123.533 333.803 124.061C333.099 124.483 332.395 124.889 331.691 125.276C330.986 125.663 330.344 126.094 329.763 126.569C329.182 127.045 328.706 127.591 328.337 128.207C327.967 128.823 327.782 129.571 327.782 130.451L321.972 130.452ZM322.078 142.758V135.47H327.94V142.758H322.078Z" fill="#D3D4CF"/>
<path d="M138.596 172.714C138.238 171.027 138.192 169.452 138.459 167.992C138.725 166.532 139.614 165.12 141.124 163.756C141.575 163.336 142.138 162.848 142.812 162.291C143.485 161.735 144.125 161.104 144.732 160.399C145.338 159.696 145.813 158.92 146.156 158.073C146.498 157.227 146.567 156.321 146.363 155.357C146.209 154.634 145.936 154.026 145.544 153.533C145.152 153.041 144.691 152.652 144.164 152.368C143.636 152.084 143.05 151.911 142.408 151.849C141.764 151.788 141.133 151.823 140.513 151.954C139.755 152.115 139.094 152.39 138.528 152.78C137.963 153.17 137.472 153.616 137.057 154.117C136.641 154.619 136.288 155.162 135.999 155.746C135.708 156.33 135.473 156.875 135.293 157.38L130.141 155.232C130.362 154.07 130.755 152.996 131.32 152.013C131.886 151.03 132.581 150.153 133.408 149.384C134.235 148.615 135.168 147.968 136.209 147.44C137.249 146.915 138.354 146.527 139.526 146.279C140.834 146.001 142.167 145.917 143.521 146.026C144.876 146.135 146.148 146.494 147.34 147.106C148.531 147.717 149.582 148.601 150.493 149.758C151.404 150.914 152.05 152.389 152.43 154.179C152.663 155.281 152.741 156.282 152.661 157.181C152.581 158.08 152.374 158.924 152.038 159.715C151.701 160.506 151.264 161.247 150.727 161.936C150.189 162.626 149.562 163.317 148.845 164.008C148.243 164.568 147.638 165.11 147.03 165.635C146.421 166.16 145.882 166.715 145.413 167.301C144.943 167.886 144.592 168.519 144.357 169.198C144.124 169.878 144.098 170.649 144.28 171.509L138.596 172.714ZM141.252 184.73L139.74 177.6L145.475 176.385L146.987 183.515L141.252 184.73Z" fill="#D3D4CF"/>
<path d="M317.473 230.415L327.408 230.207L332.302 230.124C333.929 230.089 335.548 230.097 337.171 230.083L336.839 230.415L336.799 222.091L337.17 222.462L327.322 222.416C324.039 222.412 320.756 222.332 317.473 222.294L317.676 222.09C317.662 223.452 317.612 224.823 317.579 226.208L317.473 230.415ZM317.473 230.415L317.367 226.297C317.334 224.908 317.284 223.504 317.27 222.091L317.268 221.89L317.473 221.888C320.756 221.85 324.039 221.77 327.322 221.766L337.17 221.719L337.544 221.718L337.542 222.091L337.502 230.415L337.501 230.749L337.17 230.746C335.51 230.733 333.846 230.74 332.19 230.705L327.235 230.622L317.473 230.415Z" fill="#EBEBEB"/>
<path d="M328.461 240.91L338.396 240.703L343.29 240.619C344.918 240.584 346.536 240.592 348.159 240.578L347.828 240.91L347.787 232.586L348.159 232.958L338.31 232.911C335.027 232.907 331.744 232.827 328.461 232.789L328.664 232.586C328.65 233.948 328.6 235.318 328.567 236.704L328.461 240.91ZM328.461 240.91L328.356 236.792C328.322 235.403 328.272 233.999 328.258 232.586L328.256 232.385L328.461 232.383C331.744 232.345 335.027 232.265 338.31 232.261L348.159 232.214L348.532 232.213L348.53 232.586L348.49 240.91L348.489 241.244L348.159 241.241C346.498 241.228 344.834 241.235 343.178 241.2L338.224 241.117L328.461 240.91Z" fill="#EBEBEB"/>
<path d="M306.486 240.91L316.421 240.703L321.314 240.619C322.942 240.584 324.561 240.592 326.184 240.578L325.852 240.91L325.812 232.586L326.183 232.958L316.334 232.911C313.052 232.907 309.768 232.827 306.486 232.789L306.689 232.586C306.675 233.948 306.625 235.318 306.591 236.704L306.486 240.91ZM306.486 240.91L306.38 236.792C306.346 235.403 306.297 233.999 306.282 232.586L306.28 232.385L306.486 232.383C309.768 232.345 313.052 232.265 316.334 232.261L326.183 232.214L326.556 232.213L326.555 232.586L326.515 240.91L326.513 241.244L326.183 241.241C324.523 241.228 322.859 241.235 321.203 241.2L316.248 241.117L306.486 240.91Z" fill="#EBEBEB"/>
<path d="M52.6116 240.91L62.5465 240.703L67.4404 240.619C69.0679 240.584 70.6866 240.592 72.3097 240.578L71.9779 240.91L71.9378 232.586L72.3089 232.958L62.4602 232.911C59.1776 232.907 55.8942 232.827 52.6116 232.789L52.8146 232.587C52.8005 233.949 52.7507 235.319 52.7172 236.705L52.6116 240.91ZM52.6116 240.91L52.5059 236.792C52.4725 235.403 52.4226 233.999 52.4085 232.586L52.4062 232.385L52.6116 232.383C55.8942 232.345 59.1776 232.265 62.4602 232.261L72.3089 232.214L72.6824 232.213L72.6809 232.586L72.6407 240.91L72.6392 241.244L72.3089 241.241C70.6486 241.228 68.9846 241.235 67.3288 241.2L62.374 241.117L52.6116 240.91Z" fill="#EBEBEB"/>
<path d="M52.6116 9.3959L62.5465 9.18836L67.4404 9.10505C69.0679 9.07009 70.6866 9.07753 72.3097 9.06414L71.9779 9.3959L71.9378 1.07212L72.3089 1.4433L62.4602 1.39644C59.1776 1.39272 55.8942 1.31313 52.6116 1.27445L52.8146 1.07286C52.8005 2.43487 52.7507 3.80505 52.7172 5.19086L52.6116 9.3959ZM52.6116 9.3959L52.5059 5.27789C52.4725 3.88911 52.4226 2.4847 52.4085 1.07212L52.4062 0.871274L52.6116 0.869041C55.8942 0.831104 59.1776 0.750769 62.4602 0.74705L72.3089 0.700187L72.6824 0.6987L72.6809 1.07212L72.6407 9.3959L72.6392 9.72989L72.3089 9.72691C70.6486 9.71353 68.9846 9.72096 67.3288 9.686L62.374 9.60269L52.6116 9.3959Z" fill="#EBEBEB"/>
<path d="M41.6223 19.8917L51.5573 19.6842L56.4511 19.6009C58.0787 19.5659 59.6973 19.5734 61.3204 19.56L60.9887 19.8917L60.9485 11.568L61.3197 11.9392L51.471 11.8923C48.1883 11.8886 44.9049 11.809 41.6223 11.7703L41.8254 11.5672C41.8112 12.9292 41.7614 14.2994 41.7279 15.6852L41.6223 19.8917ZM41.6223 19.8917L41.5167 15.7737C41.4832 14.385 41.4334 12.9806 41.4192 11.568L41.417 11.3671L41.6223 11.3649C44.9049 11.327 48.1883 11.2466 51.471 11.2429L61.3197 11.196L61.6931 11.1945L61.6916 11.568L61.6514 19.8917L61.65 20.2257L61.3197 20.2235C59.6594 20.2101 57.9954 20.2176 56.3395 20.1826L51.3847 20.0993L41.6223 19.8917Z" fill="#EBEBEB"/>
<path d="M328.461 9.40481L338.396 9.19727L343.29 9.11396C344.918 9.079 346.536 9.08644 348.159 9.07305L347.828 9.40481L347.787 1.08103L348.159 1.45221L338.31 1.40535C335.027 1.40163 331.744 1.3213 328.461 1.28336L328.664 1.08028C328.65 2.44229 328.6 3.81248 328.567 5.19829L328.461 9.40481ZM328.461 9.40481L328.356 5.28681C328.322 3.89802 328.272 2.49362 328.258 1.08103L328.256 0.880188L328.461 0.877955C331.744 0.840018 335.027 0.759683 338.31 0.755964L348.159 0.709101L348.532 0.707611L348.53 1.08103L348.49 9.40481L348.489 9.7388L348.159 9.73583C346.498 9.72244 344.834 9.72988 343.178 9.69491L338.224 9.6116L328.461 9.40481Z" fill="#EBEBEB"/>
<path d="M221.829 117.305L211.894 117.513L207 117.596C205.372 117.631 203.754 117.624 202.13 117.637L202.462 117.305L202.502 125.629L202.131 125.258L211.98 125.305C215.263 125.308 218.546 125.389 221.829 125.427L221.626 125.63C221.64 124.268 221.69 122.898 221.723 121.512L221.829 117.305ZM221.829 117.305L221.934 121.423C221.968 122.812 222.018 124.217 222.032 125.629L222.034 125.83L221.829 125.832C218.546 125.87 215.263 125.95 211.98 125.954L202.131 126.001L201.758 126.003L201.759 125.629L201.799 117.305L201.801 116.971L202.131 116.974C203.792 116.988 205.456 116.98 207.111 117.015L212.066 117.099L221.829 117.305Z" fill="#EBEBEB"/>
<path d="M210.84 106.81L200.905 107.018L196.012 107.101C194.384 107.136 192.765 107.129 191.142 107.142L191.474 106.81L191.514 115.134L191.143 114.763L200.992 114.81C204.274 114.813 207.558 114.894 210.84 114.932L210.637 115.135C210.651 113.773 210.701 112.403 210.735 111.017L210.84 106.81ZM210.84 106.81L210.946 110.928C210.979 112.317 211.029 113.721 211.043 115.134L211.046 115.335L210.84 115.337C207.558 115.375 204.274 115.455 200.992 115.459L191.143 115.506L190.77 115.507L190.771 115.134L190.811 106.81L190.813 106.476L191.143 106.478C192.803 106.492 194.467 106.484 196.123 106.519L201.078 106.603L210.84 106.81Z" fill="#EBEBEB"/>
<path d="M37.4697 278.494L76.8251 278.313L116.18 278.247L194.891 278.122L273.602 278.247L312.957 278.312L352.312 278.494L312.957 278.676L273.602 278.741L194.891 278.865L116.18 278.741L76.8251 278.674L37.4697 278.494Z" fill="#2B2D42"/>
<path d="M194.892 316.932C268.998 316.932 329.073 311.085 329.073 303.873C329.073 296.661 268.998 290.815 194.892 290.815C120.786 290.815 60.7109 296.661 60.7109 303.873C60.7109 311.085 120.786 316.932 194.892 316.932Z" fill="#D3D4CF"/>
<path d="M168.139 214.971C168.139 203.065 170.081 192.368 173.972 182.888C177.857 173.409 185.878 165.15 198.034 158.097C201.68 155.91 206.175 153.42 211.523 150.623C216.867 147.832 222.096 144.488 227.2 140.598C232.304 136.713 236.616 132.156 240.142 126.926C243.662 121.703 245.428 115.687 245.428 108.88C245.428 103.777 244.454 99.2823 242.512 95.3912C240.563 91.5067 238.011 88.2248 234.856 85.5477C231.694 82.8765 227.985 80.871 223.737 79.5321C219.481 78.1998 215.169 77.5274 210.794 77.5274C205.445 77.5274 200.586 78.4394 196.211 80.2618C191.836 82.0843 187.883 84.3977 184.362 87.1886C180.836 89.9855 177.674 93.1477 174.883 96.6676C172.086 100.194 169.716 103.538 167.774 106.693H162.287L136.056 84.8187C139.211 77.2879 143.404 70.5998 148.634 64.7665C153.857 58.9332 159.81 54.0118 166.498 50.0009C173.179 45.9908 180.409 42.9543 188.191 40.8864C195.966 38.8244 203.986 37.7875 212.252 37.7875C221.486 37.7875 230.6 39.1264 239.595 41.7976C248.584 44.4748 256.668 48.7244 263.839 54.5578C271.005 60.3911 276.838 67.8647 281.339 76.9799C285.833 86.0944 288.084 96.9741 288.084 109.609C288.084 117.391 287.172 124.255 285.35 130.207C283.527 136.166 280.912 141.571 277.512 146.43C274.105 151.295 270.095 155.671 265.48 159.555C260.86 163.446 255.637 167.211 249.804 170.857C244.939 173.774 240.079 176.571 235.22 179.243C230.355 181.92 225.923 184.893 221.913 188.174C217.903 191.455 214.622 195.227 212.07 199.476C209.518 203.732 208.242 208.898 208.242 214.97L168.139 214.971ZM168.868 299.917V249.605H209.336V299.917H168.868Z" fill="#0976AB"/>
<g opacity="0.2">
<path d="M168.139 214.971C168.139 203.065 170.081 192.368 173.972 182.888C177.857 173.409 185.878 165.15 198.034 158.097C201.68 155.91 206.175 153.42 211.523 150.623C216.867 147.832 222.096 144.488 227.2 140.598C232.304 136.713 236.616 132.156 240.142 126.926C243.662 121.703 245.428 115.687 245.428 108.88C245.428 103.777 244.454 99.2823 242.512 95.3912C240.563 91.5067 238.011 88.2248 234.856 85.5477C231.694 82.8765 227.985 80.871 223.737 79.5321C219.481 78.1998 215.169 77.5274 210.794 77.5274C205.445 77.5274 200.586 78.4394 196.211 80.2618C191.836 82.0843 187.883 84.3977 184.362 87.1886C180.836 89.9855 177.674 93.1477 174.883 96.6676C172.086 100.194 169.716 103.538 167.774 106.693H162.287L136.056 84.8187C139.211 77.2879 143.404 70.5998 148.634 64.7665C153.857 58.9332 159.81 54.0118 166.498 50.0009C173.179 45.9908 180.409 42.9543 188.191 40.8864C195.966 38.8244 203.986 37.7875 212.252 37.7875C221.486 37.7875 230.6 39.1264 239.595 41.7976C248.584 44.4748 256.668 48.7244 263.839 54.5578C271.005 60.3911 276.838 67.8647 281.339 76.9799C285.833 86.0944 288.084 96.9741 288.084 109.609C288.084 117.391 287.172 124.255 285.35 130.207C283.527 136.166 280.912 141.571 277.512 146.43C274.105 151.295 270.095 155.671 265.48 159.555C260.86 163.446 255.637 167.211 249.804 170.857C244.939 173.774 240.079 176.571 235.22 179.243C230.355 181.92 225.923 184.893 221.913 188.174C217.903 191.455 214.622 195.227 212.07 199.476C209.518 203.732 208.242 208.898 208.242 214.97L168.139 214.971ZM168.868 299.917V249.605H209.336V299.917H168.868Z" fill="#0976AB"/>
</g>
<path d="M162.652 214.971C162.652 203.066 164.594 192.368 168.485 182.888C172.37 173.409 180.391 165.15 192.547 158.097C196.193 155.91 200.687 153.42 206.036 150.623C211.38 147.833 216.608 144.488 221.713 140.598C226.816 136.713 231.129 132.156 234.655 126.926C238.175 121.703 239.941 115.687 239.941 108.88C239.941 103.777 238.966 99.2823 237.024 95.3912C235.076 91.5068 232.524 88.2249 229.368 85.5477C226.207 82.8765 222.498 80.8711 218.249 79.5321C213.994 78.1999 209.681 77.5274 205.307 77.5274C199.958 77.5274 195.099 78.4394 190.723 80.2619C186.349 82.0843 182.395 84.3977 178.875 87.1887C175.349 89.9856 172.187 93.1477 169.396 96.6677C166.599 100.194 164.229 103.538 162.287 106.693L130.568 84.8187C133.725 77.2879 137.917 70.5999 143.146 64.7665C148.37 58.9332 154.323 54.0118 161.011 50.0009C167.692 45.9908 174.922 42.9544 182.703 40.8864C190.479 38.8244 198.499 37.7875 206.765 37.7875C215.999 37.7875 225.113 39.1265 234.108 41.7976C243.096 44.4748 251.181 48.7245 258.352 54.5578C265.518 60.3911 271.351 67.8647 275.851 76.9799C280.346 86.0945 282.597 96.9741 282.597 109.609C282.597 117.391 281.685 124.255 279.862 130.208C278.04 136.166 275.424 141.571 272.024 146.43C268.617 151.295 264.607 155.671 259.993 159.555C255.373 163.446 250.15 167.211 244.316 170.857C239.451 173.774 234.592 176.571 229.733 179.243C224.868 181.92 220.436 184.893 216.426 188.174C212.416 191.455 209.135 195.227 206.583 199.476C204.03 203.732 202.755 208.898 202.755 214.97L162.652 214.971ZM163.381 299.917V249.605H203.849V299.917H163.381Z" fill="#57C3F7"/>
<path d="M145.977 303.935C144.392 304.447 99.2169 303.861 97.512 302.745C96.8566 302.332 96.5583 295.744 96.4267 287.775C96.4259 287.691 96.4252 287.608 96.4252 287.525C96.3947 285.882 96.3731 284.191 96.3701 282.477C96.3694 282.241 96.3687 282.005 96.362 281.769C96.2987 270.267 96.481 258.333 96.481 258.333L126.702 258.635L125.793 281.852L125.758 282.771L125.576 287.578L125.558 288.072C125.558 288.072 142.749 296.031 144.496 297.455C146.227 298.874 147.563 303.431 145.977 303.935Z" fill="#AD6359"/>
<path d="M145.977 303.935C144.392 304.447 99.2163 303.861 97.5113 302.745C96.856 302.332 96.5577 295.744 96.426 287.775C96.4253 287.691 96.4246 287.608 96.4246 287.525C96.3941 285.882 96.3725 284.191 96.3695 282.477C96.3688 282.241 96.368 282.005 96.3613 281.77L125.791 281.852L125.756 282.771L125.574 287.578L125.556 288.072C125.556 288.072 142.748 296.031 144.494 297.455C146.226 298.874 147.562 303.431 145.977 303.935Z" fill="#EBEBEB"/>
<path d="M145.979 303.935C144.997 304.253 127.499 304.149 113.795 303.762C105.24 303.527 98.1692 303.175 97.5131 302.746C96.8637 302.339 96.5662 295.932 96.4353 288.109C96.4353 287.999 96.4286 287.888 96.4286 287.778C96.4286 287.695 96.4286 287.605 96.4219 287.522L125.571 287.577L125.557 288.074C125.557 288.074 142.752 296.029 144.493 297.452C146.228 298.876 147.561 303.431 145.979 303.935Z" fill="#299AD1"/>
<path d="M145.49 302.177C137.877 301.891 107.144 301.457 99.5972 301.753C99.5354 301.755 99.5354 301.796 99.5964 301.8C107.135 302.248 137.87 302.433 145.488 302.301C145.649 302.299 145.65 302.183 145.49 302.177Z" fill="#263238"/>
<path d="M128.818 287.703C125.829 287.104 122.158 287.517 119.84 289.622C119.75 289.704 119.867 289.83 119.965 289.801C122.933 288.907 125.702 288.345 128.801 288.081C129.02 288.063 129.032 287.745 128.818 287.703Z" fill="#263238"/>
<path d="M130.965 289.034C127.975 288.436 124.304 288.848 121.986 290.954C121.896 291.036 122.014 291.162 122.111 291.132C125.08 290.239 127.849 289.677 130.948 289.413C131.166 289.394 131.179 289.077 130.965 289.034Z" fill="#263238"/>
<path d="M133.11 290.366C130.121 289.767 126.45 290.18 124.132 292.285C124.042 292.367 124.159 292.493 124.257 292.464C127.225 291.571 129.994 291.008 133.093 290.744C133.312 290.726 133.324 290.409 133.11 290.366Z" fill="#263238"/>
<path d="M132.8 281.217C131.643 279.58 129.441 280.281 128.177 281.316C126.129 282.992 124.321 285.628 123.472 288.121C123.452 288.182 123.492 288.22 123.542 288.229C123.547 288.458 123.749 288.702 124.006 288.609C126.492 287.725 129.26 287.088 131.401 285.467C132.651 284.521 133.894 282.766 132.8 281.217ZM127.502 286.498C126.289 286.962 125.062 287.365 123.867 287.874C124.788 286.55 125.647 285.192 126.701 283.961C127.205 283.373 127.732 282.78 128.312 282.266C129.213 281.466 132.766 279.785 132.195 283.066C131.88 284.875 128.946 285.944 127.502 286.498Z" fill="#263238"/>
<path d="M115.866 287.239C118.322 288.324 121.162 288.307 123.785 288.596C124.057 288.626 124.197 288.341 124.15 288.118C124.196 288.098 124.227 288.051 124.192 287.996C122.793 285.766 120.428 283.617 118.049 282.456C116.58 281.74 114.275 281.564 113.527 283.424C112.818 285.183 114.432 286.606 115.866 287.239ZM114.54 285.085C113.229 282.023 117.074 282.841 118.135 283.413C118.817 283.779 119.467 284.236 120.092 284.692C121.401 285.648 122.55 286.771 123.751 287.848C122.471 287.627 121.184 287.519 119.897 287.345C118.364 287.139 115.262 286.773 114.54 285.085Z" fill="#263238"/>
<path d="M113.795 303.762C105.24 303.527 98.1695 303.175 97.5134 302.746C96.864 302.339 96.5665 295.932 96.4355 288.109C99.9458 291.24 108.66 299.014 113.795 303.762Z" fill="#263238"/>
<path d="M87.208 128.201C87.208 128.201 93.9905 204.537 95.0959 210.363C95.3518 211.69 95.5102 218.904 95.6144 228.179C95.8494 248.413 95.7096 284.911 95.7096 284.911H127.554C127.554 284.911 126.609 221.676 125.199 210.038C123.79 198.393 114.778 128.201 114.778 128.201H87.208Z" fill="#545569"/>
<path d="M126.115 279.362C121.146 279.259 122.574 279.219 117.604 279.17C115.173 279.147 99.1907 279.008 96.9182 279.384C96.8684 279.392 96.8684 279.477 96.9182 279.485C99.1907 279.862 115.172 279.722 117.604 279.699C122.574 279.651 121.146 279.61 126.115 279.507C126.209 279.505 126.209 279.364 126.115 279.362Z" fill="#263238"/>
<path d="M101.76 243.213C101.725 238.594 101.691 233.976 101.657 229.356C101.625 224.883 101.631 220.405 101.418 215.936C100.988 206.886 99.151 197.989 97.8463 189.042C96.54 180.089 95.451 171.106 94.4647 162.113C93.3578 152.024 92.3804 141.921 91.3434 131.825C91.3368 131.756 91.2296 131.758 91.2356 131.828C92.736 149.854 94.4104 167.877 96.906 185.798C97.5272 190.255 98.207 194.702 98.9412 199.142C99.6843 203.637 100.423 208.133 100.778 212.678C101.124 217.126 101.181 221.591 101.227 226.05C101.275 230.666 101.32 235.281 101.365 239.897C101.464 250.15 101.563 265.932 101.663 276.185C101.665 276.382 101.972 276.375 101.971 276.177C101.9 267.032 101.83 252.358 101.76 243.213Z" fill="#263238"/>
<path d="M80.4941 128.201C80.4941 128.201 93.9907 204.537 95.0968 210.363C95.3527 211.69 95.5112 218.904 95.6153 228.179L95.622 228.206L110.798 128.201H80.4941Z" fill="#2B2D42"/>
<path d="M108.998 306.628C107.381 307.026 62.3594 303.242 60.7385 302.008C60.1144 301.549 60.2833 294.957 60.7162 286.998C60.7214 286.915 60.7266 286.832 60.7318 286.749C60.8174 285.109 60.9163 283.419 61.0346 281.71C61.0509 281.474 61.0673 281.239 61.0762 281.004C61.8275 269.526 62.8548 257.635 62.8548 257.635L92.9781 260.077L90.4267 283.171L90.327 284.085L89.8048 288.866L89.752 289.358C89.752 289.358 106.337 298.514 107.978 300.058C109.606 301.596 110.615 306.237 108.998 306.628Z" fill="#AD6359"/>
<path d="M108.998 306.628C107.381 307.026 62.3594 303.242 60.7385 302.008C60.1144 301.549 60.2833 294.957 60.7162 286.998C60.7214 286.915 60.7266 286.832 60.7318 286.749C60.8174 285.109 60.9163 283.419 61.0346 281.71C61.0509 281.474 61.0673 281.239 61.0762 281.004L90.4267 283.171L90.327 284.085L89.8048 288.866L89.752 289.358C89.752 289.358 106.337 298.514 107.978 300.058C109.606 301.596 110.615 306.237 108.998 306.628Z" fill="#EBEBEB"/>
<path d="M108.998 306.628C107.381 307.026 62.3594 303.242 60.7385 302.008C60.1144 301.549 60.2833 294.957 60.7162 286.998C60.7214 286.915 60.7266 286.832 60.7318 286.749L89.8048 288.866L89.752 289.358C89.752 289.358 106.337 298.514 107.978 300.058C109.606 301.596 110.615 306.237 108.998 306.628Z" fill="#299AD1"/>
<path d="M108.635 304.839C101.062 304.015 70.4369 301.405 62.8875 301.166C62.8265 301.163 62.8228 301.205 62.8838 301.213C70.3722 302.194 101.017 304.555 108.624 304.963C108.785 304.972 108.795 304.857 108.635 304.839Z" fill="#263238"/>
<path d="M93.0297 289.22C90.09 288.411 86.3989 288.563 83.9382 290.499C83.843 290.574 83.9509 290.708 84.0506 290.685C87.0751 290.004 89.8765 289.64 92.9865 289.596C93.206 289.593 93.2409 289.278 93.0297 289.22Z" fill="#263238"/>
<path d="M95.0775 290.701C92.1378 289.892 88.4468 290.044 85.9861 291.98C85.8909 292.055 85.9987 292.189 86.0984 292.166C89.1229 291.485 91.9243 291.121 95.0344 291.077C95.2531 291.074 95.288 290.759 95.0775 290.701Z" fill="#263238"/>
<path d="M97.1234 292.181C94.1837 291.373 90.4927 291.524 88.032 293.46C87.9368 293.535 88.0447 293.669 88.1436 293.647C91.1681 292.965 93.9695 292.601 97.0796 292.557C97.299 292.554 97.334 292.239 97.1234 292.181Z" fill="#263238"/>
<path d="M97.462 283.033C96.4243 281.318 94.1779 281.862 92.8434 282.804C90.6817 284.331 88.6919 286.832 87.6691 289.259C87.6438 289.318 87.6825 289.359 87.7309 289.372C87.7204 289.6 87.9042 289.858 88.1682 289.785C90.7108 289.079 93.5166 288.64 95.7675 287.174C97.0804 286.318 98.4439 284.655 97.462 283.033ZM91.8035 287.926C90.5612 288.303 89.3078 288.617 88.0805 289.041C89.0936 287.784 90.0465 286.491 91.1853 285.338C91.7291 284.787 92.2974 284.232 92.9118 283.761C93.8677 283.027 97.5305 281.602 96.7286 284.834C96.2867 286.617 93.2838 287.476 91.8035 287.926Z" fill="#263238"/>
<path d="M80.1441 287.841C82.5177 289.097 85.3518 289.282 87.9479 289.756C88.2172 289.805 88.3763 289.531 88.3458 289.306C88.3927 289.288 88.4269 289.244 88.3964 289.187C87.1587 286.863 84.9509 284.552 82.6605 283.226C81.2465 282.408 78.9598 282.069 78.0813 283.871C77.2505 285.574 78.7583 287.107 80.1441 287.841ZM78.9747 285.598C77.8842 282.452 81.6608 283.54 82.6791 284.185C83.333 284.599 83.9496 285.1 84.541 285.6C85.7795 286.645 86.8455 287.848 87.9672 289.007C86.7064 288.696 85.4299 288.496 84.1587 288.232C82.6434 287.917 79.5758 287.333 78.9747 285.598Z" fill="#263238"/>
<path d="M91.1037 286.631L59.2881 285.283C59.2881 285.283 67.9719 215.467 68.1333 211.177C68.5506 200.045 75.9483 128.175 75.9483 128.175H114.807C114.807 128.175 112.356 144.766 108.162 155.285C108.162 155.285 104.967 156.276 100.033 158.996C100.033 158.996 96.3933 206.524 96.2571 212.454C95.9893 224.172 91.1037 286.631 91.1037 286.631Z" fill="#545569"/>
<path d="M90.2568 280.8C85.2967 280.486 86.7249 280.506 81.7612 280.248C79.3325 280.122 63.3708 279.306 61.0849 279.585C61.0343 279.591 61.0306 279.676 61.0804 279.687C63.335 280.159 79.3079 280.697 81.7381 280.776C86.7056 280.939 85.2811 280.838 90.2501 280.945C90.3446 280.947 90.3505 280.805 90.2568 280.8Z" fill="#263238"/>
<path d="M78.7978 132.435C77.354 150.536 75.8745 168.636 74.2179 186.719C72.5561 204.864 70.6117 222.989 68.244 241.057C66.9214 251.151 65.4545 265.367 63.8894 275.427C63.879 275.495 63.9817 275.524 63.9936 275.456C67.1988 257.583 69.5546 235.408 71.5623 217.365C73.57 199.325 75.2043 181.238 76.6667 163.146C77.4938 152.912 78.2392 142.671 79.024 132.433C79.0359 132.287 78.8097 132.29 78.7978 132.435Z" fill="#263238"/>
<path d="M109.55 154.563C106.254 155.697 103.074 157.307 100.033 158.995C99.9144 159.061 99.9925 159.246 100.122 159.19C103.328 157.814 106.596 156.496 109.723 154.945C109.968 154.824 109.802 154.476 109.55 154.563Z" fill="#0E0F1C"/>
<path d="M110.569 132.565C110.56 132.455 110.366 132.43 110.367 132.55C110.393 136.355 110.15 139.704 109.829 143.261C109.68 144.912 108.352 154.038 105.488 153.373C105.009 153.261 104.765 152.79 104.689 152.067C104.599 151.198 104.925 150.132 105.069 149.268C105.386 147.358 105.642 145.441 105.806 143.511C106.112 139.91 106.127 136.307 105.69 132.716C105.676 132.597 105.506 132.606 105.506 132.726C105.51 137.713 105.379 142.69 104.634 147.629C104.275 150.002 103.08 153.576 105.562 153.941C108.091 154.313 109.726 148.327 110.035 146.69C110.896 142.121 110.93 137.189 110.569 132.565Z" fill="#2B2D42"/>
<path d="M105.564 153.618C105.305 154.231 105.097 154.869 104.92 155.51C104.782 156.007 104.595 156.545 104.652 157.064C104.663 157.165 104.796 157.175 104.85 157.107C105.186 156.681 105.327 156.099 105.515 155.594C105.733 155.009 105.963 154.428 106.164 153.837C106.299 153.445 105.724 153.24 105.564 153.618Z" fill="#2B2D42"/>
<path d="M92.6077 135.551C92.5765 135.16 92.6092 134.742 92.4857 134.366C92.4664 134.308 92.3883 134.314 92.3697 134.369C92.2611 134.694 92.2707 135.053 92.2358 135.393C92.1956 135.786 92.1435 136.177 92.1019 136.57C92.0163 137.372 91.8787 138.173 91.6824 138.955C91.3082 140.441 90.5762 141.791 89.4961 142.883C88.4428 143.948 87.1731 144.735 85.7984 145.317C84.2609 145.969 82.6422 146.212 81.0534 146.679C80.9864 146.698 81.0057 146.794 81.0719 146.796C82.7828 146.849 84.6216 146.396 86.2098 145.785C87.6335 145.237 88.9896 144.412 90.0667 143.324C91.1825 142.196 91.9368 140.822 92.3154 139.283C92.508 138.498 92.5899 137.698 92.6233 136.892C92.6427 136.442 92.6434 136 92.6077 135.551Z" fill="#2B2D42"/>
<path d="M130.636 62.8191C133.036 65.706 135.635 73.5306 135.536 75.6588C135.437 77.7877 122.282 82.6481 120.427 81.4899C118.573 80.3317 111.245 69.9846 111.175 66.1545C111.104 62.3244 128.149 59.828 130.636 62.8191Z" fill="#AD6359"/>
<path d="M110.865 57.5086C109.66 56.2493 105.762 52.4913 104.028 54.1851C102.943 55.2451 105.559 58.1394 106.662 59.2805C108.933 61.6304 110.688 65.7923 111.503 67.8208C112.317 69.8493 116.154 65.8473 116.154 65.8473C116.154 65.8473 113.985 60.7712 110.865 57.5086Z" fill="#AD6359"/>
<path d="M114.036 70.088C114.036 70.088 115.378 73.7054 117.576 73.6273C119.694 73.5462 119.21 70.4332 119.179 70.21C119.252 70.4012 120.572 73.6928 122.772 73.3871C125.058 73.0672 124.036 70.0256 123.969 69.8292C124.094 69.9876 125.785 72.0563 127.404 71.4441C130.184 70.3901 126.007 64.9807 126.414 62.6078C126.414 62.6078 130.515 62.8384 130.635 62.8198C130.635 62.8198 126.766 57.592 123.535 57.2223C121.831 57.0274 121.313 58.5761 121.313 58.5761C121.313 58.5761 120.252 56.7529 118.512 56.9389C117.62 57.037 116.982 58.5523 116.982 58.5523C116.982 58.5523 116.072 57.1278 114.534 57.3904C113.307 57.5957 112.695 59.1288 112.626 59.7201C112.095 64.2726 114.036 70.088 114.036 70.088Z" fill="#AD6359"/>
<path d="M112.753 59.308C112.753 59.2723 112.704 59.2649 112.697 59.3006C112.063 62.857 112.457 66.9579 114.039 70.2294C114.091 70.3365 114.287 70.2993 114.253 70.1699C113.267 66.4863 112.686 63.1389 112.753 59.308Z" fill="#2B2D42"/>
<path d="M116.958 58.5002C116.959 58.4586 116.89 58.4571 116.882 58.501C116.249 62.1689 116.819 66.7764 119.087 70.332C119.165 70.454 119.357 70.4853 119.278 70.338C117.95 67.8594 116.88 61.9487 116.958 58.5002Z" fill="#2B2D42"/>
<path d="M124.213 70.0218C122.17 66.5279 121.453 62.7313 121.277 58.7256C121.275 58.6735 121.201 58.6817 121.192 58.7263C120.744 60.7095 121.122 63.2512 121.584 65.2039C122.026 67.0739 122.801 68.6732 124.091 70.094C124.14 70.1483 124.256 70.0962 124.213 70.0218Z" fill="#2B2D42"/>
<path d="M114.036 70.088C114.363 70.7583 114.739 71.4039 115.177 71.9968C115.616 72.5777 116.142 73.1379 116.78 73.3938C117.096 73.518 117.434 73.5388 117.741 73.4242C118.051 73.3052 118.347 73.1163 118.553 72.8634C118.977 72.3635 119.065 71.6085 118.957 70.9695L118.685 69.3613L119.5 70.7776C119.855 71.3957 120.317 71.9983 120.851 72.4647C121.383 72.9311 122.037 73.2539 122.672 73.1654C123.338 73.0858 123.84 72.6566 123.934 72.002C124.053 71.3593 123.905 70.6028 123.67 69.9519L123.012 68.1354L124.223 69.6306C124.551 70.0352 124.953 70.4272 125.378 70.7367C125.806 71.0439 126.289 71.2834 126.761 71.2931C127.225 71.3042 127.7 71.0618 127.891 70.6623C128.1 70.2443 128.078 69.6789 128.006 69.1471C127.844 68.061 127.447 66.9958 127.106 65.9202C126.932 65.3824 126.755 64.8423 126.604 64.2941C126.465 63.7489 126.313 63.1746 126.413 62.6093C126.372 63.1776 126.582 63.7176 126.754 64.248C126.944 64.7776 127.159 65.2991 127.375 65.822C127.806 66.8679 128.228 67.9256 128.466 69.0712C128.563 69.641 128.648 70.2636 128.386 70.8929C128.111 71.5401 127.411 71.9001 126.754 71.8882C126.084 71.8793 125.509 71.5802 125.019 71.244C124.527 70.8944 124.104 70.4972 123.714 70.0308L124.266 69.7087C124.551 70.4748 124.736 71.2611 124.603 72.127C124.535 72.5524 124.322 72.9988 123.966 73.303C123.61 73.611 123.183 73.7634 122.748 73.8155C121.843 73.9197 121.027 73.4592 120.442 72.9288C119.841 72.3821 119.376 71.7535 118.984 71.0506L119.527 70.8587C119.637 71.6762 119.478 72.5383 118.904 73.1743C118.618 73.4845 118.254 73.6891 117.864 73.8155C117.462 73.9457 117.009 73.8921 116.642 73.7248C115.9 73.3744 115.426 72.7339 115.015 72.1106C114.61 71.4716 114.287 70.791 114.036 70.088Z" fill="#2B2D42"/>
<path d="M118.869 79.9472C118.869 79.9472 104.687 72.6945 110.238 68.5408C111.887 67.306 120.134 64.2056 120.788 65.8503C121.634 67.9733 118.433 69.9103 116.231 70.8074C116.231 70.8074 121.402 72.5949 121.23 76.5663C121.123 79.0568 118.869 79.9472 118.869 79.9472Z" fill="#AD6359"/>
<path d="M109.798 68.915C110.363 68.331 111.074 67.91 111.782 67.5165C112.494 67.123 113.243 66.7994 114 66.5064C115.526 65.9381 117.052 65.4211 118.684 65.1183C119.095 65.0484 119.515 64.9948 119.977 65.0447C120.205 65.07 120.457 65.1332 120.681 65.2708C120.794 65.3378 120.885 65.4077 120.996 65.5319C121.086 65.645 121.157 65.761 121.2 65.8808C121.399 66.3591 121.351 66.8642 121.211 67.3015C121.054 67.736 120.808 68.1101 120.53 68.4441C119.967 69.1054 119.275 69.5941 118.56 70.0077C117.846 70.4302 117.094 70.759 116.338 71.0684L116.317 70.5396C116.917 70.7679 117.458 71.0499 117.988 71.3757C118.515 71.7007 119.012 72.0756 119.462 72.5019C119.909 72.9311 120.296 73.4243 120.596 73.9628C120.901 74.4991 121.099 75.0912 121.178 75.693C121.018 75.1076 120.766 74.5571 120.429 74.0662C120.094 73.573 119.674 73.149 119.223 72.7674C118.771 72.3866 118.277 72.0555 117.757 71.7736C117.24 71.4939 116.686 71.2477 116.144 71.0759L115.453 70.8579L116.123 70.5477C116.844 70.213 117.568 69.882 118.229 69.4595C118.892 69.0466 119.539 68.5899 120.014 68.0112C120.481 67.4548 120.813 66.7139 120.576 66.1374C120.413 65.6137 119.527 65.6383 118.781 65.7521C118.007 65.8637 117.229 66.0593 116.453 66.2549C115.676 66.4528 114.901 66.6603 114.14 66.9073C112.636 67.425 111.093 67.9457 109.798 68.915Z" fill="#2B2D42"/>
<path d="M102.543 90.2146C115.084 105.688 133.315 115.717 137.816 112.457C142.312 109.199 127.149 92.0914 126.891 91.8429C126.006 90.9912 119.297 87.5018 107.11 82.3714C95.1518 77.3369 96.9401 83.3019 102.543 90.2146Z" fill="#AD6359"/>
<path d="M121.235 88.3922L111.802 100.842C111.802 100.842 103.871 92.659 99.6776 87.2459C95.4837 81.8328 95.9017 77.6181 105.284 81.1135C114.666 84.6082 121.235 88.3922 121.235 88.3922Z" fill="#299AD1"/>
<path d="M110.899 97.9932C112.057 96.3001 113.257 94.6339 114.498 93.0011C115.11 92.1955 115.711 91.381 116.339 90.588C116.987 89.7676 117.691 88.9925 118.337 88.1713C118.383 88.1132 118.478 88.1757 118.434 88.236C117.838 89.0512 117.299 89.9067 116.708 90.7257C116.098 91.5699 115.455 92.3919 114.826 93.2213C113.583 94.8608 112.299 96.4697 110.977 98.0452C110.939 98.0906 110.865 98.0445 110.899 97.9932Z" fill="#2B2D42"/>
<path d="M116.326 94.8764L111.803 100.842C111.803 100.842 103.874 92.6597 99.6782 87.2444C99.5368 87.0659 99.4104 86.8874 99.2765 86.7163C99.2244 86.6344 99.1649 86.5526 99.1054 86.4708C99.0161 86.3443 98.9269 86.2179 98.845 86.0914C98.6219 85.7641 98.421 85.4443 98.2425 85.1319C98.1756 85.0203 98.1161 84.9087 98.0566 84.7971C97.7144 84.1648 97.4615 83.5623 97.3053 83.0193C97.2457 82.8185 97.2086 82.625 97.1788 82.4391C97.1639 82.3424 97.149 82.2531 97.1416 82.1638C101.307 85.0054 110.977 91.2612 116.326 94.8764Z" fill="#2B2D42"/>
<path d="M116.702 135.824C116.702 135.824 73.6565 136.559 73.4088 136.298C72.7356 135.591 81.4306 91.2315 90.4268 82.0954C93.6023 78.8708 100.153 80.183 101.245 80.7126C103.769 81.9355 106.145 84.5658 108.13 89.444C112.101 99.2087 117.251 135.124 116.702 135.824Z" fill="#299AD1"/>
<path opacity="0.1" d="M103.413 82.1713H90.3583C90.3806 82.149 90.4029 82.1193 90.4252 82.0969C90.7302 81.7845 91.0724 81.5167 91.4294 81.2861H102.253C102.647 81.539 103.034 81.8292 103.413 82.1713ZM104.849 83.659H89.1309C88.9226 83.9343 88.7218 84.2318 88.5209 84.5442H105.518C105.302 84.2318 105.079 83.9343 104.849 83.659ZM106.47 86.0319H87.6209C87.4572 86.3221 87.2936 86.6196 87.1373 86.9246H106.961C106.805 86.6196 106.641 86.3146 106.47 86.0319ZM107.683 88.4123H86.386C86.2447 88.7024 86.1034 88.9999 85.962 89.2975H108.062C107.943 88.9925 107.817 88.695 107.683 88.4123ZM108.627 90.7852H85.3075C85.181 91.0753 85.0545 91.3729 84.9281 91.6704H108.918C108.821 91.358 108.724 91.0679 108.627 90.7852ZM109.371 93.1581H84.3256C84.214 93.4557 84.095 93.7458 83.9759 94.0508H109.617C109.535 93.7458 109.453 93.4482 109.371 93.1581ZM110.011 95.531H83.4255C83.3213 95.8286 83.2098 96.1187 83.1056 96.4237H110.234C110.16 96.1187 110.085 95.8211 110.011 95.531ZM110.591 97.9114H82.5849C82.4808 98.2015 82.3841 98.499 82.2874 98.7966H110.792C110.725 98.499 110.658 98.2015 110.591 97.9114ZM111.127 100.284H81.789C81.6923 100.574 81.603 100.872 81.5063 101.169H111.32C111.253 100.872 111.194 100.574 111.127 100.284ZM111.633 102.657H81.0451C80.9484 102.947 80.8592 103.245 80.7699 103.55H111.819C111.759 103.252 111.7 102.955 111.633 102.657ZM112.116 105.03H80.3236C80.2343 105.328 80.1451 105.625 80.0632 105.923H112.295C112.235 105.625 112.176 105.328 112.116 105.03ZM112.577 107.41H79.6392C79.55 107.708 79.4682 107.998 79.3863 108.296H112.741C112.689 107.998 112.637 107.701 112.577 107.41ZM113.016 109.783H78.9772C78.8954 110.081 78.8136 110.378 78.7392 110.669H113.18C113.128 110.371 113.076 110.081 113.016 109.783ZM113.44 112.156H78.3449C78.2631 112.454 78.1887 112.751 78.1143 113.049H113.596C113.552 112.751 113.5 112.454 113.44 112.156ZM113.864 114.537H77.7275C77.6606 114.834 77.5862 115.124 77.5118 115.422H114.006C113.961 115.132 113.909 114.834 113.864 114.537ZM114.251 116.91H77.1399C77.0729 117.207 76.9985 117.505 76.9316 117.795H114.4C114.355 117.505 114.303 117.207 114.251 116.91ZM114.638 119.282H76.5745C76.5076 119.587 76.4407 119.885 76.3663 120.175H114.779C114.735 119.878 114.69 119.587 114.638 119.282ZM115.017 121.655H76.0315C75.9646 121.953 75.8976 122.258 75.8307 122.548H115.144C115.099 122.258 115.054 121.96 115.017 121.655ZM115.367 124.036H75.5034C75.4439 124.333 75.3769 124.631 75.3174 124.921H115.501C115.456 124.631 115.411 124.333 115.367 124.036ZM115.709 126.409H74.9976C74.9381 126.714 74.8786 127.004 74.819 127.294H115.835C115.791 127.004 115.754 126.706 115.709 126.409ZM116.036 128.782H74.5289C74.462 129.087 74.4025 129.384 74.3504 129.674H116.155C116.118 129.384 116.073 129.087 116.036 128.782ZM116.334 131.154H74.0752C74.0157 131.467 73.9636 131.764 73.9115 132.047H116.445C116.416 131.764 116.378 131.467 116.334 131.154ZM116.609 133.535H73.6661C73.614 133.855 73.5768 134.152 73.5322 134.42H116.691C116.669 134.16 116.639 133.862 116.609 133.535ZM73.376 135.908C73.3611 136.131 73.376 136.265 73.4057 136.302C73.6066 136.503 100.304 136.094 111.677 135.908H73.376Z" fill="#030402"/>
<path d="M92.8828 87.4676C89.9817 91.451 75.1001 107.891 74.5519 109.42C74.0044 110.95 77.4455 114.315 77.3889 114.947C77.1591 117.517 71.6025 134.641 69.3791 132.902C66.452 130.612 54.0466 114.198 55.8022 107.098C57.5577 99.9972 86.5287 82.936 91.1228 81.4565C95.7169 79.9762 95.7451 83.5371 92.8828 87.4676Z" fill="#AD6359"/>
<path d="M81.1979 102.444L72.7432 90.5754C72.7432 90.5754 82.2021 84.3754 88.5078 81.7072C94.8142 79.0389 97.9458 80.5363 92.1646 88.7106C86.3841 96.8863 81.1979 102.444 81.1979 102.444Z" fill="#299AD1"/>
<path d="M75.2457 89.804C76.5854 91.3565 77.8886 92.9439 79.1502 94.561C79.772 95.3584 80.4058 96.1484 81.0113 96.9577C81.6384 97.7953 82.2074 98.6738 82.836 99.5092C82.8806 99.5679 82.7958 99.6446 82.7482 99.5858C82.113 98.801 81.4242 98.0609 80.7837 97.2791C80.1239 96.4735 79.4938 95.6411 78.8526 94.8206C77.5866 93.1998 76.36 91.5462 75.1757 89.865C75.1415 89.8174 75.2055 89.7579 75.2457 89.804Z" fill="#263238"/>
<path d="M81.1774 102.503C82.4762 100.784 83.9981 99.2525 85.3981 97.6183C86.8002 95.981 88.1883 94.3118 89.519 92.6166C89.551 92.5757 89.6172 92.6188 89.5867 92.662C88.9678 93.5419 88.3668 94.439 87.7182 95.2974C87.3953 95.7244 87.0598 96.141 86.7199 96.5546C86.8865 96.4214 87.0465 96.2816 87.2161 96.1514C87.7234 95.7631 88.2604 95.409 88.8042 95.0743C88.8332 95.0564 88.86 95.1003 88.8362 95.1219C88.3638 95.5563 87.8736 95.9766 87.3589 96.3604C86.9862 96.6379 86.6024 96.8975 86.22 97.1601C86.0214 97.3988 85.8228 97.6384 85.6257 97.8779C84.2674 99.5285 82.9069 101.199 81.2637 102.58C81.2153 102.621 81.1365 102.558 81.1774 102.503Z" fill="#263238"/>
<path d="M76.6574 139.401C78.645 138.056 75.9225 136.483 75.9225 136.483C75.9225 136.483 80.3879 137.802 81.9009 135.624C83.3536 133.519 79.9966 131.735 79.7586 131.604C79.9951 131.672 84.1302 132.777 85.4253 130.431C86.7687 127.991 83.0918 126.778 82.8545 126.702C83.0985 126.695 86.3187 126.558 86.8974 124.552C87.8897 121.103 78.6398 120.708 76.6418 118.598C76.6418 118.598 77.5389 114.049 77.6081 113.918C77.6081 113.918 76.5905 115.696 74.977 116.152C72.9768 116.719 71.1752 117.045 70.3636 118.006C69.0314 119.589 70.0653 121.131 70.0653 121.131C70.0653 121.131 67.537 120.838 66.4591 122.653C65.9087 123.586 66.9114 125.297 66.9114 125.297C66.9114 125.297 64.8769 125.147 64.0193 126.821C63.3304 128.156 64.4433 129.664 64.4433 129.664C64.4433 129.664 62.4229 130.427 62.1618 132.018C61.6263 135.227 72.3988 142.277 76.6574 139.401Z" fill="#AD6359"/>
<path d="M64.5816 129.93C64.5481 129.904 64.5042 129.946 64.5347 129.978C67.5116 133.161 71.7576 135.747 76.0615 136.584C76.2029 136.611 76.3085 136.394 76.159 136.334C71.8877 134.623 68.2332 132.764 64.5816 129.93Z" fill="#263238"/>
<path d="M66.8415 125.284C66.8021 125.253 66.75 125.318 66.7872 125.358C69.8727 128.621 74.7353 131.401 79.8099 131.781C79.984 131.795 80.1536 131.632 79.9542 131.601C76.5987 131.093 70.1159 127.852 66.8415 125.284Z" fill="#263238"/>
<path d="M83.2172 126.606C78.3658 126.052 74.1793 124 70.1826 121.274C70.1305 121.238 70.0859 121.315 70.1208 121.357C71.7127 123.223 74.4412 124.695 76.6616 125.662C78.7883 126.586 80.8926 126.994 83.1979 126.775C83.2871 126.766 83.3206 126.617 83.2172 126.606Z" fill="#263238"/>
<path d="M64.3112 129.653C63.5942 128.752 63.1069 127.62 63.5934 126.49C63.8136 125.976 64.225 125.573 64.7278 125.33C65.3512 125.029 66.2073 125.137 66.6217 125.156C65.9983 124.109 65.7737 122.746 66.5696 121.725C66.9386 121.251 67.4466 121.059 68.0387 120.94C68.3586 120.875 69.6566 120.907 70.0159 121.019C69.4654 120.391 69.2505 119.487 69.4402 118.675C69.6611 117.731 70.3677 117.104 71.2269 116.719C72.2147 116.276 73.3082 116.19 74.36 115.989C74.9075 115.884 75.4476 115.78 75.9586 115.549C76.4228 115.34 76.8267 115.034 77.2886 114.36C77.3511 114.269 77.3444 114.365 77.296 114.441C77.0387 114.845 76.8349 115.099 76.5113 115.378C76.184 115.661 75.8202 115.895 75.4304 116.082C74.488 116.535 73.4414 116.646 72.452 116.956C71.5862 117.226 70.7441 117.675 70.2123 118.434C69.6641 119.218 69.6864 120.228 70.129 121.05C70.1572 121.089 70.1312 121.15 70.0583 121.144C69.6254 121.109 68.5698 121.253 68.2961 121.346C67.829 121.505 67.3529 121.716 67.062 122.114C66.4045 123.011 66.4335 124.291 66.9088 125.296C66.9259 125.331 65.8607 125.323 65.0573 125.775C64.6772 125.989 64.3789 126.359 64.1826 126.746C63.7184 127.658 63.8463 128.82 64.4719 129.623C64.4823 129.636 64.4816 129.649 64.4823 129.661L64.4831 129.664C64.4831 129.673 64.4838 129.68 64.4801 129.688C64.4779 129.701 64.4704 129.711 64.4578 129.721C64.4503 129.727 63.8136 129.99 63.7816 129.992C63.763 129.993 63.7653 129.968 63.7786 129.956C63.8017 129.936 64.2212 129.681 64.3112 129.653Z" fill="#263238"/>
<path d="M101.231 87.3143C98.8632 88.1809 94.2372 84.9645 92.225 82.149C92.0882 81.9556 91.9587 73.5901 91.7609 71.9351C91.7185 71.5959 102.456 73.2123 102.456 73.2123C102.456 73.2123 101.85 76.8036 102.213 79.6868C102.246 79.9278 103.519 86.4753 101.231 87.3143Z" fill="#AD6359"/>
<path d="M102.453 73.2115C102.453 73.2115 102.335 73.907 102.234 74.9328C99.2376 78.5866 94.4866 78.969 92.0624 78.8916C91.9754 76.2926 91.8831 72.9199 91.7619 71.9343C91.7157 71.5996 102.453 73.2115 102.453 73.2115Z" fill="#2B2D42"/>
<path d="M91.8061 54.107C91.8061 54.107 88.3858 55.4303 87.6828 58.8543C86.9799 62.279 87.6769 65.9046 87.97 66.0883C88.2623 66.2721 91.8061 54.107 91.8061 54.107Z" fill="#2B2D42"/>
<path d="M105.619 58.5218C106.502 62.2961 103.831 72.8485 101.038 75.054C96.9884 78.2512 90.7147 78.1611 88.0829 73.3804C85.5322 68.7461 89.2553 55.0554 92.3423 53.0879C96.8895 50.1898 104.315 52.9466 105.619 58.5218Z" fill="#AD6359"/>
<path d="M95.013 64.4496C95.0234 64.4228 95.0643 64.4943 95.0584 64.524C94.9081 65.2515 94.859 66.1092 95.4786 66.467C95.498 66.4781 95.489 66.5146 95.4652 66.5064C94.6782 66.2535 94.7549 65.1146 95.013 64.4496Z" fill="#263238"/>
<path d="M95.7991 63.7987C96.9908 63.9133 96.6747 66.2884 95.5708 66.1821C94.484 66.0779 94.8001 63.7028 95.7991 63.7987Z" fill="#2B2D42"/>
<path d="M90.8637 63.7147C90.8614 63.6857 90.8019 63.7422 90.799 63.7727C90.7305 64.5121 90.5267 65.3474 89.8297 65.5089C89.8081 65.5141 89.8052 65.5505 89.8305 65.5505C90.6576 65.5371 90.9165 64.4258 90.8637 63.7147Z" fill="#2B2D42"/>
<path d="M90.302 62.8629C89.129 62.6249 88.7384 64.9889 89.8252 65.2098C90.8949 65.427 91.2854 63.0623 90.302 62.8629Z" fill="#2B2D42"/>
<path d="M94.8487 70.6043C94.6568 70.762 94.459 70.9844 94.1889 70.9844C93.9301 70.9837 93.6385 70.8408 93.4101 70.7293C93.3878 70.7181 93.3618 70.7412 93.3744 70.7642C93.5418 71.0647 93.9301 71.2775 94.2782 71.2477C94.6181 71.2187 94.8086 70.9435 94.9164 70.6445C94.9328 70.6021 94.877 70.5812 94.8487 70.6043Z" fill="#2B2D42"/>
<path d="M91.4038 67.2101C91.4038 67.2101 91.0929 68.2849 91.0178 68.8027C91.0111 68.851 92.5018 68.9403 93.9441 69.6722C94.1606 69.7816 94.1859 69.5904 93.953 69.3992C93.4866 69.0184 92.8737 68.6152 91.5281 68.4174C91.5124 68.2686 92.0369 66.7712 91.9565 66.7533C91.6768 66.6879 91.0914 66.7995 90.7425 66.8493C91.325 64.5909 92.2652 62.4449 92.8112 60.1873C92.8291 60.1062 92.7153 60.0646 92.681 60.1345C91.537 62.314 90.8095 64.8982 90.1482 67.2145C90.0627 67.5024 91.1844 67.2681 91.4038 67.2101Z" fill="#2B2D42"/>
<path d="M96.714 62.9864C96.4351 62.8072 96.2075 62.5959 95.9501 62.3906C95.6592 62.1585 95.4041 62.0038 95.2866 61.6341C95.2233 61.4355 95.3677 61.1662 95.5551 61.0873C95.991 60.9036 96.4172 61.0993 96.7788 61.3641C97.1708 61.6519 97.3999 61.9733 97.5219 62.4427C97.6394 62.8979 97.0822 63.223 96.714 62.9864Z" fill="#2B2D42"/>
<path d="M89.7851 60.2394C90.1139 60.194 90.4092 60.0973 90.7291 60.0192C91.0906 59.9307 91.3874 59.8972 91.6492 59.6115C91.7898 59.4583 91.772 59.1533 91.6351 59.0031C91.3175 58.6535 90.8481 58.652 90.4085 58.7405C89.9317 58.8364 89.5887 59.0328 89.2808 59.4077C88.9825 59.77 89.3522 60.2989 89.7851 60.2394Z" fill="#2B2D42"/>
<path d="M103.871 67.5418C101.683 67.3276 102.877 57.6768 102.877 57.6768C102.877 57.6768 100.542 58.5084 98.6917 58.4593C96.8409 58.4102 94.7187 57.9379 94.4226 57.8203C94.1266 57.7028 98.0795 56.5878 98.0795 56.5878C98.0795 56.5878 88.3647 57.4387 88.0344 55.6111C87.9191 54.9728 89.7215 49.2161 97.7893 49.5814C103.768 49.8514 106.514 56.0656 106.514 56.0656C106.514 56.0656 109.405 59.2895 108.911 60.7511C108.058 63.2684 106.19 67.7687 103.871 67.5418Z" fill="#2B2D42"/>
<path d="M102.549 67.5827C102.549 67.5827 105.265 64.344 106.757 65.3415C108.25 66.3383 105.997 71.18 104.098 71.7037C102.198 72.2266 101.678 70.4801 101.678 70.4801L102.549 67.5827Z" fill="#AD6359"/>
<path d="M106.077 66.7132C106.107 66.7132 106.109 66.7548 106.082 66.763C104.746 67.1721 103.964 68.308 103.38 69.5049C103.805 69.0615 104.35 68.8458 104.95 69.3576C104.981 69.3844 104.945 69.4342 104.909 69.423C104.391 69.2639 104.001 69.3219 103.607 69.7139C103.328 69.9913 103.122 70.3544 102.911 70.6846C102.84 70.7947 102.637 70.7144 102.693 70.5857C102.698 70.576 102.702 70.5663 102.707 70.5567C102.817 68.9113 104.296 66.7243 106.077 66.7132Z" fill="#2B2D42"/>
<path d="M138.785 111.897C144.826 107.231 139.048 83.5549 135.539 74.8376C134.507 72.2735 118.101 77.0937 118.869 79.9472C123.251 96.2295 132.17 117.006 138.785 111.897Z" fill="#AD6359"/>
<path d="M121.585 88.8824L123.393 93.3597C124.008 94.8437 124.613 96.3314 125.277 97.7923C125.896 99.2741 126.595 100.719 127.281 102.169C127.973 103.618 128.722 105.038 129.47 106.468C128.524 105.16 127.676 103.782 126.9 102.365C126.129 100.946 125.43 99.4876 124.767 98.0155C124.142 96.527 123.526 95.0348 122.993 93.5107C122.462 91.988 121.967 90.4504 121.585 88.8824Z" fill="#2B2D42"/>
<path d="M120.465 41.8192C120.667 44.1572 118.936 46.2154 116.598 46.4177C114.26 46.6201 112.202 44.8891 111.999 42.5512C111.797 40.2132 113.528 38.155 115.866 37.9526C118.204 37.7503 120.263 39.4813 120.465 41.8192Z" fill="white"/>
<path d="M120.465 41.8192C120.571 42.9283 120.225 44.0709 119.524 44.9524C118.832 45.8405 117.772 46.4609 116.615 46.6022C115.463 46.7517 114.233 46.4267 113.294 45.6813C112.351 44.9404 111.735 43.7897 111.63 42.5832C111.526 41.3774 111.934 40.1366 112.736 39.2447C113.532 38.3476 114.691 37.8173 115.851 37.7667C117.015 37.7072 118.167 38.1364 119 38.8936C119.842 39.6412 120.378 40.7086 120.465 41.8192ZM120.465 41.8192C120.367 40.7094 119.802 39.6531 118.933 38.9732C118.066 38.2903 116.938 37.9988 115.882 38.1386C114.821 38.2725 113.857 38.8438 113.226 39.6576C112.588 40.4661 112.274 41.5061 112.37 42.5192C112.449 43.5338 112.935 44.5053 113.703 45.1926C114.464 45.8874 115.514 46.2839 116.582 46.2333C117.647 46.1894 118.709 45.7081 119.445 44.8861C120.184 44.0672 120.559 42.9291 120.465 41.8192Z" fill="#263238"/>
<path d="M111.266 49.6476C111.379 50.9486 110.415 52.0949 109.114 52.2072C107.813 52.3196 106.667 51.3563 106.555 50.0552C106.442 48.7542 107.406 47.608 108.707 47.4956C110.008 47.3833 111.153 48.3466 111.266 49.6476Z" fill="white"/>
<path d="M111.267 49.6476C111.4 50.8802 110.488 52.1924 109.13 52.3917C108.471 52.4966 107.746 52.3315 107.183 51.906C106.62 51.482 106.248 50.8013 106.184 50.0872C106.125 49.3731 106.373 48.6382 106.855 48.1234C107.335 47.6057 108.023 47.3193 108.691 47.3097C110.064 47.2732 111.186 48.4113 111.267 49.6476ZM111.267 49.6476C111.209 49.0302 110.889 48.444 110.399 48.0818C109.91 47.718 109.287 47.5864 108.723 47.6823C107.565 47.8698 106.815 48.9893 106.925 50.024C106.993 51.0617 107.924 52.0391 109.099 52.0235C109.671 52.0213 110.262 51.784 110.681 51.3406C111.101 50.898 111.316 50.2665 111.267 49.6476Z" fill="#263238"/>
<path d="M152.237 22.0623C153.063 28.862 148.222 35.0434 141.422 35.8751C139.194 36.1451 137.028 35.8074 135.1 34.9921C133.459 37.1374 130.986 38.6437 128.093 38.997C124.291 39.4597 120.712 37.8024 118.546 34.9556C118.099 35.091 117.632 35.1892 117.154 35.2465C112.526 35.8074 108.318 32.5143 107.757 27.886C107.497 25.7303 108.069 23.6683 109.227 22.0214C107.86 20.292 106.941 18.1824 106.655 15.84C105.83 9.03514 110.671 2.85367 117.47 2.02724C120.566 1.65308 123.533 2.44827 125.927 4.0736C127.569 2.02204 129.984 0.587877 132.8 0.244958C137.661 -0.347154 142.15 2.52042 143.797 6.90919C144.223 6.76414 144.669 6.6652 145.132 6.60792C148.867 6.15566 152.259 8.8157 152.711 12.5454C152.96 14.5918 152.275 16.5399 150.987 17.9533C151.63 19.2052 152.061 20.5873 152.237 22.0623Z" fill="white"/>
<path d="M152.238 22.0623C152.472 24.2054 152.215 26.4266 151.349 28.4141C150.948 29.4228 150.355 30.3385 149.72 31.2133C149.027 32.0427 148.291 32.8498 147.409 33.4858C145.696 34.8225 143.6 35.6214 141.456 35.9271C139.304 36.2135 137.073 35.9264 135.059 35.0895L135.185 35.0561C134.21 36.3377 132.948 37.4104 131.498 38.1289C130.054 38.8564 128.437 39.2425 126.815 39.2485C125.194 39.2529 123.564 38.8951 122.105 38.1706C120.645 37.452 119.349 36.3972 118.345 35.1074L118.618 35.1959C116.899 35.698 115.026 35.7144 113.32 35.1237C111.604 34.5725 110.095 33.4389 109.026 31.9869C108.503 31.2512 108.091 30.4397 107.8 29.5842C107.529 28.7236 107.371 27.8243 107.361 26.9212C107.335 25.1122 107.9 23.3023 108.939 21.8183L108.95 22.2379C107.077 19.8821 106.054 16.836 106.222 13.8196C106.345 10.8092 107.568 7.84942 109.642 5.66173C111.698 3.45693 114.552 2.04434 117.538 1.70514C120.525 1.37338 123.611 2.16336 126.066 3.86977L125.735 3.91961C126.915 2.46834 128.48 1.33842 130.223 0.677874C131.968 0.021047 133.879 -0.158967 135.71 0.140065C137.538 0.447279 139.289 1.23205 140.703 2.42297C142.136 3.5938 143.223 5.15888 143.871 6.88166L143.771 6.83479C145.208 6.36691 146.796 6.38922 148.211 6.89579C149.634 7.38823 150.878 8.36938 151.687 9.63617C152.513 10.8911 152.885 12.4301 152.763 13.9215C152.643 15.4167 152.008 16.8605 150.995 17.9622L150.997 17.9473C151.654 19.2312 152.072 20.6326 152.238 22.0623ZM152.238 22.0623C152.063 20.6334 151.637 19.2357 150.975 17.9592L150.97 17.951L150.976 17.9443C151.979 16.8404 152.601 15.4003 152.711 13.9163C152.823 12.4353 152.445 10.9134 151.62 9.67857C150.813 8.43186 149.58 7.47154 148.176 6.99547C146.781 6.49931 145.215 6.50675 143.823 6.98431L143.751 7.00886L143.723 6.9367C143.059 5.25038 141.969 3.73216 140.55 2.61042C139.151 1.46711 137.434 0.732178 135.659 0.462158C133.882 0.198831 132.038 0.402647 130.371 1.06022C128.705 1.72076 127.225 2.82614 126.12 4.22757L125.98 4.4061L125.788 4.27815C123.403 2.67514 120.445 1.96996 117.608 2.32924C114.771 2.67142 112.075 4.02598 110.141 6.1259C108.188 8.20945 107.054 11.0131 106.955 13.8501C106.822 16.6917 107.736 19.5674 109.502 21.8042L109.665 22.0103L109.514 22.2238C108.551 23.5843 108.019 25.246 108.033 26.9175C108.037 27.7521 108.179 28.5852 108.425 29.3826C108.689 30.1749 109.067 30.9276 109.547 31.6127C110.534 32.9576 111.917 34.034 113.509 34.5733C115.089 35.1505 116.851 35.1609 118.473 34.7146L118.644 34.6678L118.746 34.8031C119.684 36.0461 120.907 37.0741 122.298 37.786C123.687 38.5024 125.25 38.8713 126.816 38.8914C128.384 38.9092 129.957 38.5596 131.373 37.8738C132.793 37.1961 134.043 36.1689 135.017 34.9281L135.068 34.8619L135.142 34.8939C137.109 35.7464 139.306 36.0662 141.443 35.8126C143.568 35.5225 145.654 34.7429 147.363 33.4248C148.244 32.7984 148.981 31.9995 149.675 31.1783C150.312 30.311 150.909 29.402 151.314 28.3993C152.189 26.4228 152.46 24.2069 152.238 22.0623Z" fill="#263238"/>
<path d="M131.03 22.4461C131.03 21.4643 131.19 20.582 131.511 19.801C131.832 19.0192 132.493 18.3386 133.495 17.7569C133.795 17.5761 134.166 17.3715 134.607 17.1402C135.047 16.9104 135.479 16.6344 135.9 16.3138C136.321 15.9932 136.676 15.6175 136.967 15.1868C137.257 14.7561 137.403 14.26 137.403 13.6984C137.403 13.2773 137.323 12.9069 137.163 12.5863C137.002 12.2657 136.792 11.9957 136.531 11.7748C136.271 11.5546 135.964 11.3894 135.614 11.2786C135.263 11.1685 134.907 11.1135 134.547 11.1135C134.106 11.1135 133.705 11.1886 133.344 11.3388C132.983 11.4891 132.657 11.6795 132.367 11.9101C132.076 12.1407 131.816 12.4018 131.585 12.6919C131.355 12.9828 131.159 13.2587 130.999 13.5184L128.384 11.7145C128.644 11.0934 128.99 10.5422 129.421 10.0609C129.851 9.57962 130.342 9.17422 130.894 8.8432C131.445 8.51293 132.041 8.26225 132.683 8.09191C133.324 7.92156 133.985 7.83676 134.666 7.83676C135.428 7.83676 136.179 7.94685 136.921 8.16703C137.662 8.38796 138.329 8.73832 138.921 9.21885C139.511 9.70013 139.992 10.316 140.364 11.0673C140.734 11.8186 140.92 12.7157 140.92 13.7579C140.92 14.3991 140.845 14.9659 140.695 15.4561C140.544 15.9471 140.329 16.3934 140.048 16.7936C139.767 17.1945 139.437 17.5553 139.056 17.8759C138.675 18.1965 138.244 18.5074 137.763 18.8079C137.362 19.0482 136.961 19.2788 136.56 19.4997C136.159 19.7207 135.793 19.9654 135.463 20.2361C135.133 20.5069 134.862 20.8178 134.652 21.1682C134.441 21.5193 134.336 21.9448 134.336 22.4461H131.03ZM131.089 29.4511V25.3026H134.426V29.4511H131.089Z" fill="#57C3F7"/>
<path d="M123.587 14.6788C123.789 15.6398 123.813 16.5354 123.66 17.3663C123.507 18.1972 123 18.9999 122.139 19.775C121.881 20.013 121.561 20.2904 121.177 20.6066C120.793 20.9227 120.428 21.2813 120.082 21.6815C119.736 22.0817 119.465 22.522 119.27 23.004C119.074 23.4853 119.034 24.0008 119.149 24.5498C119.235 24.9619 119.391 25.3078 119.613 25.589C119.836 25.8694 120.098 26.0911 120.398 26.2532C120.699 26.4154 121.032 26.5143 121.397 26.55C121.763 26.5857 122.122 26.5664 122.476 26.492C122.907 26.4013 123.284 26.2458 123.606 26.0241C123.928 25.8032 124.208 25.5495 124.445 25.2646C124.683 24.979 124.884 24.6703 125.049 24.3393C125.215 24.0075 125.35 23.6973 125.453 23.4094L128.383 24.6368C128.256 25.2981 128.032 25.9088 127.709 26.4682C127.386 27.0276 126.989 27.5252 126.518 27.9626C126.047 28.3993 125.514 28.7675 124.921 29.0658C124.329 29.364 123.699 29.5835 123.032 29.7241C122.287 29.8803 121.529 29.9271 120.757 29.8639C119.987 29.7999 119.262 29.5946 118.585 29.245C117.908 28.8954 117.31 28.3918 116.793 27.732C116.276 27.073 115.91 26.2331 115.695 25.2133C115.564 24.5855 115.521 24.0157 115.567 23.5047C115.613 22.9929 115.732 22.5124 115.925 22.0623C116.117 21.6123 116.366 21.1913 116.673 20.7992C116.98 20.4072 117.337 20.0145 117.746 19.6217C118.089 19.3041 118.434 18.9961 118.781 18.6978C119.128 18.3996 119.436 18.0842 119.703 17.7517C119.971 17.4192 120.172 17.0591 120.306 16.6731C120.44 16.2863 120.455 15.8481 120.352 15.3579L123.587 14.6788ZM122.088 7.83676L122.941 11.8967L119.676 12.5826L118.823 8.5226L122.088 7.83676Z" fill="#57C3F7"/>
</svg>
