<svg width="157" height="34" viewBox="0 0 157 34" fill="none" xmlns="http://www.w3.org/2000/svg">
<circle cx="15" cy="15.0441" r="12" fill="#FEFFFA"/>
<path d="M66.1863 7.37524L60.3335 29.8377H53.7174L50.1317 15.0555L46.4188 29.8377H39.7911L34.1003 7.37524H39.953L43.1917 23.7305L47.1822 7.37524H53.1969L57.037 23.7305L60.3104 7.37524H66.1863Z" fill="#F9FBF2"/>
<path d="M75.7907 30.0922C74.0383 30.0922 72.4652 29.7221 71.0715 28.9818C69.6748 28.2358 68.5759 27.1659 67.775 25.7779C66.9711 24.3899 66.572 22.7676 66.572 20.9083C66.572 19.075 66.9769 17.4585 67.7865 16.0618C68.602 14.6681 69.7124 13.5952 71.1177 12.8463C72.5289 12.1003 74.1077 11.7243 75.8601 11.7243C77.6009 11.7243 79.1797 12.1003 80.5908 12.8463C82.002 13.5952 83.1124 14.6681 83.922 16.0618C84.7317 17.4585 85.1365 19.075 85.1365 20.9083C85.1365 22.7445 84.723 24.3638 83.8989 25.7663C83.0806 27.163 81.9615 28.2358 80.5446 28.9818C79.1248 29.7221 77.5401 30.0922 75.7907 30.0922ZM75.7907 25.3615C76.8375 25.3615 77.7281 24.9798 78.4626 24.2164C79.1942 23.4472 79.5614 22.3425 79.5614 20.9083C79.5614 19.4827 79.2028 18.3867 78.4857 17.6233C77.7744 16.8542 76.9011 16.4667 75.8601 16.4667C74.7873 16.4667 73.8995 16.8455 73.1997 17.6002C72.4971 18.3578 72.1472 19.4596 72.1472 20.9083C72.1472 22.3425 72.4942 23.4472 73.1882 24.2164C73.8822 24.9798 74.7497 25.3615 75.7907 25.3615Z" fill="#F9FBF2"/>
<path d="M97.6446 11.7937C99.7323 11.7937 101.404 12.4733 102.653 13.8295C103.902 15.1799 104.527 17.0392 104.527 19.4046V29.8378H99.0788V20.1449C99.0788 18.9506 98.7694 18.0253 98.1535 17.3689C97.5347 16.7067 96.7019 16.3741 95.6551 16.3741C94.6141 16.3741 93.7813 16.7067 93.1567 17.3689C92.5379 18.0253 92.2314 18.9506 92.2314 20.1449V29.8378H86.7603V11.9904H92.2314V14.35C92.7866 13.5634 93.5326 12.9446 94.4753 12.4877C95.4151 12.0251 96.4705 11.7937 97.6446 11.7937Z" fill="#F9FBF2"/>
<path d="M105.958 20.8852C105.958 19.0518 106.305 17.4383 106.999 16.0503C107.693 14.6623 108.636 13.5953 109.833 12.8463C111.027 12.1003 112.36 11.7243 113.835 11.7243C115.006 11.7243 116.079 11.973 117.05 12.4646C118.022 12.9591 118.785 13.6213 119.341 14.4541V6.16077H124.812V29.8378H119.341V27.2815C118.823 28.1317 118.091 28.8141 117.143 29.3288C116.194 29.8378 115.09 30.0922 113.835 30.0922C112.36 30.0922 111.027 29.7163 109.833 28.9587C108.636 28.204 107.693 27.1283 106.999 25.7316C106.305 24.3291 105.958 22.7127 105.958 20.8852ZM119.341 20.9083C119.341 19.5434 118.959 18.4677 118.195 17.6812C117.438 16.8946 116.518 16.5014 115.431 16.5014C114.344 16.5014 113.421 16.8918 112.667 17.6696C111.909 18.4417 111.533 19.5145 111.533 20.8852C111.533 22.25 111.909 23.3344 112.667 24.1354C113.421 24.9306 114.344 25.3268 115.431 25.3268C116.518 25.3268 117.438 24.9335 118.195 24.147C118.959 23.3546 119.341 22.2732 119.341 20.9083Z" fill="#F9FBF2"/>
<path d="M144.32 20.6191C144.32 21.1367 144.288 21.6717 144.227 22.2269H131.851C131.934 23.3373 132.29 24.1874 132.915 24.7716C133.545 25.3586 134.32 25.6506 135.24 25.6506C136.605 25.6506 137.553 25.0723 138.085 23.9156H143.903C143.608 25.0896 143.073 26.1451 142.295 27.0849C141.515 28.0276 140.54 28.7621 139.369 29.2941C138.195 29.8262 136.882 30.0922 135.425 30.0922C133.681 30.0922 132.128 29.7221 130.763 28.9818C129.398 28.2358 128.329 27.1659 127.559 25.7779C126.787 24.3899 126.403 22.7676 126.403 20.9083C126.403 19.0576 126.779 17.4383 127.536 16.0503C128.3 14.6623 129.364 13.5952 130.729 12.8463C132.094 12.1003 133.658 11.7243 135.425 11.7243C137.16 11.7243 138.698 12.0916 140.04 12.8232C141.382 13.549 142.428 14.5813 143.186 15.923C143.941 17.2648 144.32 18.8321 144.32 20.6191ZM138.721 19.1848C138.721 18.2451 138.4 17.4961 137.761 16.9409C137.119 16.3857 136.321 16.1081 135.367 16.1081C134.447 16.1081 133.672 16.3799 133.042 16.9178C132.417 17.4498 132.027 18.2075 131.874 19.1848H138.721Z" fill="#F9FBF2"/>
<path d="M151.39 14.963C152.029 13.9856 152.827 13.2135 153.784 12.6497C154.747 12.08 155.82 11.7937 157 11.7937V17.5886H155.496C154.131 17.5886 153.105 17.8836 152.42 18.4677C151.731 19.0547 151.39 20.0842 151.39 21.556V29.8378H145.919V11.9904H151.39V14.963Z" fill="#F9FBF2"/>
<mask id="mask0_209_1143" style="mask-type:luminance" maskUnits="userSpaceOnUse" x="0" y="0" width="30" height="34">
<path d="M0 0H29.3476V33.8297H0V0Z" fill="white"/>
</mask>
<g mask="url(#mask0_209_1143)">
<path d="M15.7741 33.5087C18.1684 32.2826 20.3632 30.7703 22.3613 28.9688C22.8153 28.5639 23.2491 28.1331 23.6626 27.6733L24.1975 27.066C24.4722 26.7682 24.7151 26.4559 24.9783 26.1234C25.2385 25.7879 25.5855 25.3628 25.8284 24.9667C26.401 24.1426 26.9041 23.2808 27.3379 22.3757C27.575 21.8813 27.7948 21.3781 27.9943 20.8663C28.5032 19.5217 28.8416 18.1366 29.0122 16.711C29.0584 16.3148 29.096 15.9215 29.1192 15.5254C29.1943 14.5075 29.1568 13.4925 29.0122 12.4833C28.8011 11.0086 28.3731 9.60035 27.7312 8.25861C27.0892 6.91688 26.2593 5.69948 25.2443 4.61221C24.0761 3.35434 22.7228 2.33936 21.1931 1.5615C19.6605 0.783643 18.0441 0.294951 16.338 0.0925335C16.0662 0.0780753 15.7943 0.0462667 15.5225 0H13.6025C13.6025 0.049159 13.5331 0.0318087 13.4984 0.0375917C13.001 0.0780755 12.5094 0.141692 12.0207 0.231334C11.2313 0.378809 10.4592 0.587009 9.70448 0.861718C8.95265 1.13353 8.22684 1.46608 7.52705 1.85934C6.82727 2.25261 6.16508 2.70082 5.54048 3.20397C4.91588 3.70423 4.33465 4.25654 3.79969 4.85222C3.26473 5.4508 2.78471 6.08986 2.35386 6.76651C1.923 7.44316 1.55286 8.15162 1.24056 8.889C0.928263 9.62637 0.676687 10.3869 0.488729 11.1676C0.30077 11.9455 0.179321 12.7349 0.121487 13.5359C-0.0433384 15.7249 0.26607 17.8474 1.04393 19.9005C1.17406 20.2388 1.32442 20.5713 1.48925 20.8981L1.6107 21.1468C2.38566 22.6852 3.39775 24.0471 4.65273 25.2269C5.97134 26.4819 7.475 27.4506 9.15796 28.136C10.8438 28.8213 12.5962 29.177 14.4179 29.2001C14.5856 29.2001 14.6348 29.2435 14.629 29.4199V32.8523C14.6348 32.9853 14.6724 33.1096 14.7418 33.2224C14.8112 33.3381 14.9037 33.4277 15.0194 33.4942C15.135 33.5636 15.2623 33.5954 15.3953 33.5983C15.5283 33.6012 15.6555 33.5694 15.7741 33.5087ZM15.9794 10.6645C15.9505 10.5025 15.9678 10.3464 16.0372 10.196C16.1037 10.0457 16.2107 9.92711 16.3524 9.84325C16.4681 9.77096 16.5953 9.73626 16.7341 9.73915H22.13C22.61 9.73915 22.8847 10.1642 22.8847 10.7194V17.0956C22.8847 17.5495 22.8182 17.992 22.6852 18.4257C22.5551 18.8595 22.3642 19.2672 22.1126 19.646C21.864 20.0248 21.5632 20.3574 21.2162 20.6494C20.8663 20.9386 20.4846 21.1757 20.0682 21.3521L19.9468 21.4128H19.8427C19.4928 21.5169 19.1371 21.595 18.7785 21.6499C18.7207 21.6673 18.6629 21.6702 18.6022 21.6615C18.5443 21.6499 18.4894 21.6297 18.4402 21.595C18.3911 21.5574 18.3535 21.514 18.3246 21.462C18.2985 21.4099 18.2812 21.3521 18.2783 21.2914C18.2783 21.0976 18.2783 20.9039 18.2783 20.6841V19.6373C18.2783 19.5593 18.2783 19.4841 18.2783 19.406C18.2783 19.14 18.3824 19.0243 18.7178 18.9491C19.1487 18.8739 19.5304 18.6947 19.86 18.4084C20.2504 18.0296 20.4788 17.5727 20.5425 17.0348H16.7573C16.6532 17.0377 16.5491 17.0204 16.4508 16.9799C16.3524 16.9394 16.2657 16.8816 16.1905 16.8064C16.1182 16.7312 16.0604 16.6445 16.0228 16.5461C15.9852 16.4449 15.9678 16.3437 15.9736 16.2367C15.9736 14.3918 15.9736 12.547 15.9736 10.7021C15.9736 10.7021 15.9794 10.676 15.9794 10.6645ZM13.2844 17.0811C13.2873 17.7346 13.1542 18.3563 12.8911 18.952C12.6251 19.5477 12.2492 20.0624 11.7634 20.4962L11.613 20.6407C11.1069 21.0456 10.5431 21.3376 9.92136 21.5169C9.65532 21.5834 9.38351 21.6355 9.11169 21.6702C9.01626 21.6846 8.92951 21.6644 8.84855 21.6123C8.76469 21.5603 8.71264 21.488 8.68661 21.3955C8.68661 20.8085 8.68661 20.2215 8.68661 19.6373C8.68661 19.4667 8.62589 19.2788 8.76469 19.1255C8.8312 19.0503 8.91506 18.9983 9.01337 18.9751C9.32856 18.9173 9.62641 18.8161 9.90979 18.6715C10.4274 18.3679 10.7513 17.9255 10.8814 17.3385L10.9797 17.0348H7.25524C7.14825 17.0377 7.04415 17.029 6.94005 17.003C6.781 16.9597 6.65088 16.8758 6.54678 16.7457C6.44557 16.6155 6.39063 16.4681 6.38774 16.3032C6.38774 14.4352 6.38774 12.5643 6.38774 10.6934C6.32123 10.384 6.40509 10.1208 6.63642 9.90397C6.76654 9.78541 6.9198 9.72469 7.09909 9.7218H12.5296C13.0126 9.7218 13.2786 9.87216 13.2786 10.7021C13.2844 10.8524 13.2959 15.0454 13.2844 17.0811Z" fill="#299AD1"/>
</g>
</svg>
