<svg width="40" height="40" viewBox="0 0 40 40" fill="none" xmlns="http://www.w3.org/2000/svg">
<circle cx="20" cy="20" r="20" fill="#545569"/>
<path d="M28.6667 29.75V27.5833C28.6667 26.4341 28.2101 25.3319 27.3975 24.5192C26.5848 23.7065 25.4826 23.25 24.3333 23.25H15.6667C14.5174 23.25 13.4152 23.7065 12.6025 24.5192C11.7899 25.3319 11.3333 26.4341 11.3333 27.5833V29.75" stroke="#F9FBF2" stroke-width="2" stroke-linecap="round" stroke-linejoin="round"/>
<path d="M20 18.9167C22.3932 18.9167 24.3333 16.9766 24.3333 14.5833C24.3333 12.1901 22.3932 10.25 20 10.25C17.6068 10.25 15.6667 12.1901 15.6667 14.5833C15.6667 16.9766 17.6068 18.9167 20 18.9167Z" stroke="#F9FBF2" stroke-width="2" stroke-linecap="round" stroke-linejoin="round"/>
</svg>
